<svg width="464" height="96" viewBox="0 0 464 96" fill="none" xmlns="http://www.w3.org/2000/svg">
    <path d="M83.5322 69.6075C79.6442 69.6075 76.5459 68.4937 74.2374 66.2662C71.9289 64.0387 70.7747 61.062 70.7747 57.336V38.139C70.7747 34.413 71.9289 31.4565 74.2374 29.2695C76.5459 27.042 79.6442 25.9282 83.5322 25.9282C87.4607 25.9282 90.5994 27.042 92.9484 29.2695C95.2974 31.497 96.4719 34.4535 96.4719 38.139V57.336C96.4719 61.062 95.2974 64.0387 92.9484 66.2662C90.5994 68.4937 87.4607 69.6075 83.5322 69.6075ZM83.5322 65.841C86.1242 65.841 88.2099 65.0917 89.7894 63.5932C91.3689 62.0947 92.1587 60.09 92.1587 57.579V37.9567C92.1587 35.4862 91.3689 33.5017 89.7894 32.0032C88.2504 30.5047 86.1647 29.7555 83.5322 29.7555C80.9807 29.7555 78.9354 30.5047 77.3964 32.0032C75.8574 33.5017 75.0879 35.4862 75.0879 37.9567V57.579C75.0879 60.09 75.8574 62.0947 77.3964 63.5932C78.9354 65.0917 80.9807 65.841 83.5322 65.841ZM131.186 53.3873C131.591 53.3873 131.794 53.5897 131.794 53.9947V56.6677C131.794 57.0727 131.591 57.2752 131.186 57.2752H128.574C128.412 57.2752 128.331 57.3562 128.331 57.5182V68.3925C128.331 68.7975 128.129 69 127.724 69H124.625C124.22 69 124.018 68.7975 124.018 68.3925V57.5182C124.018 57.3562 123.937 57.2752 123.775 57.2752H105.611C105.206 57.2752 105.003 57.0727 105.003 56.6677V54.42C105.003 54.2175 105.064 53.9745 105.185 53.691L117.639 26.9002C117.761 26.6167 117.983 26.475 118.307 26.475H121.527C121.73 26.475 121.871 26.556 121.952 26.718C122.074 26.8395 122.094 27.0015 122.013 27.204L109.924 53.0835C109.883 53.1645 109.883 53.2455 109.924 53.3265C109.964 53.367 110.025 53.3873 110.106 53.3873H123.775C123.937 53.3873 124.018 53.3062 124.018 53.1442V43.3635C124.018 42.9585 124.22 42.756 124.625 42.756H127.724C128.129 42.756 128.331 42.9585 128.331 43.3635V53.1442C128.331 53.3062 128.412 53.3873 128.574 53.3873H131.186ZM162.824 48.8917C163.634 50.8762 164.039 53.2455 164.039 55.9995C164.039 58.227 163.735 60.1912 163.127 61.8922C162.317 64.3222 160.94 66.2055 158.996 67.542C157.093 68.838 154.724 69.486 151.889 69.486C149.054 69.486 146.624 68.757 144.599 67.299C142.574 65.8005 141.176 63.7957 140.407 61.2847C140.042 60.1507 139.82 58.6117 139.739 56.6677C139.739 56.2627 139.941 56.0602 140.346 56.0602H143.444C143.849 56.0602 144.052 56.2627 144.052 56.6677C144.133 57.8422 144.275 58.9357 144.477 59.9482C144.923 61.7302 145.773 63.1477 147.029 64.2007C148.325 65.2132 149.924 65.7195 151.828 65.7195C155.473 65.7195 157.842 64.0995 158.936 60.8595C159.422 59.523 159.665 57.8625 159.665 55.878C159.665 53.448 159.341 51.4635 158.693 49.9245C157.397 47.0085 155.108 45.5505 151.828 45.5505C151.22 45.5505 150.471 45.7732 149.58 46.2187C149.418 46.2997 149.297 46.3402 149.216 46.3402C149.054 46.3402 148.912 46.239 148.79 46.0365L147.211 43.9102C147.008 43.5862 147.029 43.3027 147.272 43.0597L157.964 30.5452C158.085 30.3427 158.045 30.2415 157.842 30.2415H140.711C140.306 30.2415 140.103 30.039 140.103 29.634V27.0825C140.103 26.6775 140.306 26.475 140.711 26.475H163.188C163.593 26.475 163.796 26.6775 163.796 27.0825V30.0592C163.796 30.2617 163.694 30.5047 163.492 30.7882L153.772 42.4522C153.691 42.5332 153.671 42.6142 153.711 42.6952C153.752 42.7357 153.833 42.756 153.954 42.756C158.288 43.0395 161.244 45.0847 162.824 48.8917ZM172.158 51.99C171.753 51.99 171.55 51.7875 171.55 51.3825V48.831C171.55 48.426 171.753 48.2235 172.158 48.2235H190.14C190.545 48.2235 190.747 48.426 190.747 48.831V51.3825C190.747 51.7875 190.545 51.99 190.14 51.99H172.158ZM203.539 64.9297C203.417 65.1322 203.458 65.2335 203.66 65.2335H222.736C223.141 65.2335 223.343 65.436 223.343 65.841V68.3925C223.343 68.7975 223.141 69 222.736 69H198.496C198.091 69 197.889 68.7975 197.889 68.3925V65.841C197.889 65.5575 197.99 65.3145 198.193 65.112C199.57 63.492 202.668 59.685 207.487 53.691L211.983 48.102C215.79 43.2825 217.693 39.5362 217.693 36.8632C217.693 34.7167 216.964 32.9955 215.506 31.6995C214.048 30.4035 212.145 29.7555 209.796 29.7555C207.487 29.7555 205.624 30.4237 204.207 31.7602C202.789 33.0562 202.101 34.7775 202.141 36.924V38.8072C202.141 39.2122 201.939 39.4147 201.534 39.4147H198.375C197.97 39.4147 197.767 39.2122 197.767 38.8072V36.3772C197.848 33.2587 199.003 30.7477 201.23 28.8442C203.498 26.9407 206.353 25.989 209.796 25.989C212.226 25.989 214.372 26.4547 216.235 27.3862C218.098 28.3177 219.536 29.6137 220.549 31.2742C221.561 32.8942 222.067 34.737 222.067 36.8025C222.067 40.245 220.164 44.3962 216.357 49.2562C214.372 51.8077 210.545 56.5057 204.875 63.3502L203.539 64.9297ZM237.324 64.9297C237.202 65.1322 237.243 65.2335 237.445 65.2335H256.521C256.926 65.2335 257.128 65.436 257.128 65.841V68.3925C257.128 68.7975 256.926 69 256.521 69H232.281C231.876 69 231.674 68.7975 231.674 68.3925V65.841C231.674 65.5575 231.775 65.3145 231.978 65.112C233.355 63.492 236.453 59.685 241.272 53.691L245.768 48.102C249.575 43.2825 251.478 39.5362 251.478 36.8632C251.478 34.7167 250.749 32.9955 249.291 31.6995C247.833 30.4035 245.93 29.7555 243.581 29.7555C241.272 29.7555 239.409 30.4237 237.992 31.7602C236.574 33.0562 235.886 34.7775 235.926 36.924V38.8072C235.926 39.2122 235.724 39.4147 235.319 39.4147H232.16C231.755 39.4147 231.552 39.2122 231.552 38.8072V36.3772C231.633 33.2587 232.788 30.7477 235.015 28.8442C237.283 26.9407 240.138 25.989 243.581 25.989C246.011 25.989 248.157 26.4547 250.02 27.3862C251.883 28.3177 253.321 29.6137 254.334 31.2742C255.346 32.8942 255.852 34.737 255.852 36.8025C255.852 40.245 253.949 44.3962 250.142 49.2562C248.157 51.8077 244.33 56.5057 238.66 63.3502L237.324 64.9297ZM288.665 51.1395C289.435 52.8 289.82 54.7845 289.82 57.093C289.82 59.8875 289.232 62.2567 288.058 64.2007C287.086 65.8612 285.709 67.1572 283.927 68.0887C282.145 69.0203 280.079 69.486 277.73 69.486C275.3 69.486 273.174 69.0203 271.352 68.0887C269.529 67.1167 268.132 65.7195 267.16 63.897C266.026 61.872 265.459 59.5837 265.459 57.0322C265.459 54.8857 265.884 52.8607 266.735 50.9572C267.666 48.9322 269.144 47.4135 271.169 46.401C271.372 46.32 271.372 46.2187 271.169 46.0972C269.833 45.3277 268.739 44.295 267.889 42.999C266.674 41.2575 266.066 39.273 266.066 37.0455C266.066 34.7775 266.674 32.712 267.889 30.849C268.861 29.2695 270.197 28.0545 271.898 27.204C273.64 26.313 275.584 25.8675 277.73 25.8675C279.958 25.8675 281.902 26.313 283.562 27.204C285.223 28.0545 286.539 29.2695 287.511 30.849C288.686 32.7525 289.273 34.818 289.273 37.0455C289.273 39.273 288.665 41.298 287.45 43.1205C286.721 44.214 285.648 45.2062 284.231 46.0972C284.028 46.2187 284.028 46.32 284.231 46.401C286.296 47.4135 287.774 48.993 288.665 51.1395ZM271.291 33.4612C270.643 34.6762 270.319 35.871 270.319 37.0455C270.319 38.7465 270.744 40.2247 271.595 41.4802C272.243 42.4927 273.073 43.2622 274.085 43.7887C275.138 44.3152 276.333 44.5785 277.67 44.5785C279.006 44.5785 280.201 44.3152 281.254 43.7887C282.307 43.2217 283.157 42.432 283.805 41.4195C284.575 40.326 284.96 38.8477 284.96 36.9847C284.96 35.6482 284.656 34.4332 284.048 33.3397C283.441 32.2057 282.59 31.3147 281.497 30.6667C280.403 29.9782 279.107 29.634 277.609 29.634C276.191 29.634 274.936 29.9782 273.842 30.6667C272.749 31.3552 271.898 32.2867 271.291 33.4612ZM283.988 62.5605C285 61.0215 285.506 59.0977 285.506 56.7892C285.506 54.8857 285.182 53.2455 284.534 51.8685C283.319 49.1955 281.031 47.859 277.67 47.859C274.47 47.859 272.243 49.1145 270.987 51.6255C270.258 52.9215 269.894 54.663 269.894 56.85C269.894 59.118 270.339 60.9607 271.23 62.3782C272.607 64.6057 274.774 65.7195 277.73 65.7195C280.606 65.7195 282.692 64.6665 283.988 62.5605ZM297.747 51.99C297.342 51.99 297.139 51.7875 297.139 51.3825V48.831C297.139 48.426 297.342 48.2235 297.747 48.2235H315.729C316.134 48.2235 316.336 48.426 316.336 48.831V51.3825C316.336 51.7875 316.134 51.99 315.729 51.99H297.747ZM346.016 48.8917C346.826 50.8762 347.231 53.2455 347.231 55.9995C347.231 58.227 346.927 60.1912 346.32 61.8922C345.51 64.3222 344.133 66.2055 342.189 67.542C340.285 68.838 337.916 69.486 335.081 69.486C332.246 69.486 329.816 68.757 327.791 67.299C325.766 65.8005 324.369 63.7957 323.599 61.2847C323.235 60.1507 323.012 58.6117 322.931 56.6677C322.931 56.2627 323.133 56.0602 323.538 56.0602H326.637C327.042 56.0602 327.244 56.2627 327.244 56.6677C327.325 57.8422 327.467 58.9357 327.669 59.9482C328.115 61.7302 328.965 63.1477 330.221 64.2007C331.517 65.2132 333.117 65.7195 335.02 65.7195C338.665 65.7195 341.034 64.0995 342.128 60.8595C342.614 59.523 342.857 57.8625 342.857 55.878C342.857 53.448 342.533 51.4635 341.885 49.9245C340.589 47.0085 338.301 45.5505 335.02 45.5505C334.413 45.5505 333.663 45.7732 332.772 46.2187C332.61 46.2997 332.489 46.3402 332.408 46.3402C332.246 46.3402 332.104 46.239 331.983 46.0365L330.403 43.9102C330.201 43.5862 330.221 43.3027 330.464 43.0597L341.156 30.5452C341.277 30.3427 341.237 30.2415 341.034 30.2415H323.903C323.498 30.2415 323.295 30.039 323.295 29.634V27.0825C323.295 26.6775 323.498 26.475 323.903 26.475H346.38C346.785 26.475 346.988 26.6775 346.988 27.0825V30.0592C346.988 30.2617 346.887 30.5047 346.684 30.7882L336.964 42.4522C336.883 42.5332 336.863 42.6142 336.903 42.6952C336.944 42.7357 337.025 42.756 337.146 42.756C341.48 43.0395 344.436 45.0847 346.016 48.8917ZM378.496 48.8917C379.306 50.8762 379.711 53.2455 379.711 55.9995C379.711 58.227 379.407 60.1912 378.799 61.8922C377.989 64.3222 376.612 66.2055 374.668 67.542C372.765 68.838 370.396 69.486 367.561 69.486C364.726 69.486 362.296 68.757 360.271 67.299C358.246 65.8005 356.848 63.7957 356.079 61.2847C355.714 60.1507 355.492 58.6117 355.411 56.6677C355.411 56.2627 355.613 56.0602 356.018 56.0602H359.116C359.521 56.0602 359.724 56.2627 359.724 56.6677C359.805 57.8422 359.947 58.9357 360.149 59.9482C360.595 61.7302 361.445 63.1477 362.701 64.2007C363.997 65.2132 365.596 65.7195 367.5 65.7195C371.145 65.7195 373.514 64.0995 374.608 60.8595C375.094 59.523 375.337 57.8625 375.337 55.878C375.337 53.448 375.013 51.4635 374.365 49.9245C373.069 47.0085 370.78 45.5505 367.5 45.5505C366.892 45.5505 366.143 45.7732 365.252 46.2187C365.09 46.2997 364.969 46.3402 364.888 46.3402C364.726 46.3402 364.584 46.239 364.462 46.0365L362.883 43.9102C362.68 43.5862 362.701 43.3027 362.944 43.0597L373.636 30.5452C373.757 30.3427 373.717 30.2415 373.514 30.2415H356.383C355.978 30.2415 355.775 30.039 355.775 29.634V27.0825C355.775 26.6775 355.978 26.475 356.383 26.475H378.86C379.265 26.475 379.468 26.6775 379.468 27.0825V30.0592C379.468 30.2617 379.366 30.5047 379.164 30.7882L369.444 42.4522C369.363 42.5332 369.343 42.6142 369.383 42.6952C369.424 42.7357 369.505 42.756 369.626 42.756C373.96 43.0395 376.916 45.0847 378.496 48.8917ZM410.976 48.8917C411.786 50.8762 412.191 53.2455 412.191 55.9995C412.191 58.227 411.887 60.1912 411.279 61.8922C410.469 64.3222 409.092 66.2055 407.148 67.542C405.245 68.838 402.876 69.486 400.041 69.486C397.206 69.486 394.776 68.757 392.751 67.299C390.726 65.8005 389.328 63.7957 388.559 61.2847C388.194 60.1507 387.972 58.6117 387.891 56.6677C387.891 56.2627 388.093 56.0602 388.498 56.0602H391.596C392.001 56.0602 392.204 56.2627 392.204 56.6677C392.285 57.8422 392.427 58.9357 392.629 59.9482C393.075 61.7302 393.925 63.1477 395.181 64.2007C396.477 65.2132 398.076 65.7195 399.98 65.7195C403.625 65.7195 405.994 64.0995 407.088 60.8595C407.574 59.523 407.817 57.8625 407.817 55.878C407.817 53.448 407.493 51.4635 406.845 49.9245C405.549 47.0085 403.26 45.5505 399.98 45.5505C399.372 45.5505 398.623 45.7732 397.732 46.2187C397.57 46.2997 397.449 46.3402 397.368 46.3402C397.206 46.3402 397.064 46.239 396.942 46.0365L395.363 43.9102C395.16 43.5862 395.181 43.3027 395.424 43.0597L406.116 30.5452C406.237 30.3427 406.197 30.2415 405.994 30.2415H388.863C388.458 30.2415 388.255 30.039 388.255 29.634V27.0825C388.255 26.6775 388.458 26.475 388.863 26.475H411.34C411.745 26.475 411.948 26.6775 411.948 27.0825V30.0592C411.948 30.2617 411.846 30.5047 411.644 30.7882L401.924 42.4522C401.843 42.5332 401.823 42.6142 401.863 42.6952C401.904 42.7357 401.985 42.756 402.106 42.756C406.44 43.0395 409.396 45.0847 410.976 48.8917ZM444.974 50.4105C445.339 52.1925 445.521 54.015 445.521 55.878C445.521 57.8625 445.339 59.5635 444.974 60.981C444.286 63.573 442.909 65.6385 440.843 67.1775C438.778 68.676 436.287 69.4253 433.371 69.4253C430.496 69.4253 428.045 68.6962 426.02 67.2382C423.995 65.7802 422.618 63.8362 421.889 61.4062C421.606 60.5153 421.424 59.6242 421.343 58.7332V58.6117C421.343 58.2877 421.525 58.1257 421.889 58.1257H425.109C425.514 58.1257 425.737 58.3282 425.777 58.7332C425.777 58.9762 425.858 59.3812 426.02 59.9482C426.425 61.6897 427.256 63.087 428.511 64.14C429.807 65.1525 431.407 65.6587 433.31 65.6587C435.254 65.6587 436.874 65.112 438.17 64.0185C439.507 62.925 440.378 61.4265 440.783 59.523C441.026 58.5915 441.147 57.3765 441.147 55.878C441.147 54.501 441.046 53.1847 440.843 51.9292C440.56 50.0662 439.75 48.6487 438.413 47.6767C437.077 46.7047 435.416 46.2187 433.432 46.2187C431.65 46.2187 430.05 46.6237 428.633 47.4337C427.215 48.2437 426.304 49.317 425.899 50.6535C425.777 51.018 425.555 51.2002 425.231 51.2002H421.95C421.545 51.2002 421.343 50.9977 421.343 50.5927V27.0825C421.343 26.6775 421.545 26.475 421.95 26.475H443.213C443.618 26.475 443.82 26.6775 443.82 27.0825V29.634C443.82 30.039 443.618 30.2415 443.213 30.2415H425.899C425.737 30.2415 425.656 30.3225 425.656 30.4845L425.595 45.186C425.595 45.267 425.615 45.3277 425.656 45.3682C425.737 45.4087 425.818 45.3885 425.899 45.3075C426.911 44.376 428.106 43.6672 429.483 43.1812C430.86 42.6547 432.318 42.3915 433.857 42.3915C436.733 42.3915 439.163 43.1002 441.147 44.5177C443.132 45.8947 444.407 47.859 444.974 50.4105Z" fill="#2D83E2"/>
    <g clip-path="url(#clip0_2526_1552)">
        <path d="M12.375 26C11.0963 26.2338 11 27.9525 11.0963 28.915C12.375 52.125 30.25 68.625 52.25 69.9175C53.1438 69.9175 55 69.5875 55 68.625" stroke="#2D83E2" stroke-width="2" stroke-miterlimit="10" stroke-linecap="round"/>
        <path d="M23.8563 43.5728C27.0795 49.2716 31.8014 53.9793 37.51 57.1853" stroke="#2D83E2" stroke-width="2" stroke-miterlimit="10" stroke-linecap="round"/>
        <path d="M55 54.8747L42.6388 52.0972L37.51 57.1847" stroke="#2D83E2" stroke-width="2" stroke-linecap="round" stroke-linejoin="round"/>
        <path d="M26.125 26L28.9025 38.3613L23.87 43.5725" stroke="#2D83E2" stroke-width="2" stroke-linecap="round" stroke-linejoin="round"/>
        <path d="M12.375 26H26.125" stroke="#2D83E2" stroke-width="1.68756" stroke-miterlimit="10" stroke-linecap="round"/>
        <path d="M55 54.875V68.625" stroke="#2D83E2" stroke-width="1.68756" stroke-miterlimit="10" stroke-linecap="round"/>
    </g>
    <defs>
        <clipPath id="clip0_2526_1552">
            <rect width="66" height="66" fill="white" transform="translate(0 15)"/>
        </clipPath>
    </defs>
</svg>
