<svg width="208" height="93" viewBox="0 0 208 93" fill="none" xmlns="http://www.w3.org/2000/svg">
    <g filter="url(#filter0_n_3105_1694)">
        <circle cx="193.013" cy="14.5" r="14.5" fill="url(#paint0_linear_3105_1694)"/>
    </g>
    <path d="M30.7411 56.7471C30.3793 56.7471 30.0702 56.6189 29.814 56.3627C29.5577 56.1064 29.4295 55.7973 29.4295 55.4355C29.4295 55.0737 29.5577 54.7722 29.814 54.5309C30.0702 54.2747 30.3793 54.1465 30.7411 54.1465H38.3619V42.8849H32.1432C31.7813 42.8849 31.4723 42.7643 31.216 42.5231C30.9597 42.2668 30.8316 41.9578 30.8316 41.596C30.8316 41.2342 30.9597 40.9251 31.216 40.6688C31.4723 40.4125 31.7813 40.2844 32.1432 40.2844H47.5204C47.8822 40.2844 48.1913 40.4125 48.4476 40.6688C48.7039 40.9251 48.832 41.2342 48.832 41.596C48.832 41.9578 48.7039 42.2668 48.4476 42.5231C48.1913 42.7643 47.8822 42.8849 47.5204 42.8849H41.3017V54.1465H48.9451C49.3069 54.1465 49.6084 54.2747 49.8496 54.5309C50.1059 54.7722 50.234 55.0737 50.234 55.4355C50.234 55.7973 50.1059 56.1064 49.8496 56.3627C49.6084 56.6189 49.3069 56.7471 48.9451 56.7471H30.7411ZM72.712 58.6014C72.3351 58.6014 72.0185 58.5109 71.7622 58.33C71.521 58.1642 71.3778 57.8928 71.3325 57.5159C71.3024 57.1692 71.3928 56.8677 71.6039 56.6114C71.83 56.3551 72.1089 56.2194 72.4406 56.2044C72.9381 56.1742 73.2773 56.1064 73.4582 56.0008C73.6542 55.8953 73.8049 55.6616 73.9105 55.2998C74.0009 55.0134 74.0914 54.6516 74.1818 54.2144C74.2723 53.7772 74.3477 53.3249 74.408 52.8575C74.4683 52.4656 74.4532 52.1791 74.3627 51.9982C74.2723 51.8173 74.0914 51.6967 73.82 51.6364C73.4733 52.4806 73.0135 53.3249 72.4406 54.1691C71.8828 55.0134 71.2571 55.8048 70.5637 56.5436C69.8853 57.2672 69.1842 57.8853 68.4606 58.3979C68.2043 58.5788 67.9103 58.6692 67.5787 58.6692C67.247 58.6692 66.9756 58.5486 66.7646 58.3074C66.5686 58.0964 66.4706 57.8476 66.4706 57.5612C66.4857 57.2747 66.6063 57.0486 66.8324 56.8828C67.8576 56.0988 68.7772 55.2546 69.5913 54.35C70.4054 53.4455 71.0612 52.5259 71.5587 51.5912H70.541C70.1189 52.36 69.5762 53.1214 68.9129 53.8752C68.2495 54.6139 67.5334 55.2998 66.7646 55.933C65.9957 56.5662 65.2344 57.0787 64.4806 57.4707C64.1942 57.6215 63.8927 57.6592 63.5761 57.5838C63.2745 57.5235 63.0409 57.3501 62.875 57.0637C62.7394 56.8225 62.7092 56.5662 62.7846 56.2948C62.86 56.0084 63.0183 55.7973 63.2595 55.6616C64.1942 55.1792 65.1062 54.5686 65.9957 53.8299C66.8852 53.0912 67.6164 52.345 68.1892 51.5912H66.9681C66.5309 52.0887 66.0636 52.5636 65.5661 53.0158C65.0836 53.453 64.5937 53.8601 64.0962 54.237C63.8399 54.4179 63.5459 54.5008 63.2142 54.4857C62.8826 54.4706 62.6188 54.3425 62.4228 54.1013C62.2569 53.8752 62.1816 53.6189 62.1966 53.3324C62.2268 53.0309 62.3625 52.8048 62.6037 52.654C62.875 52.458 63.1464 52.247 63.4178 52.0208C63.7042 51.7796 63.9831 51.5384 64.2545 51.2972C64.2092 51.3274 64.164 51.3575 64.1188 51.3877C64.0736 51.4178 64.0208 51.448 63.9605 51.4781C63.4931 51.6892 62.9203 51.9379 62.2419 52.2244C61.5635 52.4957 60.8775 52.7595 60.184 53.0158C59.4905 53.2721 58.895 53.4832 58.3975 53.649C58.0207 53.7847 57.6739 53.7621 57.3573 53.5812C57.0558 53.4003 56.8523 53.144 56.7468 52.8123C56.6412 52.4656 56.6638 52.149 56.8146 51.8625C56.9654 51.561 57.2292 51.3575 57.6061 51.252C58.1337 51.1163 58.7443 50.9429 59.4378 50.7319V45.0106H57.787C57.4252 45.0106 57.1387 44.8976 56.9277 44.6714C56.7166 44.4453 56.6111 44.1739 56.6111 43.8573C56.6111 43.5257 56.7166 43.2468 56.9277 43.0206C57.1387 42.7945 57.4252 42.6814 57.787 42.6814H59.4378V39.1989C59.4378 38.807 59.5584 38.5054 59.7996 38.2944C60.0408 38.0682 60.3423 37.9552 60.7041 37.9552C61.066 37.9552 61.3675 38.0682 61.6087 38.2944C61.8499 38.5054 61.9705 38.807 61.9705 39.1989V42.6814H63.463C63.8097 42.6814 64.0886 42.7945 64.2997 43.0206C64.5108 43.2468 64.6163 43.5257 64.6163 43.8573C64.6163 44.1739 64.5108 44.4453 64.2997 44.6714C64.0886 44.8976 63.8097 45.0106 63.463 45.0106H61.9705V49.8725C62.1966 49.7821 62.4152 49.6992 62.6263 49.6238C62.8373 49.5333 63.0409 49.4504 63.2369 49.375C63.5233 49.2544 63.8022 49.2544 64.0736 49.375C64.36 49.4957 64.5484 49.6992 64.6389 49.9856C64.7746 50.4379 64.7218 50.8072 64.4806 51.0937C65.2947 50.3097 65.9957 49.5258 66.5837 48.7419H64.5711C64.2846 48.7419 64.0509 48.6439 63.87 48.4479C63.7042 48.2368 63.6213 47.9956 63.6213 47.7243C63.6213 47.4529 63.7042 47.2192 63.87 47.0232C64.0509 46.8122 64.2846 46.7066 64.5711 46.7066H76.8276C77.1291 46.7066 77.3628 46.8122 77.5287 47.0232C77.7096 47.2192 77.8 47.4529 77.8 47.7243C77.8 47.9956 77.7096 48.2368 77.5287 48.4479C77.3628 48.6439 77.1291 48.7419 76.8276 48.7419H69.0033C68.9129 48.8926 68.8224 49.0509 68.732 49.2168C68.6415 49.3675 68.5435 49.5258 68.438 49.6916H73.8879C74.9582 49.6916 75.7422 49.9253 76.2397 50.3927C76.7372 50.86 76.9256 51.6439 76.805 52.7445C76.6995 54.0108 76.511 55.1566 76.2397 56.1817C76.0286 57.026 75.6366 57.6365 75.0638 58.0134C74.506 58.4054 73.722 58.6014 72.712 58.6014ZM69.6139 45.9152C68.6038 45.9152 67.8123 45.8096 67.2395 45.5986C66.6666 45.3724 66.2595 44.988 66.0183 44.4453C65.7922 43.8875 65.6791 43.1111 65.6791 42.1161C65.6791 41.106 65.7922 40.3296 66.0183 39.7869C66.2595 39.2442 66.6666 38.8673 67.2395 38.6562C67.8123 38.4301 68.6038 38.317 69.6139 38.317H71.536C72.5461 38.317 73.3376 38.4301 73.9105 38.6562C74.4834 38.8673 74.8904 39.2442 75.1316 39.7869C75.3728 40.3296 75.4934 41.106 75.4934 42.1161C75.4934 43.1111 75.3728 43.8875 75.1316 44.4453C74.8904 44.988 74.4834 45.3724 73.9105 45.5986C73.3376 45.8096 72.5461 45.9152 71.536 45.9152H69.6139ZM69.8853 43.9704H71.3099C71.9129 43.9704 72.3351 43.9101 72.5763 43.7895C72.8175 43.6689 72.9607 43.3824 73.0059 42.9302H68.1666C68.2118 43.3824 68.3551 43.6689 68.5963 43.7895C68.8526 43.9101 69.2822 43.9704 69.8853 43.9704ZM68.1666 41.2341H73.0059C72.9456 40.797 72.7949 40.5256 72.5537 40.4201C72.3124 40.2995 71.8979 40.2392 71.3099 40.2392H69.8853C69.2822 40.2392 68.8601 40.2995 68.6189 40.4201C68.3777 40.5256 68.2269 40.797 68.1666 41.2341Z" fill="#0A64C6"/>
    <path d="M103.851 56.9498C103.565 57.191 103.211 57.3116 102.789 57.3116C102.381 57.3267 102.027 57.1684 101.726 56.8367C101.484 56.5503 101.394 56.2261 101.454 55.8643C101.515 55.5025 101.68 55.2236 101.952 55.0276C103.052 54.1834 103.874 53.211 104.417 52.1105C104.959 51.0099 105.231 49.638 105.231 47.9948V47.0224C105.231 45.952 105.487 45.2058 106 44.7837C106.512 44.3615 107.364 44.1505 108.555 44.1505H115.497C116.703 44.1505 117.555 44.3615 118.053 44.7837C118.565 45.2058 118.822 45.952 118.822 47.0224V48.3566C118.822 49.4119 118.565 50.1582 118.053 50.5953C117.555 51.0325 116.703 51.2511 115.497 51.2511H107.447C107.16 52.4271 106.708 53.4974 106.09 54.4623C105.472 55.412 104.726 56.2412 103.851 56.9498ZM103.06 44.8741C102.668 45.0701 102.299 45.1304 101.952 45.055C101.605 44.9796 101.334 44.7837 101.138 44.4671C100.942 44.1354 100.897 43.8037 101.002 43.4721C101.123 43.1253 101.364 42.8766 101.726 42.7258C102.63 42.3037 103.542 41.8288 104.462 41.3012C105.382 40.7584 106.248 40.2082 107.062 39.6504C107.892 39.0775 108.6 38.5423 109.188 38.0448C109.821 37.5171 110.402 37.1704 110.929 37.0046C111.472 36.8387 112.03 36.8463 112.603 37.0272C113.176 37.2081 113.809 37.5699 114.502 38.1126C115.166 38.6101 115.904 39.1152 116.718 39.6278C117.548 40.1403 118.407 40.6227 119.296 41.075C120.186 41.5273 121.053 41.9193 121.897 42.2509C122.289 42.4017 122.568 42.6429 122.734 42.9746C122.9 43.3062 122.9 43.653 122.734 44.0148C122.583 44.3917 122.304 44.648 121.897 44.7837C121.505 44.9193 121.098 44.8967 120.676 44.7158C119.997 44.4143 119.289 44.0676 118.55 43.6756C117.811 43.2836 117.08 42.869 116.357 42.4318C116.342 42.673 116.244 42.8766 116.063 43.0424C115.882 43.2082 115.641 43.2912 115.339 43.2912H108.555C108.238 43.2912 107.99 43.2007 107.809 43.0198C107.628 42.8238 107.53 42.5826 107.515 42.2962C106.776 42.7786 106.022 43.2459 105.253 43.6982C104.5 44.1354 103.768 44.5274 103.06 44.8741ZM110.455 57.696C109.173 57.696 108.269 57.4925 107.741 57.0855C107.228 56.6935 106.972 55.9698 106.972 54.9145C106.972 53.8592 107.228 53.1356 107.741 52.7436C108.269 52.3517 109.173 52.1557 110.455 52.1557H115.475C116.771 52.1557 117.676 52.3517 118.188 52.7436C118.701 53.1356 118.957 53.8592 118.957 54.9145C118.957 55.9698 118.701 56.6935 118.188 57.0855C117.676 57.4925 116.771 57.696 115.475 57.696H110.455ZM110.681 55.6834H115.249C115.671 55.6834 115.95 55.6382 116.085 55.5477C116.236 55.4573 116.311 55.2462 116.311 54.9145C116.311 54.598 116.236 54.3944 116.085 54.304C115.95 54.2135 115.671 54.1683 115.249 54.1683H110.681C110.274 54.1683 109.995 54.2135 109.844 54.304C109.708 54.3944 109.64 54.598 109.64 54.9145C109.64 55.2462 109.708 55.4573 109.844 55.5477C109.995 55.6382 110.274 55.6834 110.681 55.6834ZM107.764 49.4194H115C115.392 49.4194 115.686 49.3591 115.882 49.2385C116.078 49.1179 116.183 48.8692 116.198 48.4923H107.831C107.816 48.643 107.801 48.8013 107.786 48.9672C107.786 49.1179 107.779 49.2687 107.764 49.4194ZM107.831 46.9319H116.198C116.183 46.5551 116.078 46.3063 115.882 46.1857C115.686 46.0651 115.392 46.0048 115 46.0048H109.03C108.653 46.0048 108.367 46.0651 108.171 46.1857C107.975 46.3063 107.861 46.5551 107.831 46.9319ZM109.075 41.2333H114.57C114.193 40.977 113.824 40.7132 113.462 40.4418C113.115 40.1705 112.791 39.9067 112.49 39.6504C112.233 39.4242 112.015 39.3112 111.834 39.3112C111.668 39.3112 111.457 39.4167 111.201 39.6278C110.914 39.869 110.59 40.1253 110.228 40.3966C109.867 40.668 109.482 40.9469 109.075 41.2333ZM141.164 58.1709C140.817 58.1709 140.516 58.0503 140.259 57.8091C140.018 57.583 139.897 57.2814 139.897 56.9045V55.593H134.018C133.686 55.593 133.422 55.4874 133.226 55.2764C133.046 55.0653 132.955 54.8166 132.955 54.5301C132.955 54.2286 133.046 53.9799 133.226 53.7839C133.422 53.5728 133.686 53.4673 134.018 53.4673H139.897V52.6306H139.129C137.953 52.6306 137.041 52.525 136.392 52.314C135.759 52.0878 135.322 51.711 135.081 51.1833C134.84 50.6406 134.719 49.8868 134.719 48.9219C134.719 47.9571 134.84 47.2108 135.081 46.6832C135.322 46.1405 135.759 45.7636 136.392 45.5525C137.041 45.3264 137.953 45.2133 139.129 45.2133H139.897V44.4444H134.719C134.402 44.4444 134.154 44.3465 133.973 44.1505C133.792 43.9545 133.701 43.7133 133.701 43.4268C133.701 43.1404 133.792 42.8992 133.973 42.7032C134.154 42.4921 134.402 42.3866 134.719 42.3866H139.897V41.2333H135.556C134.651 41.2333 134.018 41.3916 133.656 41.7082C133.309 42.0248 133.136 42.6127 133.136 43.4721V45.0776C133.136 46.8867 133.076 48.4847 132.955 49.8717C132.85 51.2436 132.661 52.4949 132.39 53.6256C132.133 54.7412 131.779 55.8266 131.327 56.8819C131.176 57.2136 130.927 57.4397 130.581 57.5603C130.249 57.6809 129.91 57.6734 129.563 57.5377C129.231 57.402 129.013 57.1759 128.907 56.8593C128.802 56.5578 128.817 56.2487 128.952 55.9322C129.375 54.9673 129.706 53.9723 129.947 52.9472C130.204 51.922 130.385 50.7763 130.49 49.5099C130.611 48.2285 130.671 46.736 130.671 45.0324V43.4495C130.671 42.3489 130.829 41.4821 131.146 40.8489C131.463 40.2006 131.968 39.7408 132.661 39.4695C133.37 39.183 134.304 39.0398 135.465 39.0398H138.608V37.9317C138.608 37.5247 138.744 37.2081 139.016 36.982C139.302 36.7407 139.634 36.6201 140.011 36.6201C140.387 36.6201 140.712 36.7407 140.983 36.982C141.269 37.2081 141.413 37.5247 141.413 37.9317V39.0398H148.739C149.071 39.0398 149.335 39.1453 149.531 39.3564C149.727 39.5674 149.825 39.8237 149.825 40.1253C149.825 40.4268 149.727 40.6906 149.531 40.9167C149.335 41.1278 149.071 41.2333 148.739 41.2333H142.43V42.3866H148.264C148.596 42.3866 148.852 42.4921 149.033 42.7032C149.214 42.8992 149.305 43.1404 149.305 43.4268C149.305 43.7133 149.214 43.9545 149.033 44.1505C148.852 44.3465 148.596 44.4444 148.264 44.4444H142.43V45.2133H143.267C144.458 45.2133 145.362 45.3264 145.98 45.5525C146.614 45.7636 147.051 46.1405 147.292 46.6832C147.533 47.2108 147.654 47.9571 147.654 48.9219C147.654 49.8868 147.533 50.6406 147.292 51.1833C147.051 51.711 146.614 52.0878 145.98 52.314C145.362 52.525 144.458 52.6306 143.267 52.6306H142.43V53.4673H148.694C149.026 53.4673 149.282 53.5728 149.463 53.7839C149.659 53.9799 149.757 54.2286 149.757 54.5301C149.757 54.8166 149.659 55.0653 149.463 55.2764C149.282 55.4874 149.026 55.593 148.694 55.593H142.43V56.9045C142.43 57.2814 142.302 57.583 142.046 57.8091C141.805 58.0503 141.511 58.1709 141.164 58.1709ZM142.43 50.7763H143.222C143.855 50.7763 144.3 50.7235 144.556 50.618C144.827 50.4974 144.993 50.226 145.053 49.8039H142.43V50.7763ZM142.43 48.04H145.053C144.993 47.6179 144.827 47.3541 144.556 47.2485C144.284 47.143 143.84 47.0902 143.222 47.0902H142.43V48.04ZM139.151 50.7763H139.897V49.8039H137.342C137.417 50.226 137.583 50.4974 137.84 50.618C138.096 50.7235 138.533 50.7763 139.151 50.7763ZM137.342 48.04H139.897V47.0902H139.151C138.533 47.0902 138.096 47.143 137.84 47.2485C137.583 47.3541 137.417 47.6179 137.342 48.04ZM169.521 55.9322C169.144 56.0226 168.79 55.9698 168.458 55.7739C168.127 55.5779 167.916 55.299 167.825 54.9372C167.735 54.5753 167.788 54.2361 167.984 53.9195C168.18 53.5879 168.458 53.3768 168.82 53.2864C170.494 52.8492 171.722 52.1406 172.506 51.1607C173.305 50.1808 173.705 48.937 173.705 47.4294C173.705 46.4797 173.494 45.6279 173.072 44.8741C172.649 44.1203 172.046 43.5098 171.262 43.0424C170.494 42.5751 169.566 42.2886 168.481 42.1831C168.21 44.7158 167.75 46.9093 167.102 48.7636C166.468 50.6029 165.715 52.0275 164.84 53.0376C163.981 54.0326 163.076 54.5301 162.127 54.5301C161.328 54.5301 160.596 54.2964 159.933 53.8291C159.27 53.3617 158.742 52.6909 158.35 51.8165C157.973 50.9421 157.785 49.8943 157.785 48.6732C157.785 47.4219 158.018 46.2535 158.486 45.1681C158.968 44.0676 159.647 43.1027 160.521 42.2735C161.395 41.4444 162.421 40.7961 163.596 40.3288C164.787 39.8614 166.092 39.6278 167.509 39.6278C169.227 39.6278 170.75 39.9594 172.077 40.6228C173.418 41.271 174.474 42.1831 175.242 43.359C176.011 44.5198 176.396 45.8766 176.396 47.4294C176.396 49.6154 175.808 51.4396 174.632 52.9019C173.471 54.3492 171.768 55.3593 169.521 55.9322ZM162.149 51.7486C162.421 51.7486 162.73 51.5225 163.076 51.0702C163.438 50.6029 163.8 49.9471 164.162 49.1029C164.524 48.2586 164.855 47.2636 165.157 46.1179C165.458 44.957 165.684 43.6756 165.835 42.2735C164.659 42.4997 163.672 42.9369 162.873 43.5851C162.074 44.2183 161.471 44.9796 161.064 45.8691C160.657 46.7435 160.446 47.6631 160.431 48.628C160.431 49.6531 160.589 50.4295 160.905 50.9572C161.237 51.4848 161.652 51.7486 162.149 51.7486Z" fill="#0A64C6"/>
    <path d="M89.4027 50.7319C88.7092 50.7319 88.1212 50.4907 87.6388 50.0082C87.1564 49.5258 86.9152 48.9379 86.9152 48.2444C86.9152 47.5509 87.1564 46.9629 87.6388 46.4805C88.1212 45.9981 88.7092 45.7569 89.4027 45.7569C90.0961 45.7569 90.6841 45.9981 91.1665 46.4805C91.6489 46.9629 91.8902 47.5509 91.8902 48.2444C91.8902 48.9379 91.6489 49.5258 91.1665 50.0082C90.6841 50.4907 90.0961 50.7319 89.4027 50.7319Z" fill="#0A64C6"/>
    <path d="M30.8591 78.9836C30.6048 78.9937 30.3962 78.9378 30.2334 78.8157C30.0808 78.6936 29.9944 78.5156 29.974 78.2816C29.9639 78.0477 30.0249 77.8595 30.1571 77.717C30.2996 77.5644 30.4979 77.4881 30.7523 77.4881C31.0473 77.478 31.383 77.4627 31.7594 77.4424C32.146 77.422 32.5427 77.4017 32.9497 77.3813V76.6794H31.439C31.266 76.6794 31.1134 76.6183 30.9812 76.4963C30.8489 76.364 30.7828 76.2063 30.7828 76.0232C30.7828 75.8401 30.8489 75.6824 30.9812 75.5502C30.798 75.6519 30.6048 75.6875 30.4013 75.657C30.208 75.6163 30.0554 75.4993 29.9435 75.306C29.852 75.1331 29.8367 74.955 29.8977 74.7719C29.9588 74.5786 30.0859 74.4362 30.2792 74.3447C30.6048 74.1717 30.9049 73.9581 31.1795 73.7038C31.4542 73.4494 31.6729 73.19 31.8357 72.9255H30.5386C30.3453 72.9255 30.1826 72.8594 30.0503 72.7271C29.9181 72.5949 29.852 72.4321 29.852 72.2388C29.852 72.0557 29.9181 71.898 30.0503 71.7658C30.1826 71.6335 30.3453 71.5674 30.5386 71.5674H32.9497V70.957H31.2406C31.0676 70.957 30.915 70.8909 30.7828 70.7586C30.6505 70.6264 30.5844 70.4738 30.5844 70.3009C30.5844 70.1177 30.6505 69.9601 30.7828 69.8278C30.915 69.6956 31.0676 69.6294 31.2406 69.6294H32.9497V69.2174C32.9497 68.9631 33.031 68.7647 33.1938 68.6223C33.3566 68.4697 33.5499 68.3934 33.7737 68.3934C34.0077 68.3934 34.2009 68.4697 34.3535 68.6223C34.5163 68.7647 34.5977 68.9631 34.5977 69.2174V69.6294H36.0779C36.2508 69.6294 36.4034 69.6956 36.5357 69.8278C36.6679 69.9601 36.734 70.1177 36.734 70.3009C36.734 70.4738 36.6679 70.6264 36.5357 70.7586C36.4034 70.8909 36.2508 70.957 36.0779 70.957H34.5977V71.5674H36.612C36.8459 71.5674 37.024 71.6539 37.146 71.8268C37.1359 71.8065 37.1308 71.781 37.1308 71.7505C37.1308 71.72 37.1308 71.6946 37.1308 71.6742C37.1308 71.4708 37.202 71.2978 37.3444 71.1554C37.4868 71.013 37.6547 70.9418 37.848 70.9418H38.7788V69.2632C38.7788 69.0292 38.8551 68.841 39.0077 68.6986C39.1603 68.5562 39.3434 68.485 39.5571 68.485C39.7707 68.485 39.9538 68.5562 40.1064 68.6986C40.2692 68.841 40.3506 69.0292 40.3506 69.2632V70.9418H40.5642C41.4289 70.9418 42.0189 71.1045 42.3343 71.4301C42.6497 71.7454 42.7514 72.3253 42.6395 73.1697C42.5683 73.8106 42.5327 74.426 42.5327 75.0161C42.5429 75.5959 42.6039 76.1097 42.7158 76.5573C42.7667 76.7506 42.8328 76.7506 42.9142 76.5573C42.9447 76.4963 42.9701 76.4403 42.9905 76.3894C43.0108 76.3284 43.0413 76.2623 43.082 76.1911C43.1634 75.9876 43.3058 75.8604 43.5093 75.8096C43.7229 75.7485 43.9264 75.7689 44.1197 75.8706C44.3028 75.9622 44.4198 76.0995 44.4707 76.2826C44.5215 76.4657 44.5012 76.6692 44.4096 76.893C44.3384 77.066 44.2418 77.2694 44.1197 77.5034C43.9976 77.7374 43.8755 77.9561 43.7535 78.1596C43.5296 78.5258 43.2702 78.7649 42.9752 78.8768C42.6904 78.9887 42.4157 78.9734 42.1512 78.831C41.8867 78.6886 41.6731 78.4241 41.5103 78.0375C41.3475 77.6306 41.2254 77.1422 41.1441 76.5726C41.1135 76.7353 41.0474 76.8727 40.9457 76.9846C40.8033 77.1473 40.6201 77.2338 40.3963 77.244C40.1725 77.2542 39.9792 77.1829 39.8165 77.0303C39.7046 76.9083 39.5621 76.7811 39.3892 76.6489C38.9925 77.4525 38.4635 78.1545 37.8022 78.7547C37.6293 78.9174 37.4207 79.0039 37.1766 79.0141C36.9426 79.0141 36.7391 78.9327 36.5662 78.7699C36.4746 78.658 36.4136 78.5461 36.3831 78.4342C36.3525 78.4444 36.3169 78.4546 36.2762 78.4647C36.2457 78.4749 36.2101 78.4851 36.1694 78.4953C35.6709 78.5461 35.1013 78.6072 34.4604 78.6784C33.8296 78.7394 33.1938 78.8005 32.5529 78.8615C31.9222 78.9124 31.3576 78.9531 30.8591 78.9836ZM43.1431 82.3712C42.9498 82.5035 42.7311 82.5492 42.4869 82.5085C42.2529 82.478 42.0647 82.361 41.9223 82.1576C41.8206 81.9948 41.6781 81.7812 41.495 81.5167C41.3119 81.2522 41.1186 80.9928 40.9152 80.7384C40.7219 80.4739 40.5591 80.2603 40.4269 80.0975C40.2946 79.9246 40.2387 79.7313 40.259 79.5177C40.2895 79.304 40.3862 79.1311 40.5489 78.9988C40.7321 78.8564 40.9304 78.7954 41.1441 78.8157C41.3679 78.8259 41.5612 78.9124 41.7239 79.0751C41.8867 79.2481 42.0698 79.4668 42.2733 79.7313C42.4869 79.9856 42.6904 80.2399 42.8837 80.4943C43.0871 80.7486 43.2448 80.9622 43.3567 81.1352C43.4991 81.3386 43.55 81.5574 43.5093 81.7913C43.4788 82.0253 43.3567 82.2186 43.1431 82.3712ZM30.4776 82.4017C30.2945 82.239 30.2029 82.0355 30.2029 81.7913C30.2029 81.5574 30.2843 81.3539 30.4471 81.181C30.5895 81.0385 30.7472 80.8554 30.9201 80.6316C31.1032 80.4078 31.2813 80.184 31.4542 79.9602C31.6272 79.7262 31.7645 79.538 31.8662 79.3956C32.0086 79.1921 32.1968 79.07 32.4308 79.0294C32.675 78.9887 32.8937 79.0395 33.087 79.1819C33.2803 79.3142 33.3973 79.4922 33.438 79.716C33.4888 79.9297 33.4481 80.1382 33.3159 80.3417C33.1938 80.535 33.0412 80.7537 32.8581 80.9978C32.6852 81.242 32.502 81.4811 32.3087 81.715C32.1256 81.949 31.9578 82.1474 31.8052 82.3102C31.6221 82.5035 31.4033 82.6103 31.149 82.6306C30.9049 82.651 30.6811 82.5747 30.4776 82.4017ZM38.9772 82.5543C38.7229 82.6154 38.494 82.5899 38.2905 82.478C38.0871 82.3763 37.9599 82.1983 37.909 81.9439C37.8785 81.7913 37.8327 81.593 37.7717 81.3488C37.7208 81.1047 37.6649 80.8605 37.6038 80.6164C37.5428 80.3722 37.4919 80.1789 37.4512 80.0365C37.38 79.7822 37.4055 79.5634 37.5275 79.3803C37.6496 79.1972 37.8226 79.0802 38.0464 79.0294C38.2803 78.9581 38.4991 78.9734 38.7025 79.0751C38.906 79.1769 39.0484 79.3549 39.1298 79.6092C39.1807 79.7618 39.2366 79.9602 39.2976 80.2043C39.3587 80.4485 39.4197 80.6927 39.4808 80.9368C39.552 81.1708 39.6028 81.3692 39.6334 81.5319C39.6842 81.7863 39.6486 82.005 39.5265 82.1881C39.4045 82.3814 39.2214 82.5035 38.9772 82.5543ZM35.7879 82.6917C35.5234 82.7425 35.2945 82.7069 35.1013 82.5848C34.908 82.4628 34.7961 82.2847 34.7655 82.0508C34.7452 81.8982 34.7147 81.6947 34.674 81.4404C34.6333 81.186 34.5875 80.9317 34.5367 80.6774C34.496 80.4231 34.4604 80.2298 34.4298 80.0975C34.379 79.8432 34.4197 79.6296 34.5519 79.4566C34.6842 79.2735 34.8622 79.1616 35.086 79.1209C35.3302 79.07 35.5489 79.1057 35.7422 79.2277C35.9456 79.3396 36.0779 79.5227 36.1389 79.7771C36.1694 79.9195 36.205 80.1179 36.2457 80.3722C36.2966 80.6265 36.3475 80.8809 36.3983 81.1352C36.4492 81.3793 36.4848 81.5777 36.5051 81.7303C36.5458 81.9745 36.5001 82.183 36.3678 82.3559C36.2356 82.5289 36.0423 82.6408 35.7879 82.6917ZM36.7646 77.5644C37.3444 77.0253 37.7971 76.3793 38.1227 75.6265C37.9904 75.5146 37.8582 75.4128 37.7259 75.3213C37.6038 75.2297 37.497 75.1534 37.4055 75.0924C37.3037 75.011 37.2274 74.9143 37.1766 74.8024C37.1257 74.6905 37.1054 74.5786 37.1155 74.4667C36.8103 74.833 36.2813 75.0161 35.5285 75.0161C35.1318 75.0161 34.8215 74.9805 34.5977 74.9093V75.367H36.0321C36.2152 75.367 36.3678 75.4332 36.4899 75.5654C36.6221 75.6875 36.6883 75.8401 36.6883 76.0232C36.6883 76.2063 36.6221 76.364 36.4899 76.4963C36.3678 76.6183 36.2152 76.6794 36.0321 76.6794H34.5977V77.2592C34.8825 77.2389 35.147 77.2185 35.3912 77.1982C35.6455 77.1779 35.8795 77.1626 36.0931 77.1524C36.439 77.1321 36.6628 77.2694 36.7646 77.5644ZM41.083 76.1453C40.9915 75.1992 41.0067 74.2175 41.1288 73.2002C41.1593 72.8746 41.1339 72.6661 41.0525 72.5745C40.9711 72.4728 40.7626 72.4219 40.4269 72.4219H40.3353C40.315 72.9204 40.2743 73.3935 40.2132 73.8411C40.1522 74.2887 40.0657 74.7109 39.9538 75.1076C40.1369 75.2399 40.3048 75.3721 40.4574 75.5044C40.6201 75.6265 40.7524 75.7282 40.8541 75.8096C40.9559 75.9011 41.0322 76.013 41.083 76.1453ZM31.2864 75.3823C31.3067 75.3721 31.3321 75.367 31.3627 75.367C31.3932 75.367 31.4186 75.367 31.439 75.367H32.9497V75.0008C32.9497 74.7465 33.031 74.5481 33.1938 74.4057C33.3566 74.2531 33.5499 74.1768 33.7737 74.1768H33.8957C33.8551 74.0445 33.8347 73.8665 33.8347 73.6427V72.9255H33.3464C33.1633 73.424 32.8937 73.8869 32.5376 74.3141C32.1918 74.7312 31.7747 75.0873 31.2864 75.3823ZM38.5804 74.1005C38.6313 73.836 38.6669 73.5664 38.6873 73.2917C38.7178 73.0069 38.7381 72.717 38.7483 72.4219H37.848C37.7361 72.4219 37.6293 72.3965 37.5275 72.3456C37.436 72.2846 37.3546 72.2134 37.2834 72.132C37.2834 72.1422 37.2834 72.1574 37.2834 72.1778C37.2936 72.1981 37.2986 72.2185 37.2986 72.2388C37.2986 72.4016 37.2478 72.544 37.146 72.6661C37.0443 72.7882 36.9222 72.8696 36.7798 72.9103C36.8205 72.9103 36.8561 72.9103 36.8866 72.9103C36.9273 72.9103 36.9629 72.9204 36.9934 72.9408C37.1867 73.0018 37.3241 73.1137 37.4055 73.2765C37.4868 73.4291 37.5021 73.5918 37.4512 73.7648C37.4411 73.7953 37.4309 73.8258 37.4207 73.8563C37.4207 73.8869 37.4105 73.9174 37.3902 73.9479C37.5224 73.836 37.6649 73.78 37.8175 73.78C37.9802 73.7699 38.1277 73.8055 38.26 73.8869C38.3109 73.9174 38.3617 73.9479 38.4126 73.9784C38.4635 74.0089 38.5194 74.0496 38.5804 74.1005ZM35.6659 73.7495C35.8083 73.7495 35.91 73.7241 35.9711 73.6732C36.0321 73.6122 36.088 73.4901 36.1389 73.307C36.1694 73.2053 36.2254 73.1239 36.3068 73.0628C36.3983 73.0018 36.495 72.956 36.5967 72.9255H35.2539V73.3986C35.2539 73.5308 35.2793 73.6224 35.3302 73.6732C35.3912 73.7241 35.5031 73.7495 35.6659 73.7495ZM55.9764 82.5543C55.6916 82.5543 55.4627 82.478 55.2897 82.3254C55.1168 82.183 55.0303 81.9745 55.0303 81.6998V77.6407H52.9245C52.1005 77.6407 51.4392 77.5543 50.9407 77.3813C50.4423 77.2084 50.0811 76.8981 49.8573 76.4505C49.6335 76.0029 49.5216 75.3772 49.5216 74.5735C49.5216 73.7495 49.6335 73.1188 49.8573 72.6814C50.0913 72.2337 50.4575 71.9285 50.956 71.7658C51.4545 71.5928 52.1106 71.5064 52.9245 71.5064H55.0303V69.4311C55.0303 69.1564 55.1168 68.9478 55.2897 68.8054C55.4627 68.663 55.6916 68.5918 55.9764 68.5918C56.2714 68.5918 56.5003 68.663 56.6631 68.8054C56.8259 68.9478 56.9072 69.1564 56.9072 69.4311V71.5064H59.0436C59.8574 71.5064 60.5136 71.5928 61.0121 71.7658C61.5106 71.9285 61.8717 72.2337 62.0955 72.6814C62.3295 73.1188 62.4465 73.7495 62.4465 74.5735C62.4465 75.3772 62.3295 76.0029 62.0955 76.4505C61.8615 76.8981 61.4953 77.2084 60.9968 77.3813C60.4983 77.5543 59.8473 77.6407 59.0436 77.6407H56.9072V81.6998C56.9072 81.9745 56.8259 82.183 56.6631 82.3254C56.5003 82.478 56.2714 82.5543 55.9764 82.5543ZM56.9072 75.9622H59.0436C59.4302 75.9622 59.7303 75.9317 59.9439 75.8706C60.1677 75.7994 60.3254 75.6672 60.4169 75.4739C60.5187 75.2704 60.5695 74.9703 60.5695 74.5735C60.5695 74.1565 60.5238 73.8513 60.4322 73.658C60.3508 73.4647 60.1982 73.3375 59.9744 73.2765C59.7506 73.2154 59.4403 73.1849 59.0436 73.1849H56.9072V75.9622ZM52.9245 75.9622H55.0303V73.1849H52.9245C52.5379 73.1849 52.2327 73.2154 52.0089 73.2765C51.7851 73.3375 51.6274 73.4647 51.5359 73.658C51.4443 73.8513 51.3985 74.1565 51.3985 74.5735C51.3985 74.9703 51.4392 75.2704 51.5206 75.4739C51.6122 75.6672 51.7648 75.7994 51.9784 75.8706C52.2022 75.9317 52.5176 75.9622 52.9245 75.9622ZM71.8617 82.3407C71.6277 82.3407 71.4395 82.2644 71.297 82.1118C71.1648 81.9592 71.0987 81.7761 71.0987 81.5624C71.0987 81.3488 71.1648 81.1708 71.297 81.0284C71.4395 80.8758 71.6277 80.7995 71.8617 80.7995H73.0519V76.2521C73.0519 75.9978 73.1333 75.7943 73.2961 75.6417C73.469 75.4891 73.6674 75.4128 73.8912 75.4128C74.1252 75.4128 74.3235 75.4891 74.4863 75.6417C74.6491 75.7943 74.7305 75.9978 74.7305 76.2521V80.7995H76.0275V74.5125H73.235C73.0112 74.5125 72.8281 74.4413 72.6857 74.2989C72.5433 74.1463 72.472 73.9632 72.472 73.7495C72.472 73.5359 72.5433 73.3528 72.6857 73.2002C72.8281 73.0476 73.0112 72.9713 73.235 72.9713H80.8648C81.0988 72.9713 81.2819 73.0476 81.4142 73.2002C81.5566 73.3528 81.6278 73.5359 81.6278 73.7495C81.6278 73.9632 81.5566 74.1463 81.4142 74.2989C81.2819 74.4413 81.0988 74.5125 80.8648 74.5125H77.6908V76.5878H80.2392C80.4833 76.5878 80.6766 76.6641 80.819 76.8167C80.9615 76.9693 81.0327 77.1575 81.0327 77.3813C81.0327 77.6051 80.9615 77.7933 80.819 77.9459C80.6766 78.0985 80.4833 78.1748 80.2392 78.1748H77.6908V80.7995H81.2768C81.5108 80.7995 81.6939 80.8758 81.8262 81.0284C81.9686 81.1708 82.0398 81.3488 82.0398 81.5624C82.0398 81.7761 81.9686 81.9592 81.8262 82.1118C81.6939 82.2644 81.5108 82.3407 81.2768 82.3407H71.8617ZM68.7334 82.3865C68.53 82.2339 68.4181 82.0457 68.3977 81.8219C68.3876 81.5981 68.4486 81.3946 68.5808 81.2115C68.9776 80.6418 69.3031 80.0212 69.5575 79.3498C69.822 78.6784 70.0152 77.9154 70.1373 77.0609C69.9542 77.1422 69.7762 77.2236 69.6032 77.305C69.4303 77.3864 69.2777 77.4576 69.1454 77.5187C68.9013 77.6204 68.6622 77.6306 68.4282 77.5492C68.2044 77.4576 68.0518 77.2847 67.9705 77.0303C67.8789 76.7658 67.8891 76.537 68.001 76.3437C68.1129 76.1402 68.2909 75.9978 68.5351 75.9164C68.647 75.8757 68.8046 75.8197 69.0081 75.7485C69.2217 75.6672 69.4455 75.5807 69.6795 75.4891C69.9135 75.3976 70.117 75.3213 70.2899 75.2602V74.2531C70.2492 74.304 70.2034 74.3548 70.1526 74.4057C70.1017 74.4566 70.0407 74.4972 69.9695 74.5278C69.7558 74.6498 69.5524 74.6753 69.3591 74.6041C69.1658 74.5227 69.0132 74.3853 68.9013 74.1921C68.7996 73.9886 68.6571 73.7546 68.474 73.4901C68.2909 73.2256 68.1434 72.9967 68.0315 72.8034C67.9196 72.5898 67.8992 72.3863 67.9705 72.193C68.0417 71.9896 68.1739 71.837 68.3672 71.7353C68.5808 71.6234 68.7945 71.5928 69.0081 71.6437C69.2217 71.6946 69.3896 71.8268 69.5117 72.0405C69.6236 72.2236 69.7558 72.4525 69.9084 72.7271C70.0712 72.9916 70.1984 73.2104 70.2899 73.3833V73.2765C70.2899 72.5338 70.3916 71.9438 70.5951 71.5064C70.8087 71.0689 71.1445 70.7536 71.6022 70.5603C72.0702 70.367 72.6908 70.2703 73.4639 70.2703H74.9594V69.37C74.9594 69.0852 75.0509 68.8665 75.234 68.7139C75.4273 68.5511 75.6511 68.4697 75.9055 68.4697C76.17 68.4697 76.3938 68.5511 76.5769 68.7139C76.7702 68.8665 76.8668 69.0852 76.8668 69.37V70.2703H81.3989C81.6329 70.2703 81.816 70.3466 81.9483 70.4992C82.0805 70.6417 82.1466 70.8146 82.1466 71.0181C82.1466 71.2215 82.0805 71.3995 81.9483 71.5521C81.816 71.6946 81.6329 71.7658 81.3989 71.7658H73.5555C72.9349 71.7658 72.5076 71.8777 72.2737 72.1015C72.0397 72.3151 71.9227 72.7068 71.9227 73.2765V74.5735C71.9227 76.2114 71.7599 77.656 71.4344 78.9073C71.119 80.1484 70.6409 81.2267 70 82.1423C69.8677 82.3458 69.6744 82.4729 69.4201 82.5238C69.176 82.5747 68.9471 82.5289 68.7334 82.3865ZM96.9484 82.5543C96.6636 82.5543 96.4296 82.4628 96.2465 82.2797C96.0736 82.1067 95.982 81.888 95.9718 81.6235C95.9617 81.3692 96.038 81.1504 96.2007 80.9673C96.3635 80.7842 96.5873 80.6825 96.8722 80.6621C97.2892 80.6316 97.5537 80.5706 97.6657 80.479C97.7877 80.3773 97.8488 80.1637 97.8488 79.8381V74.2684H95.0715C94.8274 74.2684 94.629 74.1921 94.4764 74.0395C94.334 73.8869 94.2628 73.6987 94.2628 73.4749C94.2628 73.2612 94.3289 73.0781 94.4611 72.9255C94.3696 72.9662 94.2526 72.9865 94.1102 72.9865H93.5761C93.4337 73.719 93.2404 74.4362 92.9962 75.1382C92.7521 75.8401 92.457 76.5217 92.1112 77.1829C92.4977 77.6509 92.864 78.1189 93.2098 78.5868C93.5557 79.0548 93.866 79.4973 94.1407 79.9144C94.2933 80.1484 94.3492 80.3875 94.3085 80.6316C94.278 80.8656 94.1458 81.0589 93.9118 81.2115C93.688 81.3641 93.4489 81.42 93.1946 81.3793C92.9504 81.3285 92.7571 81.186 92.6147 80.9521C92.1976 80.2705 91.7042 79.5533 91.1345 78.8005C90.3512 79.9398 89.4204 80.9266 88.342 81.7608C88.1386 81.9236 87.9046 81.9999 87.6401 81.9897C87.3858 81.9795 87.1721 81.8626 86.9992 81.6387C86.8568 81.4658 86.7957 81.2623 86.8161 81.0284C86.8466 80.7944 86.9534 80.6113 87.1365 80.479C88.2556 79.6753 89.2169 78.6529 90.0206 77.4118C89.6544 76.9947 89.2881 76.5929 88.9219 76.2063C88.5557 75.8197 88.2047 75.4739 87.869 75.1687C87.696 75.0059 87.6147 74.8126 87.6248 74.5888C87.635 74.365 87.7062 74.1819 87.8385 74.0395C87.9911 73.8767 88.1793 73.7851 88.4031 73.7648C88.6269 73.7444 88.8354 73.8157 89.0287 73.9784C89.3339 74.2328 89.6442 74.5125 89.9595 74.8177C90.2749 75.1229 90.5903 75.4484 90.9056 75.7943C91.1091 75.3467 91.2871 74.894 91.4397 74.4362C91.6025 73.9682 91.7347 73.485 91.8365 72.9865H87.7622C87.5384 72.9865 87.3552 72.9103 87.2128 72.7577C87.0704 72.5949 86.9992 72.4016 86.9992 72.1778C86.9992 71.954 87.0704 71.7658 87.2128 71.6132C87.3552 71.4606 87.5485 71.3843 87.7927 71.3843H90.1274V69.5837C90.1274 69.2988 90.219 69.0699 90.4021 68.897C90.5954 68.724 90.8192 68.6376 91.0735 68.6376C91.338 68.6376 91.5618 68.724 91.7449 68.897C91.9382 69.0699 92.0349 69.2988 92.0349 69.5837V71.3843H94.1407C94.3848 71.3843 94.5781 71.4606 94.7205 71.6132C94.8731 71.7658 94.9494 71.954 94.9494 72.1778C94.9494 72.3914 94.8833 72.5745 94.7511 72.7271C94.8324 72.6864 94.9393 72.6661 95.0715 72.6661H97.8488V69.5226C97.8488 69.2581 97.9352 69.0445 98.1082 68.8817C98.2811 68.7189 98.4897 68.6376 98.7338 68.6376C98.978 68.6376 99.1865 68.7189 99.3595 68.8817C99.5324 69.0445 99.6189 69.2581 99.6189 69.5226V72.6661H100.672C100.916 72.6661 101.109 72.7475 101.252 72.9103C101.394 73.0628 101.465 73.251 101.465 73.4749C101.465 73.6987 101.394 73.8869 101.252 74.0395C101.109 74.1921 100.916 74.2684 100.672 74.2684H99.6189V80.1433C99.6189 80.7435 99.5375 81.2217 99.3747 81.5777C99.212 81.9338 98.9373 82.183 98.5507 82.3254C98.1641 82.478 97.63 82.5543 96.9484 82.5543ZM96.4144 78.4037C96.2007 78.5258 95.9769 78.5665 95.7429 78.5258C95.509 78.4749 95.336 78.3478 95.2241 78.1443C95.1326 77.9714 95.0105 77.773 94.8579 77.5492C94.7053 77.3152 94.5527 77.0812 94.4001 76.8472C94.2475 76.6132 94.1102 76.42 93.9881 76.2674C93.8558 76.0842 93.805 75.8808 93.8355 75.657C93.8762 75.4332 93.9932 75.2551 94.1865 75.1229C94.3899 74.9805 94.6036 74.9245 94.8274 74.955C95.0613 74.9856 95.2495 75.0924 95.392 75.2755C95.5242 75.4281 95.6717 75.6265 95.8345 75.8706C96.0074 76.1046 96.1702 76.3437 96.3228 76.5878C96.4856 76.8218 96.6127 77.0151 96.7043 77.1677C96.8467 77.3813 96.8925 77.6051 96.8416 77.8391C96.7908 78.0731 96.6483 78.2613 96.4144 78.4037ZM113.2 82.8137C112.966 82.8137 112.762 82.7324 112.59 82.5696C112.427 82.417 112.345 82.2135 112.345 81.9592V79.1667C111.643 79.7567 110.88 80.3213 110.056 80.8605C109.232 81.3895 108.434 81.832 107.661 82.1881C107.386 82.3102 107.132 82.3458 106.898 82.2949C106.664 82.2542 106.481 82.1118 106.348 81.8676C106.236 81.6337 106.226 81.4048 106.318 81.181C106.42 80.947 106.598 80.774 106.852 80.6621C107.269 80.4892 107.722 80.2705 108.21 80.006C108.709 79.7415 109.212 79.4515 109.721 79.1362C110.24 78.8106 110.723 78.4851 111.17 78.1596C111.628 77.8238 112.02 77.5034 112.345 77.1982V76.7252H110.514C110.107 76.7252 109.833 76.7811 109.69 76.893C109.558 76.9947 109.492 77.2185 109.492 77.5644V78.5105C109.492 78.775 109.405 78.9887 109.232 79.1514C109.07 79.3142 108.866 79.3956 108.622 79.3956C108.378 79.3956 108.169 79.3142 107.996 79.1514C107.834 78.9887 107.752 78.775 107.752 78.5105V77.5644C107.752 76.9744 107.829 76.5166 107.981 76.1911C108.144 75.8554 108.424 75.6214 108.82 75.4891C109.227 75.3467 109.792 75.2755 110.514 75.2755H112.345V74.5583H107.005C106.801 74.5583 106.623 74.4871 106.47 74.3447C106.328 74.1921 106.257 74.014 106.257 73.8106C106.257 73.6071 106.328 73.4342 106.47 73.2917C106.623 73.1391 106.801 73.0628 107.005 73.0628H112.345V72.7577C112.345 72.5847 112.386 72.4321 112.467 72.2999C112.366 72.015 112.412 71.7505 112.605 71.5064C112.788 71.2927 112.976 71.0181 113.169 70.6823C113.373 70.3466 113.566 70.0058 113.749 69.66C113.932 69.3141 114.08 69.0191 114.192 68.7749C114.304 68.5409 114.482 68.3934 114.726 68.3324C114.97 68.2713 115.204 68.2968 115.428 68.4087C115.652 68.5206 115.784 68.6884 115.825 68.9122C115.875 69.1259 115.85 69.3395 115.748 69.5531C115.738 69.5938 115.718 69.6345 115.687 69.6752C115.667 69.7159 115.647 69.7617 115.626 69.8126H119.426C119.619 69.8126 119.782 69.8838 119.914 70.0262C120.057 70.1584 120.128 70.3212 120.128 70.5145C120.128 70.7078 120.057 70.8705 119.914 71.0028C119.782 71.135 119.619 71.2012 119.426 71.2012H117.564C117.605 71.3029 117.646 71.4046 117.686 71.5064C117.727 71.5979 117.757 71.6793 117.778 71.7505C117.859 71.9438 117.849 72.1473 117.747 72.3609C117.656 72.5644 117.493 72.7068 117.259 72.7882C117.056 72.8594 116.847 72.8645 116.633 72.8034C116.42 72.7322 116.277 72.5898 116.206 72.3762C116.165 72.2541 116.099 72.071 116.008 71.8268C115.916 71.5725 115.845 71.3639 115.794 71.2012H114.863C114.731 71.425 114.599 71.6335 114.466 71.8268C114.344 72.0201 114.227 72.188 114.116 72.3304C114.105 72.3507 114.09 72.3762 114.07 72.4067C114.049 72.427 114.029 72.4474 114.009 72.4677C114.039 72.5593 114.054 72.6559 114.054 72.7577V73.0628H119.411C119.614 73.0628 119.787 73.1391 119.929 73.2917C120.082 73.4342 120.158 73.6071 120.158 73.8106C120.158 74.014 120.082 74.1921 119.929 74.3447C119.787 74.4871 119.614 74.5583 119.411 74.5583H114.054V75.2755H116.069C116.761 75.2755 117.3 75.3365 117.686 75.4586C118.073 75.5807 118.342 75.7892 118.495 76.0842C118.658 76.3793 118.739 76.7811 118.739 77.2898C118.739 77.9714 118.597 78.4647 118.312 78.7699C118.027 79.0751 117.605 79.2582 117.045 79.3193C117.951 79.8788 118.81 80.3315 119.624 80.6774C119.879 80.7791 120.046 80.9419 120.128 81.1657C120.209 81.3793 120.194 81.5981 120.082 81.8219C119.95 82.0762 119.762 82.2288 119.517 82.2797C119.273 82.3305 119.029 82.3 118.785 82.1881C117.971 81.832 117.147 81.3844 116.313 80.8452C115.489 80.3061 114.736 79.7415 114.054 79.1514V81.9592C114.054 82.2135 113.968 82.417 113.795 82.5696C113.632 82.7324 113.434 82.8137 113.2 82.8137ZM110.85 72.7882C110.646 72.8594 110.438 72.8645 110.224 72.8034C110.011 72.7322 109.868 72.5898 109.797 72.3762C109.756 72.2541 109.69 72.071 109.599 71.8268C109.507 71.5725 109.436 71.3639 109.385 71.2012H108.607C108.332 71.659 108.088 72.0303 107.874 72.3151C107.712 72.5288 107.508 72.6661 107.264 72.7271C107.03 72.7882 106.806 72.7526 106.593 72.6203C106.399 72.4982 106.282 72.3253 106.242 72.1015C106.211 71.8675 106.267 71.664 106.409 71.4911C106.582 71.2775 106.771 71.0028 106.974 70.6671C107.188 70.3314 107.391 69.9957 107.584 69.66C107.778 69.3141 107.925 69.0292 108.027 68.8054C108.139 68.5714 108.302 68.4188 108.515 68.3476C108.729 68.2662 108.948 68.2764 109.171 68.3781C109.385 68.4595 109.533 68.602 109.614 68.8054C109.705 69.0089 109.7 69.2123 109.599 69.4158C109.538 69.5481 109.472 69.6803 109.4 69.8126H112.467C112.661 69.8126 112.824 69.8838 112.956 70.0262C113.088 70.1584 113.154 70.3212 113.154 70.5145C113.154 70.7078 113.088 70.8705 112.956 71.0028C112.824 71.135 112.661 71.2012 112.467 71.2012H111.155C111.196 71.3029 111.237 71.4046 111.277 71.5064C111.318 71.5979 111.348 71.6793 111.369 71.7505C111.45 71.9438 111.44 72.1473 111.338 72.3609C111.247 72.5644 111.084 72.7068 110.85 72.7882ZM115.703 78.4342C115.723 78.2613 115.799 78.1138 115.931 77.9917C116.064 77.8595 116.226 77.7781 116.42 77.7475C116.644 77.717 116.786 77.6662 116.847 77.595C116.908 77.5237 116.939 77.4067 116.939 77.244C116.939 77.0405 116.893 76.9032 116.801 76.832C116.71 76.7608 116.516 76.7252 116.221 76.7252H114.054V77.1219C114.288 77.3457 114.543 77.5695 114.817 77.7933C115.102 78.007 115.397 78.2206 115.703 78.4342Z" fill="#0A64C6"/>
    <path d="M131.573 82.6938C131.32 82.804 131.061 82.8095 130.797 82.7104C130.533 82.6223 130.34 82.4515 130.219 82.1982C130.109 81.9449 130.098 81.6861 130.186 81.4218C130.285 81.1465 130.461 80.9537 130.714 80.8436C131.959 80.2599 132.878 79.4724 133.473 78.4812C134.068 77.49 134.382 76.2125 134.415 74.6486H131.904C131.915 75.0891 131.92 75.5076 131.92 75.9041C131.92 76.3006 131.909 76.6585 131.887 76.9779C131.876 77.2643 131.766 77.5011 131.557 77.6883C131.348 77.8645 131.1 77.9471 130.813 77.9361C130.538 77.9141 130.312 77.7984 130.136 77.5892C129.96 77.3689 129.877 77.1211 129.888 76.8458C129.91 76.5484 129.921 76.2125 129.921 75.838C129.921 75.4526 129.916 75.0561 129.905 74.6486H126.518C126.243 74.6486 126.006 74.555 125.808 74.3678C125.621 74.1805 125.527 73.9493 125.527 73.6739C125.527 73.3986 125.621 73.1673 125.808 72.9801C126.006 72.7818 126.243 72.6827 126.518 72.6827H129.839C129.817 72.2973 129.789 71.9338 129.756 71.5924C129.734 71.24 129.701 70.9316 129.657 70.6673C129.613 70.3919 129.668 70.1441 129.822 69.9239C129.987 69.6926 130.208 69.5549 130.483 69.5109C130.769 69.4558 131.023 69.5109 131.243 69.6761C131.474 69.8413 131.606 70.0615 131.639 70.3369C131.683 70.6453 131.722 71.0032 131.755 71.4107C131.788 71.8072 131.816 72.2312 131.838 72.6827H134.398C134.387 72.2091 134.371 71.7521 134.349 71.3116C134.338 70.86 134.316 70.469 134.283 70.1386C134.261 69.8523 134.338 69.6045 134.514 69.3952C134.701 69.175 134.932 69.0538 135.208 69.0318C135.494 69.0098 135.742 69.0924 135.951 69.2796C136.171 69.4558 136.287 69.6871 136.298 69.9734C136.331 70.3149 136.353 70.7279 136.364 71.2124C136.386 71.686 136.403 72.1761 136.414 72.6827H139.553C139.828 72.6827 140.059 72.7818 140.246 72.9801C140.445 73.1673 140.544 73.3986 140.544 73.6739C140.544 73.9493 140.445 74.1805 140.246 74.3678C140.059 74.555 139.828 74.6486 139.553 74.6486H136.414C136.381 76.609 135.957 78.2665 135.142 79.6211C134.327 80.9647 133.137 81.989 131.573 82.6938ZM152.339 82.7269C152.064 82.7269 151.827 82.6223 151.629 82.413C151.43 82.2148 151.331 81.978 151.331 81.7026V75.0946C150.626 75.7114 149.9 76.3061 149.151 76.8788C148.402 77.4515 147.653 77.9746 146.904 78.4482C146.662 78.5914 146.403 78.6299 146.127 78.5638C145.863 78.4978 145.654 78.3436 145.5 78.1013C145.357 77.859 145.318 77.6002 145.384 77.3248C145.45 77.0495 145.604 76.8403 145.847 76.6971C146.54 76.2676 147.262 75.7665 148.011 75.1938C148.771 74.6211 149.509 74.0098 150.224 73.36C150.951 72.7103 151.618 72.0605 152.223 71.4107C152.84 70.7499 153.352 70.1276 153.76 69.5439C153.925 69.3126 154.145 69.1695 154.421 69.1144C154.696 69.0593 154.949 69.1144 155.18 69.2796C155.412 69.4338 155.555 69.6541 155.61 69.9404C155.665 70.2157 155.61 70.469 155.445 70.7003C154.872 71.4713 154.178 72.2807 153.363 73.1288V81.7026C153.363 81.978 153.264 82.2148 153.066 82.413C152.868 82.6223 152.625 82.7269 152.339 82.7269ZM168.842 82.7104C168.567 82.7104 168.33 82.6112 168.132 82.413C167.934 82.2148 167.835 81.978 167.835 81.7026V70.2873C167.835 70.001 167.934 69.7642 168.132 69.577C168.33 69.3787 168.567 69.2796 168.842 69.2796C169.129 69.2796 169.371 69.3787 169.569 69.577C169.768 69.7642 169.867 70.001 169.867 70.2873V74.2686C170.01 74.0484 170.208 73.9052 170.461 73.8391C170.715 73.762 170.963 73.7841 171.205 73.9052C171.855 74.2466 172.515 74.6376 173.187 75.0781C173.87 75.5187 174.459 75.9482 174.955 76.3667C175.175 76.5429 175.296 76.7797 175.318 77.077C175.351 77.3634 175.274 77.6167 175.087 77.837C174.911 78.0462 174.68 78.1674 174.393 78.2004C174.107 78.2224 173.854 78.1453 173.633 77.9691C173.325 77.7268 172.967 77.468 172.559 77.1927C172.163 76.9173 171.761 76.653 171.354 76.3997C170.957 76.1354 170.594 75.9096 170.263 75.7224C170.087 75.6233 169.955 75.5021 169.867 75.359V81.7026C169.867 81.978 169.768 82.2148 169.569 82.413C169.371 82.6112 169.129 82.7104 168.842 82.7104Z" fill="#0A64C6"/>
    <rect x="1.90735e-06" y="27.5423" width="173.861" height="3.19565" rx="1.59783" transform="rotate(-3.86486 1.90735e-06 27.5423)" fill="#0A64C6"/>
    <rect x="10.513" y="93" width="65" height="0.99999" rx="0.499995" transform="rotate(-90 10.513 93)" fill="#0A64C6"/>
    <rect x="193.513" y="93" width="58" height="0.999991" rx="0.499996" transform="rotate(-90 193.513 93)" fill="#0A64C6"/>
    <defs>
        <filter id="filter0_n_3105_1694" x="178.513" y="0" width="29" height="29" filterUnits="userSpaceOnUse" color-interpolation-filters="sRGB">
            <feFlood flood-opacity="0" result="BackgroundImageFix"/>
            <feBlend mode="normal" in="SourceGraphic" in2="BackgroundImageFix" result="shape"/>
            <feTurbulence type="fractalNoise" baseFrequency="2.1923136711120605 2.1923136711120605" stitchTiles="stitch" numOctaves="3" result="noise" seed="8145" />
            <feColorMatrix in="noise" type="luminanceToAlpha" result="alphaNoise" />
            <feComponentTransfer in="alphaNoise" result="coloredNoise1">
                <feFuncA type="discrete" tableValues="0 0 0 0 1 1 1 1 1 1 1 1 1 1 1 1 1 1 1 1 1 1 1 1 1 1 1 1 1 1 1 1 1 1 1 1 1 1 1 1 1 1 1 1 1 0 0 0 0 0 0 0 0 0 0 0 0 0 0 0 0 0 0 0 0 0 0 0 0 0 0 0 0 0 0 0 0 0 0 0 0 0 0 0 0 0 0 0 0 0 0 0 0 0 0 0 0 0 0 0 "/>
            </feComponentTransfer>
            <feComposite operator="in" in2="shape" in="coloredNoise1" result="noise1Clipped" />
            <feFlood flood-color="rgba(39, 172, 170, 0.4)" result="color1Flood" />
            <feComposite operator="in" in2="noise1Clipped" in="color1Flood" result="color1" />
            <feMerge result="effect1_noise_3105_1694">
                <feMergeNode in="shape" />
                <feMergeNode in="color1" />
            </feMerge>
        </filter>
        <linearGradient id="paint0_linear_3105_1694" x1="178.513" y1="-6.71296" x2="199.995" y2="23.8981" gradientUnits="userSpaceOnUse">
            <stop offset="0.543269" stop-color="#90B5FF"/>
            <stop offset="1" stop-color="#3BD0E4"/>
        </linearGradient>
    </defs>
</svg>
