<svg width="221" height="53" viewBox="0 0 221 53" fill="none" xmlns="http://www.w3.org/2000/svg">
    <path d="M62.9235 21.926C62.6275 21.926 62.3746 21.8211 62.1649 21.6115C61.9552 21.4018 61.8504 21.1489 61.8504 20.8529C61.8504 20.5568 61.9552 20.3101 62.1649 20.1128C62.3746 19.9031 62.6275 19.7983 62.9235 19.7983H69.1587V10.5842H64.0706C63.7746 10.5842 63.5217 10.4856 63.3121 10.2882C63.1024 10.0785 62.9975 9.82566 62.9975 9.52963C62.9975 9.23359 63.1024 8.98073 63.3121 8.77104C63.5217 8.56135 63.7746 8.45651 64.0706 8.45651H76.652C76.9481 8.45651 77.2009 8.56135 77.4106 8.77104C77.6203 8.98073 77.7251 9.23359 77.7251 9.52963C77.7251 9.82566 77.6203 10.0785 77.4106 10.2882C77.2009 10.4856 76.9481 10.5842 76.652 10.5842H71.564V19.7983H77.8177C78.1137 19.7983 78.3604 19.9031 78.5577 20.1128C78.7674 20.3101 78.8723 20.5568 78.8723 20.8529C78.8723 21.1489 78.7674 21.4018 78.5577 21.6115C78.3604 21.8211 78.1137 21.926 77.8177 21.926H62.9235ZM96.1532 23.4432C95.8448 23.4432 95.5858 23.3692 95.3761 23.2211C95.1787 23.0855 95.0615 22.8634 95.0245 22.5551C94.9999 22.2714 95.0739 22.0247 95.2466 21.815C95.4316 21.6053 95.6598 21.4943 95.9311 21.4819C96.3382 21.4573 96.6157 21.4018 96.7637 21.3154C96.9241 21.2291 97.0474 21.0379 97.1338 20.7419C97.2078 20.5075 97.2818 20.2115 97.3558 19.8538C97.4298 19.4961 97.4915 19.126 97.5408 18.7436C97.5902 18.4229 97.5778 18.1886 97.5038 18.0406C97.4298 17.8925 97.2818 17.7939 97.0598 17.7445C96.7761 18.4353 96.3999 19.126 95.9311 19.8168C95.4748 20.5075 94.9629 21.1551 94.3955 21.7595C93.8404 22.3515 93.2668 22.8573 92.6748 23.2766C92.4651 23.4247 92.2246 23.4987 91.9532 23.4987C91.6818 23.4987 91.4598 23.4 91.2871 23.2026C91.1268 23.0299 91.0466 22.8264 91.0466 22.5921C91.0589 22.3577 91.1576 22.1727 91.3426 22.037C92.1814 21.3956 92.9338 20.7049 93.5999 19.9648C94.266 19.2247 94.8025 18.4723 95.2096 17.7075H94.377C94.0316 18.3366 93.5876 18.9595 93.0448 19.5762C92.5021 20.1806 91.9162 20.7419 91.2871 21.2599C90.6581 21.778 90.0352 22.1974 89.4184 22.5181C89.1841 22.6414 88.9374 22.6722 88.6783 22.6106C88.4317 22.5612 88.2405 22.4194 88.1048 22.185C87.9938 21.9877 87.9691 21.778 88.0308 21.556C88.0924 21.3216 88.222 21.1489 88.4193 21.0379C89.1841 20.6432 89.9303 20.1436 90.6581 19.5392C91.3858 18.9348 91.984 18.3243 92.4528 17.7075H91.4536C91.0959 18.1146 90.7136 18.5031 90.3065 18.8732C89.9118 19.2309 89.5109 19.5639 89.1039 19.8723C88.8942 20.0203 88.6537 20.0881 88.3823 20.0758C88.1109 20.0635 87.8951 19.9586 87.7347 19.7613C87.5991 19.5762 87.5374 19.3665 87.5497 19.1322C87.5744 18.8855 87.6854 18.7005 87.8828 18.5771C88.1048 18.4168 88.3268 18.2441 88.5488 18.0591C88.7832 17.8617 89.0114 17.6644 89.2334 17.467C89.1964 17.4917 89.1594 17.5163 89.1224 17.541C89.0854 17.5657 89.0422 17.5903 88.9929 17.615C88.6105 17.7877 88.1418 17.9912 87.5867 18.2256C87.0317 18.4476 86.4704 18.6635 85.903 18.8732C85.3356 19.0828 84.8484 19.2555 84.4414 19.3912C84.133 19.5022 83.8493 19.4837 83.5903 19.3357C83.3436 19.1877 83.1771 18.978 83.0907 18.7066C83.0044 18.4229 83.0229 18.1639 83.1462 17.9296C83.2696 17.6829 83.4854 17.5163 83.7938 17.43C84.2255 17.319 84.7251 17.1771 85.2925 17.0044V12.3234H83.9418C83.6458 12.3234 83.4114 12.2309 83.2387 12.0459C83.0661 11.8609 82.9797 11.6389 82.9797 11.3798C82.9797 11.1085 83.0661 10.8803 83.2387 10.6953C83.4114 10.5102 83.6458 10.4177 83.9418 10.4177H85.2925V7.56841C85.2925 7.24771 85.3911 7.00101 85.5885 6.82833C85.7859 6.64331 86.0326 6.5508 86.3286 6.5508C86.6246 6.5508 86.8713 6.64331 87.0687 6.82833C87.266 7.00101 87.3647 7.24771 87.3647 7.56841V10.4177H88.5858C88.8695 10.4177 89.0977 10.5102 89.2704 10.6953C89.4431 10.8803 89.5294 11.1085 89.5294 11.3798C89.5294 11.6389 89.4431 11.8609 89.2704 12.0459C89.0977 12.2309 88.8695 12.3234 88.5858 12.3234H87.3647V16.3014C87.5497 16.2274 87.7286 16.1595 87.9013 16.0979C88.0739 16.0238 88.2405 15.956 88.4008 15.8943C88.6352 15.7956 88.8634 15.7956 89.0854 15.8943C89.3197 15.993 89.4739 16.1595 89.5479 16.3939C89.659 16.7639 89.6158 17.0661 89.4184 17.3005C90.0845 16.6591 90.6581 16.0177 91.1391 15.3763H89.4924C89.2581 15.3763 89.0669 15.2961 88.9189 15.1357C88.7832 14.9631 88.7153 14.7657 88.7153 14.5437C88.7153 14.3217 88.7832 14.1305 88.9189 13.9701C89.0669 13.7974 89.2581 13.7111 89.4924 13.7111H99.5205C99.7672 13.7111 99.9584 13.7974 100.094 13.9701C100.242 14.1305 100.316 14.3217 100.316 14.5437C100.316 14.7657 100.242 14.9631 100.094 15.1357C99.9584 15.2961 99.7672 15.3763 99.5205 15.3763H93.1188C93.0448 15.4996 92.9708 15.6291 92.8968 15.7648C92.8228 15.8882 92.7426 16.0177 92.6563 16.1534H97.1153C97.991 16.1534 98.6324 16.3445 99.0395 16.7269C99.4465 17.1093 99.6007 17.7507 99.502 18.6511C99.4157 19.6872 99.2615 20.6247 99.0395 21.4634C98.8668 22.1542 98.5461 22.6537 98.0774 22.9621C97.621 23.2828 96.9796 23.4432 96.1532 23.4432ZM93.6184 13.0635C92.792 13.0635 92.1444 12.9772 91.6757 12.8045C91.207 12.6195 90.8739 12.3049 90.6766 11.8609C90.4915 11.4045 90.399 10.7693 90.399 9.95517C90.399 9.12875 90.4915 8.49351 90.6766 8.04946C90.8739 7.60541 91.207 7.29705 91.6757 7.12436C92.1444 6.93934 92.792 6.84683 93.6184 6.84683H95.1911C96.0175 6.84683 96.6651 6.93934 97.1338 7.12436C97.6025 7.29705 97.9355 7.60541 98.1329 8.04946C98.3302 8.49351 98.4289 9.12875 98.4289 9.95517C98.4289 10.7693 98.3302 11.4045 98.1329 11.8609C97.9355 12.3049 97.6025 12.6195 97.1338 12.8045C96.6651 12.9772 96.0175 13.0635 95.1911 13.0635H93.6184ZM93.8404 11.4723H95.006C95.4994 11.4723 95.8448 11.423 96.0422 11.3243C96.2395 11.2256 96.3567 10.9913 96.3937 10.6212H92.4343C92.4713 10.9913 92.5884 11.2256 92.7858 11.3243C92.9955 11.423 93.347 11.4723 93.8404 11.4723ZM92.4343 9.23359H96.3937C96.3444 8.87589 96.221 8.65386 96.0237 8.56752C95.8263 8.46884 95.4871 8.4195 95.006 8.4195H93.8404C93.347 8.4195 93.0017 8.46884 92.8043 8.56752C92.6069 8.65386 92.4836 8.87589 92.4343 9.23359Z" fill="#0A64C6"/>
    <path d="M113.442 22.7771C113.208 22.9744 112.918 23.0731 112.572 23.0731C112.239 23.0855 111.95 22.9559 111.703 22.6846C111.505 22.4502 111.431 22.185 111.481 21.889C111.53 21.593 111.666 21.3648 111.888 21.2044C112.788 20.5137 113.461 19.7181 113.905 18.8176C114.349 17.9172 114.571 16.7948 114.571 15.4503V14.6547C114.571 13.7789 114.78 13.1684 115.2 12.823C115.619 12.4776 116.316 12.3049 117.29 12.3049H122.971C123.957 12.3049 124.654 12.4776 125.061 12.823C125.481 13.1684 125.69 13.7789 125.69 14.6547V15.7463C125.69 16.6097 125.481 17.2203 125.061 17.578C124.654 17.9357 123.957 18.1146 122.971 18.1146H116.384C116.149 19.0767 115.779 19.9524 115.274 20.7419C114.768 21.5189 114.157 22.1974 113.442 22.7771ZM112.794 12.897C112.474 13.0573 112.172 13.1067 111.888 13.045C111.604 12.9833 111.382 12.823 111.222 12.564C111.061 12.2926 111.024 12.0212 111.111 11.7499C111.209 11.4662 111.407 11.2627 111.703 11.1393C112.443 10.7939 113.189 10.4054 113.942 9.97368C114.694 9.52963 115.403 9.07941 116.069 8.62303C116.748 8.15431 117.327 7.71643 117.808 7.30938C118.327 6.87767 118.801 6.59397 119.233 6.45829C119.677 6.32261 120.134 6.32877 120.602 6.47679C121.071 6.62481 121.589 6.92084 122.156 7.36489C122.699 7.77193 123.304 8.18515 123.97 8.60452C124.648 9.0239 125.351 9.41861 126.079 9.78866C126.807 10.1587 127.516 10.4794 128.207 10.7508C128.527 10.8741 128.756 11.0715 128.891 11.3428C129.027 11.6142 129.027 11.8979 128.891 12.1939C128.768 12.5023 128.54 12.712 128.207 12.823C127.886 12.934 127.553 12.9155 127.208 12.7675C126.652 12.5208 126.073 12.2371 125.468 11.9164C124.864 11.5957 124.266 11.2565 123.674 10.8988C123.661 11.0961 123.581 11.2627 123.433 11.3983C123.285 11.534 123.088 11.6019 122.841 11.6019H117.29C117.031 11.6019 116.828 11.5278 116.68 11.3798C116.532 11.2195 116.452 11.0221 116.439 10.7878C115.835 11.1825 115.218 11.5649 114.589 11.9349C113.972 12.2926 113.374 12.6133 112.794 12.897ZM118.845 23.3877C117.796 23.3877 117.056 23.2211 116.624 22.8881C116.205 22.5674 115.995 21.9753 115.995 21.1119C115.995 20.2485 116.205 19.6564 116.624 19.3357C117.056 19.015 117.796 18.8547 118.845 18.8547H122.952C124.013 18.8547 124.753 19.015 125.172 19.3357C125.592 19.6564 125.801 20.2485 125.801 21.1119C125.801 21.9753 125.592 22.5674 125.172 22.8881C124.753 23.2211 124.013 23.3877 122.952 23.3877H118.845ZM119.03 21.741H122.767C123.112 21.741 123.341 21.704 123.452 21.63C123.575 21.556 123.637 21.3833 123.637 21.1119C123.637 20.8529 123.575 20.6864 123.452 20.6123C123.341 20.5383 123.112 20.5013 122.767 20.5013H119.03C118.697 20.5013 118.468 20.5383 118.345 20.6123C118.234 20.6864 118.179 20.8529 118.179 21.1119C118.179 21.3833 118.234 21.556 118.345 21.63C118.468 21.704 118.697 21.741 119.03 21.741ZM116.643 16.6159H122.564C122.884 16.6159 123.125 16.5666 123.285 16.4679C123.445 16.3692 123.532 16.1657 123.544 15.8573H116.698C116.686 15.9807 116.674 16.1102 116.661 16.2459C116.661 16.3692 116.655 16.4926 116.643 16.6159ZM116.698 14.5807H123.544C123.532 14.2723 123.445 14.0688 123.285 13.9701C123.125 13.8714 122.884 13.8221 122.564 13.8221H117.679C117.371 13.8221 117.136 13.8714 116.976 13.9701C116.816 14.0688 116.723 14.2723 116.698 14.5807ZM117.716 9.91817H122.212C121.904 9.70848 121.601 9.49262 121.305 9.2706C121.022 9.04857 120.756 8.83272 120.51 8.62303C120.3 8.43801 120.121 8.3455 119.973 8.3455C119.838 8.3455 119.665 8.43184 119.455 8.60452C119.221 8.80188 118.956 9.01157 118.66 9.23359C118.364 9.45562 118.049 9.68381 117.716 9.91817ZM142.305 23.7762C142.021 23.7762 141.775 23.6775 141.565 23.4802C141.368 23.2951 141.269 23.0484 141.269 22.7401V21.667H136.459C136.187 21.667 135.971 21.5806 135.811 21.4079C135.663 21.2352 135.589 21.0317 135.589 20.7974C135.589 20.5507 135.663 20.3472 135.811 20.1868C135.971 20.0141 136.187 19.9278 136.459 19.9278H141.269V19.2432H140.64C139.678 19.2432 138.932 19.1569 138.401 18.9842C137.883 18.7991 137.525 18.4908 137.328 18.0591C137.131 17.615 137.032 16.9983 137.032 16.2089C137.032 15.4194 137.131 14.8089 137.328 14.3772C137.525 13.9331 137.883 13.6247 138.401 13.4521C138.932 13.267 139.678 13.1745 140.64 13.1745H141.269V12.5455H137.032C136.773 12.5455 136.57 12.4653 136.422 12.3049C136.274 12.1446 136.2 11.9472 136.2 11.7129C136.2 11.4785 136.274 11.2812 136.422 11.1208C136.57 10.9481 136.773 10.8618 137.032 10.8618H141.269V9.91817H137.717C136.977 9.91817 136.459 10.0477 136.163 10.3067C135.879 10.5657 135.737 11.0468 135.737 11.7499V13.0635C135.737 14.5437 135.688 15.8512 135.589 16.9859C135.503 18.1084 135.348 19.1322 135.126 20.0573C134.917 20.9701 134.627 21.8582 134.257 22.7216C134.133 22.9929 133.93 23.178 133.646 23.2766C133.375 23.3753 133.097 23.3692 132.814 23.2581C132.542 23.1471 132.363 22.9621 132.277 22.7031C132.191 22.4564 132.203 22.2035 132.314 21.9445C132.659 21.1551 132.931 20.341 133.128 19.5022C133.338 18.6635 133.486 17.726 133.572 16.6899C133.671 15.6415 133.72 14.4203 133.72 13.0265V11.7314C133.72 10.8309 133.85 10.1217 134.109 9.60363C134.368 9.07324 134.781 8.69703 135.348 8.47501C135.928 8.24065 136.693 8.12347 137.643 8.12347H140.214V7.21687C140.214 6.88384 140.325 6.62481 140.547 6.43979C140.782 6.24243 141.053 6.14375 141.362 6.14375C141.67 6.14375 141.935 6.24243 142.157 6.43979C142.392 6.62481 142.509 6.88384 142.509 7.21687V8.12347H148.503C148.775 8.12347 148.991 8.20981 149.151 8.3825C149.311 8.55519 149.391 8.76488 149.391 9.01157C149.391 9.25826 149.311 9.47412 149.151 9.65914C148.991 9.83183 148.775 9.91817 148.503 9.91817H143.341V10.8618H148.115C148.386 10.8618 148.596 10.9481 148.744 11.1208C148.892 11.2812 148.966 11.4785 148.966 11.7129C148.966 11.9472 148.892 12.1446 148.744 12.3049C148.596 12.4653 148.386 12.5455 148.115 12.5455H143.341V13.1745H144.026C145 13.1745 145.74 13.267 146.246 13.4521C146.764 13.6247 147.122 13.9331 147.319 14.3772C147.517 14.8089 147.615 15.4194 147.615 16.2089C147.615 16.9983 147.517 17.615 147.319 18.0591C147.122 18.4908 146.764 18.7991 146.246 18.9842C145.74 19.1569 145 19.2432 144.026 19.2432H143.341V19.9278H148.466C148.738 19.9278 148.947 20.0141 149.095 20.1868C149.256 20.3472 149.336 20.5507 149.336 20.7974C149.336 21.0317 149.256 21.2352 149.095 21.4079C148.947 21.5806 148.738 21.667 148.466 21.667H143.341V22.7401C143.341 23.0484 143.236 23.2951 143.027 23.4802C142.829 23.6775 142.589 23.7762 142.305 23.7762ZM143.341 17.726H143.989C144.507 17.726 144.871 17.6829 145.08 17.5965C145.303 17.4978 145.438 17.2758 145.488 16.9304H143.341V17.726ZM143.341 15.4873H145.488C145.438 15.1419 145.303 14.9261 145.08 14.8397C144.858 14.7534 144.495 14.7102 143.989 14.7102H143.341V15.4873ZM140.658 17.726H141.269V16.9304H139.178C139.24 17.2758 139.376 17.4978 139.585 17.5965C139.795 17.6829 140.153 17.726 140.658 17.726ZM139.178 15.4873H141.269V14.7102H140.658C140.153 14.7102 139.795 14.7534 139.585 14.8397C139.376 14.9261 139.24 15.1419 139.178 15.4873ZM163.842 21.9445C163.533 22.0185 163.243 21.9753 162.972 21.815C162.701 21.6546 162.528 21.4264 162.454 21.1304C162.38 20.8344 162.423 20.5568 162.583 20.2978C162.744 20.0264 162.972 19.8538 163.268 19.7798C164.637 19.422 165.642 18.8423 166.284 18.0406C166.938 17.2388 167.264 16.2212 167.264 14.9877C167.264 14.2106 167.092 13.5137 166.746 12.897C166.401 12.2803 165.908 11.7807 165.266 11.3983C164.637 11.016 163.879 10.7816 162.99 10.6953C162.768 12.7675 162.392 14.5622 161.862 16.0793C161.344 17.5842 160.727 18.7498 160.012 19.5762C159.309 20.3903 158.568 20.7974 157.791 20.7974C157.138 20.7974 156.539 20.6062 155.997 20.2238C155.454 19.8414 155.022 19.2925 154.702 18.5771C154.393 17.8617 154.239 17.0044 154.239 16.0053C154.239 14.9816 154.43 14.0256 154.813 13.1375C155.207 12.2371 155.762 11.4477 156.478 10.7693C157.193 10.0909 158.032 9.56046 158.994 9.17809C159.968 8.79571 161.035 8.60452 162.195 8.60452C163.601 8.60452 164.847 8.87589 165.932 9.41861C167.03 9.94901 167.893 10.6953 168.523 11.6574C169.152 12.6071 169.466 13.7173 169.466 14.9877C169.466 16.7763 168.985 18.2688 168.023 19.4652C167.073 20.6494 165.679 21.4758 163.842 21.9445ZM157.81 18.5216C158.032 18.5216 158.285 18.3366 158.568 17.9666C158.865 17.5842 159.161 17.0476 159.457 16.3569C159.753 15.6661 160.024 14.852 160.271 13.9146C160.517 12.9648 160.702 11.9164 160.826 10.7693C159.864 10.9543 159.056 11.312 158.402 11.8424C157.748 12.3604 157.255 12.9833 156.922 13.7111C156.589 14.4265 156.416 15.1789 156.404 15.9683C156.404 16.8071 156.533 17.4423 156.792 17.874C157.064 18.3058 157.403 18.5216 157.81 18.5216Z" fill="#0A64C6"/>
    <path d="M105.91 17.0044C105.342 17.0044 104.861 16.8071 104.467 16.4124C104.072 16.0177 103.875 15.5366 103.875 14.9692C103.875 14.4018 104.072 13.9208 104.467 13.5261C104.861 13.1314 105.342 12.934 105.91 12.934C106.477 12.934 106.958 13.1314 107.353 13.5261C107.748 13.9208 107.945 14.4018 107.945 14.9692C107.945 15.5366 107.748 16.0177 107.353 16.4124C106.958 16.8071 106.477 17.0044 105.91 17.0044Z" fill="#0A64C6"/>
    <path d="M64.252 43.174C63.952 43.186 63.706 43.12 63.514 42.976C63.334 42.832 63.232 42.622 63.208 42.346C63.196 42.07 63.268 41.848 63.424 41.68C63.592 41.5 63.826 41.41 64.126 41.41C64.474 41.398 64.87 41.38 65.314 41.356C65.77 41.332 66.238 41.308 66.718 41.284V40.456H64.936C64.732 40.456 64.552 40.384 64.396 40.24C64.24 40.084 64.162 39.898 64.162 39.682C64.162 39.466 64.24 39.28 64.396 39.124C64.18 39.244 63.952 39.286 63.712 39.25C63.484 39.202 63.304 39.064 63.172 38.836C63.064 38.632 63.046 38.422 63.118 38.206C63.19 37.978 63.34 37.81 63.568 37.702C63.952 37.498 64.306 37.246 64.63 36.946C64.954 36.646 65.212 36.34 65.404 36.028H63.874C63.646 36.028 63.454 35.95 63.298 35.794C63.142 35.638 63.064 35.446 63.064 35.218C63.064 35.002 63.142 34.816 63.298 34.66C63.454 34.504 63.646 34.426 63.874 34.426H66.718V33.706H64.702C64.498 33.706 64.318 33.628 64.162 33.472C64.006 33.316 63.928 33.136 63.928 32.932C63.928 32.716 64.006 32.53 64.162 32.374C64.318 32.218 64.498 32.14 64.702 32.14H66.718V31.654C66.718 31.354 66.814 31.12 67.006 30.952C67.198 30.772 67.426 30.682 67.69 30.682C67.966 30.682 68.194 30.772 68.374 30.952C68.566 31.12 68.662 31.354 68.662 31.654V32.14H70.408C70.612 32.14 70.792 32.218 70.948 32.374C71.104 32.53 71.182 32.716 71.182 32.932C71.182 33.136 71.104 33.316 70.948 33.472C70.792 33.628 70.612 33.706 70.408 33.706H68.662V34.426H71.038C71.314 34.426 71.524 34.528 71.668 34.732C71.656 34.708 71.65 34.678 71.65 34.642C71.65 34.606 71.65 34.576 71.65 34.552C71.65 34.312 71.734 34.108 71.902 33.94C72.07 33.772 72.268 33.688 72.496 33.688H73.594V31.708C73.594 31.432 73.684 31.21 73.864 31.042C74.044 30.874 74.26 30.79 74.512 30.79C74.764 30.79 74.98 30.874 75.16 31.042C75.352 31.21 75.448 31.432 75.448 31.708V33.688H75.7C76.72 33.688 77.416 33.88 77.788 34.264C78.16 34.636 78.28 35.32 78.148 36.316C78.064 37.072 78.022 37.798 78.022 38.494C78.034 39.178 78.106 39.784 78.238 40.312C78.298 40.54 78.376 40.54 78.472 40.312C78.508 40.24 78.538 40.174 78.562 40.114C78.586 40.042 78.622 39.964 78.67 39.88C78.766 39.64 78.934 39.49 79.174 39.43C79.426 39.358 79.666 39.382 79.894 39.502C80.11 39.61 80.248 39.772 80.308 39.988C80.368 40.204 80.344 40.444 80.236 40.708C80.152 40.912 80.038 41.152 79.894 41.428C79.75 41.704 79.606 41.962 79.462 42.202C79.198 42.634 78.892 42.916 78.544 43.048C78.208 43.18 77.884 43.162 77.572 42.994C77.26 42.826 77.008 42.514 76.816 42.058C76.624 41.578 76.48 41.002 76.384 40.33C76.348 40.522 76.27 40.684 76.15 40.816C75.982 41.008 75.766 41.11 75.502 41.122C75.238 41.134 75.01 41.05 74.818 40.87C74.686 40.726 74.518 40.576 74.314 40.42C73.846 41.368 73.222 42.196 72.442 42.904C72.238 43.096 71.992 43.198 71.704 43.21C71.428 43.21 71.188 43.114 70.984 42.922C70.876 42.79 70.804 42.658 70.768 42.526C70.732 42.538 70.69 42.55 70.642 42.562C70.606 42.574 70.564 42.586 70.516 42.598C69.928 42.658 69.256 42.73 68.5 42.814C67.756 42.886 67.006 42.958 66.25 43.03C65.506 43.09 64.84 43.138 64.252 43.174ZM78.742 47.17C78.514 47.326 78.256 47.38 77.968 47.332C77.692 47.296 77.47 47.158 77.302 46.918C77.182 46.726 77.014 46.474 76.798 46.162C76.582 45.85 76.354 45.544 76.114 45.244C75.886 44.932 75.694 44.68 75.538 44.488C75.382 44.284 75.316 44.056 75.34 43.804C75.376 43.552 75.49 43.348 75.682 43.192C75.898 43.024 76.132 42.952 76.384 42.976C76.648 42.988 76.876 43.09 77.068 43.282C77.26 43.486 77.476 43.744 77.716 44.056C77.968 44.356 78.208 44.656 78.436 44.956C78.676 45.256 78.862 45.508 78.994 45.712C79.162 45.952 79.222 46.21 79.174 46.486C79.138 46.762 78.994 46.99 78.742 47.17ZM63.802 47.206C63.586 47.014 63.478 46.774 63.478 46.486C63.478 46.21 63.574 45.97 63.766 45.766C63.934 45.598 64.12 45.382 64.324 45.118C64.54 44.854 64.75 44.59 64.954 44.326C65.158 44.05 65.32 43.828 65.44 43.66C65.608 43.42 65.83 43.276 66.106 43.228C66.394 43.18 66.652 43.24 66.88 43.408C67.108 43.564 67.246 43.774 67.294 44.038C67.354 44.29 67.306 44.536 67.15 44.776C67.006 45.004 66.826 45.262 66.61 45.55C66.406 45.838 66.19 46.12 65.962 46.396C65.746 46.672 65.548 46.906 65.368 47.098C65.152 47.326 64.894 47.452 64.594 47.476C64.306 47.5 64.042 47.41 63.802 47.206ZM73.828 47.386C73.528 47.458 73.258 47.428 73.018 47.296C72.778 47.176 72.628 46.966 72.568 46.666C72.532 46.486 72.478 46.252 72.406 45.964C72.346 45.676 72.28 45.388 72.208 45.1C72.136 44.812 72.076 44.584 72.028 44.416C71.944 44.116 71.974 43.858 72.118 43.642C72.262 43.426 72.466 43.288 72.73 43.228C73.006 43.144 73.264 43.162 73.504 43.282C73.744 43.402 73.912 43.612 74.008 43.912C74.068 44.092 74.134 44.326 74.206 44.614C74.278 44.902 74.35 45.19 74.422 45.478C74.506 45.754 74.566 45.988 74.602 46.18C74.662 46.48 74.62 46.738 74.476 46.954C74.332 47.182 74.116 47.326 73.828 47.386ZM70.066 47.548C69.754 47.608 69.484 47.566 69.256 47.422C69.028 47.278 68.896 47.068 68.86 46.792C68.836 46.612 68.8 46.372 68.752 46.072C68.704 45.772 68.65 45.472 68.59 45.172C68.542 44.872 68.5 44.644 68.464 44.488C68.404 44.188 68.452 43.936 68.608 43.732C68.764 43.516 68.974 43.384 69.238 43.336C69.526 43.276 69.784 43.318 70.012 43.462C70.252 43.594 70.408 43.81 70.48 44.11C70.516 44.278 70.558 44.512 70.606 44.812C70.666 45.112 70.726 45.412 70.786 45.712C70.846 46 70.888 46.234 70.912 46.414C70.96 46.702 70.906 46.948 70.75 47.152C70.594 47.356 70.366 47.488 70.066 47.548ZM71.218 41.5C71.902 40.864 72.436 40.102 72.82 39.214C72.664 39.082 72.508 38.962 72.352 38.854C72.208 38.746 72.082 38.656 71.974 38.584C71.854 38.488 71.764 38.374 71.704 38.242C71.644 38.11 71.62 37.978 71.632 37.846C71.272 38.278 70.648 38.494 69.76 38.494C69.292 38.494 68.926 38.452 68.662 38.368V38.908H70.354C70.57 38.908 70.75 38.986 70.894 39.142C71.05 39.286 71.128 39.466 71.128 39.682C71.128 39.898 71.05 40.084 70.894 40.24C70.75 40.384 70.57 40.456 70.354 40.456H68.662V41.14C68.998 41.116 69.31 41.092 69.598 41.068C69.898 41.044 70.174 41.026 70.426 41.014C70.834 40.99 71.098 41.152 71.218 41.5ZM76.312 39.826C76.204 38.71 76.222 37.552 76.366 36.352C76.402 35.968 76.372 35.722 76.276 35.614C76.18 35.494 75.934 35.434 75.538 35.434H75.43C75.406 36.022 75.358 36.58 75.286 37.108C75.214 37.636 75.112 38.134 74.98 38.602C75.196 38.758 75.394 38.914 75.574 39.07C75.766 39.214 75.922 39.334 76.042 39.43C76.162 39.538 76.252 39.67 76.312 39.826ZM64.756 38.926C64.78 38.914 64.81 38.908 64.846 38.908C64.882 38.908 64.912 38.908 64.936 38.908H66.718V38.476C66.718 38.176 66.814 37.942 67.006 37.774C67.198 37.594 67.426 37.504 67.69 37.504H67.834C67.786 37.348 67.762 37.138 67.762 36.874V36.028H67.186C66.97 36.616 66.652 37.162 66.232 37.666C65.824 38.158 65.332 38.578 64.756 38.926ZM73.36 37.414C73.42 37.102 73.462 36.784 73.486 36.46C73.522 36.124 73.546 35.782 73.558 35.434H72.496C72.364 35.434 72.238 35.404 72.118 35.344C72.01 35.272 71.914 35.188 71.83 35.092C71.83 35.104 71.83 35.122 71.83 35.146C71.842 35.17 71.848 35.194 71.848 35.218C71.848 35.41 71.788 35.578 71.668 35.722C71.548 35.866 71.404 35.962 71.236 36.01C71.284 36.01 71.326 36.01 71.362 36.01C71.41 36.01 71.452 36.022 71.488 36.046C71.716 36.118 71.878 36.25 71.974 36.442C72.07 36.622 72.088 36.814 72.028 37.018C72.016 37.054 72.004 37.09 71.992 37.126C71.992 37.162 71.98 37.198 71.956 37.234C72.112 37.102 72.28 37.036 72.46 37.036C72.652 37.024 72.826 37.066 72.982 37.162C73.042 37.198 73.102 37.234 73.162 37.27C73.222 37.306 73.288 37.354 73.36 37.414ZM69.922 37C70.09 37 70.21 36.97 70.282 36.91C70.354 36.838 70.42 36.694 70.48 36.478C70.516 36.358 70.582 36.262 70.678 36.19C70.786 36.118 70.9 36.064 71.02 36.028H69.436V36.586C69.436 36.742 69.466 36.85 69.526 36.91C69.598 36.97 69.73 37 69.922 37ZM92.44 47.386C92.104 47.386 91.834 47.296 91.63 47.116C91.426 46.948 91.324 46.702 91.324 46.378V41.59H88.84C87.868 41.59 87.088 41.488 86.5 41.284C85.912 41.08 85.486 40.714 85.222 40.186C84.958 39.658 84.826 38.92 84.826 37.972C84.826 37 84.958 36.256 85.222 35.74C85.498 35.212 85.93 34.852 86.518 34.66C87.106 34.456 87.88 34.354 88.84 34.354H91.324V31.906C91.324 31.582 91.426 31.336 91.63 31.168C91.834 31 92.104 30.916 92.44 30.916C92.788 30.916 93.058 31 93.25 31.168C93.442 31.336 93.538 31.582 93.538 31.906V34.354H96.058C97.018 34.354 97.792 34.456 98.38 34.66C98.968 34.852 99.394 35.212 99.658 35.74C99.934 36.256 100.072 37 100.072 37.972C100.072 38.92 99.934 39.658 99.658 40.186C99.382 40.714 98.95 41.08 98.362 41.284C97.774 41.488 97.006 41.59 96.058 41.59H93.538V46.378C93.538 46.702 93.442 46.948 93.25 47.116C93.058 47.296 92.788 47.386 92.44 47.386ZM93.538 39.61H96.058C96.514 39.61 96.868 39.574 97.12 39.502C97.384 39.418 97.57 39.262 97.678 39.034C97.798 38.794 97.858 38.44 97.858 37.972C97.858 37.48 97.804 37.12 97.696 36.892C97.6 36.664 97.42 36.514 97.156 36.442C96.892 36.37 96.526 36.334 96.058 36.334H93.538V39.61ZM88.84 39.61H91.324V36.334H88.84C88.384 36.334 88.024 36.37 87.76 36.442C87.496 36.514 87.31 36.664 87.202 36.892C87.094 37.12 87.04 37.48 87.04 37.972C87.04 38.44 87.088 38.794 87.184 39.034C87.292 39.262 87.472 39.418 87.724 39.502C87.988 39.574 88.36 39.61 88.84 39.61ZM109.738 47.134C109.462 47.134 109.24 47.044 109.072 46.864C108.916 46.684 108.838 46.468 108.838 46.216C108.838 45.964 108.916 45.754 109.072 45.586C109.24 45.406 109.462 45.316 109.738 45.316H111.142V39.952C111.142 39.652 111.238 39.412 111.43 39.232C111.634 39.052 111.868 38.962 112.132 38.962C112.408 38.962 112.642 39.052 112.834 39.232C113.026 39.412 113.122 39.652 113.122 39.952V45.316H114.652V37.9H111.358C111.094 37.9 110.878 37.816 110.71 37.648C110.542 37.468 110.458 37.252 110.458 37C110.458 36.748 110.542 36.532 110.71 36.352C110.878 36.172 111.094 36.082 111.358 36.082H120.358C120.634 36.082 120.85 36.172 121.006 36.352C121.174 36.532 121.258 36.748 121.258 37C121.258 37.252 121.174 37.468 121.006 37.648C120.85 37.816 120.634 37.9 120.358 37.9H116.614V40.348H119.62C119.908 40.348 120.136 40.438 120.304 40.618C120.472 40.798 120.556 41.02 120.556 41.284C120.556 41.548 120.472 41.77 120.304 41.95C120.136 42.13 119.908 42.22 119.62 42.22H116.614V45.316H120.844C121.12 45.316 121.336 45.406 121.492 45.586C121.66 45.754 121.744 45.964 121.744 46.216C121.744 46.468 121.66 46.684 121.492 46.864C121.336 47.044 121.12 47.134 120.844 47.134H109.738ZM106.048 47.188C105.808 47.008 105.676 46.786 105.652 46.522C105.64 46.258 105.712 46.018 105.868 45.802C106.336 45.13 106.72 44.398 107.02 43.606C107.332 42.814 107.56 41.914 107.704 40.906C107.488 41.002 107.278 41.098 107.074 41.194C106.87 41.29 106.69 41.374 106.534 41.446C106.246 41.566 105.964 41.578 105.688 41.482C105.424 41.374 105.244 41.17 105.148 40.87C105.04 40.558 105.052 40.288 105.184 40.06C105.316 39.82 105.526 39.652 105.814 39.556C105.946 39.508 106.132 39.442 106.372 39.358C106.624 39.262 106.888 39.16 107.164 39.052C107.44 38.944 107.68 38.854 107.884 38.782V37.594C107.836 37.654 107.782 37.714 107.722 37.774C107.662 37.834 107.59 37.882 107.506 37.918C107.254 38.062 107.014 38.092 106.786 38.008C106.558 37.912 106.378 37.75 106.246 37.522C106.126 37.282 105.958 37.006 105.742 36.694C105.526 36.382 105.352 36.112 105.22 35.884C105.088 35.632 105.064 35.392 105.148 35.164C105.232 34.924 105.388 34.744 105.616 34.624C105.868 34.492 106.12 34.456 106.372 34.516C106.624 34.576 106.822 34.732 106.966 34.984C107.098 35.2 107.254 35.47 107.434 35.794C107.626 36.106 107.776 36.364 107.884 36.568V36.442C107.884 35.566 108.004 34.87 108.244 34.354C108.496 33.838 108.892 33.466 109.432 33.238C109.984 33.01 110.716 32.896 111.628 32.896H113.392V31.834C113.392 31.498 113.5 31.24 113.716 31.06C113.944 30.868 114.208 30.772 114.508 30.772C114.82 30.772 115.084 30.868 115.3 31.06C115.528 31.24 115.642 31.498 115.642 31.834V32.896H120.988C121.264 32.896 121.48 32.986 121.636 33.166C121.792 33.334 121.87 33.538 121.87 33.778C121.87 34.018 121.792 34.228 121.636 34.408C121.48 34.576 121.264 34.66 120.988 34.66H111.736C111.004 34.66 110.5 34.792 110.224 35.056C109.948 35.308 109.81 35.77 109.81 36.442V37.972C109.81 39.904 109.618 41.608 109.234 43.084C108.862 44.548 108.298 45.82 107.542 46.9C107.386 47.14 107.158 47.29 106.858 47.35C106.57 47.41 106.3 47.356 106.048 47.188ZM137.89 47.386C137.554 47.386 137.278 47.278 137.062 47.062C136.858 46.858 136.75 46.6 136.738 46.288C136.726 45.988 136.816 45.73 137.008 45.514C137.2 45.298 137.464 45.178 137.8 45.154C138.292 45.118 138.604 45.046 138.736 44.938C138.88 44.818 138.952 44.566 138.952 44.182V37.612H135.676C135.388 37.612 135.154 37.522 134.974 37.342C134.806 37.162 134.722 36.94 134.722 36.676C134.722 36.424 134.8 36.208 134.956 36.028C134.848 36.076 134.71 36.1 134.542 36.1H133.912C133.744 36.964 133.516 37.81 133.228 38.638C132.94 39.466 132.592 40.27 132.184 41.05C132.64 41.602 133.072 42.154 133.48 42.706C133.888 43.258 134.254 43.78 134.578 44.272C134.758 44.548 134.824 44.83 134.776 45.118C134.74 45.394 134.584 45.622 134.308 45.802C134.044 45.982 133.762 46.048 133.462 46C133.174 45.94 132.946 45.772 132.778 45.496C132.286 44.692 131.704 43.846 131.032 42.958C130.108 44.302 129.01 45.466 127.738 46.45C127.498 46.642 127.222 46.732 126.91 46.72C126.61 46.708 126.358 46.57 126.154 46.306C125.986 46.102 125.914 45.862 125.938 45.586C125.974 45.31 126.1 45.094 126.316 44.938C127.636 43.99 128.77 42.784 129.718 41.32C129.286 40.828 128.854 40.354 128.422 39.898C127.99 39.442 127.576 39.034 127.18 38.674C126.976 38.482 126.88 38.254 126.892 37.99C126.904 37.726 126.988 37.51 127.144 37.342C127.324 37.15 127.546 37.042 127.81 37.018C128.074 36.994 128.32 37.078 128.548 37.27C128.908 37.57 129.274 37.9 129.646 38.26C130.018 38.62 130.39 39.004 130.762 39.412C131.002 38.884 131.212 38.35 131.392 37.81C131.584 37.258 131.74 36.688 131.86 36.1H127.054C126.79 36.1 126.574 36.01 126.406 35.83C126.238 35.638 126.154 35.41 126.154 35.146C126.154 34.882 126.238 34.66 126.406 34.48C126.574 34.3 126.802 34.21 127.09 34.21H129.844V32.086C129.844 31.75 129.952 31.48 130.168 31.276C130.396 31.072 130.66 30.97 130.96 30.97C131.272 30.97 131.536 31.072 131.752 31.276C131.98 31.48 132.094 31.75 132.094 32.086V34.21H134.578C134.866 34.21 135.094 34.3 135.262 34.48C135.442 34.66 135.532 34.882 135.532 35.146C135.532 35.398 135.454 35.614 135.298 35.794C135.394 35.746 135.52 35.722 135.676 35.722H138.952V32.014C138.952 31.702 139.054 31.45 139.258 31.258C139.462 31.066 139.708 30.97 139.996 30.97C140.284 30.97 140.53 31.066 140.734 31.258C140.938 31.45 141.04 31.702 141.04 32.014V35.722H142.282C142.57 35.722 142.798 35.818 142.966 36.01C143.134 36.19 143.218 36.412 143.218 36.676C143.218 36.94 143.134 37.162 142.966 37.342C142.798 37.522 142.57 37.612 142.282 37.612H141.04V44.542C141.04 45.25 140.944 45.814 140.752 46.234C140.56 46.654 140.236 46.948 139.78 47.116C139.324 47.296 138.694 47.386 137.89 47.386ZM137.26 42.49C137.008 42.634 136.744 42.682 136.468 42.634C136.192 42.574 135.988 42.424 135.856 42.184C135.748 41.98 135.604 41.746 135.424 41.482C135.244 41.206 135.064 40.93 134.884 40.654C134.704 40.378 134.542 40.15 134.398 39.97C134.242 39.754 134.182 39.514 134.218 39.25C134.266 38.986 134.404 38.776 134.632 38.62C134.872 38.452 135.124 38.386 135.388 38.422C135.664 38.458 135.886 38.584 136.054 38.8C136.21 38.98 136.384 39.214 136.576 39.502C136.78 39.778 136.972 40.06 137.152 40.348C137.344 40.624 137.494 40.852 137.602 41.032C137.77 41.284 137.824 41.548 137.764 41.824C137.704 42.1 137.536 42.322 137.26 42.49ZM155.62 47.692C155.344 47.692 155.104 47.596 154.9 47.404C154.708 47.224 154.612 46.984 154.612 46.684V43.39C153.784 44.086 152.884 44.752 151.912 45.388C150.94 46.012 149.998 46.534 149.086 46.954C148.762 47.098 148.462 47.14 148.186 47.08C147.91 47.032 147.694 46.864 147.538 46.576C147.406 46.3 147.394 46.03 147.502 45.766C147.622 45.49 147.832 45.286 148.132 45.154C148.624 44.95 149.158 44.692 149.734 44.38C150.322 44.068 150.916 43.726 151.516 43.354C152.128 42.97 152.698 42.586 153.226 42.202C153.766 41.806 154.228 41.428 154.612 41.068V40.51H152.452C151.972 40.51 151.648 40.576 151.48 40.708C151.324 40.828 151.246 41.092 151.246 41.5V42.616C151.246 42.928 151.144 43.18 150.94 43.372C150.748 43.564 150.508 43.66 150.22 43.66C149.932 43.66 149.686 43.564 149.482 43.372C149.29 43.18 149.194 42.928 149.194 42.616V41.5C149.194 40.804 149.284 40.264 149.464 39.88C149.656 39.484 149.986 39.208 150.454 39.052C150.934 38.884 151.6 38.8 152.452 38.8H154.612V37.954H148.312C148.072 37.954 147.862 37.87 147.682 37.702C147.514 37.522 147.43 37.312 147.43 37.072C147.43 36.832 147.514 36.628 147.682 36.46C147.862 36.28 148.072 36.19 148.312 36.19H154.612V35.83C154.612 35.626 154.66 35.446 154.756 35.29C154.636 34.954 154.69 34.642 154.918 34.354C155.134 34.102 155.356 33.778 155.584 33.382C155.824 32.986 156.052 32.584 156.268 32.176C156.484 31.768 156.658 31.42 156.79 31.132C156.922 30.856 157.132 30.682 157.42 30.61C157.708 30.538 157.984 30.568 158.248 30.7C158.512 30.832 158.668 31.03 158.716 31.294C158.776 31.546 158.746 31.798 158.626 32.05C158.614 32.098 158.59 32.146 158.554 32.194C158.53 32.242 158.506 32.296 158.482 32.356H162.964C163.192 32.356 163.384 32.44 163.54 32.608C163.708 32.764 163.792 32.956 163.792 33.184C163.792 33.412 163.708 33.604 163.54 33.76C163.384 33.916 163.192 33.994 162.964 33.994H160.768C160.816 34.114 160.864 34.234 160.912 34.354C160.96 34.462 160.996 34.558 161.02 34.642C161.116 34.87 161.104 35.11 160.984 35.362C160.876 35.602 160.684 35.77 160.408 35.866C160.168 35.95 159.922 35.956 159.67 35.884C159.418 35.8 159.25 35.632 159.166 35.38C159.118 35.236 159.04 35.02 158.932 34.732C158.824 34.432 158.74 34.186 158.68 33.994H157.582C157.426 34.258 157.27 34.504 157.114 34.732C156.97 34.96 156.832 35.158 156.7 35.326C156.688 35.35 156.67 35.38 156.646 35.416C156.622 35.44 156.598 35.464 156.574 35.488C156.61 35.596 156.628 35.71 156.628 35.83V36.19H162.946C163.186 36.19 163.39 36.28 163.558 36.46C163.738 36.628 163.828 36.832 163.828 37.072C163.828 37.312 163.738 37.522 163.558 37.702C163.39 37.87 163.186 37.954 162.946 37.954H156.628V38.8H159.004C159.82 38.8 160.456 38.872 160.912 39.016C161.368 39.16 161.686 39.406 161.866 39.754C162.058 40.102 162.154 40.576 162.154 41.176C162.154 41.98 161.986 42.562 161.65 42.922C161.314 43.282 160.816 43.498 160.156 43.57C161.224 44.23 162.238 44.764 163.198 45.172C163.498 45.292 163.696 45.484 163.792 45.748C163.888 46 163.87 46.258 163.738 46.522C163.582 46.822 163.36 47.002 163.072 47.062C162.784 47.122 162.496 47.086 162.208 46.954C161.248 46.534 160.276 46.006 159.292 45.37C158.32 44.734 157.432 44.068 156.628 43.372V46.684C156.628 46.984 156.526 47.224 156.322 47.404C156.13 47.596 155.896 47.692 155.62 47.692ZM152.848 35.866C152.608 35.95 152.362 35.956 152.11 35.884C151.858 35.8 151.69 35.632 151.606 35.38C151.558 35.236 151.48 35.02 151.372 34.732C151.264 34.432 151.18 34.186 151.12 33.994H150.202C149.878 34.534 149.59 34.972 149.338 35.308C149.146 35.56 148.906 35.722 148.618 35.794C148.342 35.866 148.078 35.824 147.826 35.668C147.598 35.524 147.46 35.32 147.412 35.056C147.376 34.78 147.442 34.54 147.61 34.336C147.814 34.084 148.036 33.76 148.276 33.364C148.528 32.968 148.768 32.572 148.996 32.176C149.224 31.768 149.398 31.432 149.518 31.168C149.65 30.892 149.842 30.712 150.094 30.628C150.346 30.532 150.604 30.544 150.868 30.664C151.12 30.76 151.294 30.928 151.39 31.168C151.498 31.408 151.492 31.648 151.372 31.888C151.3 32.044 151.222 32.2 151.138 32.356H154.756C154.984 32.356 155.176 32.44 155.332 32.608C155.488 32.764 155.566 32.956 155.566 33.184C155.566 33.412 155.488 33.604 155.332 33.76C155.176 33.916 154.984 33.994 154.756 33.994H153.208C153.256 34.114 153.304 34.234 153.352 34.354C153.4 34.462 153.436 34.558 153.46 34.642C153.556 34.87 153.544 35.11 153.424 35.362C153.316 35.602 153.124 35.77 152.848 35.866ZM158.572 42.526C158.596 42.322 158.686 42.148 158.842 42.004C158.998 41.848 159.19 41.752 159.418 41.716C159.682 41.68 159.85 41.62 159.922 41.536C159.994 41.452 160.03 41.314 160.03 41.122C160.03 40.882 159.976 40.72 159.868 40.636C159.76 40.552 159.532 40.51 159.184 40.51H156.628V40.978C156.904 41.242 157.204 41.506 157.528 41.77C157.864 42.022 158.212 42.274 158.572 42.526Z" fill="#0A64C6"/>
    <path d="M174.967 46.798C174.676 46.9247 174.378 46.931 174.074 46.817C173.77 46.7157 173.548 46.5193 173.409 46.228C173.282 45.9367 173.27 45.639 173.371 45.335C173.485 45.0183 173.688 44.7967 173.979 44.67C175.41 43.9987 176.468 43.093 177.152 41.953C177.836 40.813 178.197 39.3437 178.235 37.545H175.347C175.36 38.0517 175.366 38.533 175.366 38.989C175.366 39.445 175.353 39.8567 175.328 40.224C175.315 40.5533 175.189 40.8257 174.948 41.041C174.707 41.2437 174.422 41.3387 174.093 41.326C173.776 41.3007 173.517 41.1677 173.314 40.927C173.111 40.6737 173.016 40.3887 173.029 40.072C173.054 39.73 173.067 39.3437 173.067 38.913C173.067 38.4697 173.061 38.0137 173.048 37.545H169.153C168.836 37.545 168.564 37.4373 168.336 37.222C168.121 37.0067 168.013 36.7407 168.013 36.424C168.013 36.1073 168.121 35.8413 168.336 35.626C168.564 35.398 168.836 35.284 169.153 35.284H172.972C172.947 34.8407 172.915 34.4227 172.877 34.03C172.852 33.6247 172.814 33.27 172.763 32.966C172.712 32.6493 172.776 32.3643 172.953 32.111C173.143 31.845 173.396 31.6867 173.713 31.636C174.042 31.5727 174.334 31.636 174.587 31.826C174.853 32.016 175.005 32.2693 175.043 32.586C175.094 32.9407 175.138 33.3523 175.176 33.821C175.214 34.277 175.246 34.7647 175.271 35.284H178.216C178.203 34.7393 178.184 34.2137 178.159 33.707C178.146 33.1877 178.121 32.738 178.083 32.358C178.058 32.0287 178.146 31.7437 178.349 31.503C178.564 31.2497 178.83 31.1103 179.147 31.085C179.476 31.0597 179.761 31.1547 180.002 31.37C180.255 31.5727 180.388 31.8387 180.401 32.168C180.439 32.5607 180.464 33.0357 180.477 33.593C180.502 34.1377 180.521 34.7013 180.534 35.284H184.144C184.461 35.284 184.727 35.398 184.942 35.626C185.17 35.8413 185.284 36.1073 185.284 36.424C185.284 36.7407 185.17 37.0067 184.942 37.222C184.727 37.4373 184.461 37.545 184.144 37.545H180.534C180.496 39.7997 180.008 41.706 179.071 43.264C178.134 44.8093 176.766 45.9873 174.967 46.798ZM197.14 46.836C196.823 46.836 196.551 46.7157 196.323 46.475C196.095 46.247 195.981 45.9747 195.981 45.658V38.058C195.17 38.7673 194.334 39.4513 193.473 40.11C192.612 40.7687 191.75 41.3703 190.889 41.915C190.61 42.0797 190.313 42.124 189.996 42.048C189.692 41.972 189.451 41.7947 189.274 41.516C189.109 41.2373 189.065 40.9397 189.141 40.623C189.217 40.3063 189.394 40.0657 189.673 39.901C190.471 39.407 191.301 38.8307 192.162 38.172C193.036 37.5133 193.885 36.8103 194.708 36.063C195.544 35.3157 196.31 34.5683 197.007 33.821C197.716 33.061 198.305 32.3453 198.774 31.674C198.964 31.408 199.217 31.2433 199.534 31.18C199.851 31.1167 200.142 31.18 200.408 31.37C200.674 31.5473 200.839 31.8007 200.902 32.13C200.965 32.4467 200.902 32.738 200.712 33.004C200.053 33.8907 199.255 34.8217 198.318 35.797V45.658C198.318 45.9747 198.204 46.247 197.976 46.475C197.748 46.7157 197.469 46.836 197.14 46.836Z" fill="#0A64C6"/>
    <path d="M210.341 46.817C210.024 46.817 209.752 46.703 209.524 46.475C209.296 46.247 209.182 45.9747 209.182 45.658V32.529C209.182 32.1997 209.296 31.9273 209.524 31.712C209.752 31.484 210.024 31.37 210.341 31.37C210.67 31.37 210.949 31.484 211.177 31.712C211.405 31.9273 211.519 32.1997 211.519 32.529V37.108C211.684 36.8547 211.912 36.69 212.203 36.614C212.494 36.5253 212.779 36.5507 213.058 36.69C213.805 37.0827 214.565 37.5323 215.338 38.039C216.123 38.5457 216.801 39.0397 217.371 39.521C217.624 39.7237 217.764 39.996 217.789 40.338C217.827 40.6673 217.738 40.9587 217.523 41.212C217.32 41.4527 217.054 41.592 216.725 41.63C216.396 41.6553 216.104 41.5667 215.851 41.364C215.496 41.0853 215.085 40.7877 214.616 40.471C214.16 40.1543 213.698 39.8503 213.229 39.559C212.773 39.255 212.355 38.9953 211.975 38.78C211.772 38.666 211.62 38.5267 211.519 38.362V45.658C211.519 45.9747 211.405 46.247 211.177 46.475C210.949 46.703 210.67 46.817 210.341 46.817Z" fill="#0A64C6"/>
    <path d="M0.00102814 26.5077C0.00118128 26.6179 0.000953303 26.728 0.000347537 26.8381C-0.00404206 27.6454 0.033024 28.4421 0.111065 29.2456C0.116276 29.2993 0.116276 29.2993 0.121593 29.354C0.140133 29.5395 0.161673 29.7245 0.185735 29.9094C0.189118 29.9359 0.192501 29.9625 0.195987 29.9899C0.319944 30.9576 0.510909 31.9154 0.741616 32.863C0.751038 32.9019 0.76046 32.9408 0.770168 32.9809C1.24923 34.9306 1.97686 36.8452 2.93156 38.6118C3.00198 38.7426 3.06758 38.8755 3.13315 39.0088C3.50077 39.7501 3.96223 40.4423 4.42536 41.1265C4.44385 41.154 4.46234 41.1815 4.48139 41.2098C4.72888 41.5775 4.98557 41.9361 5.25503 42.2881C5.28442 42.3267 5.31381 42.3654 5.34318 42.4041C5.62693 42.7766 5.92668 43.1346 6.23229 43.4892C6.28338 43.5486 6.3342 43.6083 6.38494 43.668C6.40172 43.6877 6.4185 43.7075 6.43578 43.7278C6.46678 43.7642 6.49774 43.8007 6.52862 43.8372C6.86467 44.2312 7.2274 44.5985 7.59341 44.9645C7.67768 45.0488 7.76169 45.1334 7.84568 45.218C8.08882 45.462 8.32918 45.7023 8.60068 45.9148C8.70229 45.9946 8.7955 46.0819 8.889 46.1709C9.04484 46.3168 9.20414 46.4557 9.37072 46.5893C9.44422 46.6482 9.51705 46.7077 9.58955 46.7679C9.89343 47.0192 10.2065 47.254 10.5282 47.4819C10.5929 47.5279 10.6574 47.5742 10.7217 47.6208C11.7231 48.3445 12.7861 48.9713 13.8896 49.5256C13.9486 49.5553 14.0074 49.5852 14.0662 49.6151C15.5516 50.3683 17.1477 50.9146 18.7621 51.3149C18.8073 51.3261 18.8073 51.3261 18.8533 51.3376C19.6919 51.5462 20.5301 51.7338 21.3853 51.8597C21.5079 51.8778 21.6303 51.8967 21.7528 51.9158C22.2442 51.9899 22.7372 52.0393 23.232 52.0844C23.2781 52.0886 23.2781 52.0886 23.3252 52.0929C23.5298 52.1115 23.7344 52.1286 23.9392 52.1446C23.9625 52.1464 23.9858 52.1483 24.0098 52.1502C24.5615 52.1929 25.1161 52.1859 25.6691 52.1861C25.7084 52.1861 25.7084 52.1861 25.7485 52.1861C26.5523 52.1865 27.3488 52.1709 28.1487 52.0856C28.2217 52.0781 28.2947 52.071 28.3677 52.0642C29.5718 51.9513 30.7594 51.7429 31.9357 51.4636C32.0422 51.4386 32.149 51.4147 32.2557 51.3905C33.3764 51.1299 34.4941 50.7745 35.5546 50.3279C35.6547 50.2859 35.7553 50.2453 35.8561 50.2048C36.752 49.8408 37.6405 49.4145 38.4751 48.9254C38.5012 48.9102 38.5273 48.895 38.5542 48.8793C39.5592 48.2912 40.5733 47.6575 41.4619 46.901C41.4828 46.8841 41.5036 46.8672 41.5251 46.8498C41.7637 46.6383 41.9445 46.2809 41.9676 45.9623C41.9764 45.5166 41.8661 45.1718 41.5626 44.8381C41.2646 44.5498 40.8992 44.4319 40.4916 44.4361C39.9179 44.4778 39.4388 44.8978 38.9876 45.2175C38.5817 45.5047 38.1677 45.7763 37.745 46.0382C37.7249 46.0507 37.7048 46.0633 37.6841 46.0762C35.3803 47.5115 32.7816 48.483 29.3487 49.0914C29.2865 49.1009 29.2865 49.1009 29.223 49.1106C28.7181 49.1871 28.2128 49.2399 27.7039 49.2801C27.6784 49.2821 27.6528 49.2842 27.6265 49.2863C26.9827 49.3364 26.3398 49.3639 25.694 49.3631C25.6626 49.3631 25.6312 49.363 25.5989 49.363C23.9087 49.3601 22.2053 49.1917 20.5542 48.8259C20.5317 48.8209 20.5092 48.8159 20.486 48.8108C19.7551 48.649 19.0353 48.4634 18.3223 48.235C18.2059 48.1979 18.0893 48.1616 17.9726 48.1255C16.1645 47.5549 14.3888 46.6668 12.8216 45.6068C12.7982 45.591 12.7748 45.5753 12.7507 45.559C11.9644 45.029 11.2094 44.4546 10.5076 43.8165C10.437 43.7526 10.3653 43.6902 10.2932 43.628C10.1835 43.5329 10.0821 43.4318 9.98235 43.3263C9.93438 43.2837 9.93438 43.2837 9.86801 43.2837C9.86005 43.2645 9.85209 43.2453 9.8439 43.2256C9.7931 43.1358 9.73483 43.0852 9.65644 43.0182C9.38753 42.782 9.13186 42.5309 8.89962 42.2582C8.83891 42.1881 8.77642 42.1199 8.71341 42.0519C8.37655 41.6881 8.05935 41.3106 7.75581 40.9187C7.71127 40.8615 7.66619 40.8049 7.62089 40.7484C7.40152 40.474 7.19643 40.1912 6.99631 39.9025C6.9495 39.835 6.90241 39.7678 6.85526 39.7005C6.1547 38.6968 5.52137 37.6228 5.01495 36.508C4.97139 36.4123 4.92567 36.3178 4.87909 36.2235C4.66494 35.788 4.48914 35.3442 4.3258 34.8874C4.3126 34.8509 4.29939 34.8143 4.28579 34.7767C3.38514 32.2759 2.87405 29.6327 3.75838 20.1057C3.78639 20.014 3.81401 19.9223 3.84135 19.8305C4.05046 19.1284 4.26385 18.4348 4.55811 17.7629C4.57005 17.7353 4.58199 17.7076 4.59429 17.6791C4.67858 17.4843 4.76685 17.2915 4.85679 17.0992C4.88059 17.048 4.88059 17.048 4.90487 16.9958C5.13929 16.4933 5.39152 16.0063 5.66971 15.5267C5.74698 15.3923 5.82134 15.2563 5.89595 15.1204C6.02925 14.8794 6.16922 14.6436 6.31701 14.4111C6.33003 14.3905 6.34306 14.3698 6.35647 14.3486C6.84858 13.5707 7.39014 12.8305 7.97636 12.1212C7.99204 12.1022 8.00771 12.0831 8.02387 12.0636C8.27556 11.7586 8.53354 11.4619 8.80603 11.1754C8.93491 11.0398 9.06296 10.9043 9.18496 10.7625C9.32057 10.6061 9.46625 10.4605 9.61288 10.3146C9.63977 10.2876 9.66666 10.2605 9.69436 10.2327C9.72005 10.2071 9.74574 10.1814 9.77221 10.155C9.79541 10.1318 9.81861 10.1087 9.84251 10.0848C9.89834 10.028 9.89834 10.028 9.96757 9.99722C9.96757 9.97531 9.96757 9.95341 9.96757 9.93084C9.98691 9.92195 10.0062 9.91305 10.0262 9.90388C10.1012 9.86398 10.1602 9.82006 10.2248 9.76491C10.2451 9.7478 10.2655 9.73068 10.2865 9.71305C10.3326 9.66535 10.3326 9.66535 10.3326 9.59897C10.35 9.592 10.3673 9.58503 10.3851 9.57784C10.4994 9.51339 10.5899 9.42709 10.6873 9.3397C10.9378 9.11855 11.2003 8.91665 11.4671 8.71567C11.5424 8.65832 11.6159 8.59897 11.6891 8.53907C12.0757 8.22841 12.4763 7.93923 12.899 7.67981C13.029 7.59993 13.1553 7.51741 13.2795 7.4286C13.4653 7.29734 13.6593 7.18338 13.8567 7.07055C13.9128 7.0383 13.9128 7.0383 13.9701 7.0054C14.3341 6.79742 14.7046 6.60276 15.0783 6.41303C15.1141 6.39479 15.1141 6.39479 15.1505 6.37618C15.2798 6.31024 15.4097 6.24564 15.5401 6.18184C15.6131 6.14569 15.6855 6.10845 15.7579 6.07118C16.7945 5.54743 17.9069 5.15106 19.0243 4.83953C19.0935 4.8202 19.1625 4.80058 19.2316 4.7809C21.4774 4.14294 23.8264 3.81187 26.1628 3.85764C26.1985 3.85811 26.2341 3.85857 26.2709 3.85905C26.9875 3.86921 27.6969 3.93668 28.4087 4.01511C28.4792 4.02285 28.5497 4.03042 28.6203 4.03793C29.9651 4.18483 31.3199 4.49104 32.6018 4.92011C32.6963 4.9514 32.7912 4.98146 32.8862 5.01115C33.7666 5.28961 34.6276 5.64936 35.4525 6.06332C35.5626 6.11831 35.6732 6.17218 35.7839 6.22597C36.2964 6.47654 36.7926 6.74758 37.2804 7.04359C37.3118 7.06256 37.3431 7.08153 37.3755 7.10108C37.7277 7.31468 38.0737 7.53377 38.4087 7.7737C38.446 7.80012 38.4833 7.82652 38.5206 7.85291C39.0049 8.19631 39.4851 8.54355 39.9372 8.92887C40.0536 9.02801 40.1712 9.12532 40.29 9.22147C40.5625 9.44363 40.8185 9.68375 41.0762 9.92266C41.1701 10.0095 41.2646 10.0951 41.3624 10.1777C41.5072 10.3014 41.6344 10.4357 41.7606 10.578C41.8847 10.7171 42.0139 10.8494 42.1464 10.9804C42.3015 11.1341 42.4494 11.2904 42.5903 11.4574C42.6201 11.4918 42.65 11.5262 42.6799 11.5605C42.8669 11.7758 43.0483 11.9944 43.2231 12.2197C43.3129 12.3353 43.4047 12.4487 43.4988 12.5609C43.7068 12.8138 43.894 13.0823 44.0837 13.3491C44.1011 13.3735 44.1186 13.398 44.1365 13.4231C44.4238 13.8255 44.7114 14.2294 44.9618 14.6561C45.0118 14.7411 45.0631 14.8253 45.1145 14.9095C45.3124 15.2354 45.4957 15.5689 45.6767 15.9045C45.6986 15.9451 45.6986 15.9451 45.7209 15.9865C46.2617 16.9923 46.6956 18.0458 47.0705 19.1236C47.0903 19.1803 47.0903 19.1803 47.1104 19.2382C47.3302 19.8772 47.4972 20.5266 47.6527 21.1837C47.6662 21.2405 47.68 21.2973 47.6938 21.3541C47.9858 22.558 48.1419 23.8267 48.1657 25.0641C48.1664 25.1008 48.1671 25.1375 48.1679 25.1754C48.1959 26.8701 48.0036 28.5435 47.5351 30.1748C47.5171 30.2377 47.5171 30.2377 47.4988 30.3017C46.8685 32.4855 45.945 34.6387 44.6563 36.5189C44.6102 36.5865 44.5646 36.6544 44.519 36.7224C44.4866 36.7703 44.4542 36.8182 44.4218 36.8662C44.407 36.8882 44.3923 36.9102 44.3771 36.9329C44.2893 37.0616 44.1974 37.1702 44.0837 37.2768C44.0616 37.2503 44.0395 37.2238 44.0167 37.1965C43.8603 37.0099 43.7024 36.8262 43.5361 36.6484C43.407 36.5099 43.287 36.3666 43.171 36.2169C42.9127 35.8836 42.6466 35.5696 42.3449 35.2746C42.2621 35.1899 42.1886 35.1026 42.1153 35.0098C41.9274 34.7736 41.7105 34.567 41.4951 34.3564C41.3926 34.2554 41.2933 34.1525 41.1965 34.046C41.0275 33.8601 40.8546 33.6783 40.6779 33.4998C40.6578 33.4793 40.6378 33.4588 40.6172 33.4377C40.5682 33.3886 40.5174 33.3413 40.4663 33.2944C40.4444 33.2944 40.4225 33.2944 40.3999 33.2944C40.3999 33.2725 40.3999 33.2506 40.3999 33.228C40.2182 33.0621 40.2182 33.0621 40.1344 33.0621C40.1344 33.0402 40.1344 33.0183 40.1344 32.9957C40.0845 32.9466 40.0845 32.9466 40.0162 32.8899C39.9262 32.8136 39.8408 32.7365 39.759 32.6514C39.6394 32.5299 39.5088 32.4249 39.3761 32.318C39.2573 32.2216 39.1421 32.1213 39.0268 32.0209C38.984 31.9836 38.9411 31.9464 38.8982 31.9091C38.8668 31.8818 38.8668 31.8818 38.8347 31.8539C38.8146 31.8365 38.7945 31.819 38.7738 31.801C38.7556 31.7852 38.7373 31.7693 38.7186 31.753C38.4377 31.5097 38.1466 31.282 37.8498 31.0585C37.7796 31.0056 37.7094 30.9524 37.6393 30.8991C37.4059 30.7223 37.1703 30.5503 36.9284 30.3851C36.8225 30.3126 36.718 30.2382 36.6135 30.1636C36.3346 29.9649 36.0514 29.7747 35.762 29.5917C35.6859 29.5433 35.6101 29.4944 35.5343 29.4454C35.0561 29.1398 34.5573 28.8766 34.0544 28.6145C33.9414 28.5556 33.8289 28.4959 33.7164 28.4359C33.1419 28.1305 32.5567 27.8631 31.9518 27.6236C31.9139 27.6086 31.8761 27.5936 31.8371 27.5781C31.6127 27.4907 31.3875 27.4145 31.1564 27.3471C31.0771 27.3285 31.0771 27.3285 31.0412 27.2876C31.0388 27.215 31.0385 27.1424 31.0392 27.0698C31.0396 27.0102 31.0396 27.0102 31.0401 26.9494C31.0407 26.9032 31.0407 26.9032 31.0412 26.8562C31.1993 26.785 31.3534 26.7305 31.5212 26.6848C31.569 26.6716 31.6169 26.6583 31.6647 26.6451C31.6895 26.6383 31.7144 26.6314 31.7399 26.6244C33.5339 26.1284 35.2769 25.3364 36.7846 24.2365C36.8776 24.1642 36.8776 24.1642 36.9817 24.1348C36.987 24.1659 36.987 24.1659 36.9925 24.1976C37.0109 24.2826 37.0326 24.3641 37.057 24.4475C37.3821 25.5621 37.4835 26.7249 37.3707 27.8796C37.359 28.0882 37.3939 28.2105 37.5161 28.3804C37.6675 28.5456 37.8447 28.6612 38.0333 28.7789C38.2491 28.9162 38.4581 29.0605 38.6639 29.2124C38.6902 29.2318 38.7166 29.2513 38.7438 29.2713C38.8678 29.3635 38.9895 29.4573 39.1079 29.5566C39.1286 29.5738 39.1494 29.591 39.1708 29.6088C39.2091 29.6408 39.2468 29.6733 39.284 29.7065C39.3837 29.7899 39.429 29.8101 39.5609 29.8058C39.6892 29.7714 39.7467 29.7429 39.8358 29.6439C39.9375 29.4157 39.9759 29.164 40.0204 28.92C40.0273 28.8841 40.0342 28.8483 40.0413 28.8114C40.158 28.1796 40.1811 27.5513 40.1801 26.9101C40.1801 26.8707 40.1801 26.8312 40.1801 26.7906C40.179 26.1812 40.1496 25.5973 40.0349 24.9977C40.0235 24.9321 40.0121 24.8665 40.0008 24.8009C39.8015 23.7101 39.4207 22.6559 38.948 21.6562C38.9222 21.6012 38.9222 21.6012 38.8959 21.5451C38.6645 21.069 38.3749 20.745 37.8777 20.5506C37.5968 20.457 37.2358 20.4911 36.9673 20.6068C36.6926 20.7468 36.4673 20.9169 36.2467 21.1305C36.1022 21.27 35.9471 21.3919 35.787 21.5131C35.7629 21.5314 35.7389 21.5497 35.7142 21.5686C35.3309 21.8596 34.9368 22.1257 34.5259 22.3759C34.5036 22.3896 34.4814 22.4032 34.4585 22.4172C34.3356 22.4925 34.2121 22.5666 34.0878 22.6395C34.0485 22.6626 34.0092 22.6859 33.9701 22.7094C33.5212 22.9782 33.0442 23.19 32.5678 23.4047C32.54 23.4175 32.5122 23.4303 32.4835 23.4435C32.0053 23.663 31.5038 23.8206 31.0044 23.9842C30.9815 23.9917 30.9586 23.9992 30.9349 24.007C30.5963 24.1252 30.5963 24.1252 30.2448 24.1348C30.1742 24.0637 30.133 24.0111 30.083 23.9274C30.055 23.8845 30.0268 23.8418 29.9986 23.7991C29.9845 23.7774 29.9704 23.7558 29.9559 23.7335C29.7793 23.4735 29.5571 23.2411 29.3487 23.0065C29.4225 22.8224 29.5125 22.6492 29.6054 22.474C30.1399 21.4643 30.5199 20.4276 30.8089 19.3227C30.8227 19.2716 30.8365 19.2206 30.8503 19.1695C30.9142 18.9264 30.9656 18.6819 31.0122 18.435C31.0175 18.4078 31.0227 18.3805 31.0282 18.3525C31.1361 17.7565 31.1542 17.158 31.1532 16.5537C31.1533 16.5159 31.1533 16.4782 31.1533 16.4393C31.1505 14.6318 31.1505 14.6318 30.5803 14.0109C29.6694 13.1192 27.9673 12.9643 26.7601 12.7849C26.728 12.78 26.6959 12.7751 26.6629 12.77C24.5582 12.4557 21.843 12.9489 20.0896 14.1788C19.7606 14.4296 19.4803 14.7228 19.4086 15.1426C19.3618 15.6448 19.5342 15.9973 19.8473 16.3782C19.917 16.4608 19.9871 16.5432 20.0573 16.6254C20.2432 16.8434 20.4188 17.0665 20.5874 17.2983C20.6007 17.3165 20.614 17.3347 20.6277 17.3534C21.441 18.4665 22.1023 19.6976 22.5782 20.9907C22.6135 21.0864 22.6493 21.1819 22.685 21.2774C22.709 21.3421 22.733 21.4068 22.757 21.4716C22.7736 21.516 22.7736 21.516 22.7905 21.5613C22.857 21.7428 22.9057 21.9209 22.9436 22.1104C22.9243 22.1217 22.905 22.133 22.885 22.1447C22.4351 22.4106 22.0235 22.7134 21.6162 23.0397C21.5817 23.0214 21.5817 23.0214 21.5466 23.0028C20.7924 22.6047 20.0348 22.2333 19.2297 21.9477C19.1611 21.9234 19.0926 21.8987 19.0242 21.8737C17.245 21.226 14.4657 20.6149 12.6682 21.4363C12.1796 21.712 11.9382 22.1395 11.7265 22.6414C11.7144 22.6699 11.7022 22.6984 11.6898 22.7278C11.2635 23.7387 10.9406 24.799 10.8304 25.8937C10.8273 25.9237 10.8242 25.9536 10.8209 25.9845C10.6506 27.8523 10.9507 29.65 11.6933 31.3696C11.7047 31.3964 11.7162 31.4232 11.728 31.4508C11.9261 31.9056 12.196 32.2785 12.6557 32.4979C12.6774 32.5087 12.6991 32.5195 12.7214 32.5306C13.0449 32.672 13.3921 32.6519 13.7177 32.5311C14.0278 32.3849 14.2996 32.1506 14.5624 31.9326C14.8183 31.7206 15.0957 31.5454 15.377 31.3696C15.4082 31.35 15.4082 31.35 15.4399 31.33C16.9526 30.3831 18.6638 29.7954 20.4169 29.4927C20.4878 29.4779 20.4878 29.4779 20.5542 29.4447C20.5624 29.4677 20.5706 29.4906 20.5791 29.5142C20.627 29.6256 20.6875 29.7251 20.7533 29.8264C20.7664 29.8466 20.7795 29.8668 20.793 29.8876C20.9968 30.1976 21.2245 30.4861 21.4767 30.7585C21.5699 30.8606 21.6594 30.9656 21.7489 31.0709C21.7379 31.0905 21.7269 31.1101 21.7156 31.1303C21.0511 32.3224 20.5339 33.5575 20.2223 34.8874C20.2098 34.9405 20.2098 34.9405 20.197 34.9948C20.0829 35.486 20.0082 35.9789 19.9568 36.4804C19.9524 36.5218 19.948 36.5633 19.9435 36.606C19.9329 36.7301 19.9269 36.8537 19.9236 36.9782C19.9227 37.0124 19.9218 37.0467 19.9209 37.082C19.8717 39.3223 19.8717 39.3223 20.5205 40.0049C20.9453 40.3836 21.5417 40.5599 22.0746 40.7304C22.1012 40.7389 22.1278 40.7475 22.1553 40.7563C22.634 40.9097 23.1124 41.0367 23.6074 41.1265C23.6418 41.1334 23.6762 41.1402 23.7117 41.1472C24.9139 41.3808 26.2905 41.3686 27.4902 41.1265C27.5507 41.115 27.5507 41.115 27.6124 41.1033C28.9036 40.8545 30.7714 40.4218 31.6054 39.3344C31.8088 39.0308 31.8397 38.6579 31.7714 38.3056C31.6832 37.998 31.5192 37.7768 31.3067 37.5423C31.2917 37.5257 31.2767 37.5091 31.2612 37.492C31.1835 37.4062 31.1053 37.3208 31.0266 37.2359C30.7941 36.9846 30.5833 36.7204 30.3775 36.4472C30.3436 36.4025 30.3436 36.4025 30.3089 36.3569C30.145 36.1371 30.0003 35.9073 29.8566 35.674C29.8003 35.5828 29.7419 35.4939 29.6806 35.4059C29.551 35.2145 29.444 35.0095 29.333 34.807C29.2812 34.7127 29.2287 34.619 29.1746 34.526C29.163 34.506 29.1514 34.486 29.1394 34.4654C29.1085 34.4124 29.0774 34.3596 29.0463 34.3067C28.9779 34.1797 28.9187 34.0503 28.8599 33.9186C28.8218 33.8345 28.7823 33.7515 28.7418 33.6685C28.5606 33.2919 28.4139 32.908 28.2805 32.5124C28.2722 32.4882 28.2639 32.464 28.2554 32.439C28.2317 32.3696 28.2086 32.3 28.1857 32.2302C28.1724 32.1899 28.159 32.1495 28.1453 32.1079C28.1204 31.9984 28.1153 31.9389 28.154 31.8342C28.2331 31.7758 28.3074 31.7285 28.3925 31.6807C29.0614 31.2831 29.6045 30.7488 30.0456 30.1085C30.2662 30.1264 30.4539 30.2035 30.6575 30.2869C30.6939 30.3016 30.7304 30.3164 30.7679 30.3316C31.1521 30.489 31.5286 30.6616 31.9041 30.8386C31.9554 30.8626 31.9554 30.8626 32.0077 30.887C32.1102 30.935 32.2125 30.9832 32.3148 31.0315C32.3453 31.0458 32.3759 31.0601 32.4074 31.0749C32.6125 31.1727 32.8062 31.2832 32.9993 31.4028C33.0389 31.4268 33.0787 31.4508 33.1184 31.4747C33.1551 31.4968 33.1917 31.5189 33.2295 31.5417C33.3957 31.6419 33.5631 31.7395 33.7316 31.8357C34.1611 32.0814 34.5671 32.3535 34.9682 32.6427C35.0792 32.7227 35.1911 32.8015 35.3032 32.8801C35.7103 33.166 36.1015 33.4647 36.4843 33.7822C36.5878 33.8681 36.692 33.953 36.7971 34.037C36.8226 34.0573 36.8481 34.0777 36.8744 34.0987C36.9242 34.1381 36.9743 34.1771 37.0247 34.2159C37.2498 34.391 37.4557 34.5838 37.6629 34.7793C37.7645 34.875 37.8682 34.9675 37.9739 35.0587C38.33 35.3697 38.6642 35.7019 38.998 36.0365C39.0831 36.1218 39.1684 36.2069 39.2538 36.2921C39.3087 36.347 39.3636 36.4019 39.4185 36.4569C39.4436 36.482 39.4687 36.507 39.4946 36.5329C39.6834 36.7225 39.8611 36.9189 40.0287 37.1275C40.0526 37.1549 40.0766 37.1823 40.1013 37.2105C40.1232 37.2105 40.1451 37.2105 40.1676 37.2105C40.1761 37.2299 40.1847 37.2494 40.1934 37.2695C40.2377 37.35 40.2853 37.3988 40.3522 37.4614C40.4846 37.5905 40.6 37.7282 40.7156 37.8723C40.8082 37.9861 40.9035 38.0972 40.9994 38.2081C41.3006 38.5581 41.5817 38.9233 41.8647 39.2879C41.9258 39.3666 41.9869 39.4452 42.0481 39.5238C42.0878 39.5748 42.1275 39.6257 42.1671 39.6767C42.1864 39.7015 42.2057 39.7262 42.2256 39.7518C42.3281 39.8835 42.4301 40.0156 42.5314 40.1482C42.5949 40.2312 42.659 40.3138 42.723 40.3964C42.7401 40.4191 42.7572 40.4418 42.7747 40.4651C43.0264 40.7831 43.3667 40.957 43.7539 41.0519C44.2056 41.0903 44.5854 41.0159 44.9465 40.7283C45.2067 40.4974 45.432 40.2406 45.6435 39.965C45.6916 39.9047 45.74 39.8448 45.7885 39.7848C46.1056 39.3914 46.4026 38.9852 46.6921 38.5712C46.733 38.5128 46.7741 38.4544 46.8153 38.3961C47.3737 37.599 47.8796 36.7695 48.3209 35.902C48.3736 35.7994 48.4284 35.6981 48.4834 35.5967C48.6456 35.2968 48.7869 34.9892 48.9235 34.6768C48.9626 34.5876 49.0022 34.4986 49.0419 34.4095C49.9662 32.3241 50.6112 30.1509 50.887 27.885C50.8915 27.8485 50.8961 27.8121 50.9008 27.7746C50.9827 27.1052 51.0023 26.444 50.9995 25.7703C50.999 25.6316 50.9993 25.4929 50.9999 25.3543C51.0032 24.4161 50.9448 23.4894 50.8082 22.5605C50.8029 22.5238 50.8029 22.5238 50.7975 22.4863C50.6069 21.1628 50.3067 19.8654 49.882 18.5975C49.8579 18.5252 49.834 18.4529 49.8102 18.3805C49.4546 17.2991 49.0253 16.2626 48.5286 15.2385C48.4991 15.1775 48.4698 15.1164 48.4405 15.0554C48.169 14.4895 47.8618 13.9511 47.5351 13.4155C47.5121 13.3774 47.4891 13.3393 47.4662 13.3012C47.2101 12.8764 46.9482 12.4599 46.6564 12.0587C46.6015 11.9823 46.5478 11.905 46.4944 11.8276C46.2343 11.4504 45.9628 11.0851 45.6767 10.7273C45.6487 10.6924 45.6487 10.6924 45.6202 10.6568C45.301 10.259 44.9782 9.86441 44.6292 9.49212C44.5458 9.40334 44.5458 9.40334 44.4819 9.30029C44.46 9.30029 44.4381 9.30029 44.4156 9.30029C44.4025 9.27084 44.4025 9.27084 44.3891 9.24079C44.3474 9.16427 44.3045 9.11719 44.2413 9.05762C44.1393 8.9592 44.0483 8.85611 43.9596 8.74558C43.9458 8.73151 43.932 8.71743 43.9178 8.70293C43.8958 8.70293 43.8739 8.70293 43.8514 8.70293C43.8441 8.68487 43.8368 8.66681 43.8294 8.6482C43.7704 8.54446 43.6906 8.46698 43.6064 8.38389C43.5887 8.36622 43.571 8.34854 43.5528 8.33033C43.5153 8.29296 43.4777 8.25567 43.4401 8.21845C43.3833 8.16228 43.3268 8.10585 43.2703 8.04937C43.0824 7.86206 42.8928 7.67929 42.6898 7.5082C42.6524 7.4759 42.6149 7.44358 42.5774 7.41123C42.4602 7.31065 42.3427 7.21028 42.2252 7.10996C42.2072 7.09454 42.1892 7.07913 42.1706 7.06324C41.5804 6.55887 40.9757 6.07854 40.3391 5.63392C40.2696 5.58503 40.2005 5.53558 40.1315 5.48588C39.5673 5.08046 38.9798 4.71456 38.3731 4.37653C38.2682 4.31789 38.1636 4.25856 38.0591 4.19924C36.709 3.43665 35.295 2.81164 33.8251 2.31895C33.7297 2.28679 33.6346 2.25378 33.5393 2.22099C32.4254 1.84402 31.2716 1.56261 30.112 1.36863C30.0895 1.36483 30.0669 1.36102 30.0437 1.35711C28.7308 1.1372 27.3942 1.01215 26.0632 1.00357C26.0025 1.0027 25.9419 1.0018 25.8812 1.00085C25.7497 0.999264 25.6183 1.00001 25.4867 1.00219C25.4249 1.00317 25.3629 1.00384 25.301 1.0043C22.1721 1.03221 18.9704 1.68051 15.4766 3.09434C15.4218 3.11805 15.4218 3.11805 15.3659 3.14224C14.4485 3.54104 13.5512 3.98033 12.6889 4.48819C12.6466 4.51306 12.6466 4.51306 12.6035 4.53843C12.4375 4.63642 12.2724 4.73572 12.1078 4.83606C12.0521 4.87003 11.9963 4.90392 11.9404 4.93772C11.257 5.3518 10.606 5.80094 9.97436 6.29032C9.88102 6.36219 9.78648 6.43226 9.6917 6.50222C9.22959 6.84764 8.79544 7.22453 8.37192 7.61573C8.32371 7.65994 8.27521 7.70383 8.22658 7.74757C7.94769 7.99989 7.68016 8.26284 7.41426 8.52876C7.33953 8.60342 7.26454 8.67781 7.18953 8.75219C6.96092 8.97994 6.73834 9.20618 6.54001 9.46124C6.48592 9.52888 6.42922 9.58883 6.36679 9.64875C6.24378 9.76781 6.13828 9.89885 6.03104 10.0321C5.95129 10.1308 5.86987 10.2279 5.7881 10.3249C5.61546 10.532 5.45011 10.7441 5.28822 10.9596C5.26282 10.9934 5.26282 10.9934 5.23692 11.0279C4.93288 11.4338 4.64155 11.848 4.35361 12.2654C4.29226 12.354 4.23032 12.4421 4.16829 12.5302C4.03494 12.7205 3.9143 12.9175 3.79481 13.1168C3.77914 13.1428 3.76347 13.1688 3.74733 13.1957C3.47449 13.6497 3.21375 14.1092 2.96514 14.577C2.94626 14.6125 2.92737 14.648 2.90792 14.6846C2.64359 15.1832 2.39274 15.6851 2.16865 16.2032C2.15193 16.2417 2.13521 16.2801 2.11798 16.3198C1.67974 17.3315 1.3253 18.3672 1.00711 19.4223C1.00012 19.4455 0.993137 19.4686 0.985938 19.4925C0.565967 20.8916 0.299057 22.34 0.138029 23.7905C0.135402 23.8139 0.132774 23.8373 0.130067 23.8614C0.110188 24.0408 0.0932871 24.2204 0.0778782 24.4003C0.0749488 24.4344 0.0720194 24.4685 0.0690012 24.5036C0.0135801 25.1721 2.00598e-05 25.8373 0.00102814 26.5077ZM14.0492 24.2922C14.0704 24.2347 14.0906 24.1768 14.1094 24.1185C14.1345 24.0383 14.1345 24.0383 14.1823 23.9357C15.1332 23.5379 16.8736 24.0575 17.7773 24.37C17.8806 24.4053 17.9844 24.439 18.0882 24.4727C18.6419 24.655 19.1691 24.8717 19.6913 25.1304C19.7334 25.1512 19.7334 25.1512 19.7763 25.1723C19.9874 25.2759 19.9874 25.2759 20.1891 25.3959C20.2256 25.5054 20.2191 25.5366 20.1916 25.6451C20.1807 25.6897 20.1807 25.6897 20.1696 25.7353C20.1617 25.7671 20.1537 25.7988 20.1456 25.8315C20.0691 26.15 20.019 26.4638 19.99 26.7898C19.9503 26.7955 19.9106 26.8012 19.8697 26.8072C18.3156 27.0476 16.794 27.5385 15.377 28.2168C15.3462 28.2315 15.3153 28.2461 15.2835 28.2612C14.8179 28.4833 14.3757 28.7295 13.9425 29.0094C13.8835 29.0479 13.8835 29.0479 13.8172 29.0797C13.7467 28.9035 13.6962 28.7378 13.6658 28.5508C13.6618 28.5264 13.6577 28.5021 13.6535 28.477C13.4177 27.0341 13.5329 25.6623 14.0492 24.2922ZM22.7777 36.1153C22.7832 36.0854 22.7887 36.0555 22.7944 36.0246C23.0348 34.7558 23.4925 33.485 24.1384 32.3652C24.3135 32.3854 24.484 32.4129 24.6569 32.4481C24.9044 32.4969 25.1475 32.5184 25.3995 32.5311C25.4811 32.7745 25.5623 33.018 25.6402 33.2627C26.0085 34.4092 26.5041 35.5143 27.1252 36.5467C27.1394 36.5705 27.1536 36.5943 27.1683 36.6188C27.3959 36.9974 27.6395 37.3736 27.9166 37.7181C27.9642 37.777 27.9642 37.777 27.9549 37.8742C27.9768 37.8742 27.9987 37.8742 28.0212 37.8742C28.08 37.9501 28.08 37.9501 28.1208 38.0401C28.1098 38.073 28.0989 38.1059 28.0876 38.1397C28.0272 38.17 28.0272 38.17 27.9515 38.1883C27.9226 38.1963 27.8936 38.2043 27.8638 38.2125C27.8323 38.2207 27.8007 38.2288 27.7682 38.2372C27.7357 38.2458 27.7032 38.2544 27.6697 38.2632C27.4339 38.3236 27.1969 38.3733 26.9572 38.4156C26.9273 38.4208 26.8974 38.4261 26.8665 38.4316C25.5767 38.6451 24.0218 38.5874 22.8109 38.0733C22.628 37.8845 22.6701 37.6276 22.6698 37.3826C22.6698 37.3602 22.6698 37.3378 22.6698 37.3147C22.6704 36.9082 22.7028 36.5151 22.7777 36.1153ZM23.6406 25.0641C23.67 25.0339 23.6994 25.0038 23.7298 24.9728C24.2011 24.5142 24.8435 24.3084 25.4907 24.2862C26.0121 24.3011 26.48 24.4314 26.9261 24.699C26.9725 24.7267 26.9725 24.7267 27.0198 24.755C27.6303 25.1537 27.9943 25.7692 28.1453 26.4724C28.2697 27.1901 28.1263 27.909 27.727 28.5178C27.6145 28.6723 27.4924 28.8118 27.3575 28.9469C27.3347 28.9701 27.312 28.9932 27.2885 29.0171C26.7542 29.5267 26.0563 29.6971 25.3354 29.6864C24.9498 29.6717 24.577 29.5613 24.2379 29.3784C24.2101 29.3637 24.1823 29.3491 24.1537 29.334C23.4581 28.9442 23.0681 28.3041 22.85 27.5597C22.6479 26.6443 22.9677 25.6999 23.6406 25.0641ZM23.01 15.9045C23.167 15.7903 23.336 15.7606 23.5223 15.722C23.5562 15.7148 23.5901 15.7077 23.625 15.7004C25.1067 15.3977 26.6649 15.4454 28.1166 15.8858C28.1549 15.8974 28.1931 15.909 28.2325 15.9209C28.3283 15.9644 28.3283 15.9644 28.3645 16.0674C28.6024 17.1873 28.2277 18.461 27.8885 19.5219C27.879 19.5519 27.8695 19.582 27.8597 19.613C27.7194 20.0527 27.5348 20.4681 27.3371 20.8849C27.292 20.9802 27.2477 21.0758 27.2036 21.1716C27.1768 21.2294 27.15 21.2872 27.1231 21.3451C27.1108 21.3718 27.0986 21.3985 27.0859 21.426C27.032 21.5588 27.032 21.5588 26.9261 21.6458C26.8618 21.6399 26.7978 21.6312 26.7341 21.6212C26.6952 21.6152 26.6563 21.6093 26.6163 21.6032C26.5755 21.5967 26.5346 21.5902 26.4926 21.5836C26.4127 21.5712 26.3328 21.5588 26.2529 21.5465C26.1956 21.5376 26.1956 21.5376 26.1372 21.5285C26.0441 21.5151 25.9516 21.5048 25.858 21.4962C25.7293 21.4891 25.7293 21.4891 25.6318 21.4135C25.5995 21.3349 25.5727 21.2593 25.5478 21.1783C25.5318 21.1289 25.5159 21.0795 25.5 21.0301C25.4917 21.004 25.4835 20.9779 25.475 20.951C25.4315 20.8141 25.3866 20.6775 25.3415 20.5411C25.3325 20.5136 25.3234 20.4861 25.314 20.4577C24.9668 19.4127 24.5067 18.38 23.9453 17.4316C23.8992 17.353 23.854 17.274 23.8088 17.1949C23.6147 16.858 23.4128 16.5342 23.1776 16.2242C23.1519 16.19 23.1519 16.19 23.1256 16.1552C23.1105 16.1355 23.0953 16.1158 23.0797 16.0956C23.0401 16.0323 23.0242 15.9774 23.01 15.9045Z" fill="#0A64C6"/>
    <path d="M16.1071 10.2959C16.3248 10.5686 16.6209 10.751 16.97 10.7937C17.4286 10.8387 17.8539 10.6681 18.2767 10.5137C19.2313 10.1658 20.2025 9.87171 21.196 9.65838C21.3051 9.63481 21.4139 9.61012 21.5227 9.58509C22.4629 9.37567 23.4437 9.29211 24.4039 9.2339C24.4587 9.23019 24.5136 9.22648 24.5685 9.22276C25.3364 9.17415 26.1041 9.19017 26.8702 9.25659C26.9762 9.2657 27.0823 9.27423 27.1883 9.28253C28.8733 9.41538 30.5758 9.72532 32.1696 10.2959C32.2264 10.3158 32.2264 10.3158 32.2843 10.3362C34.3819 11.0735 36.3633 12.1222 38.0769 13.5482C38.1098 13.5754 38.1428 13.6025 38.1768 13.6305C38.5781 13.9634 38.954 14.3235 39.3234 14.6911C39.3448 14.7122 39.3661 14.7334 39.388 14.7552C39.5147 14.8823 39.6348 15.0134 39.7521 15.1492C39.8077 15.2135 39.8652 15.2758 39.9229 15.3382C40.5615 16.057 41.1349 16.9021 41.605 17.738C41.8124 18.1021 42.0703 18.4114 42.4575 18.5926C42.4805 18.6038 42.5035 18.6149 42.5271 18.6264C42.8125 18.7433 43.1596 18.7354 43.449 18.6382C43.8512 18.4672 44.1313 18.2 44.319 17.8048C44.4555 17.4654 44.4122 17.0607 44.2787 16.7284C44.1492 16.4522 43.9811 16.1949 43.8182 15.9377C43.805 15.9166 43.7918 15.8956 43.7782 15.8739C43.6937 15.7391 43.6069 15.6059 43.5195 15.473C43.5028 15.4475 43.4862 15.422 43.469 15.3957C43.1097 14.8462 42.7391 14.3062 42.3079 13.8101C42.2317 13.7216 42.1588 13.6314 42.0862 13.5399C41.7258 13.0997 41.3157 12.7019 40.9143 12.2995C40.8942 12.2793 40.874 12.259 40.8532 12.2381C40.6416 12.0258 40.4297 11.8173 40.2008 11.6234C40.1475 11.5751 40.0942 11.5267 40.0411 11.4782C39.4115 10.9109 38.7224 10.3902 38.0105 9.93083C37.9876 9.91597 37.9648 9.90111 37.9413 9.8858C37.4769 9.58434 36.999 9.30707 36.5171 9.03478C36.4933 9.02128 36.4696 9.00777 36.4451 8.99385C35.7907 8.62372 35.0864 8.32783 34.3931 8.03918C34.3633 8.0266 34.3633 8.0266 34.3329 8.01378C33.9836 7.86644 33.6319 7.73197 33.273 7.60982C33.2482 7.60132 33.2234 7.59282 33.1978 7.58407C32.7424 7.42875 32.2836 7.29391 31.8179 7.17275C31.7077 7.14385 31.5979 7.11383 31.4881 7.0835C30.2587 6.74798 29.0005 6.56939 27.735 6.43791C27.6954 6.43377 27.6954 6.43377 27.655 6.42954C25.6443 6.22149 23.539 6.31507 21.5498 6.67851C21.5045 6.68655 21.4593 6.69456 21.414 6.70256C19.9583 6.96205 18.5419 7.37511 17.167 7.9168C17.1307 7.93097 17.1307 7.93097 17.0936 7.94543C16.6065 8.13643 16.1247 8.36373 15.8995 8.86807C15.7193 9.35915 15.7954 9.8755 16.1071 10.2959Z" fill="#0A64C6"/>
    <path d="M8.26648 37.0901C8.29144 37.1302 8.31642 37.1704 8.34141 37.2105C8.3634 37.2465 8.38539 37.2824 8.40805 37.3195C8.45075 37.3893 8.49371 37.4589 8.53691 37.5284C8.58868 37.6118 8.63921 37.6959 8.68936 37.7804C8.95797 38.2305 9.25678 38.6557 9.58229 39.0666C9.64691 39.1497 9.70873 39.2347 9.77052 39.3199C9.79256 39.3503 9.81459 39.3807 9.83729 39.412C9.87832 39.4687 9.91921 39.5256 9.95992 39.5826C9.97751 39.6068 9.99509 39.631 10.0132 39.6559C10.0362 39.688 10.0362 39.688 10.0596 39.7206C10.0798 39.743 10.0798 39.743 10.1003 39.7659C10.1222 39.7659 10.1441 39.7659 10.1667 39.7659C10.1791 39.7937 10.1791 39.7937 10.1918 39.822C10.3354 40.0889 10.5765 40.3166 10.7831 40.5369C10.8691 40.6287 10.953 40.7216 11.0349 40.8171C11.1789 40.9825 11.3331 41.1376 11.4881 41.2926C11.5384 41.3429 11.5884 41.3935 11.6384 41.4441C11.6704 41.4762 11.7024 41.5083 11.7344 41.5403C11.7631 41.5692 11.7919 41.5981 11.8215 41.6279C11.8924 41.6907 11.8924 41.6907 11.9588 41.6907C11.9588 41.7126 11.9588 41.7345 11.9588 41.7571C12.0103 41.8033 12.064 41.8472 12.1185 41.8898C12.2521 41.9966 12.3806 42.1056 12.5064 42.2217C12.8169 42.5067 13.1493 42.7643 13.4854 43.0182C13.5035 43.0319 13.5216 43.0457 13.5402 43.0599C14.146 43.5186 14.7854 43.9331 15.4434 44.3125C15.4756 44.3312 15.5079 44.35 15.5411 44.3693C19.1704 46.4711 19.1704 46.4711 20.5542 46.1046C20.9457 45.9624 21.2344 45.6794 21.417 45.3081C21.5493 44.9401 21.5525 44.6126 21.417 44.2461C21.3703 44.15 21.3154 44.0659 21.2511 43.9806C21.2348 43.9585 21.2184 43.9363 21.2016 43.9135C20.9375 43.5837 20.5813 43.4422 20.1891 43.3169C18.7233 42.846 17.3698 42.2278 16.074 41.392C16.0535 41.379 16.0331 41.3659 16.0121 41.3524C15.6878 41.1442 15.3815 40.9163 15.0776 40.6796C15.018 40.6334 14.9581 40.5879 14.8979 40.5427C14.4979 40.2407 14.1245 39.9093 13.7606 39.5651C13.6845 39.5004 13.6845 39.5004 13.6181 39.5004C13.6181 39.4785 13.6181 39.4566 13.6181 39.434C13.5642 39.3765 13.5091 39.3224 13.4522 39.2681C13.4059 39.2223 13.3596 39.1765 13.3135 39.1305C13.2881 39.1053 13.2627 39.0801 13.2366 39.0541C13.2106 39.0282 13.1845 39.0023 13.1577 38.9756C13.1319 38.9501 13.1061 38.9246 13.0795 38.8983C12.92 38.7395 12.7687 38.5764 12.6225 38.4052C12.5941 38.3728 12.5656 38.3404 12.5363 38.3071C12.2907 38.0225 12.0685 37.7231 11.848 37.4188C11.7983 37.3507 11.748 37.283 11.6973 37.2155C10.9331 36.1963 10.3003 35.0627 9.80164 33.8918C9.29188 32.7035 9.29188 32.7035 8.75314 32.4624C8.40406 32.3276 8.09403 32.3365 7.74405 32.4648C7.37131 32.6305 7.12502 32.8589 6.94756 33.2281C6.57051 34.3488 7.69636 36.16 8.26648 37.0901Z" fill="#0A64C6"/>
</svg>
