<svg width="26" height="25" viewBox="0 0 26 25" fill="none" xmlns="http://www.w3.org/2000/svg">
    <path d="M19.8131 0H5.76664C2.58181 0 0 2.51173 0 5.61011V19.2753C0 22.3737 2.58181 24.8854 5.76664 24.8854H19.8131C22.9979 24.8854 25.5798 22.3737 25.5798 19.2753V5.61011C25.5798 2.51173 22.9979 0 19.8131 0Z" fill="#06C755"/>
    <path d="M21.3162 11.27C21.3162 7.5574 17.4904 4.53693 12.7877 4.53693C8.08504 4.53693 4.25928 7.5574 4.25928 11.27C4.25928 14.5984 7.29367 17.3856 11.392 17.9129C11.6694 17.9712 12.0475 18.0909 12.1434 18.3219C12.2298 18.5319 12.1994 18.8601 12.1714 19.0724C12.1714 19.0724 12.0715 19.6579 12.0499 19.7824C12.0123 19.9923 11.8788 20.6028 12.7885 20.2295C13.699 19.8562 17.6998 17.4159 19.4888 15.4126C20.7246 14.0937 21.317 12.7561 21.317 11.27H21.3162Z" fill="white"/>
    <path d="M18.4777 13.414H16.082C15.9917 13.414 15.9189 13.3432 15.9189 13.2553V13.253V9.63837V9.63448C15.9189 9.5466 15.9917 9.47583 16.082 9.47583H18.4777C18.5672 9.47583 18.6408 9.54738 18.6408 9.63448V10.2232C18.6408 10.3111 18.568 10.3818 18.4777 10.3818H16.8494V10.9931H18.4777C18.5672 10.9931 18.6408 11.0646 18.6408 11.1517V11.7404C18.6408 11.8283 18.568 11.8991 18.4777 11.8991H16.8494V12.5103H18.4777C18.5672 12.5103 18.6408 12.5818 18.6408 12.6689V13.2576C18.6408 13.3455 18.568 13.4163 18.4777 13.4163V13.414Z" fill="#06C755"/>
    <path d="M9.61572 13.414C9.70525 13.414 9.7788 13.3433 9.7788 13.2554V12.6667C9.7788 12.5796 9.70525 12.508 9.61572 12.508H7.98741V9.63377C7.98741 9.54667 7.91387 9.47513 7.82434 9.47513H7.21922C7.12889 9.47513 7.05615 9.54589 7.05615 9.63377V13.2523V13.2554C7.05615 13.3433 7.12889 13.414 7.21922 13.414H9.61493H9.61572Z" fill="#06C755"/>
    <path d="M11.0574 9.47583H10.4531C10.3631 9.47583 10.29 9.54686 10.29 9.63448V13.2553C10.29 13.3429 10.3631 13.414 10.4531 13.414H11.0574C11.1475 13.414 11.2205 13.3429 11.2205 13.2553V9.63448C11.2205 9.54686 11.1475 9.47583 11.0574 9.47583Z" fill="#06C755"/>
    <path d="M15.1743 9.47583H14.5692C14.4788 9.47583 14.4061 9.5466 14.4061 9.63448V11.7847L12.7034 9.54738C12.6994 9.54194 12.6947 9.53649 12.6907 9.53105C12.6907 9.53105 12.6907 9.53105 12.6899 9.53027C12.6867 9.52716 12.6835 9.52327 12.6803 9.52016C12.6795 9.51938 12.6779 9.5186 12.6771 9.51783C12.6739 9.51549 12.6715 9.51316 12.6683 9.51083C12.6667 9.51005 12.6651 9.50849 12.6635 9.50772C12.6611 9.50538 12.6579 9.50383 12.6547 9.50227C12.6531 9.5015 12.6515 9.49994 12.6499 9.49916C12.6467 9.49761 12.6443 9.49605 12.6411 9.4945C12.6395 9.49372 12.6379 9.49294 12.6363 9.49216C12.6331 9.49061 12.6299 9.48905 12.6267 9.48828C12.6251 9.48828 12.6235 9.48672 12.6211 9.48672C12.6179 9.48594 12.6147 9.48439 12.6115 9.48361C12.6099 9.48361 12.6075 9.48283 12.6059 9.48205C12.6027 9.48205 12.5995 9.4805 12.5963 9.47972C12.5939 9.47972 12.5915 9.47972 12.5891 9.47894C12.5859 9.47894 12.5835 9.47817 12.5803 9.47817C12.5771 9.47817 12.5747 9.47817 12.5715 9.47817C12.57 9.47817 12.5676 9.47817 12.566 9.47817H11.9648C11.8753 9.47817 11.8018 9.54893 11.8018 9.63681V13.2576C11.8018 13.3447 11.8745 13.4163 11.9648 13.4163H12.5699C12.6603 13.4163 12.733 13.3455 12.733 13.2576V11.1074L14.4381 13.3479C14.4501 13.3642 14.4644 13.3774 14.4804 13.3875C14.4804 13.3875 14.482 13.3883 14.482 13.3891C14.4852 13.3914 14.4884 13.393 14.4924 13.3953C14.494 13.3961 14.4956 13.3968 14.4972 13.3976C14.4996 13.3992 14.5028 13.4 14.5052 13.4015C14.5076 13.4031 14.5108 13.4038 14.5132 13.4046C14.5148 13.4046 14.5164 13.4062 14.518 13.4062C14.522 13.4077 14.5252 13.4085 14.5292 13.4093C14.5292 13.4093 14.5308 13.4093 14.5316 13.4093C14.5452 13.4124 14.5596 13.4147 14.574 13.4147H15.1751C15.2646 13.4147 15.3382 13.344 15.3382 13.2561V9.63526C15.3382 9.54816 15.2654 9.47661 15.1751 9.47661L15.1743 9.47583Z" fill="#06C755"/>
</svg>
