<svg width="23" height="21" viewBox="0 0 23 21" fill="none" xmlns="http://www.w3.org/2000/svg">
    <path d="M10.356 4.25197L12.8269 2.21692C13.3677 1.77151 13.9909 1.43698 14.661 1.23244C15.3311 1.02789 16.0349 0.957325 16.7323 1.02478C17.4296 1.09223 18.1069 1.29638 18.7253 1.62556C19.3438 1.95475 19.8914 2.40252 20.3368 2.94333C20.7822 3.48413 21.1167 4.10736 21.3213 4.77745C21.5258 5.44754 21.5964 6.15135 21.5289 6.84871C21.4615 7.54607 21.2573 8.22331 20.9281 8.84177C20.5989 9.46023 20.1512 10.0078 19.6104 10.4532L17.1395 12.4883M12.1977 16.5583L9.72682 18.5934C9.18602 19.0388 8.56278 19.3733 7.89269 19.5779C7.22261 19.7824 6.51879 19.853 5.82143 19.7855C4.41306 19.6493 3.11648 18.9592 2.21694 17.867C1.31739 16.7748 0.888562 15.37 1.02479 13.9616C1.16102 12.5532 1.85114 11.2566 2.94334 10.3571L5.41422 8.32206M7.98234 13.1185L14.5714 7.69176" stroke="#343434" stroke-width="2" stroke-linecap="round" stroke-linejoin="round"/>
</svg>
