<svg width="18" height="18" viewBox="0 0 18 18" fill="none" xmlns="http://www.w3.org/2000/svg">
    <path d="M9.62262 13.32C9.17486 13.4393 8.71349 13.4998 8.25012 13.5C7.03551 13.4999 5.8585 13.0787 4.91965 12.3081C3.9808 11.5375 3.33818 10.4652 3.10131 9.27388C2.86443 8.08259 3.04794 6.84603 3.62057 5.77487C4.1932 4.70372 5.11953 3.86425 6.24171 3.39951C7.36389 2.93477 8.6125 2.8735 9.77479 3.22615C10.9371 3.57881 11.9411 4.32355 12.6159 5.3335C13.2906 6.34345 13.5943 7.55612 13.4752 8.76487C13.3561 9.97363 12.8215 11.1037 11.9626 11.9625" stroke="#2D83E2" stroke-linecap="round" stroke-linejoin="round"/>
    <path d="M14.9999 15L11.9624 11.9625" stroke="#2D83E2" stroke-linecap="round" stroke-linejoin="round"/>
</svg>
