<svg width="17" height="15" viewBox="0 0 17 15" fill="none" xmlns="http://www.w3.org/2000/svg">
    <path d="M8.16439 3.73013C7.38059 5.28571 6.59665 6.84115 5.81257 8.39674C5.7009 8.6184 5.40893 8.67571 5.2229 8.51134C4.15426 7.56723 3.11608 6.58874 2.11034 5.57796C1.84772 5.31408 1.40257 5.54539 1.46909 5.91172C1.96372 8.63615 2.45779 11.361 2.95186 14.0859C2.98457 14.2662 3.14152 14.3973 3.32475 14.3973C6.77681 14.3973 10.2289 14.3973 13.6808 14.3973C13.864 14.3973 14.021 14.2662 14.0537 14.0859C14.5477 11.361 15.0418 8.63629 15.5363 5.91186C15.6028 5.54553 15.1577 5.31422 14.8951 5.5781C13.8893 6.58888 12.851 7.56737 11.7823 8.51149C11.5963 8.67585 11.3046 8.61883 11.193 8.39716C10.7098 7.43837 9.57854 5.19346 8.841 3.72985C8.70095 3.45185 8.3043 3.45227 8.16425 3.73026L8.16439 3.73013Z" fill="#2D83E2"/>
    <path d="M8.50271 0.33551C7.96559 0.33551 7.59424 0.750191 7.59424 1.23559C7.59424 1.77858 7.97356 2.15245 8.50271 2.15245C9.05227 2.15245 9.41118 1.77509 9.41118 1.23559C9.41118 0.746976 9.03801 0.33551 8.50271 0.33551Z" fill="white"/>
    <path d="M8.50249 8.4478e-05C7.95754 0.00707272 7.47927 0.342649 7.31351 0.866488C7.162 1.34518 7.31994 1.91724 7.71952 2.22598C8.12177 2.53682 8.71199 2.57469 9.15477 2.32242C9.6153 2.05994 9.80272 1.52017 9.72515 1.01422C9.63347 0.416444 9.09118 0.00763178 8.50249 8.4478e-05C8.32694 -0.00215176 8.15895 0.155924 8.16705 0.335522C8.1753 0.519173 8.31436 0.668581 8.50249 0.670957C8.5289 0.671236 8.55518 0.673473 8.58159 0.674032C8.66657 0.675849 8.51255 0.656142 8.59375 0.67529C8.63401 0.684794 8.67398 0.692759 8.71339 0.705757C8.7194 0.707714 8.75239 0.715542 8.75896 0.721972L8.7229 0.706597C8.73729 0.713027 8.75155 0.720014 8.76552 0.727282C8.79697 0.743495 8.8628 0.771168 8.88433 0.801357L8.85274 0.777318C8.86462 0.787102 8.87608 0.797165 8.8874 0.807508C8.89858 0.81785 8.90962 0.828471 8.92038 0.839512C8.92807 0.847339 8.96623 0.879486 8.96637 0.890527C8.96581 0.860478 8.93352 0.84077 8.96231 0.886473C8.98482 0.922253 9.00536 0.958453 9.02633 0.995072C9.03988 1.01869 9.05791 1.02498 9.02088 0.978021C9.03709 0.998567 9.04408 1.04091 9.0512 1.06593C9.05945 1.09472 9.08419 1.15301 9.0765 1.18096L9.07063 1.13917C9.07189 1.15119 9.07287 1.16307 9.07357 1.17509C9.07371 1.19521 9.07552 1.21548 9.07552 1.23575C9.07552 1.26328 9.08531 1.33568 9.06909 1.35916L9.07496 1.31751C9.07259 1.33302 9.06993 1.34854 9.06686 1.36391C9.06155 1.39033 9.05526 1.41646 9.04785 1.44246C9.04268 1.46063 9.03597 1.47824 9.0308 1.49641C9.00969 1.57007 9.06588 1.431 9.03108 1.49836C9.01445 1.53065 8.99851 1.5628 8.97909 1.59354C8.96958 1.6085 8.95756 1.62248 8.9489 1.63785C8.92667 1.67684 9.00438 1.57831 8.95477 1.62821C8.95057 1.6324 8.8642 1.71836 8.86322 1.71682C8.86001 1.71109 8.92807 1.67181 8.86238 1.71514C8.85036 1.72311 8.8382 1.73065 8.82576 1.73792C8.8069 1.74896 8.78719 1.75819 8.76804 1.76881C8.70501 1.80361 8.82157 1.75595 8.77685 1.76573C8.73645 1.77454 8.69732 1.79285 8.65651 1.80235C8.64113 1.80585 8.62562 1.80836 8.61039 1.81186C8.57321 1.81787 8.57894 1.81745 8.628 1.81032C8.61164 1.81214 8.59515 1.81353 8.5788 1.81465C8.53687 1.81745 8.4948 1.81787 8.45287 1.81605C8.43456 1.81521 8.39613 1.81871 8.37977 1.81018C8.38383 1.81228 8.46084 1.82611 8.39808 1.81144C8.35657 1.80166 8.31534 1.79299 8.27467 1.77957C8.26251 1.77552 8.22897 1.76979 8.22156 1.76014C8.26712 1.77971 8.27341 1.78181 8.24057 1.76657C8.23064 1.76168 8.22086 1.75665 8.21108 1.7512C8.19696 1.74351 8.10975 1.70186 8.10961 1.68635C8.10961 1.68453 8.16356 1.73401 8.1268 1.69781C8.11142 1.68258 8.09479 1.6686 8.07956 1.65295C8.06754 1.64051 8.0565 1.62346 8.04308 1.61269C8.0087 1.58516 8.08697 1.67992 8.04867 1.62024C8.02463 1.58264 8.00297 1.54477 7.98102 1.50605C7.94315 1.43925 8.00297 1.57691 7.97907 1.50298C7.97432 1.4883 7.96873 1.47405 7.96411 1.45937C7.95461 1.42918 7.92093 1.35147 7.93141 1.32114C7.93029 1.32464 7.93812 1.40486 7.9342 1.33722C7.93281 1.31192 7.93057 1.2869 7.93001 1.2616C7.92959 1.24092 7.92973 1.22023 7.93043 1.19969C7.93085 1.18767 7.93141 1.17565 7.93239 1.16377C7.93616 1.12589 7.9349 1.13204 7.92861 1.18208C7.91939 1.15189 7.95167 1.07348 7.96062 1.04525C7.96593 1.02847 7.97222 0.992976 7.9841 0.979838L7.96858 1.01771C7.97501 1.00374 7.98186 0.990041 7.98899 0.976483C8.00562 0.945176 8.0326 0.882141 8.06237 0.860337L8.03819 0.892344C8.04797 0.880604 8.05803 0.869143 8.06838 0.857962C8.08389 0.84105 8.10024 0.824839 8.11702 0.809325L8.13407 0.79395C8.16188 0.770749 8.15727 0.773684 8.12009 0.802895C8.13001 0.789338 8.16356 0.772287 8.17767 0.763481C8.19752 0.751042 8.21793 0.739302 8.23875 0.72854C8.25273 0.721272 8.26698 0.714283 8.28138 0.707853L8.24532 0.723089C8.27327 0.696813 8.34889 0.688987 8.38606 0.681021C8.41136 0.67557 8.47076 0.646778 8.39724 0.677107C8.42492 0.665786 8.47286 0.672075 8.50235 0.671656C8.67775 0.66942 8.84603 0.519032 8.83778 0.336219C8.82968 0.156481 8.69033 -0.00159202 8.50235 0.000783985L8.50249 8.4478e-05Z" fill="#2D83E2"/>
    <path d="M1.24587 2.69168C0.708758 2.69168 0.337402 3.10636 0.337402 3.59177C0.337402 4.13475 0.716724 4.50862 1.24587 4.50862C1.79543 4.50862 2.15435 4.13126 2.15435 3.59177C2.15435 3.10315 1.78117 2.69168 1.24587 2.69168Z" fill="white"/>
    <path d="M15.76 2.69168C15.2229 2.69168 14.8516 3.10636 14.8516 3.59177C14.8516 4.13475 15.2309 4.50862 15.76 4.50862C16.3096 4.50862 16.6685 4.13126 16.6685 3.59177C16.6685 3.10315 16.2953 2.69168 15.76 2.69168Z" fill="white"/>
    <path d="M1.24565 2.35624C0.700708 2.36323 0.222432 2.6988 0.0566708 3.22264C-0.0948344 3.70134 0.0631 4.27339 0.462688 4.58214C0.864931 4.89297 1.45516 4.93085 1.89793 4.67857C2.35846 4.4161 2.54588 3.87632 2.46831 3.37037C2.37663 2.7726 1.83434 2.36379 1.24565 2.35624C1.07011 2.354 0.902109 2.51208 0.910215 2.69167C0.918461 2.87533 1.05753 3.02474 1.24565 3.02711C1.27207 3.02739 1.29834 3.02963 1.32476 3.03019C1.40974 3.032 1.25571 3.0123 1.33692 3.03144C1.37717 3.04095 1.41714 3.04891 1.45656 3.06191C1.46257 3.06387 1.49555 3.0717 1.50212 3.07812L1.46606 3.06275C1.48046 3.06918 1.49471 3.07617 1.50869 3.08344C1.54014 3.09965 1.60597 3.12732 1.62749 3.15751L1.5959 3.13347C1.60778 3.14326 1.61924 3.15332 1.63056 3.16366C1.64174 3.17401 1.65279 3.18463 1.66355 3.19567C1.67124 3.20349 1.70939 3.23564 1.70953 3.24668C1.70897 3.21663 1.67669 3.19693 1.70548 3.24263C1.72798 3.27841 1.74853 3.31461 1.76949 3.35123C1.78305 3.37485 1.80108 3.38114 1.76404 3.33417C1.78025 3.35472 1.78724 3.39707 1.79437 3.42209C1.80261 3.45088 1.82735 3.50916 1.81967 3.53711L1.8138 3.49532C1.81505 3.50734 1.81603 3.51922 1.81673 3.53124C1.81687 3.55137 1.81869 3.57164 1.81869 3.5919C1.81869 3.61944 1.82847 3.69183 1.81226 3.71531L1.81813 3.67366C1.81575 3.68918 1.8131 3.70469 1.81002 3.72007C1.80471 3.74648 1.79842 3.77262 1.79101 3.79862C1.78584 3.81678 1.77913 3.83439 1.77396 3.85256C1.75286 3.92622 1.80904 3.78715 1.77424 3.85452C1.75761 3.88681 1.74168 3.91895 1.72225 3.9497C1.71275 3.96465 1.70073 3.97863 1.69206 3.99401C1.66984 4.033 1.74755 3.93447 1.69793 3.98436C1.69374 3.98855 1.60736 4.07451 1.60638 4.07297C1.60317 4.06724 1.67124 4.02797 1.60555 4.07129C1.59353 4.07926 1.58137 4.08681 1.56893 4.09408C1.55006 4.10512 1.53035 4.11434 1.5112 4.12496C1.44817 4.15977 1.56473 4.11211 1.52001 4.12189C1.47962 4.13069 1.44048 4.14901 1.39967 4.15851C1.3843 4.162 1.36878 4.16452 1.35355 4.16801C1.31637 4.17402 1.3221 4.1736 1.37116 4.16647C1.35481 4.16829 1.33832 4.16969 1.32196 4.17081C1.28003 4.1736 1.23796 4.17402 1.19603 4.17221C1.17773 4.17137 1.13929 4.17486 1.12294 4.16634C1.12699 4.16843 1.204 4.18227 1.14125 4.16759C1.09974 4.15781 1.05851 4.14914 1.01783 4.13573C1.00567 4.13167 0.972131 4.12594 0.964724 4.1163C1.01029 4.13587 1.01658 4.13796 0.983732 4.12273C0.973808 4.11784 0.964025 4.11281 0.954241 4.10736C0.940125 4.09967 0.852912 4.05802 0.852772 4.0425C0.852772 4.04069 0.906721 4.09016 0.869963 4.05396C0.854589 4.03873 0.837957 4.02475 0.822722 4.0091C0.810703 3.99666 0.799661 3.97961 0.786244 3.96885C0.751862 3.94131 0.83013 4.03607 0.791834 3.97639C0.767795 3.9388 0.746131 3.90092 0.724188 3.86221C0.686312 3.7954 0.746131 3.93307 0.722231 3.85913C0.717479 3.84446 0.711889 3.8302 0.707277 3.81552C0.697773 3.78534 0.664089 3.70763 0.674572 3.6773C0.673453 3.68079 0.68128 3.76102 0.677367 3.69337C0.675969 3.66807 0.673733 3.64306 0.673174 3.61776C0.672755 3.59707 0.672894 3.57639 0.673593 3.55584C0.674013 3.54382 0.674572 3.5318 0.67555 3.51992C0.679324 3.48205 0.678066 3.4882 0.671776 3.53823C0.662552 3.50804 0.694837 3.42963 0.703782 3.4014C0.709093 3.38463 0.715383 3.34913 0.727263 3.33599L0.711749 3.37387C0.718178 3.35989 0.725027 3.3462 0.732155 3.33264C0.748787 3.30133 0.775761 3.2383 0.805531 3.21649L0.781352 3.2485C0.791136 3.23676 0.801199 3.2253 0.811541 3.21412C0.827055 3.19721 0.843408 3.18099 0.860179 3.16548L0.877231 3.15011C0.905044 3.1269 0.900432 3.12984 0.863254 3.15905C0.873178 3.14549 0.906721 3.12844 0.920837 3.11964C0.940684 3.1072 0.96109 3.09546 0.981915 3.0847C0.995891 3.07743 1.01015 3.07044 1.02454 3.06401L0.988484 3.07924C1.01644 3.05297 1.09205 3.04514 1.12923 3.03717C1.15452 3.03172 1.21392 3.00293 1.14041 3.03326C1.16808 3.02194 1.21602 3.02823 1.24551 3.02781C1.42092 3.02558 1.58919 2.87519 1.58095 2.69237C1.57284 2.51264 1.4335 2.35456 1.24551 2.35694L1.24565 2.35624Z" fill="#2D83E2"/>
    <path d="M15.7598 2.35624C15.2149 2.36323 14.7366 2.6988 14.5708 3.22264C14.4193 3.70134 14.5773 4.27339 14.9768 4.58214C15.3791 4.89297 15.9693 4.93085 16.4121 4.67857C16.8726 4.4161 17.06 3.87632 16.9825 3.37037C16.8908 2.7726 16.3485 2.36379 15.7598 2.35624C15.5843 2.354 15.4163 2.51208 15.4244 2.69167C15.4326 2.87533 15.5717 3.02474 15.7598 3.02711C15.7862 3.02739 15.8125 3.02963 15.8389 3.03019C15.9239 3.032 15.7699 3.0123 15.8511 3.03144C15.8913 3.04095 15.9313 3.04891 15.9707 3.06191C15.9767 3.06387 16.0097 3.0717 16.0163 3.07812L15.9802 3.06275C15.9946 3.06918 16.0089 3.07617 16.0228 3.08344C16.0543 3.09965 16.1201 3.12732 16.1416 3.15751L16.1101 3.13347C16.1219 3.14326 16.1334 3.15332 16.1447 3.16366C16.1559 3.17401 16.1669 3.18463 16.1777 3.19567C16.1854 3.20349 16.2236 3.23564 16.2237 3.24668C16.2231 3.21663 16.1908 3.19693 16.2196 3.24263C16.2421 3.27841 16.2627 3.31461 16.2837 3.35123C16.2972 3.37485 16.3152 3.38114 16.2782 3.33417C16.2944 3.35472 16.3014 3.39707 16.3085 3.42209C16.3168 3.45088 16.3415 3.50916 16.3338 3.53711L16.328 3.49532C16.3292 3.50734 16.3302 3.51922 16.3309 3.53124C16.331 3.55137 16.3328 3.57164 16.3328 3.5919C16.3328 3.61944 16.3426 3.69183 16.3264 3.71531L16.3323 3.67366C16.3299 3.68918 16.3273 3.70469 16.3242 3.72007C16.3189 3.74648 16.3126 3.77262 16.3052 3.79862C16.3 3.81678 16.2933 3.83439 16.2881 3.85256C16.267 3.92622 16.3232 3.78715 16.2884 3.85452C16.2718 3.88681 16.2558 3.91895 16.2364 3.9497C16.2269 3.96465 16.2149 3.97863 16.2062 3.99401C16.184 4.033 16.2617 3.93447 16.2121 3.98436C16.2079 3.98855 16.1215 4.07451 16.1205 4.07297C16.1173 4.06724 16.1854 4.02797 16.1197 4.07129C16.1077 4.07926 16.0955 4.08681 16.0831 4.09408C16.0642 4.10512 16.0445 4.11434 16.0254 4.12496C15.9623 4.15977 16.0789 4.11211 16.0342 4.12189C15.9938 4.13069 15.9546 4.14901 15.9138 4.15851C15.8985 4.162 15.8829 4.16452 15.8677 4.16801C15.8305 4.17402 15.8363 4.1736 15.8853 4.16647C15.869 4.16829 15.8525 4.16969 15.8361 4.17081C15.7942 4.1736 15.7521 4.17402 15.7102 4.17221C15.6919 4.17137 15.6535 4.17486 15.6371 4.16634C15.6412 4.16843 15.7182 4.18227 15.6554 4.16759C15.6139 4.15781 15.5727 4.14914 15.532 4.13573C15.5198 4.13167 15.4863 4.12594 15.4789 4.1163C15.5244 4.13587 15.5307 4.13796 15.4979 4.12273C15.488 4.11784 15.4782 4.11281 15.4684 4.10736C15.4543 4.09967 15.3671 4.05802 15.3669 4.0425C15.3669 4.04069 15.4209 4.09016 15.3841 4.05396C15.3687 4.03873 15.3521 4.02475 15.3369 4.0091C15.3249 3.99666 15.3138 3.97961 15.3004 3.96885C15.266 3.94131 15.3443 4.03607 15.306 3.97639C15.282 3.9388 15.2603 3.90092 15.2383 3.86221C15.2005 3.7954 15.2603 3.93307 15.2364 3.85913C15.2316 3.84446 15.226 3.8302 15.2214 3.81552C15.2119 3.78534 15.1783 3.70763 15.1887 3.6773C15.1876 3.68079 15.1954 3.76102 15.1915 3.69337C15.1901 3.66807 15.1879 3.64306 15.1873 3.61776C15.1869 3.59707 15.1871 3.57639 15.1878 3.55584C15.1882 3.54382 15.1887 3.5318 15.1897 3.51992C15.1935 3.48205 15.1922 3.4882 15.1859 3.53823C15.1767 3.50804 15.209 3.42963 15.2179 3.4014C15.2233 3.38463 15.2295 3.34913 15.2414 3.33599L15.2259 3.37387C15.2323 3.35989 15.2392 3.3462 15.2463 3.33264C15.2629 3.30133 15.2899 3.2383 15.3197 3.21649L15.2955 3.2485C15.3053 3.23676 15.3154 3.2253 15.3257 3.21412C15.3412 3.19721 15.3576 3.18099 15.3743 3.16548L15.3914 3.15011C15.4192 3.1269 15.4146 3.12984 15.3774 3.15905C15.3873 3.14549 15.4209 3.12844 15.435 3.11964C15.4548 3.1072 15.4753 3.09546 15.4961 3.0847C15.5101 3.07743 15.5243 3.07044 15.5387 3.06401L15.5026 3.07924C15.5306 3.05297 15.6062 3.04514 15.6434 3.03717C15.6687 3.03172 15.7281 3.00293 15.6546 3.03326C15.6822 3.02194 15.7302 3.02823 15.7597 3.02781C15.9351 3.02558 16.1034 2.87519 16.0951 2.69237C16.087 2.51264 15.9477 2.35456 15.7597 2.35694L15.7598 2.35624Z" fill="#2D83E2"/>
</svg>
