<svg width="51" height="67" viewBox="0 0 51 67" fill="none" xmlns="http://www.w3.org/2000/svg">
    <g clip-path="url(#clip0_3165_2432)">
        <path d="M39.0326 25.8547C37.5542 18.0972 29.9585 13.0544 22.1904 14.7732C15.0542 16.3527 10.271 23.3031 11.3471 30.529C11.8503 33.926 13.5141 36.8321 15.8654 38.9362C19.6967 42.3574 22.2303 46.9978 23.1921 52.0444L23.2405 52.2985L35.857 49.8941L35.8086 49.6399C34.8295 44.5026 35.6626 39.233 37.9126 34.5212C39.1588 31.9133 39.6138 28.9044 39.0314 25.8486L39.0326 25.8547Z" fill="white"/>
        <path d="M39.0326 25.8547C37.5542 18.0972 29.9585 13.0544 22.1904 14.7732C15.0542 16.3527 10.271 23.3031 11.3471 30.529C11.8503 33.926 13.5141 36.8321 15.8654 38.9362C19.6967 42.3574 22.2303 46.9978 23.1921 52.0444L23.2405 52.2985L35.857 49.8941L35.8086 49.6399C34.8295 44.5026 35.6626 39.233 37.9126 34.5212C39.1588 31.9133 39.6138 28.9044 39.0314 25.8486L39.0326 25.8547Z" fill="url(#paint0_linear_3165_2432)"/>
        <path d="M23.8807 54.6471L36.1341 52.3118C36.1341 52.3118 38.1707 60.3329 31.5025 61.6037C24.8342 62.8746 23.8807 54.6471 23.8807 54.6471Z" fill="white"/>
        <path d="M31.6045 62.1302C29.7044 62.4923 28.0559 62.1669 26.6998 61.1711C23.8855 59.1051 23.3692 54.8829 23.3479 54.7051C23.313 54.4233 23.5026 54.1676 23.7809 54.1146L36.0343 51.7793C36.3127 51.7263 36.5902 51.8991 36.6553 52.1752C36.7009 52.3484 37.7182 56.4688 35.8308 59.4309C34.9178 60.8591 33.4985 61.7692 31.5984 62.1313L31.6045 62.1302ZM24.4971 55.0755C24.7093 56.1889 25.4204 58.9004 27.3371 60.3035C28.4448 61.1145 29.8112 61.3746 31.4027 61.0713C32.9941 60.768 34.1812 60.0212 34.9239 58.8513C36.2072 56.832 35.9098 54.0543 35.7158 52.9374L24.5031 55.0744L24.4971 55.0755Z" fill="#2D83E2"/>
        <path d="M27.7845 51.9848C27.5364 52.032 27.2862 51.9041 27.1833 51.6604C25.2998 47.1406 23.127 42.6823 20.7265 38.4115C20.5827 38.1505 20.6714 37.8263 20.9313 37.6764C21.1924 37.5326 21.5165 37.6213 21.6664 37.8812C24.0859 42.186 26.2728 46.6855 28.1766 51.2453C28.2913 51.5182 28.1639 51.8372 27.885 51.9531C27.8499 51.966 27.8147 51.979 27.7784 51.9859L27.7845 51.9848Z" fill="white"/>
        <path d="M31.8893 50.6824C31.853 50.6893 31.8167 50.6962 31.7781 50.691C31.4822 50.6847 31.2415 50.4421 31.2467 50.1402C31.3398 45.1998 31.7185 40.2113 32.3851 35.3184C32.4228 35.0227 32.6966 34.8138 32.9934 34.8576C33.289 34.8953 33.4979 35.169 33.4542 35.4658C32.7988 40.3189 32.4181 45.2639 32.323 50.1608C32.3158 50.4193 32.1314 50.6363 31.8833 50.6835L31.8893 50.6824Z" fill="white"/>
        <path d="M27.1319 37.6421C26.7507 37.7148 26.3554 37.7462 25.9448 37.7304C25.3578 37.7106 24.8212 37.5934 24.3446 37.3957C23.9856 37.6836 23.5615 37.9589 23.0849 38.1563C22.185 38.5347 21.2171 38.5562 20.4385 38.2217C20.1653 38.1044 20.0365 37.7904 20.1538 37.5172C20.271 37.244 20.5851 37.1152 20.8583 37.2324C21.3709 37.4545 22.0308 37.4291 22.6638 37.1642C22.8966 37.0697 23.1286 36.9377 23.368 36.7792C23.3225 36.7377 23.2758 36.6902 23.2363 36.6475C22.4213 35.7932 22.2725 34.4859 22.8894 33.6096C23.2443 33.103 23.8814 32.7934 24.5493 32.8104C25.1544 32.8267 25.6703 33.0984 25.9657 33.5626C26.2957 34.0766 26.328 34.7728 26.0624 35.4191C25.8734 35.8753 25.5631 36.2542 25.2594 36.5692C25.5355 36.6358 25.7963 36.655 25.9931 36.6677C26.8711 36.701 27.6692 36.4799 28.2446 36.0442C28.2835 36.018 28.3152 35.9869 28.353 35.9546C28.1717 35.8261 27.9991 35.6771 27.8423 35.5126C27.3887 35.0409 27.1253 34.5142 27.0889 33.9944C27.0413 33.251 27.4763 32.5723 28.1221 32.374C28.5073 32.2567 28.9211 32.3221 29.279 32.5549C29.7438 32.8551 30.0963 33.4213 30.1805 33.9947C30.2532 34.5076 30.1662 35.0384 29.9588 35.5294C30.8434 35.7621 31.8341 35.6298 32.5651 35.0891C32.8071 34.9113 33.1437 34.9663 33.3203 35.2023C33.4981 35.4443 33.4431 35.7809 33.2072 35.9575C32.1126 36.7619 30.6251 36.9199 29.3546 36.4723C29.2143 36.6244 29.0656 36.7657 28.8954 36.8922C28.4027 37.2683 27.7999 37.5274 27.1403 37.6531L27.1319 37.6421ZM24.3039 33.8918C24.08 33.9345 23.8772 34.0547 23.7634 34.2143C23.4476 34.6633 23.5604 35.4194 24.0091 35.8983C24.0713 35.9616 24.1324 36.019 24.1995 36.0752C24.2422 36.0357 24.2897 35.989 24.3312 35.9435C24.6153 35.6573 24.9008 35.3458 25.0527 34.9908C25.1872 34.6767 25.1805 34.3456 25.0448 34.1269C24.903 33.9093 24.6267 33.8742 24.5131 33.8708C24.4443 33.8713 24.3693 33.8731 24.3028 33.8858L24.3039 33.8918ZM28.4535 33.3894C28.4535 33.3894 28.4293 33.3941 28.4233 33.3952C28.2634 33.4445 28.1332 33.6825 28.1516 33.911C28.1715 34.2459 28.4116 34.5513 28.6006 34.7535C28.7107 34.8705 28.8367 34.9719 28.9675 35.0661C29.0911 34.7604 29.1423 34.4371 29.1028 34.1311C29.0653 33.8686 28.8916 33.5819 28.691 33.4508C28.5769 33.3785 28.4959 33.3814 28.4535 33.3894Z" fill="white"/>
        <path d="M21.8844 10.8744C21.594 10.9297 21.3069 10.7399 21.2504 10.4434L20.0741 4.27126C20.0188 3.98081 20.2086 3.69379 20.5052 3.63729C20.8017 3.58078 21.0826 3.77179 21.1391 4.0683L22.3166 10.2464C22.3719 10.5369 22.1821 10.8239 21.8856 10.8804L21.8844 10.8744Z" fill="#2D83E2"/>
        <path d="M29.8434 11.7596C29.7345 11.7804 29.6187 11.7648 29.5092 11.7167C29.2397 11.5862 29.129 11.2687 29.2535 11.0004L33.1217 2.90119C33.2522 2.63175 33.5697 2.52107 33.838 2.64552C34.1074 2.77603 34.2181 3.09356 34.0937 3.36184L30.2255 11.461C30.1491 11.6198 30.0007 11.7296 29.8374 11.7608L29.8434 11.7596Z" fill="#2D83E2"/>
        <path d="M10.5128 20.1029C10.41 20.1225 10.3013 20.1118 10.199 20.0686L1.95436 16.5229C1.68118 16.4056 1.55235 16.0916 1.6696 15.8184C1.78685 15.5452 2.10092 15.4164 2.3741 15.5336L10.6188 19.0794C10.892 19.1966 11.0208 19.5107 10.9035 19.7839C10.8295 19.9547 10.6823 20.0706 10.5068 20.104L10.5128 20.1029Z" fill="#2D83E2"/>
        <path d="M36.5289 16.0163C36.3413 16.0521 36.1413 15.9899 36.0111 15.8328C35.8235 15.6052 35.8519 15.2612 36.0796 15.0736L40.8772 11.0614C41.1048 10.8738 41.4488 10.9023 41.6365 11.1299C41.8241 11.3575 41.7956 11.7016 41.568 11.8892L36.7703 15.9013C36.6998 15.9587 36.6136 16.0002 36.5289 16.0163Z" fill="#2D83E2"/>
        <path d="M14.2069 14.7397C14.0435 14.7708 13.8724 14.7282 13.7358 14.6037L9.68166 10.8363C9.4612 10.6337 9.45223 10.2905 9.65593 10.0761C9.85848 9.85565 10.2017 9.84669 10.4161 10.0504L14.4702 13.8178C14.6906 14.0204 14.6996 14.3636 14.4959 14.578C14.4118 14.663 14.3098 14.7201 14.2009 14.7408L14.2069 14.7397Z" fill="#2D83E2"/>
    </g>
    <defs>
        <linearGradient id="paint0_linear_3165_2432" x1="22.6098" y1="14.6869" x2="29.5488" y2="51.0963" gradientUnits="userSpaceOnUse">
            <stop offset="0.149065" stop-color="#C9E1FF"/>
            <stop offset="1" stop-color="#3BD0E4"/>
        </linearGradient>
        <clipPath id="clip0_3165_2432">
            <rect width="40.3048" height="59.5363" fill="white" transform="translate(0 7.54565) rotate(-10.7901)"/>
        </clipPath>
    </defs>
</svg>
