<svg width="19" height="17" viewBox="0 0 19 17" fill="none" xmlns="http://www.w3.org/2000/svg">
    <path d="M12.4101 0.751367H6.97425C5.63948 0.72323 4.33179 1.13014 3.24865 1.91067C2.16551 2.69119 1.36573 3.80294 0.970081 5.07803C0.727733 5.94126 0.684883 6.84829 0.84477 7.73052C1.00466 8.61275 1.36309 9.44706 1.89297 10.1703C2.42284 10.8936 3.11026 11.4869 3.90323 11.9053C4.69621 12.3238 5.57396 12.5564 6.47008 12.5855H6.70841V14.8497C6.70946 14.9641 6.74501 15.0755 6.81042 15.1694C6.87583 15.2633 6.96805 15.3352 7.07501 15.3758C7.18198 15.4164 7.29871 15.4238 7.40994 15.397C7.52117 15.3702 7.62171 15.3104 7.69841 15.2255L9.69675 12.9522C9.79092 12.839 9.90854 12.7476 10.0415 12.6843C10.1744 12.621 10.3195 12.5873 10.4667 12.5855H11.9884C13.3228 12.6122 14.6298 12.2047 15.7127 11.4244C16.7955 10.6441 17.5956 9.53317 17.9926 8.25887C18.2364 7.38907 18.2777 6.47496 18.1133 5.58672C17.9489 4.69848 17.5832 3.85972 17.0441 3.13483C16.5051 2.40994 15.8072 1.8182 15.0039 1.40503C14.2006 0.991859 13.3133 0.768251 12.4101 0.751367Z" stroke="#2D83E2" stroke-width="1.5" stroke-linecap="round" stroke-linejoin="round"/>
    <path d="M5.32438 7.69051C5.83064 7.69051 6.24105 7.28011 6.24105 6.77384C6.24105 6.26758 5.83064 5.85718 5.32438 5.85718C4.81812 5.85718 4.40771 6.26758 4.40771 6.77384C4.40771 7.28011 4.81812 7.69051 5.32438 7.69051Z" fill="#2D83E2"/>
    <path d="M9.45866 7.69051C9.96492 7.69051 10.3753 7.28011 10.3753 6.77384C10.3753 6.26758 9.96492 5.85718 9.45866 5.85718C8.9524 5.85718 8.54199 6.26758 8.54199 6.77384C8.54199 7.28011 8.9524 7.69051 9.45866 7.69051Z" fill="#2D83E2"/>
    <path d="M13.5929 7.69051C14.0992 7.69051 14.5096 7.28011 14.5096 6.77384C14.5096 6.26758 14.0992 5.85718 13.5929 5.85718C13.0867 5.85718 12.6763 6.26758 12.6763 6.77384C12.6763 7.28011 13.0867 7.69051 13.5929 7.69051Z" fill="#2D83E2"/>
</svg>
