<svg width="35" height="35" viewBox="0 0 35 35" fill="none" xmlns="http://www.w3.org/2000/svg">
    <path d="M8.5957 17.15C8.5957 14.5335 9.63511 12.0241 11.4853 10.1739C13.3354 8.32377 15.8448 7.28436 18.4613 7.28436C21.0779 7.28436 23.5872 8.32377 25.4374 10.1739C27.2875 12.0241 28.327 14.5335 28.327 17.15" stroke="#7C7C7C" stroke-width="2" stroke-linecap="round" stroke-linejoin="round"/>
    <path d="M17.7194 27.7084C17.2169 27.6721 16.7174 27.6015 16.2246 27.4969L16.5309 26.0896C16.9539 26.1799 17.3827 26.2408 17.8142 26.2719L17.7194 27.7084Z" fill="#7C7C7C"/>
    <path d="M19.2212 27.7084L19.1191 26.25C19.555 26.2265 19.9886 26.1729 20.4171 26.0896L20.7233 27.4969C20.2279 27.6008 19.7261 27.6715 19.2212 27.7084Z" fill="#7C7C7C"/>
    <path d="M14.7732 27.074C14.3019 26.8979 13.8438 26.6883 13.4023 26.4469L14.0951 25.1854C14.4762 25.3917 14.8708 25.572 15.2763 25.725L14.7732 27.074Z" fill="#7C7C7C"/>
    <path d="M22.1594 27.0666L21.6562 25.7177C22.066 25.5694 22.4634 25.389 22.8448 25.1781L23.5302 26.4396C23.0895 26.6823 22.6313 26.8919 22.1594 27.0666Z" fill="#7C7C7C"/>
    <path d="M12.1336 25.6375C11.7295 25.3366 11.3492 25.0051 10.9961 24.6458L12.0096 23.6323C12.317 23.9375 12.646 24.2202 12.994 24.4781L12.1336 25.6375Z" fill="#7C7C7C"/>
    <path d="M24.7921 25.6302L23.9316 24.4708C24.2798 24.2104 24.6088 23.9253 24.916 23.6177L25.9296 24.6385C25.5745 24.9958 25.1944 25.3272 24.7921 25.6302Z" fill="#7C7C7C"/>
    <path d="M10.0042 23.5156C9.70244 23.1124 9.42954 22.6885 9.1875 22.2469L10.449 21.5177C10.6642 21.9001 10.908 22.2657 11.1781 22.6115L10.0042 23.5156Z" fill="#7C7C7C"/>
    <path d="M26.9275 23.501L25.7754 22.6406C26.043 22.293 26.2867 21.9276 26.5046 21.5469L27.766 22.2396C27.516 22.6789 27.2358 23.1004 26.9275 23.501Z" fill="#7C7C7C"/>
    <path d="M28.3724 20.8687L27.0234 20.3583C27.177 19.9521 27.3013 19.5354 27.3953 19.1115L28.8026 19.4177C28.6959 19.9115 28.5521 20.3966 28.3724 20.8687Z" fill="#7C7C7C"/>
    <path d="M6.19727 14.4739L8.59622 17.15L10.9879 14.4739" stroke="#7C7C7C" stroke-width="2" stroke-linejoin="round"/>
</svg>
