<svg width="13" height="12" viewBox="0 0 13 12" fill="none" xmlns="http://www.w3.org/2000/svg">
    <path d="M12.0258 5.68115V9.33865C12.0276 9.52021 11.9935 9.70033 11.9256 9.86872C11.8578 10.0371 11.7574 10.1905 11.6302 10.3201C11.5031 10.4497 11.3516 10.553 11.1845 10.624C11.0175 10.6951 10.838 10.7326 10.6565 10.7343H2.02021C1.83678 10.7326 1.65552 10.6944 1.48699 10.622C1.31846 10.5496 1.16603 10.4443 1.03858 10.3124C0.911133 10.1805 0.811212 10.0245 0.744642 9.85355C0.678072 9.68262 0.646184 9.50016 0.650835 9.31678V5.68115" stroke="#2D83E2" stroke-width="1.3" stroke-linecap="round" stroke-linejoin="round"/>
    <path d="M6.33789 7.71553V0.649902" stroke="#2D83E2" stroke-width="1.3" stroke-linecap="round" stroke-linejoin="round"/>
    <path d="M4.1543 5.65918L6.33742 7.7373L8.52055 5.65918" stroke="#2D83E2" stroke-width="1.3" stroke-linecap="round" stroke-linejoin="round"/>
</svg>
