<svg xmlns:xlink="http://www.w3.org/1999/xlink" xmlns="http://www.w3.org/2000/svg" style="display:none">
	<symbol id="ico-account" viewBox="0 0 16 21">
		<path d="M0 21C0 16.5817 3.58172 13 8 13C12.4183 13 16 16.5817 16 21H14C14 17.6863 11.3137 15 8 15C4.68629 15 2 17.6863 2 21H0ZM8 12C4.685 12 2 9.315 2 6C2 2.685 4.685 0 8 0C11.315 0 14 2.685 14 6C14 9.315 11.315 12 8 12ZM8 10C10.21 10 12 8.21 12 6C12 3.79 10.21 2 8 2C5.79 2 4 3.79 4 6C4 8.21 5.79 10 8 10Z" fill="black"/>
	</symbol>
	<symbol id="ico-arrow_sm" viewBox="0 0 8 13">
		<path d="M4.94978 6.36398L0 1.41421L1.41422 0L7.77818 6.36398L1.41422 12.7279L0 11.3137L4.94978 6.36398Z" fill="black"/>
	</symbol>
	<symbol id="ico-arrow" viewBox="0 0 16 16">
		<path d="M12.1716 6.77822L6.8076 1.41421L8.2218 0L16 7.77822L8.2218 15.5563L6.8076 14.1421L12.1716 8.77822H0V6.77822H12.1716Z" fill="black"/>
	</symbol>
	<symbol id="ico-bookmark" viewBox="0 0 24 24">
		<path d="M17 15.2454V22.1169C17 22.393 16.7761 22.617 16.5 22.617C16.4094 22.617 16.3205 22.5923 16.2428 22.5457L12 20L7.75725 22.5457C7.52046 22.6877 7.21333 22.6109 7.07125 22.3742C7.02463 22.2964 7 22.2075 7 22.1169V15.2454C5.17107 13.7793 4 11.5264 4 9C4 4.58172 7.58172 1 12 1C16.4183 1 20 4.58172 20 9C20 11.5264 18.8289 13.7793 17 15.2454ZM9 16.4185V19.4676L12 17.6676L15 19.4676V16.4185C14.0736 16.7935 13.0609 17 12 17C10.9391 17 9.92643 16.7935 9 16.4185ZM12 15C15.3137 15 18 12.3137 18 9C18 5.68629 15.3137 3 12 3C8.68629 3 6 5.68629 6 9C6 12.3137 8.68629 15 12 15Z" fill="black"/>
	</symbol>
	<symbol id="ico-category" viewBox="0 0 24 24">
		<path d="M15.5 5C13.567 5 12 6.567 12 8.5C12 10.433 13.567 12 15.5 12C17.433 12 19 10.433 19 8.5C19 6.567 17.433 5 15.5 5ZM10 8.5C10 5.46243 12.4624 3 15.5 3C18.5376 3 21 5.46243 21 8.5C21 9.6575 20.6424 10.7315 20.0317 11.6175L22.7071 14.2929L21.2929 15.7071L18.6175 13.0317C17.7315 13.6424 16.6575 14 15.5 14C12.4624 14 10 11.5376 10 8.5ZM3 4H8V6H3V4ZM3 11H8V13H3V11ZM21 18V20H3V18H21Z" fill="black"/>
	</symbol>
	<symbol id="ico-delete" viewBox="0 0 24 24">
		<path d="M7 4V2H17V4H22V6H20V21C20 21.5523 19.5523 22 19 22H5C4.44772 22 4 21.5523 4 21V6H2V4H7ZM6 6V20H18V6H6ZM9 9H11V17H9V9ZM13 9H15V17H13V9Z" fill="black"/>
	</symbol>
	<symbol id="ico-dot" viewBox="0 0 5 5">
		<circle cx="2.5" cy="2.5" r="2.5" fill="black"/>
	</symbol>
	<symbol id="ico-download" viewBox="0 0 18 19">
		<path d="M0 17H18V19H0V17ZM10 11.1716L16.0711 5.1005L17.4853 6.51472L9 15L0.51472 6.51472L1.92893 5.1005L8 11.1716V0H10V11.1716Z" fill="black"/>
	</symbol>
	<symbol id="ico-edit" viewBox="0 0 18 18">
		<path d="M12.7279 6.65685L11.3137 5.24264L2 14.5564V15.9706H3.41421L12.7279 6.65685ZM14.1421 5.24264L15.5563 3.82843L14.1421 2.41421L12.7279 3.82843L14.1421 5.24264ZM4.24264 17.9706H0V13.7279L13.435 0.29289C13.8256 -0.09763 14.4587 -0.09763 14.8492 0.29289L17.6777 3.12132C18.0682 3.51184 18.0682 4.14501 17.6777 4.53553L4.24264 17.9706Z" fill="black"/>
	</symbol>
	<symbol id="ico-home" viewBox="0 0 22 20">
		<path d="M18 19.6486H4C3.44772 19.6486 3 19.2009 3 18.6486V9.64856H0L10.3273 0.260062C10.7087 -0.0866875 11.2913 -0.0866875 11.6727 0.260062L22 9.64856H19V18.6486C19 19.2009 18.5523 19.6486 18 19.6486ZM5 17.6486H17V7.80601L11 2.35146L5 7.80601V17.6486Z" fill="black"/>
	</symbol>
	<symbol id="ico-keyword" viewBox="0 0 24 24">
		<path d="M3 17H21V19H3V17ZM3 11H6V14H3V11ZM8 11H11V14H8V11ZM3 5H6V8H3V5ZM13 5H16V8H13V5ZM18 5H21V8H18V5ZM13 11H16V14H13V11ZM18 11H21V14H18V11ZM8 5H11V8H8V5Z" fill="black"/>
	</symbol>
	<symbol id="ico-list" viewBox="0 0 24 24">
		<path d="M8 4H21V6H8V4ZM4.5 6.5C3.67157 6.5 3 5.82843 3 5C3 4.17157 3.67157 3.5 4.5 3.5C5.32843 3.5 6 4.17157 6 5C6 5.82843 5.32843 6.5 4.5 6.5ZM4.5 13.5C3.67157 13.5 3 12.8284 3 12C3 11.1716 3.67157 10.5 4.5 10.5C5.32843 10.5 6 11.1716 6 12C6 12.8284 5.32843 13.5 4.5 13.5ZM4.5 20.4C3.67157 20.4 3 19.7284 3 18.9C3 18.0716 3.67157 17.4 4.5 17.4C5.32843 17.4 6 18.0716 6 18.9C6 19.7284 5.32843 20.4 4.5 20.4ZM8 11H21V13H8V11ZM8 18H21V20H8V18Z" fill="black"/>
	</symbol>
	<symbol id="ico-load" viewBox="0 0 20 20">
		<path d="M20 10C20 15.5228 15.5229 20 10 20C4.4772 20 0 15.5228 0 10C0 4.47715 4.4772 0 10 0V2C5.5817 2 2 5.58172 2 10C2 14.4183 5.5817 18 10 18C14.4183 18 18 14.4183 18 10C18 7.25022 16.6127 4.82447 14.4998 3.38451L14.5 6H12.5V0H18.5V2L16.0008 1.99989C18.4293 3.82434 20 6.72873 20 10Z" fill="black"/>
	</symbol>
	<symbol id="ico-mail" viewBox="0 0 20 18">
		<path d="M1 0H19C19.5523 0 20 0.44772 20 1V17C20 17.5523 19.5523 18 19 18H1C0.44772 18 0 17.5523 0 17V1C0 0.44772 0.44772 0 1 0ZM18 4.23792L10.0718 11.338L2 4.21594V16H18V4.23792ZM2.51146 2L10.0619 8.662L17.501 2H2.51146Z" fill="black"/>
	</symbol>
	<symbol id="ico-menu_close" viewBox="0 0 24 24">
		<path d="M17 4H3V6H17V4ZM13 11H3V13H13V11ZM17 18H3V20H17V18ZM22.0104 8.81412L20.5962 7.3999L16 11.9961L20.5962 16.5923L22.0104 15.1781L18.8284 11.9961L22.0104 8.81412Z" fill="black"/>
	</symbol>
	<symbol id="ico-menu" viewBox="0 0 24 24">
		<path d="M3 4H21V6H3V4ZM3 11H21V13H3V11ZM3 18H21V20H3V18Z" fill="black"/>
	</symbol>
	<symbol id="ico-pdf" viewBox="0 0 18 20">
		<path d="M2 2H12V6H16V18H2V2ZM0.9985 0C0.44749 0 0 0.44405 0 0.9918V19.0082C0 19.5447 0.44476 20 0.9934 20H17.0066C17.5551 20 18 19.5489 18 18.9925L17.9997 5L13 0H0.9985ZM7.4999 5.5C7.4999 7.07749 7.0442 8.9373 6.27493 10.6534C5.50287 12.3757 4.46143 13.8502 3.37524 14.7191L4.55464 16.3321C7.4821 14.3804 10.7233 13.0421 13.8585 13.49L14.3162 11.5513C11.6435 10.6604 9.4999 7.98994 9.4999 5.5H7.4999ZM8.0999 11.4716C8.3673 10.8752 8.6042 10.2563 8.8037 9.6285C9.2753 10.3531 9.8553 11.0182 10.5101 11.5953C9.5283 11.7711 8.5665 12.0596 7.6352 12.4276C7.7999 12.1143 7.9551 11.7948 8.0999 11.4716Z" fill="black"/>
	</symbol>
	<symbol id="ico-pin" viewBox="0 0 18 22">
		<path d="M9 18.8995L13.9497 13.9497C16.6834 11.2161 16.6834 6.78392 13.9497 4.05025C11.2161 1.31658 6.78392 1.31658 4.05025 4.05025C1.31658 6.78392 1.31658 11.2161 4.05025 13.9497L9 18.8995ZM9 21.7279L2.63604 15.364C-0.87868 11.8492 -0.87868 6.15076 2.63604 2.63604C6.15076 -0.87868 11.8492 -0.87868 15.364 2.63604C18.8787 6.15076 18.8787 11.8492 15.364 15.364L9 21.7279ZM9 11C10.1046 11 11 10.1046 11 9C11 7.89543 10.1046 7 9 7C7.8954 7 7 7.89543 7 9C7 10.1046 7.8954 11 9 11ZM9 13C6.79086 13 5 11.2091 5 9C5 6.79086 6.79086 5 9 5C11.2091 5 13 6.79086 13 9C13 11.2091 11.2091 13 9 13Z" fill="black"/>
	</symbol>
	<symbol id="ico-ranking" viewBox="0 0 24 24">
		<path d="M17 15.2454V22.1169C17 22.393 16.7761 22.617 16.5 22.617C16.4094 22.617 16.3205 22.5923 16.2428 22.5457L12 20L7.75725 22.5457C7.52046 22.6877 7.21333 22.6109 7.07125 22.3742C7.02463 22.2964 7 22.2075 7 22.1169V15.2454C5.17107 13.7793 4 11.5264 4 9C4 4.58172 7.58172 1 12 1C16.4183 1 20 4.58172 20 9C20 11.5264 18.8289 13.7793 17 15.2454ZM9 16.4185V19.4676L12 17.6676L15 19.4676V16.4185C14.0736 16.7935 13.0609 17 12 17C10.9391 17 9.92643 16.7935 9 16.4185ZM12 15C15.3137 15 18 12.3137 18 9C18 5.68629 15.3137 3 12 3C8.68629 3 6 5.68629 6 9C6 12.3137 8.68629 15 12 15Z" fill="black"/>
	</symbol>
	<symbol id="ico-reload" viewBox="0 0 20 20">
		<path d="M10 2C12.7486 2 15.1749 3.38626 16.6156 5.5H14V7.5H20V1.5H18V3.99936C16.1762 1.57166 13.2724 0 10 0C4.47715 0 0 4.47715 0 10H2C2 5.58172 5.58172 2 10 2ZM18 10C18 14.4183 14.4183 18 10 18C7.25144 18 4.82508 16.6137 3.38443 14.5H6V12.5H0V18.5H2V16.0006C3.82381 18.4283 6.72764 20 10 20C15.5228 20 20 15.5228 20 10H18Z" fill="black"/>
	</symbol>
	<symbol id="ico-search" viewBox="0 0 24 24">
		<path d="M18.031 16.6168L22.3137 20.8995L20.8995 22.3137L16.6168 18.031C15.0769 19.263 13.124 20 11 20C6.032 20 2 15.968 2 11C2 6.032 6.032 2 11 2C15.968 2 20 6.032 20 11C20 13.124 19.263 15.0769 18.031 16.6168ZM16.0247 15.8748C17.2475 14.6146 18 12.8956 18 11C18 7.1325 14.8675 4 11 4C7.1325 4 4 7.1325 4 11C4 14.8675 7.1325 18 11 18C12.8956 18 14.6146 17.2475 15.8748 16.0247L16.0247 15.8748Z" fill="black"/>
	</symbol>
	<symbol id="ico-sort" viewBox="0 0 18 12">
		<path d="M7 12H11V10H7V12ZM0 0V2H18V0H0ZM3 7H15V5H3V7Z" fill="black"/>
	</symbol>
	<symbol id="ico-tel" viewBox="0 0 24 24">
		<path d="M21 16.42V19.9561C21 20.4811 20.5941 20.9167 20.0705 20.9537C19.6331 20.9846 19.2763 21 19 21C10.1634 21 3 13.8366 3 5C3 4.72371 3.01545 4.36687 3.04635 3.9295C3.08337 3.40588 3.51894 3 4.04386 3H7.5801C7.83678 3 8.05176 3.19442 8.07753 3.4498C8.10067 3.67907 8.12218 3.86314 8.14207 4.00202C8.34435 5.41472 8.75753 6.75936 9.3487 8.00303C9.44359 8.20265 9.38171 8.44159 9.20185 8.57006L7.04355 10.1118C8.35752 13.1811 10.8189 15.6425 13.8882 16.9565L15.4271 14.8019C15.5572 14.6199 15.799 14.5573 16.001 14.6532C17.2446 15.2439 18.5891 15.6566 20.0016 15.8584C20.1396 15.8782 20.3225 15.8995 20.5502 15.9225C20.8056 15.9483 21 16.1633 21 16.42Z" fill="black"/>
	</symbol>
	<symbol id="ico-web" viewBox="0 0 20 20">
		<path d="M10 20C4.47715 20 0 15.5228 0 10C0 4.47715 4.47715 0 10 0C15.5228 0 20 4.47715 20 10C20 15.5228 15.5228 20 10 20ZM7.71002 17.6674C6.74743 15.6259 6.15732 13.3742 6.02731 11H2.06189C2.458 14.1765 4.71639 16.7747 7.71002 17.6674ZM8.0307 11C8.1811 13.4388 8.8778 15.7297 10 17.752C11.1222 15.7297 11.8189 13.4388 11.9693 11H8.0307ZM17.9381 11H13.9727C13.8427 13.3742 13.2526 15.6259 12.29 17.6674C15.2836 16.7747 17.542 14.1765 17.9381 11ZM2.06189 9H6.02731C6.15732 6.62577 6.74743 4.37407 7.71002 2.33256C4.71639 3.22533 2.458 5.8235 2.06189 9ZM8.0307 9H11.9693C11.8189 6.56122 11.1222 4.27025 10 2.24799C8.8778 4.27025 8.1811 6.56122 8.0307 9ZM12.29 2.33256C13.2526 4.37407 13.8427 6.62577 13.9727 9H17.9381C17.542 5.8235 15.2836 3.22533 12.29 2.33256Z" fill="black"/>
	</symbol>
	<symbol id="ico-window" viewBox="0 0 18 18">
		<path d="M7 3V5H2V16H13V11H15V17C15 17.5523 14.5523 18 14 18H1C0.44772 18 0 17.5523 0 17V4C0 3.44772 0.44772 3 1 3H7ZM18 0V8H16L15.9999 3.413L8.2071 11.2071L6.79289 9.7929L14.5849 2H10V0H18Z" fill="black"/>
	</symbol>
</svg>
