<svg width="242" height="245" viewBox="0 0 242 245" fill="none" xmlns="http://www.w3.org/2000/svg">
    <rect y="66.6479" width="213.806" height="54.0388" rx="2.03625" fill="white"/>
    <rect y="190.311" width="213.806" height="54.0388" rx="2.03625" fill="white"/>
    <rect y="5.56055" width="242" height="54.0388" rx="2.03625" fill="white"/>
    <rect y="129.223" width="145.67" height="54.0388" rx="2.03625" fill="white"/>
    <path d="M9.98036 45.8588V41.7999H23.4983V24.223H12.1686V20.1641H39.4163V24.223H28.0867V41.7999H41.6399V45.8588H9.98036ZM65.8522 48.7883C65.6875 48.6236 65.4169 48.4001 65.0404 48.1177C64.664 47.8353 64.2757 47.5647 63.8757 47.3059C63.4757 47.0471 63.1463 46.8706 62.8875 46.7765C64.0169 46.2353 65.1346 45.4588 66.2405 44.447C67.3699 43.4352 68.3935 42.3411 69.3111 41.1646C70.2288 39.9646 70.9229 38.8351 71.3935 37.7763H69.8759C69.1464 39.0469 68.217 40.3175 67.0876 41.5881C65.9816 42.8352 64.7581 43.9647 63.4169 44.9764C62.0992 45.9882 60.7462 46.7883 59.358 47.3765C59.2168 47.1647 58.9932 46.8941 58.6874 46.5647C58.3815 46.2353 58.0638 45.9176 57.7344 45.6118C57.405 45.3059 57.1226 45.0941 56.8873 44.9764C57.9226 44.5764 59.0285 44 60.205 43.247C61.3815 42.4705 62.4874 41.5999 63.5228 40.6352C64.5816 39.6704 65.4287 38.7175 66.064 37.7763H64.4051C63.511 38.7881 62.5463 39.7175 61.511 40.5646C60.4992 41.4117 59.4756 42.1058 58.4403 42.647C58.205 42.3176 57.805 41.9058 57.2403 41.4117C56.6991 40.9175 56.2285 40.5528 55.8285 40.3175C56.8167 39.8469 57.805 39.2351 58.7932 38.4822C59.805 37.7292 60.7345 36.9057 61.5815 36.0115C62.4286 35.0939 63.111 34.188 63.6286 33.2938H60.3109V36.8586C59.7462 37.1645 58.9815 37.5292 58.0168 37.9528C57.0756 38.3528 56.0638 38.7645 54.9814 39.1881C53.899 39.6116 52.8402 39.9999 51.8048 40.3528C50.7695 40.7058 49.8754 40.9881 49.1224 41.1999L48.0989 37.2116C48.7107 37.0939 49.3813 36.941 50.1107 36.7527C50.8636 36.5645 51.6401 36.3527 52.4402 36.1174V27.2937H48.5224V23.6583H52.4402V16.7758H56.5344V23.6583H60.1697V27.2937H56.5344V34.7409C57.2167 34.4821 57.8638 34.235 58.4756 33.9997C59.0874 33.7644 59.6168 33.5291 60.0639 33.2938H59.4991V30.2938H80.6761V33.2938H67.5111C67.3934 33.5291 67.264 33.7762 67.1228 34.035C66.9817 34.2938 66.8287 34.5527 66.664 34.8115H79.8643C79.8643 35.4939 79.8408 36.3174 79.7937 37.2822C79.7467 38.2469 79.6643 39.2587 79.5467 40.3175C79.4525 41.3528 79.3231 42.3411 79.1584 43.2823C79.0172 44.2 78.829 44.9647 78.5937 45.5765C78.1937 46.7059 77.6407 47.4824 76.9348 47.9059C76.2289 48.353 75.2407 48.5765 73.9701 48.5765H71.4994C71.4524 48.0118 71.3465 47.3765 71.1818 46.6706C71.0171 45.9647 70.817 45.3882 70.5817 44.9412C69.8523 45.7412 69.0876 46.4706 68.2876 47.1294C67.4876 47.8118 66.6758 48.3648 65.8522 48.7883ZM62.2521 28.9525V17.1287H77.5701V28.9525H62.2521ZM70.6523 44.8353H73.123C73.6642 44.8353 74.0759 44.7647 74.3583 44.6235C74.6407 44.4588 74.876 44.1176 75.0642 43.5999C75.2289 43.1999 75.3819 42.647 75.523 41.9411C75.6877 41.2117 75.8172 40.4705 75.9113 39.7175C76.0054 38.941 76.0642 38.2939 76.0878 37.7763H75.0289C74.5583 38.9763 73.9348 40.1881 73.1583 41.4117C72.4053 42.6352 71.57 43.7764 70.6523 44.8353ZM66.1346 26.0937H73.6877V24.3995H66.1346V26.0937ZM66.1346 21.823H73.6877V20.1641H66.1346V21.823ZM103.441 36.4704C102.359 36.4704 101.441 36.0939 100.688 35.3409C99.9354 34.588 99.5589 33.6703 99.5589 32.5879C99.5589 31.5055 99.9354 30.5879 100.688 29.8349C101.441 29.082 102.359 28.7055 103.441 28.7055C104.524 28.7055 105.441 29.082 106.194 29.8349C106.947 30.5879 107.324 31.5055 107.324 32.5879C107.324 33.6703 106.947 34.588 106.194 35.3409C105.441 36.0939 104.524 36.4704 103.441 36.4704ZM134.536 48.6118V41.0234C133.948 42.4823 133.16 43.8117 132.171 45.0117C131.183 46.2118 130.007 47.3059 128.642 48.2942C128.312 47.8471 127.842 47.3177 127.23 46.7059C126.618 46.1176 126.042 45.6706 125.501 45.3647C127.595 43.9529 129.171 42.3176 130.23 40.4587C131.289 38.5998 131.818 36.2821 131.818 33.5056V27.6113H153.031V38.4822H135.348C135.277 38.7645 135.207 39.0469 135.136 39.3293C135.066 39.5881 134.983 39.8469 134.889 40.1057H153.242V48.6118H134.536ZM127.089 29.4467C126.877 28.9761 126.548 28.3878 126.101 27.6819C125.654 26.976 125.23 26.4113 124.83 25.9878C126.195 25.5642 127.642 24.9878 129.171 24.2583C130.724 23.5289 132.23 22.7053 133.689 21.7877C135.171 20.8465 136.501 19.8818 137.677 18.8935C138.854 17.8817 139.76 16.8817 140.395 15.8934L144.207 16.4934C145.007 17.5288 146.019 18.517 147.242 19.4582C148.466 20.3759 149.795 21.223 151.231 21.9994C152.666 22.7524 154.113 23.423 155.572 24.0113C157.031 24.576 158.396 25.0348 159.666 25.3878C159.219 25.8113 158.76 26.3995 158.29 27.1525C157.843 27.9055 157.49 28.5525 157.231 29.0937C155.866 28.6231 154.466 28.0466 153.031 27.3643C151.595 26.6819 150.184 25.9289 148.795 25.1054V26.2348H135.877V24.8936C134.466 25.8113 132.995 26.6701 131.466 27.4702C129.96 28.2466 128.501 28.9055 127.089 29.4467ZM138.701 45.5765H149.113V43.1411H138.701V45.5765ZM135.771 35.7292H148.936V34.3174H135.877C135.854 34.5527 135.842 34.788 135.842 35.0233C135.842 35.2586 135.819 35.4939 135.771 35.7292ZM135.877 31.8114H148.936V30.3996H135.877V31.8114ZM138.277 23.2348H145.972C144.513 22.1289 143.254 20.9994 142.195 19.8465C141.183 20.9288 139.877 22.0583 138.277 23.2348ZM181.725 48.6118V44.9059H171.172V41.7293H181.725V40.2116H173.643V28.9525H181.725V27.5408H172.372V24.576H181.725V22.5289H171.137V31.882C171.137 35.5998 170.831 38.7763 170.219 41.4117C169.631 44.0235 168.749 46.2471 167.572 48.0824C167.29 47.9177 166.925 47.7177 166.478 47.4824C166.055 47.2706 165.619 47.0588 165.172 46.8471C164.749 46.6588 164.396 46.5294 164.113 46.4588C165.172 44.7176 165.96 42.6823 166.478 40.3528C167.019 37.9998 167.29 35.2586 167.29 32.1291V19.1406H179.678V16.2111H184.02V19.1406H196.761V22.5289H185.608V24.576H195.985V27.5408H185.608V28.9525H193.832V40.2116H185.608V41.7293H196.691V44.9059H185.608V48.6118H181.725ZM185.608 37.4939H189.843V35.7645H185.608V37.4939ZM185.608 33.3644H189.843V31.6703H185.608V33.3644ZM177.631 37.4939H181.725V35.7645H177.631V37.4939ZM177.631 33.3644H181.725V31.6703H177.631V33.3644ZM218.716 46.2566C218.64 45.9525 218.497 45.5914 218.288 45.1733C218.079 44.7552 217.832 44.3561 217.547 43.976C217.281 43.5769 217.015 43.2538 216.749 43.0067C219.353 42.6076 221.329 41.7619 222.678 40.4696C224.047 39.1582 224.769 37.6188 224.845 35.8513C224.921 34.445 224.664 33.1907 224.075 32.0884C223.486 30.9861 222.678 30.0928 221.652 29.4087C220.645 28.7245 219.533 28.3159 218.317 28.1828C218.165 29.9503 217.88 31.7558 217.462 33.5993C217.043 35.4427 216.473 37.1722 215.751 38.7876C215.048 40.403 214.183 41.7714 213.157 42.8927C212.378 43.7289 211.618 44.2135 210.876 44.3466C210.154 44.4796 209.384 44.3751 208.567 44.033C207.769 43.6909 207.066 43.1493 206.458 42.4081C205.85 41.6669 205.384 40.7926 205.061 39.7854C204.738 38.7591 204.605 37.6663 204.662 36.507C204.757 34.7776 205.165 33.2002 205.888 31.7748C206.61 30.3304 207.579 29.0856 208.795 28.0403C210.012 26.995 211.409 26.2063 212.986 25.6742C214.563 25.1421 216.245 24.9235 218.032 25.0185C219.476 25.0945 220.835 25.4176 222.108 25.9878C223.382 26.5579 224.493 27.3466 225.444 28.3539C226.413 29.3421 227.154 30.4919 227.667 31.8033C228.199 33.1146 228.418 34.5495 228.323 36.1079C228.19 38.7116 227.278 40.8972 225.586 42.6646C223.895 44.4131 221.605 45.6104 218.716 46.2566ZM209.451 40.4981C209.66 40.6501 209.879 40.7261 210.107 40.7261C210.335 40.7261 210.563 40.6121 210.791 40.384C211.475 39.6999 212.102 38.7306 212.672 37.4763C213.262 36.2219 213.746 34.8061 214.126 33.2287C214.525 31.6513 214.782 30.0453 214.896 28.4109C213.585 28.715 212.416 29.2661 211.39 30.0643C210.382 30.8625 209.584 31.8318 208.995 32.9721C208.406 34.0934 208.073 35.3287 207.997 36.6781C207.959 37.5713 208.073 38.3505 208.339 39.0157C208.624 39.6618 208.995 40.156 209.451 40.4981ZM19.7109 169.01C18.1036 169.205 16.681 169.129 15.4429 168.782C14.2049 168.456 13.2383 167.902 12.5433 167.12C11.8483 166.338 11.5008 165.361 11.5008 164.188C11.5008 162.646 12.1198 161.136 13.3578 159.66C14.6176 158.161 16.3443 156.945 18.538 156.011V151.091C17.3434 151.178 16.1814 151.243 15.052 151.286C13.9442 151.33 12.9126 151.33 11.9569 151.286L11.7614 147.54C12.5868 147.627 13.5967 147.659 14.7913 147.638C15.9859 147.594 17.2348 147.507 18.538 147.377V142.132L22.1544 142.164V146.953C23.2404 146.78 24.2504 146.595 25.1843 146.4C26.14 146.182 26.9219 145.954 27.5301 145.715L27.921 149.299C27.1608 149.581 26.2812 149.831 25.2821 150.048C24.2829 150.266 23.2404 150.461 22.1544 150.635V154.903C22.9146 154.729 23.7074 154.599 24.5327 154.512C25.3581 154.425 26.216 154.382 27.1065 154.382C29.1917 154.382 30.9618 154.707 32.4171 155.359C33.894 155.989 35.0126 156.847 35.7728 157.933C36.533 158.997 36.9131 160.203 36.9131 161.549C36.9131 163.634 36.2832 165.274 35.0235 166.469C33.7637 167.663 32.0587 168.25 29.9084 168.228C28.236 168.228 26.8242 167.815 25.673 166.99C24.5436 166.143 23.7291 164.894 23.2295 163.243C23.7291 163.091 24.3372 162.863 25.054 162.559C25.7708 162.233 26.3355 161.929 26.7482 161.647C27.2912 163.45 28.3337 164.351 29.8758 164.351C30.8315 164.351 31.5591 164.08 32.0587 163.537C32.5583 162.972 32.808 162.277 32.808 161.451C32.808 160.387 32.3302 159.507 31.3745 158.812C30.4188 158.096 28.9853 157.737 27.074 157.737C25.3364 157.737 23.6965 157.955 22.1544 158.389V166.501C22.1544 167.305 21.9698 167.891 21.6005 168.261C21.2313 168.652 20.6014 168.901 19.7109 169.01ZM36.2941 153.925C35.7728 153.404 35.0669 152.839 34.1764 152.231C33.2859 151.601 32.3736 151.015 31.4397 150.472C30.5057 149.907 29.6695 149.484 28.931 149.201L30.9836 146.269C31.7655 146.573 32.6234 146.986 33.5574 147.507C34.4913 148.029 35.4036 148.582 36.2941 149.169C37.1846 149.755 37.9339 150.32 38.5421 150.863C38.3249 151.102 38.0534 151.428 37.7276 151.84C37.4235 152.253 37.1303 152.655 36.8479 153.046C36.5873 153.437 36.4027 153.73 36.2941 153.925ZM17.3651 165.557C17.7778 165.578 18.071 165.535 18.2448 165.426C18.4403 165.318 18.538 165.122 18.538 164.84V159.855C17.5389 160.463 16.7461 161.126 16.1597 161.842C15.5732 162.559 15.28 163.276 15.28 163.993C15.28 164.492 15.4646 164.872 15.8339 165.133C16.2031 165.394 16.7135 165.535 17.3651 165.557ZM57.0774 170.082V151.623H60.9598V154.023L63.0069 151.941C63.5481 152.341 64.1481 152.835 64.807 153.423C65.4658 153.988 66.1482 154.611 66.8541 155.294C67.3717 154.494 67.8306 153.706 68.2306 152.929C68.6306 152.153 68.9482 151.423 69.1835 150.741L72.6424 152.153C72.2659 153.094 71.8071 154.059 71.2659 155.047C70.7247 156.011 70.1365 156.976 69.5012 157.941C70.1835 158.623 70.8071 159.294 71.3718 159.953C71.9601 160.612 72.466 161.212 72.8895 161.753V151.553H76.7013V170.082H57.0774ZM49.7007 170.612V138.458H53.6538V145.623L56.0891 144.564C56.3715 144.988 56.7009 145.576 57.0774 146.329C57.4774 147.082 57.8421 147.823 58.1715 148.552C58.5009 149.258 58.7362 149.8 58.8774 150.176L55.7362 151.588C55.6185 151.211 55.4303 150.741 55.1714 150.176C54.9361 149.588 54.6773 148.988 54.3949 148.376C54.1361 147.741 53.8891 147.176 53.6538 146.682V170.612H49.7007ZM72.5012 150.388C72.2424 150.223 71.8895 150.047 71.4424 149.858C71.0189 149.647 70.5953 149.458 70.1718 149.294C69.7482 149.105 69.3835 148.976 69.0776 148.905C69.4306 148.364 69.8188 147.694 70.2424 146.894C70.6659 146.07 71.0777 145.199 71.4777 144.282C71.8777 143.364 72.2424 142.47 72.5718 141.599C72.9013 140.705 73.1483 139.941 73.313 139.305L77.3367 140.646C77.0308 141.564 76.5955 142.635 76.0307 143.858C75.4896 145.058 74.9013 146.247 74.266 147.423C73.6542 148.576 73.066 149.564 72.5012 150.388ZM60.9598 166.553H72.8895V162.494C72.4895 162.8 72.0306 163.188 71.513 163.659C70.9953 164.106 70.6071 164.471 70.3483 164.753C69.9718 164.235 69.5129 163.659 68.9718 163.023C68.4541 162.365 67.8776 161.694 67.2423 161.012C66.5364 161.882 65.807 162.694 65.054 163.447C64.3246 164.176 63.6187 164.788 62.9363 165.282C62.7246 165.047 62.4304 164.753 62.0539 164.4C61.701 164.047 61.3363 163.718 60.9598 163.412V166.553ZM47.7948 156.07C47.536 155.953 47.1948 155.823 46.7712 155.682C46.3712 155.541 45.9595 155.411 45.5359 155.294C45.1124 155.176 44.7712 155.094 44.5124 155.047C44.6771 154.529 44.8418 153.87 45.0065 153.07C45.1712 152.247 45.3124 151.376 45.43 150.458C45.5712 149.541 45.6889 148.67 45.783 147.847C45.8771 147 45.9242 146.294 45.9242 145.729L49.3831 146.117C49.3595 146.917 49.2889 147.811 49.1713 148.8C49.0536 149.788 48.9125 150.764 48.7478 151.729C48.5831 152.694 48.4066 153.564 48.2183 154.341C48.0536 155.117 47.9124 155.694 47.7948 156.07ZM60.2186 149.153C59.8421 147.905 59.3245 146.576 58.6656 145.164C58.0303 143.752 57.3833 142.541 56.7244 141.529L60.2186 140.011C60.6422 140.67 61.0775 141.446 61.5245 142.341C61.9716 143.211 62.3951 144.117 62.7951 145.058C63.2187 145.999 63.5599 146.882 63.8187 147.705C63.4893 147.8 63.0893 147.941 62.6187 148.129C62.1481 148.294 61.6892 148.47 61.2422 148.658C60.7951 148.847 60.4539 149.011 60.2186 149.153ZM65.4776 147.494C65.2423 146.199 64.9011 144.894 64.454 143.576C64.0069 142.258 63.5246 141.058 63.0069 139.976L66.6423 138.882C67.1835 140.035 67.6894 141.305 68.16 142.694C68.6306 144.058 68.9835 145.317 69.2188 146.47C68.8894 146.517 68.4776 146.6 67.9835 146.717C67.4894 146.835 67.007 146.964 66.5364 147.105C66.0893 147.247 65.7364 147.376 65.4776 147.494ZM60.9598 162.106C61.5481 161.612 62.1598 161.035 62.7951 160.376C63.4305 159.694 64.054 158.988 64.6658 158.259C64.0069 157.576 63.3599 156.941 62.7246 156.353C62.0892 155.764 61.501 155.27 60.9598 154.87V162.106ZM99.5209 169.987C99.1734 169.618 98.6629 169.216 97.9896 168.782C97.338 168.369 96.7624 168.065 96.2629 167.87C97.805 166.805 99.1951 165.48 100.433 163.895C101.693 162.288 102.725 160.561 103.528 158.715C102.594 158.432 101.649 158.204 100.694 158.031C99.7381 157.835 98.8041 157.694 97.8919 157.607C97.3272 158.671 96.7407 159.649 96.1326 160.539C95.5461 161.408 94.9488 162.146 94.3407 162.755C93.4284 163.689 92.4293 164.34 91.3433 164.709C90.279 165.079 89.2473 165.187 88.2482 165.035C87.2708 164.861 86.4672 164.438 85.8373 163.765C85.2074 163.091 84.8925 162.19 84.8925 161.06C84.8925 159.801 85.3052 158.65 86.1305 157.607C86.9559 156.564 88.1505 155.728 89.7143 155.098C91.2999 154.468 93.2329 154.132 95.5135 154.088C96.1 152.85 96.6647 151.536 97.2077 150.146C97.7507 148.756 98.2394 147.377 98.6738 146.009C97.8702 146.226 97.0231 146.443 96.1326 146.66C95.2638 146.856 94.4384 147.029 93.6565 147.181C92.8963 147.333 92.2664 147.442 91.7668 147.507L90.7243 143.761C91.289 143.739 92.0166 143.674 92.9071 143.565C93.7977 143.456 94.7316 143.315 95.709 143.142C96.7081 142.968 97.6421 142.783 98.5109 142.588C99.4014 142.392 100.107 142.197 100.629 142.001L103.365 143.467C102.996 144.988 102.475 146.714 101.801 148.648C101.128 150.581 100.357 152.481 99.4883 154.349C100.314 154.458 101.15 154.599 101.997 154.773C102.866 154.946 103.745 155.153 104.636 155.392C104.831 154.631 104.983 153.882 105.092 153.144C105.201 152.383 105.266 151.634 105.288 150.896L109.165 151.84C109.056 153.361 108.795 154.903 108.383 156.467C109.251 156.749 110.098 157.053 110.924 157.379C111.771 157.705 112.575 158.052 113.335 158.421C113.118 158.682 112.879 159.03 112.618 159.464C112.357 159.898 112.118 160.355 111.901 160.832C111.706 161.289 111.543 161.69 111.413 162.038C110.739 161.669 110.044 161.31 109.327 160.963C108.632 160.593 107.916 160.268 107.177 159.985C106.33 161.962 105.255 163.83 103.952 165.589C102.649 167.327 101.172 168.793 99.5209 169.987ZM88.3134 160.604C88.3568 160.887 88.5414 161.115 88.8672 161.289C89.193 161.441 89.5949 161.462 90.0727 161.354C90.5722 161.245 91.1044 160.919 91.6691 160.376C91.9732 160.072 92.299 159.681 92.6465 159.203C92.994 158.726 93.3415 158.183 93.6891 157.574C91.8429 157.77 90.4637 158.172 89.5514 158.78C88.6392 159.366 88.2265 159.974 88.3134 160.604ZM127.293 170.047C126.845 169.294 126.245 168.482 125.493 167.612C124.763 166.741 123.987 165.918 123.163 165.141C122.363 164.341 121.598 163.682 120.869 163.165L123.551 160.729C124.092 161.082 124.681 161.541 125.316 162.106C125.951 162.647 126.598 163.235 127.257 163.87C127.916 164.482 128.516 165.082 129.057 165.671C129.622 166.259 130.081 166.776 130.434 167.224L127.293 170.047ZM11.6745 231.612C11.3686 231.353 10.8863 231.047 10.2274 230.694C9.59211 230.341 9.06269 230.094 8.63915 229.953C9.39211 229.012 9.99212 228.047 10.4392 227.059C10.9098 226.071 11.251 224.929 11.4627 223.635C11.6745 222.341 11.7804 220.812 11.7804 219.047V210.647C11.3804 210.341 10.8745 209.976 10.2627 209.552C9.65094 209.129 9.10975 208.811 8.63915 208.6C9.27446 208.058 9.88624 207.388 10.4745 206.588C11.0627 205.788 11.6039 204.941 12.0981 204.046C12.6157 203.152 13.0628 202.282 13.4393 201.435C13.8157 200.588 14.1099 199.846 14.3216 199.211L18.2747 200.058C18.1805 200.317 18.0629 200.588 17.9217 200.87C17.8041 201.152 17.6864 201.446 17.5688 201.752H23.216L24.3101 202.988C24.0042 203.646 23.616 204.388 23.1454 205.211C22.6748 206.035 22.2042 206.835 21.7336 207.611H25.4748V209.129C26.5572 208.517 27.4866 207.717 28.2631 206.729C29.0631 205.741 29.6279 204.658 29.9573 203.482H26.1454V200.305H41.4634C41.3693 202.517 41.2046 204.329 40.9693 205.741C40.7575 207.152 40.4399 208.247 40.0163 209.023C39.6163 209.8 39.0869 210.341 38.4281 210.647C37.7928 210.953 37.0163 211.105 36.0986 211.105H33.7691C33.7456 210.8 33.6868 210.423 33.5927 209.976C33.5221 209.505 33.428 209.058 33.3103 208.635C33.2162 208.188 33.1103 207.835 32.9927 207.576H34.8986C35.4633 207.576 35.9104 207.505 36.2398 207.364C36.5692 207.199 36.8163 206.823 36.981 206.235C37.1692 205.647 37.2986 204.729 37.3692 203.482H33.9103C33.4632 205.27 32.6868 206.905 31.5809 208.388C30.4985 209.847 29.122 211.094 27.4513 212.129C27.2396 211.847 26.9455 211.494 26.569 211.07C26.1925 210.647 25.8278 210.27 25.4748 209.941V217.953C26.0866 217.059 26.6513 216.023 27.169 214.847C27.6866 213.67 28.0749 212.6 28.3337 211.635L31.7573 212.553C31.6632 212.858 31.5573 213.188 31.4397 213.541C31.322 213.894 31.1926 214.258 31.0514 214.635H32.675V211.705H36.4163V214.635H41.2164V217.917H36.4163V220.988H42.0282V224.27H36.4163V231.577H32.675V224.27H26.4631V220.988H32.675V217.917H29.4985C29.2632 218.388 29.0043 218.847 28.722 219.294C28.4631 219.717 28.2043 220.094 27.9455 220.423C27.6866 220.235 27.3102 220.012 26.816 219.753C26.3219 219.494 25.8748 219.282 25.4748 219.117V228.506C25.4748 230.506 24.2748 231.506 21.8747 231.506H19.5453C19.5218 231.2 19.4629 230.824 19.3688 230.377C19.2982 229.929 19.2159 229.482 19.1217 229.035C19.0276 228.612 18.9217 228.282 18.8041 228.047H21.0277C21.4277 228.047 21.71 227.976 21.8747 227.835C22.063 227.694 22.1571 227.435 22.1571 227.059V222.329H14.9922C14.8275 224.259 14.4746 225.976 13.9334 227.482C13.3922 228.988 12.6392 230.365 11.6745 231.612ZM14.3216 207.611H17.7099C17.9688 207.141 18.2276 206.658 18.4864 206.164C18.7688 205.67 18.9806 205.247 19.1217 204.894H15.9452C15.7099 205.364 15.4511 205.823 15.1687 206.27C14.8864 206.717 14.604 207.164 14.3216 207.611ZM15.1334 219.117H17.1099V216.47H15.1334V219.117ZM20.1806 219.117H22.1571V216.47H20.1806V219.117ZM15.1334 213.541H17.1099V210.894H15.1334V213.541ZM20.1806 213.541H22.1571V210.894H20.1806V213.541ZM57.0991 231.929C56.8403 231.388 56.4991 230.788 56.0755 230.129C55.6755 229.471 55.2285 228.894 54.7343 228.4C57.4403 227.506 59.5815 226.235 61.158 224.588C62.7345 222.918 63.8287 220.835 64.4404 218.341H56.4285V214.564H65.0052C65.0287 214.235 65.0404 213.894 65.0404 213.541C65.064 213.188 65.0757 212.835 65.0757 212.482V208.811H58.5462V205.176H65.0757V199.317H69.2405V205.176H77.7113V214.564H80.8173V218.341H70.5465C71.5818 220.529 73.0171 222.459 74.8524 224.129C76.7113 225.8 78.8525 227.071 81.2761 227.941C80.9702 228.247 80.6408 228.635 80.2879 229.106C79.9584 229.576 79.6408 230.047 79.3349 230.518C79.0525 230.988 78.8408 231.388 78.6996 231.718C76.2289 230.541 74.0877 229.082 72.2759 227.341C70.4641 225.576 68.9817 223.482 67.8287 221.059C66.9346 223.506 65.5934 225.659 63.8051 227.518C62.0404 229.353 59.805 230.824 57.0991 231.929ZM52.0519 231.365L48.4518 228.788C48.993 228.082 49.546 227.247 50.1107 226.282C50.6754 225.318 51.2166 224.318 51.7343 223.282C52.2754 222.223 52.7578 221.188 53.1813 220.176C53.6284 219.164 53.9696 218.259 54.2049 217.459C54.3931 217.67 54.6873 217.941 55.0873 218.27C55.5108 218.6 55.9461 218.917 56.3932 219.223C56.8403 219.529 57.2167 219.776 57.5226 219.964C57.2638 220.788 56.9226 221.717 56.4991 222.753C56.0755 223.765 55.6049 224.8 55.0873 225.859C54.5696 226.918 54.052 227.929 53.5343 228.894C53.0166 229.835 52.5225 230.659 52.0519 231.365ZM53.6402 214.917C53.2166 214.541 52.6284 214.094 51.8754 213.576C51.146 213.058 50.3813 212.564 49.5813 212.094C48.7812 211.6 48.0753 211.223 47.4636 210.964L49.546 207.576C50.5813 208.07 51.699 208.67 52.899 209.376C54.1225 210.058 55.1461 210.741 55.9696 211.423C55.7814 211.635 55.5226 211.976 55.1932 212.447C54.8873 212.894 54.5814 213.353 54.2755 213.823C53.9931 214.27 53.7814 214.635 53.6402 214.917ZM56.0402 207.117C55.6402 206.741 55.0637 206.294 54.3108 205.776C53.5814 205.258 52.8049 204.764 51.9813 204.294C51.1813 203.823 50.4754 203.458 49.8636 203.199L52.0166 199.882C52.6519 200.141 53.3814 200.505 54.2049 200.976C55.0284 201.446 55.8285 201.929 56.605 202.423C57.3814 202.917 57.9932 203.352 58.4403 203.729C58.2521 203.941 57.9932 204.27 57.6638 204.717C57.3344 205.164 57.0167 205.611 56.7108 206.058C56.405 206.505 56.1814 206.858 56.0402 207.117ZM69.17 214.564H73.4759V208.811H69.2405V212.482C69.2405 212.835 69.2288 213.188 69.2052 213.541C69.2052 213.894 69.1935 214.235 69.17 214.564ZM101.106 230.01C99.3688 230.01 97.957 229.836 96.871 229.489C95.8068 229.141 95.0248 228.555 94.5253 227.729C94.0474 226.904 93.8085 225.785 93.8085 224.374V202.838L98.0765 203.099C98.0331 203.468 97.9896 204.087 97.9462 204.956C97.9027 205.825 97.8702 206.759 97.8484 207.758C97.8267 208.562 97.805 209.441 97.7833 210.397C97.7833 211.353 97.7833 212.406 97.7833 213.557V223.592C97.7833 224.547 98.0439 225.199 98.5652 225.547C99.1082 225.894 100.042 226.068 101.367 226.068C103.496 226.068 105.505 225.666 107.394 224.862C109.306 224.059 110.956 223.06 112.347 221.865C112.368 222.278 112.412 222.777 112.477 223.364C112.564 223.928 112.651 224.471 112.737 224.993C112.846 225.492 112.933 225.883 112.998 226.166C111.434 227.295 109.61 228.218 107.525 228.935C105.461 229.652 103.322 230.01 101.106 230.01ZM133.393 230.759C131.547 230.694 130.113 230.184 129.093 229.228C128.072 228.272 127.572 227.089 127.594 225.677C127.616 224.743 127.92 223.907 128.506 223.168C129.093 222.43 129.907 221.854 130.95 221.441C131.992 221.029 133.198 220.855 134.566 220.92C134.935 220.92 135.283 220.942 135.609 220.985C135.956 221.007 136.304 221.04 136.651 221.083L136.553 217.336C136.184 217.358 135.804 217.369 135.413 217.369C135.044 217.369 134.675 217.369 134.305 217.369C133.002 217.369 131.97 217.271 131.21 217.076C130.472 216.859 129.875 216.511 129.418 216.033C128.984 215.534 128.55 214.849 128.115 213.981L131.178 212.449C131.482 213.036 131.84 213.416 132.253 213.59C132.666 213.742 133.371 213.818 134.371 213.818C134.696 213.818 135.033 213.818 135.381 213.818C135.75 213.796 136.119 213.774 136.488 213.753C136.467 213.166 136.445 212.569 136.423 211.961C136.423 211.353 136.412 210.755 136.391 210.169C134.805 210.256 133.306 210.321 131.894 210.364C130.483 210.386 129.386 210.386 128.604 210.364L128.441 206.715C129.201 206.78 130.298 206.813 131.732 206.813C133.165 206.791 134.696 206.748 136.325 206.683C136.304 205.901 136.293 205.151 136.293 204.435C136.293 203.718 136.293 203.056 136.293 202.447H140.072C140.072 203.034 140.072 203.664 140.072 204.337C140.072 205.01 140.083 205.716 140.105 206.455C141.582 206.346 142.939 206.227 144.177 206.096C145.415 205.944 146.327 205.792 146.914 205.64V209.224C146.327 209.354 145.415 209.485 144.177 209.615C142.961 209.724 141.614 209.832 140.137 209.941C140.159 210.527 140.17 211.124 140.17 211.733C140.191 212.319 140.213 212.906 140.235 213.492C141.516 213.362 142.733 213.21 143.884 213.036C145.035 212.84 145.947 212.634 146.621 212.417V216.229C145.817 216.402 144.861 216.565 143.754 216.717C142.668 216.869 141.516 217 140.3 217.108C140.344 217.977 140.365 218.813 140.365 219.617C140.387 220.421 140.409 221.17 140.43 221.865C142.038 222.299 143.558 222.864 144.992 223.559C146.425 224.254 147.772 225.014 149.032 225.84C148.749 226.057 148.434 226.383 148.087 226.817C147.761 227.23 147.457 227.653 147.174 228.088C146.892 228.522 146.675 228.891 146.523 229.195C144.698 227.653 142.7 226.437 140.528 225.547C140.506 227.176 139.931 228.468 138.801 229.424C137.694 230.401 135.891 230.846 133.393 230.759ZM133.523 227.273C134.653 227.317 135.467 227.154 135.967 226.785C136.467 226.415 136.716 225.927 136.716 225.318V224.406C136.26 224.319 135.804 224.254 135.348 224.211C134.914 224.167 134.479 224.146 134.045 224.146C133.133 224.146 132.437 224.298 131.96 224.602C131.482 224.906 131.243 225.275 131.243 225.709C131.243 226.687 132.003 227.208 133.523 227.273ZM168.742 231.248C168.482 230.814 168.134 230.292 167.7 229.684C167.265 229.076 166.766 228.555 166.201 228.12C168.503 227.469 170.274 226.719 171.512 225.872C172.75 225.004 173.608 223.983 174.085 222.81C173.39 223.157 172.695 223.331 172 223.331C170.35 223.331 169.014 222.864 167.993 221.93C166.994 220.996 166.462 219.736 166.397 218.151C166.353 217.065 166.57 216.098 167.048 215.251C167.526 214.382 168.199 213.698 169.068 213.199C169.937 212.699 170.925 212.449 172.033 212.449C172.207 212.449 172.359 212.46 172.489 212.482C172.619 212.482 172.761 212.493 172.913 212.515C172.869 212.124 172.826 211.722 172.782 211.309C172.739 210.896 172.717 210.462 172.717 210.006C170.958 210.071 169.242 210.169 167.569 210.299C165.897 210.429 164.366 210.581 162.976 210.755C161.586 210.907 160.434 211.092 159.522 211.309L158.968 207.53C159.75 207.465 160.847 207.4 162.259 207.334C163.671 207.247 165.278 207.161 167.081 207.074C168.905 206.987 170.784 206.9 172.717 206.813V202.219H176.496V206.65C178.191 206.585 179.809 206.531 181.351 206.487C182.893 206.422 184.272 206.379 185.488 206.357C186.705 206.314 187.66 206.303 188.355 206.324L188.095 210.136C186.835 209.984 185.163 209.897 183.078 209.876C181.014 209.832 178.82 209.832 176.496 209.876C176.496 210.657 176.518 211.45 176.562 212.254C176.627 213.058 176.681 213.829 176.724 214.567C177.789 215.827 178.321 217.499 178.321 219.584C178.321 222.473 177.485 224.906 175.812 226.882C174.14 228.837 171.783 230.292 168.742 231.248ZM172.033 220.073C172.641 220.03 173.119 219.823 173.466 219.454C173.814 219.085 173.988 218.607 173.988 218.021C173.988 217.825 173.966 217.619 173.923 217.402C173.901 217.163 173.868 216.913 173.825 216.652C173.369 216.131 172.793 215.87 172.098 215.87C171.49 215.87 170.98 216.066 170.567 216.457C170.154 216.848 169.959 217.347 169.98 217.955C169.98 218.585 170.165 219.107 170.534 219.519C170.925 219.91 171.425 220.095 172.033 220.073ZM199.18 230.739C198.42 230.739 197.726 230.549 197.099 230.169C196.472 229.808 195.968 229.314 195.588 228.686C195.208 228.04 195.018 227.328 195.018 226.548C195.018 225.769 195.199 225.066 195.56 224.439C195.94 223.812 196.443 223.318 197.071 222.956C197.717 222.576 198.42 222.386 199.18 222.386C199.959 222.386 200.663 222.576 201.29 222.956C201.936 223.337 202.44 223.84 202.801 224.467C203.181 225.094 203.371 225.788 203.371 226.548C203.371 227.328 203.181 228.04 202.801 228.686C202.421 229.314 201.907 229.808 201.261 230.169C200.634 230.549 199.94 230.739 199.18 230.739ZM199.18 229.143C199.902 229.143 200.511 228.895 201.005 228.401C201.518 227.888 201.774 227.28 201.774 226.577C201.774 225.874 201.518 225.266 201.005 224.752C200.511 224.239 199.902 223.983 199.18 223.983C198.477 223.983 197.869 224.239 197.356 224.752C196.862 225.247 196.615 225.855 196.615 226.577C196.615 227.28 196.862 227.888 197.356 228.401C197.869 228.895 198.477 229.143 199.18 229.143Z" fill="#343434"/>
    <path d="M26.8513 101.741C26.6866 101.529 26.416 101.259 26.0395 100.929C25.6866 100.576 25.3337 100.259 24.9807 99.9763C24.0395 100.07 22.9101 100.188 21.5924 100.329C20.2982 100.47 18.957 100.6 17.5688 100.718C16.1805 100.835 14.8746 100.941 13.651 101.035C12.4275 101.129 11.4274 101.2 10.651 101.247L10.0157 97.9292C10.5804 97.9292 11.4745 97.9057 12.6981 97.8586C13.9216 97.8116 15.2393 97.7527 16.6511 97.6821V95.8468H12.0981V93.4115C11.9569 93.5056 11.8157 93.5879 11.6745 93.6585C11.5333 93.7291 11.3922 93.7997 11.251 93.8703C11.0627 93.4938 10.7804 93.0585 10.4039 92.5644C10.0274 92.0702 9.65094 91.6585 9.27446 91.3291C11.5804 90.3879 13.1922 89.0466 14.1099 87.3054H9.94506V84.3407H16.6511V82.7171H11.5686V79.8935H16.6511V77.3876H20.6041V79.8935H25.0513V82.7171H20.6041V84.3407H26.3572V87.3054H21.9806V88.576C21.9806 88.9525 22.2395 89.1408 22.7571 89.1408C23.3454 89.1408 23.7101 89.0584 23.8513 88.8937C23.9924 88.7055 24.1101 88.2702 24.2042 87.5878C24.5572 87.7525 25.0395 87.9172 25.6513 88.0819C26.2866 88.2231 26.7925 88.329 27.169 88.3996C27.0043 89.7408 26.6396 90.6702 26.0748 91.1879C25.5337 91.7055 24.7454 91.9644 23.7101 91.9644H20.6041V92.9879H24.9101V95.8468H20.6041V97.4704C21.5453 97.4233 22.4159 97.3645 23.216 97.2939C24.016 97.2233 24.6513 97.1645 25.1219 97.1174L25.1572 98.5645C26.7572 97.2468 27.969 95.588 28.7926 93.5879C28.322 93.235 27.8631 92.9173 27.4161 92.635C26.9925 92.3291 26.616 92.0938 26.2866 91.9291L28.2631 89.2466C28.4749 89.3643 28.6984 89.5055 28.9337 89.6702C29.1926 89.8114 29.4632 89.9761 29.7455 90.1643C29.9573 88.9643 30.0985 87.6348 30.1691 86.176H26.8513V82.823H30.2044V77.6346H33.8044V82.823H40.0163C39.7575 84.3054 39.5222 85.8583 39.3104 87.4819C39.0987 89.1055 38.981 90.682 38.9575 92.2114C38.9575 93.7409 39.1104 95.0938 39.4163 96.2703C39.6516 95.7997 39.8634 95.3409 40.0516 94.8938C40.2634 94.4232 40.4164 94.0115 40.5105 93.6585C40.7693 93.9409 41.1693 94.3174 41.7105 94.788C42.2517 95.235 42.7341 95.5997 43.1576 95.8821C42.8282 96.7762 42.4399 97.6468 41.9929 98.4939C41.5458 99.3175 41.1105 99.9998 40.6869 100.541C40.2399 101.106 39.7222 101.4 39.134 101.423C38.5457 101.423 38.0516 101.2 37.6516 100.753C37.0869 100.141 36.628 99.3292 36.2751 98.3174C35.9457 97.2821 35.7221 96.1292 35.6045 94.8585C35.3927 95.0703 35.1339 95.3527 34.828 95.7056C34.5456 96.0586 34.2633 96.4115 33.9809 96.7645C33.6985 97.1174 33.475 97.4233 33.3103 97.6821C33.0985 97.4233 32.8515 97.1645 32.5691 96.9056C32.2868 96.6233 31.9809 96.3292 31.6514 96.0233C31.0867 97.2233 30.4044 98.2939 29.6043 99.2351C28.8043 100.153 27.8867 100.988 26.8513 101.741ZM38.1457 109.788C37.8163 109.177 37.3692 108.447 36.8045 107.6C36.2398 106.753 35.6398 105.906 35.0045 105.059C34.3692 104.212 33.7456 103.482 33.1338 102.87L36.028 100.576C36.6633 101.188 37.3339 101.906 38.0398 102.729C38.7457 103.529 39.4163 104.341 40.0516 105.165C40.6869 105.988 41.2046 106.729 41.6046 107.388C41.0634 107.647 40.4399 108.024 39.734 108.518C39.0516 109.012 38.5222 109.435 38.1457 109.788ZM12.8392 109.965C12.4628 109.565 11.9451 109.129 11.2863 108.659C10.651 108.188 10.0627 107.835 9.52152 107.6C10.1333 107.106 10.7686 106.494 11.4274 105.765C12.1098 105.035 12.7451 104.271 13.3334 103.471C13.9452 102.647 14.4275 101.894 14.7805 101.212L18.31 103.153C17.5805 104.423 16.7099 105.671 15.6981 106.894C14.7099 108.118 13.7569 109.141 12.8392 109.965ZM28.4043 109.577C28.3102 108.894 28.1572 108.094 27.9455 107.176C27.7572 106.282 27.5455 105.4 27.3102 104.529C27.0984 103.635 26.8749 102.894 26.6396 102.306L30.4161 101.282C30.6514 101.823 30.8985 102.541 31.1573 103.435C31.4161 104.306 31.6514 105.212 31.8632 106.153C32.0985 107.071 32.275 107.882 32.3926 108.588C31.875 108.659 31.2044 108.788 30.3808 108.977C29.5808 109.188 28.922 109.388 28.4043 109.577ZM21.0277 109.753C20.9806 109.094 20.8865 108.306 20.7453 107.388C20.6041 106.494 20.4512 105.612 20.2865 104.741C20.1218 103.847 19.9571 103.106 19.7923 102.518L23.6042 101.741C23.816 102.329 24.016 103.059 24.2042 103.929C24.416 104.8 24.5925 105.694 24.7336 106.612C24.8983 107.529 25.0042 108.329 25.0513 109.012C24.7219 109.035 24.3101 109.082 23.816 109.153C23.3218 109.247 22.8159 109.341 22.2983 109.435C21.8042 109.529 21.3806 109.635 21.0277 109.753ZM35.5692 94.6468C35.4751 93.3526 35.4515 91.9761 35.4986 90.5173C35.5692 89.0584 35.7221 87.6113 35.9574 86.176H33.7691C33.675 88.5055 33.3927 90.5879 32.9221 92.4232C33.4632 92.8232 33.9574 93.2232 34.4044 93.6232C34.875 93.9997 35.2633 94.3409 35.5692 94.6468ZM12.8392 92.9879H16.6511V90.9055H18.8394C18.8159 90.8114 18.8041 90.7173 18.8041 90.6232C18.8041 90.529 18.8041 90.4231 18.8041 90.3055V87.3054H17.5688C17.0982 88.529 16.4746 89.6114 15.6981 90.5526C14.9452 91.4702 13.9922 92.282 12.8392 92.9879ZM62.4639 109.647V98.2822H49.6519V84.2348H62.4639V77.4934H66.8052V84.2348H79.6173V98.2822H66.8052V109.647H62.4639ZM66.8052 94.1879H75.2407V88.1172H66.8052V94.1879ZM54.099 94.1879H62.4639V88.1172H54.099V94.1879ZM94.6882 108.835V105.094H98.6412V93.2703H102.7V105.094H105.524V90.7643H97.4412V87.0584H118.23V90.7643H109.653V95.388H116.818V99.2351H109.653V105.094H119.218V108.835H94.6882ZM90.7704 109.435C90.3469 109.082 89.8175 108.718 89.1822 108.341C88.5469 107.965 87.9704 107.682 87.4527 107.494C89.9234 104.623 91.4411 100.988 92.0058 96.588C91.4175 96.8704 90.7469 97.1762 89.994 97.5057C89.2645 97.8351 88.641 98.1057 88.1233 98.3174L86.9233 94.2585C87.3468 94.1174 87.888 93.9409 88.5469 93.7291C89.2292 93.5173 89.9116 93.2938 90.594 93.0585C91.2763 92.8232 91.8528 92.6114 92.3234 92.4232V89.7408C91.8764 89.9525 91.394 90.1996 90.8763 90.482C90.3587 90.7643 89.9469 90.9996 89.641 91.1879C89.4528 90.7173 89.1822 90.1408 88.8292 89.4584C88.4998 88.7761 88.1351 88.0937 87.7351 87.4113C87.3586 86.7054 86.9939 86.1172 86.6409 85.6466L89.7822 83.9171C90.1116 84.3877 90.5116 85.0113 90.9822 85.7877C91.4763 86.5642 91.9234 87.329 92.3234 88.0819V80.8818H103.018V77.2464H107.43V80.8818H119.43V84.4465H96.2059V91.7879C96.2059 95.3409 95.7353 98.6469 94.7941 101.706C93.8529 104.765 92.5117 107.341 90.7704 109.435ZM147.101 109.4C147.078 109 147.007 108.518 146.889 107.953C146.795 107.412 146.678 106.871 146.536 106.329C146.419 105.788 146.289 105.353 146.148 105.023H149.466C149.96 105.023 150.313 104.953 150.525 104.812C150.737 104.647 150.842 104.329 150.842 103.859V90.5526H143.078V87.3407H141.172C140.583 90.7526 139.442 94.035 137.748 97.188C138.83 98.4822 139.842 99.7881 140.783 101.106C141.748 102.423 142.595 103.682 143.325 104.882C142.972 105.023 142.56 105.247 142.089 105.553C141.619 105.859 141.16 106.176 140.713 106.506C140.289 106.812 139.948 107.094 139.689 107.353C139.172 106.341 138.536 105.294 137.783 104.212C137.054 103.106 136.277 102 135.454 100.894C133.242 104 130.701 106.529 127.83 108.482C127.477 107.988 127.018 107.459 126.454 106.894C125.912 106.306 125.383 105.859 124.865 105.553C126.371 104.659 127.807 103.541 129.171 102.2C130.56 100.835 131.795 99.3057 132.877 97.6115C131.866 96.4115 130.83 95.2821 129.771 94.2232C128.736 93.1409 127.748 92.1997 126.807 91.3996L129.56 88.8584C130.407 89.5408 131.277 90.3173 132.171 91.1879C133.089 92.0585 133.995 92.9761 134.889 93.9409C135.83 91.9173 136.536 89.7172 137.007 87.3407H126.242V83.6348H133.018V77.7052H137.607V83.6348H143.854V86.8466H150.842V77.8817H155.148V86.8466H158.925V90.5526H155.148V105.623C155.148 106.941 154.772 107.894 154.019 108.482C153.266 109.094 152.125 109.4 150.595 109.4H147.101ZM145.619 101.106C145.36 100.494 144.972 99.7528 144.454 98.8822C143.96 98.0116 143.419 97.1409 142.83 96.2703C142.242 95.3997 141.678 94.6821 141.136 94.1174L144.348 91.8938C144.96 92.5761 145.572 93.3291 146.183 94.1526C146.795 94.9527 147.36 95.7644 147.878 96.588C148.419 97.388 148.854 98.1292 149.184 98.8116C148.666 99.0469 148.054 99.3881 147.348 99.8351C146.666 100.259 146.089 100.682 145.619 101.106ZM179.114 109.682V101.812C177.961 102.823 176.69 103.8 175.302 104.741C173.914 105.682 172.49 106.541 171.031 107.318C169.572 108.094 168.16 108.741 166.796 109.259C166.678 108.929 166.478 108.529 166.196 108.059C165.937 107.612 165.655 107.176 165.349 106.753C165.043 106.306 164.772 105.965 164.537 105.729C165.784 105.353 167.09 104.859 168.455 104.247C169.819 103.612 171.161 102.906 172.478 102.129C173.819 101.329 175.055 100.482 176.184 99.5881C177.337 98.6939 178.314 97.788 179.114 96.8704V96.0233H172.514V101.776H168.49V92.635H179.114V91.0114H165.419V87.5525H179.114V85.4348C179.02 85.3877 178.925 85.3524 178.831 85.3289C178.761 85.3054 178.69 85.2819 178.62 85.2583C179.208 84.6936 179.772 84.023 180.314 83.2465H176.361C176.549 83.6936 176.737 84.1524 176.925 84.623C177.114 85.0701 177.255 85.4583 177.349 85.7877C177.043 85.8348 176.631 85.9172 176.114 86.0348C175.596 86.1525 175.09 86.2819 174.596 86.4231C174.102 86.5407 173.714 86.6466 173.431 86.7407C173.337 86.3172 173.172 85.776 172.937 85.1171C172.725 84.4583 172.502 83.8348 172.266 83.2465H170.572C170.125 83.9759 169.655 84.6701 169.16 85.3289C168.69 85.9878 168.243 86.5407 167.819 86.9878C167.608 86.8466 167.266 86.6584 166.796 86.4231C166.325 86.1642 165.843 85.9289 165.349 85.7172C164.878 85.4819 164.502 85.3289 164.219 85.2583C164.949 84.576 165.643 83.7524 166.302 82.7877C166.984 81.8229 167.596 80.8347 168.137 79.8229C168.678 78.7876 169.09 77.8464 169.372 76.9993L173.361 77.7405C173.219 78.117 173.066 78.4935 172.902 78.8699C172.737 79.2464 172.561 79.6347 172.372 80.0347H180.596V82.8936C181.278 81.9288 181.89 80.8935 182.431 79.7876C182.996 78.6817 183.431 77.6817 183.737 76.7875L187.796 77.7052C187.655 78.0582 187.49 78.4346 187.302 78.8346C187.137 79.2347 186.961 79.6347 186.773 80.0347H196.691V83.2465H191.255C191.443 83.6936 191.62 84.1524 191.785 84.623C191.973 85.0701 192.126 85.4583 192.243 85.7877C191.843 85.8348 191.373 85.9172 190.832 86.0348C190.29 86.1525 189.761 86.2819 189.243 86.4231C188.749 86.5407 188.361 86.6466 188.079 86.7407C187.984 86.2701 187.832 85.7054 187.62 85.0466C187.408 84.3877 187.196 83.7877 186.984 83.2465H185.008C184.702 83.7642 184.384 84.2701 184.055 84.7642C183.726 85.2348 183.396 85.6701 183.067 86.0701V87.5525H196.796V91.0114H183.067V92.635H193.902V98.2116C193.902 99.4351 193.596 100.341 192.985 100.929C192.373 101.518 191.408 101.812 190.09 101.812H189.173C190.561 102.635 191.996 103.388 193.479 104.071C194.961 104.729 196.361 105.259 197.679 105.659C197.443 105.918 197.173 106.271 196.867 106.718C196.561 107.141 196.267 107.576 195.985 108.024C195.726 108.494 195.538 108.894 195.42 109.224C194.055 108.706 192.643 108.071 191.185 107.318C189.726 106.565 188.302 105.729 186.914 104.812C185.526 103.871 184.243 102.894 183.067 101.882V109.682H179.114ZM187.867 100.965C187.773 100.494 187.655 100.012 187.514 99.5175C187.396 98.9998 187.255 98.5527 187.09 98.1763H188.608C189.079 98.1763 189.384 98.1174 189.526 97.9998C189.69 97.8586 189.773 97.5998 189.773 97.2233V96.0233H183.067V96.9762C184.314 98.3645 185.914 99.6939 187.867 100.965Z" fill="#D64B57"/>
</svg>
