<svg width="641" height="180" viewBox="0 0 641 180" fill="none" xmlns="http://www.w3.org/2000/svg">
    <rect y="98" width="543" height="80" rx="3" fill="white"/>
    <rect y="8" width="641" height="80" rx="3" fill="white"/>
    <path d="M14.704 67.792V61.812H34.62V35.916H17.928V29.936H58.072V35.916H41.38V61.812H61.348V67.792H14.704ZM97.02 72.108C96.7773 71.8653 96.3787 71.536 95.824 71.12C95.2693 70.704 94.6973 70.3053 94.108 69.924C93.5187 69.5427 93.0333 69.2827 92.652 69.144C94.316 68.3467 95.9627 67.2027 97.592 65.712C99.256 64.2213 100.764 62.6093 102.116 60.876C103.468 59.108 104.491 57.444 105.184 55.884H102.948C101.873 57.756 100.504 59.628 98.84 61.5C97.2107 63.3373 95.408 65.0013 93.432 66.492C91.4907 67.9827 89.4973 69.1613 87.452 70.028C87.244 69.716 86.9147 69.3173 86.464 68.832C86.0133 68.3467 85.5453 67.8787 85.06 67.428C84.5747 66.9773 84.1587 66.6653 83.812 66.492C85.3373 65.9027 86.9667 65.0533 88.7 63.944C90.4333 62.8 92.0627 61.5173 93.588 60.096C95.148 58.6747 96.396 57.2707 97.332 55.884H94.888C93.5707 57.3747 92.1493 58.744 90.624 59.992C89.1333 61.24 87.6253 62.2627 86.1 63.06C85.7533 62.5747 85.164 61.968 84.332 61.24C83.5347 60.512 82.8413 59.9747 82.252 59.628C83.708 58.9347 85.164 58.0333 86.62 56.924C88.1107 55.8147 89.48 54.6013 90.728 53.284C91.976 51.932 92.9813 50.5973 93.744 49.28H88.856V54.532C88.024 54.9827 86.8973 55.52 85.476 56.144C84.0893 56.7333 82.5987 57.34 81.004 57.964C79.4093 58.588 77.8493 59.16 76.324 59.68C74.7987 60.2 73.4813 60.616 72.372 60.928L70.864 55.052C71.7653 54.8787 72.7533 54.6533 73.828 54.376C74.9373 54.0987 76.0813 53.7867 77.26 53.44V40.44H71.488V35.084H77.26V24.944H83.292V35.084H88.648V40.44H83.292V51.412C84.2973 51.0307 85.2507 50.6667 86.152 50.32C87.0533 49.9733 87.8333 49.6267 88.492 49.28H87.66V44.86H118.86V49.28H99.464C99.2907 49.6267 99.1 49.9907 98.892 50.372C98.684 50.7533 98.4587 51.1347 98.216 51.516H117.664C117.664 52.5213 117.629 53.7347 117.56 55.156C117.491 56.5773 117.369 58.068 117.196 59.628C117.057 61.1533 116.867 62.6093 116.624 63.996C116.416 65.348 116.139 66.4747 115.792 67.376C115.203 69.04 114.388 70.184 113.348 70.808C112.308 71.4667 110.852 71.796 108.98 71.796H105.34C105.271 70.964 105.115 70.028 104.872 68.988C104.629 67.948 104.335 67.0987 103.988 66.44C102.913 67.6187 101.787 68.6933 100.608 69.664C99.4293 70.6693 98.2333 71.484 97.02 72.108ZM91.716 42.884V25.464H114.284V42.884H91.716ZM104.092 66.284H107.732C108.529 66.284 109.136 66.18 109.552 65.972C109.968 65.7293 110.315 65.2267 110.592 64.464C110.835 63.8747 111.06 63.06 111.268 62.02C111.511 60.9453 111.701 59.8533 111.84 58.744C111.979 57.6 112.065 56.6467 112.1 55.884H110.54C109.847 57.652 108.928 59.4373 107.784 61.24C106.675 63.0427 105.444 64.724 104.092 66.284ZM97.436 38.672H108.564V36.176H97.436V38.672ZM97.436 32.38H108.564V29.936H97.436V32.38ZM152.4 53.96C150.805 53.96 149.453 53.4053 148.344 52.296C147.235 51.1867 146.68 49.8347 146.68 48.24C146.68 46.6453 147.235 45.2933 148.344 44.184C149.453 43.0747 150.805 42.52 152.4 42.52C153.995 42.52 155.347 43.0747 156.456 44.184C157.565 45.2933 158.12 46.6453 158.12 48.24C158.12 49.8347 157.565 51.1867 156.456 52.296C155.347 53.4053 153.995 53.96 152.4 53.96ZM198.212 71.848V60.668C197.345 62.8173 196.184 64.776 194.728 66.544C193.272 68.312 191.539 69.924 189.528 71.38C189.043 70.7213 188.349 69.9413 187.448 69.04C186.547 68.1733 185.697 67.5147 184.9 67.064C187.985 64.984 190.308 62.5747 191.868 59.836C193.428 57.0973 194.208 53.6827 194.208 49.592V40.908H225.46V56.924H199.408C199.304 57.34 199.2 57.756 199.096 58.172C198.992 58.5533 198.871 58.9347 198.732 59.316H225.772V71.848H198.212ZM187.24 43.612C186.928 42.9187 186.443 42.052 185.784 41.012C185.125 39.972 184.501 39.14 183.912 38.516C185.923 37.892 188.055 37.0427 190.308 35.968C192.596 34.8933 194.815 33.68 196.964 32.328C199.148 30.9413 201.107 29.52 202.84 28.064C204.573 26.5733 205.908 25.1 206.844 23.644L212.46 24.528C213.639 26.0533 215.129 27.5093 216.932 28.896C218.735 30.248 220.693 31.496 222.808 32.64C224.923 33.7493 227.055 34.7373 229.204 35.604C231.353 36.436 233.364 37.112 235.236 37.632C234.577 38.256 233.901 39.1227 233.208 40.232C232.549 41.3413 232.029 42.2947 231.648 43.092C229.637 42.3987 227.575 41.5493 225.46 40.544C223.345 39.5387 221.265 38.4293 219.22 37.216V38.88H200.188V36.904C198.108 38.256 195.941 39.5213 193.688 40.7C191.469 41.844 189.32 42.8147 187.24 43.612ZM204.348 67.376H219.688V63.788H204.348V67.376ZM200.032 52.868H219.428V50.788H200.188C200.153 51.1347 200.136 51.4813 200.136 51.828C200.136 52.1747 200.101 52.5213 200.032 52.868ZM200.188 47.096H219.428V45.016H200.188V47.096ZM203.724 34.46H215.06C212.911 32.8307 211.056 31.1667 209.496 29.468C208.005 31.0627 206.081 32.7267 203.724 34.46ZM267.736 71.848V66.388H252.188V61.708H267.736V59.472H255.828V42.884H267.736V40.804H253.956V36.436H267.736V33.42H252.136V47.2C252.136 52.6773 251.685 57.3573 250.784 61.24C249.917 65.088 248.617 68.364 246.884 71.068C246.468 70.8253 245.931 70.5307 245.272 70.184C244.648 69.872 244.007 69.56 243.348 69.248C242.724 68.9707 242.204 68.78 241.788 68.676C243.348 66.1107 244.509 63.112 245.272 59.68C246.069 56.2133 246.468 52.1747 246.468 47.564V28.428H264.72V24.112H271.116V28.428H289.888V33.42H273.456V36.436H288.744V40.804H273.456V42.884H285.572V59.472H273.456V61.708H289.784V66.388H273.456V71.848H267.736ZM273.456 55.468H279.696V52.92H273.456V55.468ZM273.456 49.384H279.696V46.888H273.456V49.384ZM261.704 55.468H267.736V52.92H261.704V55.468ZM261.704 49.384H267.736V46.888H261.704V49.384ZM322.234 68.378C322.122 67.93 321.912 67.398 321.604 66.782C321.296 66.166 320.932 65.578 320.512 65.018C320.12 64.43 319.728 63.954 319.336 63.59C323.172 63.002 326.084 61.756 328.072 59.852C330.088 57.92 331.152 55.652 331.264 53.048C331.376 50.976 330.998 49.128 330.13 47.504C329.262 45.88 328.072 44.564 326.56 43.556C325.076 42.548 323.438 41.946 321.646 41.75C321.422 44.354 321.002 47.014 320.386 49.73C319.77 52.446 318.93 54.994 317.866 57.374C316.83 59.754 315.556 61.77 314.044 63.422C312.896 64.654 311.776 65.368 310.684 65.564C309.62 65.76 308.486 65.606 307.282 65.102C306.106 64.598 305.07 63.8 304.174 62.708C303.278 61.616 302.592 60.328 302.116 58.844C301.64 57.332 301.444 55.722 301.528 54.014C301.668 51.466 302.27 49.142 303.334 47.042C304.398 44.914 305.826 43.08 307.618 41.54C309.41 40 311.468 38.838 313.792 38.054C316.116 37.27 318.594 36.948 321.226 37.088C323.354 37.2 325.356 37.676 327.232 38.516C329.108 39.356 330.746 40.518 332.146 42.002C333.574 43.458 334.666 45.152 335.422 47.084C336.206 49.016 336.528 51.13 336.388 53.426C336.192 57.262 334.848 60.482 332.356 63.086C329.864 65.662 326.49 67.426 322.234 68.378ZM308.584 59.894C308.892 60.118 309.214 60.23 309.55 60.23C309.886 60.23 310.222 60.062 310.558 59.726C311.566 58.718 312.49 57.29 313.33 55.442C314.198 53.594 314.912 51.508 315.472 49.184C316.06 46.86 316.438 44.494 316.606 42.086C314.674 42.534 312.952 43.346 311.44 44.522C309.956 45.698 308.78 47.126 307.912 48.806C307.044 50.458 306.554 52.278 306.442 54.266C306.386 55.582 306.554 56.73 306.946 57.71C307.366 58.662 307.912 59.39 308.584 59.894ZM29.04 159.488C26.672 159.776 24.576 159.664 22.752 159.152C20.928 158.672 19.504 157.856 18.48 156.704C17.456 155.552 16.944 154.112 16.944 152.384C16.944 150.112 17.856 147.888 19.68 145.712C21.536 143.504 24.08 141.712 27.312 140.336V133.088C25.552 133.216 23.84 133.312 22.176 133.376C20.544 133.44 19.024 133.44 17.616 133.376L17.328 127.856C18.544 127.984 20.032 128.032 21.792 128C23.552 127.936 25.392 127.808 27.312 127.616V119.888L32.64 119.936V126.992C34.24 126.736 35.728 126.464 37.104 126.176C38.512 125.856 39.664 125.52 40.56 125.168L41.136 130.448C40.016 130.864 38.72 131.232 37.248 131.552C35.776 131.872 34.24 132.16 32.64 132.416V138.704C33.76 138.448 34.928 138.256 36.144 138.128C37.36 138 38.624 137.936 39.936 137.936C43.008 137.936 45.616 138.416 47.76 139.376C49.936 140.304 51.584 141.568 52.704 143.168C53.824 144.736 54.384 146.512 54.384 148.496C54.384 151.568 53.456 153.984 51.6 155.744C49.744 157.504 47.232 158.368 44.064 158.336C41.6 158.336 39.52 157.728 37.824 156.512C36.16 155.264 34.96 153.424 34.224 150.992C34.96 150.768 35.856 150.432 36.912 149.984C37.968 149.504 38.8 149.056 39.408 148.64C40.208 151.296 41.744 152.624 44.016 152.624C45.424 152.624 46.496 152.224 47.232 151.424C47.968 150.592 48.336 149.568 48.336 148.352C48.336 146.784 47.632 145.488 46.224 144.464C44.816 143.408 42.704 142.88 39.888 142.88C37.328 142.88 34.912 143.2 32.64 143.84V155.792C32.64 156.976 32.368 157.84 31.824 158.384C31.28 158.96 30.352 159.328 29.04 159.488ZM53.472 137.264C52.704 136.496 51.664 135.664 50.352 134.768C49.04 133.84 47.696 132.976 46.32 132.176C44.944 131.344 43.712 130.72 42.624 130.304L45.648 125.984C46.8 126.432 48.064 127.04 49.44 127.808C50.816 128.576 52.16 129.392 53.472 130.256C54.784 131.12 55.888 131.952 56.784 132.752C56.464 133.104 56.064 133.584 55.584 134.192C55.136 134.8 54.704 135.392 54.288 135.968C53.904 136.544 53.632 136.976 53.472 137.264ZM25.584 154.4C26.192 154.432 26.624 154.368 26.88 154.208C27.168 154.048 27.312 153.76 27.312 153.344V146C25.84 146.896 24.672 147.872 23.808 148.928C22.944 149.984 22.512 151.04 22.512 152.096C22.512 152.832 22.784 153.392 23.328 153.776C23.872 154.16 24.624 154.368 25.584 154.4ZM84.092 161.068V133.872H89.812V137.408L92.828 134.34C93.6253 134.929 94.5093 135.657 95.48 136.524C96.4507 137.356 97.456 138.275 98.496 139.28C99.2587 138.101 99.9347 136.94 100.524 135.796C101.113 134.652 101.581 133.577 101.928 132.572L107.024 134.652C106.469 136.039 105.793 137.46 104.996 138.916C104.199 140.337 103.332 141.759 102.396 143.18C103.401 144.185 104.32 145.173 105.152 146.144C106.019 147.115 106.764 147.999 107.388 148.796V133.768H113.004V161.068H84.092ZM73.224 161.848V114.476H79.048V125.032L82.636 123.472C83.052 124.096 83.5373 124.963 84.092 126.072C84.6813 127.181 85.2187 128.273 85.704 129.348C86.1893 130.388 86.536 131.185 86.744 131.74L82.116 133.82C81.9427 133.265 81.6653 132.572 81.284 131.74C80.9373 130.873 80.556 129.989 80.14 129.088C79.7587 128.152 79.3947 127.32 79.048 126.592V161.848H73.224ZM106.816 132.052C106.435 131.809 105.915 131.549 105.256 131.272C104.632 130.96 104.008 130.683 103.384 130.44C102.76 130.163 102.223 129.972 101.772 129.868C102.292 129.071 102.864 128.083 103.488 126.904C104.112 125.691 104.719 124.408 105.308 123.056C105.897 121.704 106.435 120.387 106.92 119.104C107.405 117.787 107.769 116.66 108.012 115.724L113.94 117.7C113.489 119.052 112.848 120.629 112.016 122.432C111.219 124.2 110.352 125.951 109.416 127.684C108.515 129.383 107.648 130.839 106.816 132.052ZM89.812 155.868H107.388V149.888C106.799 150.339 106.123 150.911 105.36 151.604C104.597 152.263 104.025 152.8 103.644 153.216C103.089 152.453 102.413 151.604 101.616 150.668C100.853 149.697 100.004 148.709 99.068 147.704C98.028 148.987 96.9533 150.183 95.844 151.292C94.7693 152.367 93.7293 153.268 92.724 153.996C92.412 153.649 91.9787 153.216 91.424 152.696C90.904 152.176 90.3667 151.691 89.812 151.24V155.868ZM70.416 140.424C70.0347 140.251 69.532 140.06 68.908 139.852C68.3187 139.644 67.712 139.453 67.088 139.28C66.464 139.107 65.9613 138.985 65.58 138.916C65.8227 138.153 66.0653 137.183 66.308 136.004C66.5507 134.791 66.7587 133.508 66.932 132.156C67.14 130.804 67.3133 129.521 67.452 128.308C67.5907 127.06 67.66 126.02 67.66 125.188L72.756 125.76C72.7213 126.939 72.6173 128.256 72.444 129.712C72.2707 131.168 72.0627 132.607 71.82 134.028C71.5773 135.449 71.3173 136.732 71.04 137.876C70.7973 139.02 70.5893 139.869 70.416 140.424ZM88.72 130.232C88.1653 128.395 87.4027 126.436 86.432 124.356C85.496 122.276 84.5427 120.491 83.572 119L88.72 116.764C89.344 117.735 89.9853 118.879 90.644 120.196C91.3027 121.479 91.9267 122.813 92.516 124.2C93.14 125.587 93.6427 126.887 94.024 128.1C93.5387 128.239 92.9493 128.447 92.256 128.724C91.5627 128.967 90.8867 129.227 90.228 129.504C89.5693 129.781 89.0667 130.024 88.72 130.232ZM96.468 127.788C96.1213 125.881 95.6187 123.957 94.96 122.016C94.3013 120.075 93.5907 118.307 92.828 116.712L98.184 115.1C98.9813 116.799 99.7267 118.671 100.42 120.716C101.113 122.727 101.633 124.581 101.98 126.28C101.495 126.349 100.888 126.471 100.16 126.644C99.432 126.817 98.7213 127.008 98.028 127.216C97.3693 127.424 96.8493 127.615 96.468 127.788ZM89.812 149.316C90.6787 148.588 91.58 147.739 92.516 146.768C93.452 145.763 94.3707 144.723 95.272 143.648C94.3013 142.643 93.348 141.707 92.412 140.84C91.476 139.973 90.6093 139.245 89.812 138.656V149.316ZM146.624 160.928C146.112 160.384 145.36 159.792 144.368 159.152C143.408 158.544 142.56 158.096 141.824 157.808C144.096 156.24 146.144 154.288 147.968 151.952C149.824 149.584 151.344 147.04 152.528 144.32C151.152 143.904 149.76 143.568 148.352 143.312C146.944 143.024 145.568 142.816 144.224 142.688C143.392 144.256 142.528 145.696 141.632 147.008C140.768 148.288 139.888 149.376 138.992 150.272C137.648 151.648 136.176 152.608 134.576 153.152C133.008 153.696 131.488 153.856 130.016 153.632C128.576 153.376 127.392 152.752 126.464 151.76C125.536 150.768 125.072 149.44 125.072 147.776C125.072 145.92 125.68 144.224 126.896 142.688C128.112 141.152 129.872 139.92 132.176 138.992C134.512 138.064 137.36 137.568 140.72 137.504C141.584 135.68 142.416 133.744 143.216 131.696C144.016 129.648 144.736 127.616 145.376 125.6C144.192 125.92 142.944 126.24 141.632 126.56C140.352 126.848 139.136 127.104 137.984 127.328C136.864 127.552 135.936 127.712 135.2 127.808L133.664 122.288C134.496 122.256 135.568 122.16 136.88 122C138.192 121.84 139.568 121.632 141.008 121.376C142.48 121.12 143.856 120.848 145.136 120.56C146.448 120.272 147.488 119.984 148.256 119.696L152.288 121.856C151.744 124.096 150.976 126.64 149.984 129.488C148.992 132.336 147.856 135.136 146.576 137.888C147.792 138.048 149.024 138.256 150.272 138.512C151.552 138.768 152.848 139.072 154.16 139.424C154.448 138.304 154.672 137.2 154.832 136.112C154.992 134.992 155.088 133.888 155.12 132.8L160.832 134.192C160.672 136.432 160.288 138.704 159.68 141.008C160.96 141.424 162.208 141.872 163.424 142.352C164.672 142.832 165.856 143.344 166.976 143.888C166.656 144.272 166.304 144.784 165.92 145.424C165.536 146.064 165.184 146.736 164.864 147.44C164.576 148.112 164.336 148.704 164.144 149.216C163.152 148.672 162.128 148.144 161.072 147.632C160.048 147.088 158.992 146.608 157.904 146.192C156.656 149.104 155.072 151.856 153.152 154.448C151.232 157.008 149.056 159.168 146.624 160.928ZM130.112 147.104C130.176 147.52 130.448 147.856 130.928 148.112C131.408 148.336 132 148.368 132.704 148.208C133.44 148.048 134.224 147.568 135.056 146.768C135.504 146.32 135.984 145.744 136.496 145.04C137.008 144.336 137.52 143.536 138.032 142.64C135.312 142.928 133.28 143.52 131.936 144.416C130.592 145.28 129.984 146.176 130.112 147.104ZM187.54 161.016C186.881 159.907 185.997 158.711 184.888 157.428C183.813 156.145 182.669 154.932 181.456 153.788C180.277 152.609 179.151 151.639 178.076 150.876L182.028 147.288C182.825 147.808 183.692 148.484 184.628 149.316C185.564 150.113 186.517 150.98 187.488 151.916C188.459 152.817 189.343 153.701 190.14 154.568C190.972 155.435 191.648 156.197 192.168 156.856L187.54 161.016ZM237.2 161.848C236.749 161.467 236.039 161.016 235.068 160.496C234.132 159.976 233.352 159.612 232.728 159.404C233.837 158.017 234.721 156.596 235.38 155.14C236.073 153.684 236.576 152.003 236.888 150.096C237.2 148.189 237.356 145.936 237.356 143.336V130.96C236.767 130.509 236.021 129.972 235.12 129.348C234.219 128.724 233.421 128.256 232.728 127.944C233.664 127.147 234.565 126.159 235.432 124.98C236.299 123.801 237.096 122.553 237.824 121.236C238.587 119.919 239.245 118.636 239.8 117.388C240.355 116.14 240.788 115.048 241.1 114.112L246.924 115.36C246.785 115.741 246.612 116.14 246.404 116.556C246.231 116.972 246.057 117.405 245.884 117.856H254.204L255.816 119.676C255.365 120.647 254.793 121.739 254.1 122.952C253.407 124.165 252.713 125.344 252.02 126.488H257.532V128.724C259.127 127.823 260.496 126.644 261.64 125.188C262.819 123.732 263.651 122.137 264.136 120.404H258.52V115.724H281.088C280.949 118.983 280.707 121.652 280.36 123.732C280.048 125.812 279.58 127.424 278.956 128.568C278.367 129.712 277.587 130.509 276.616 130.96C275.68 131.411 274.536 131.636 273.184 131.636H269.752C269.717 131.185 269.631 130.631 269.492 129.972C269.388 129.279 269.249 128.62 269.076 127.996C268.937 127.337 268.781 126.817 268.608 126.436H271.416C272.248 126.436 272.907 126.332 273.392 126.124C273.877 125.881 274.241 125.327 274.484 124.46C274.761 123.593 274.952 122.241 275.056 120.404H269.96C269.301 123.039 268.157 125.448 266.528 127.632C264.933 129.781 262.905 131.619 260.444 133.144C260.132 132.728 259.699 132.208 259.144 131.584C258.589 130.96 258.052 130.405 257.532 129.92V141.724C258.433 140.407 259.265 138.881 260.028 137.148C260.791 135.415 261.363 133.837 261.744 132.416L266.788 133.768C266.649 134.219 266.493 134.704 266.32 135.224C266.147 135.744 265.956 136.281 265.748 136.836H268.14V132.52H273.652V136.836H280.724V141.672H273.652V146.196H281.92V151.032H273.652V161.796H268.14V151.032H258.988V146.196H268.14V141.672H263.46C263.113 142.365 262.732 143.041 262.316 143.7C261.935 144.324 261.553 144.879 261.172 145.364C260.791 145.087 260.236 144.757 259.508 144.376C258.78 143.995 258.121 143.683 257.532 143.44V157.272C257.532 160.219 255.764 161.692 252.228 161.692H248.796C248.761 161.241 248.675 160.687 248.536 160.028C248.432 159.369 248.311 158.711 248.172 158.052C248.033 157.428 247.877 156.943 247.704 156.596H250.98C251.569 156.596 251.985 156.492 252.228 156.284C252.505 156.076 252.644 155.695 252.644 155.14V148.172H242.088C241.845 151.015 241.325 153.545 240.528 155.764C239.731 157.983 238.621 160.011 237.2 161.848ZM241.1 126.488H246.092C246.473 125.795 246.855 125.084 247.236 124.356C247.652 123.628 247.964 123.004 248.172 122.484H243.492C243.145 123.177 242.764 123.853 242.348 124.512C241.932 125.171 241.516 125.829 241.1 126.488ZM242.296 143.44H245.208V139.54H242.296V143.44ZM249.732 143.44H252.644V139.54H249.732V143.44ZM242.296 135.224H245.208V131.324H242.296V135.224ZM249.732 135.224H252.644V131.324H249.732V135.224ZM304.124 162.316C303.743 161.519 303.24 160.635 302.616 159.664C302.027 158.693 301.368 157.844 300.64 157.116C304.627 155.799 307.781 153.927 310.104 151.5C312.427 149.039 314.039 145.971 314.94 142.296H303.136V136.732H315.772C315.807 136.247 315.824 135.744 315.824 135.224C315.859 134.704 315.876 134.184 315.876 133.664V128.256H306.256V122.9H315.876V114.268H322.012V122.9H334.492V136.732H339.068V142.296H323.936C325.461 145.52 327.576 148.363 330.28 150.824C333.019 153.285 336.173 155.157 339.744 156.44C339.293 156.891 338.808 157.463 338.288 158.156C337.803 158.849 337.335 159.543 336.884 160.236C336.468 160.929 336.156 161.519 335.948 162.004C332.308 160.271 329.153 158.121 326.484 155.556C323.815 152.956 321.631 149.871 319.932 146.3C318.615 149.905 316.639 153.077 314.004 155.816C311.404 158.52 308.111 160.687 304.124 162.316ZM296.688 161.484L291.384 157.688C292.181 156.648 292.996 155.417 293.828 153.996C294.66 152.575 295.457 151.101 296.22 149.576C297.017 148.016 297.728 146.491 298.352 145C299.011 143.509 299.513 142.175 299.86 140.996C300.137 141.308 300.571 141.707 301.16 142.192C301.784 142.677 302.425 143.145 303.084 143.596C303.743 144.047 304.297 144.411 304.748 144.688C304.367 145.901 303.864 147.271 303.24 148.796C302.616 150.287 301.923 151.812 301.16 153.372C300.397 154.932 299.635 156.423 298.872 157.844C298.109 159.231 297.381 160.444 296.688 161.484ZM299.028 137.252C298.404 136.697 297.537 136.039 296.428 135.276C295.353 134.513 294.227 133.785 293.048 133.092C291.869 132.364 290.829 131.809 289.928 131.428L292.996 126.436C294.521 127.164 296.168 128.048 297.936 129.088C299.739 130.093 301.247 131.099 302.46 132.104C302.183 132.416 301.801 132.919 301.316 133.612C300.865 134.271 300.415 134.947 299.964 135.64C299.548 136.299 299.236 136.836 299.028 137.252ZM302.564 125.76C301.975 125.205 301.125 124.547 300.016 123.784C298.941 123.021 297.797 122.293 296.584 121.6C295.405 120.907 294.365 120.369 293.464 119.988L296.636 115.1C297.572 115.481 298.647 116.019 299.86 116.712C301.073 117.405 302.252 118.116 303.396 118.844C304.54 119.572 305.441 120.213 306.1 120.768C305.823 121.08 305.441 121.565 304.956 122.224C304.471 122.883 304.003 123.541 303.552 124.2C303.101 124.859 302.772 125.379 302.564 125.76ZM321.908 136.732H328.252V128.256H322.012V133.664C322.012 134.184 321.995 134.704 321.96 135.224C321.96 135.744 321.943 136.247 321.908 136.732ZM368.96 159.488C366.4 159.488 364.32 159.232 362.72 158.72C361.152 158.208 360 157.344 359.264 156.128C358.56 154.912 358.208 153.264 358.208 151.184V119.456L364.496 119.84C364.432 120.384 364.368 121.296 364.304 122.576C364.24 123.856 364.192 125.232 364.16 126.704C364.128 127.888 364.096 129.184 364.064 130.592C364.064 132 364.064 133.552 364.064 135.248V150.032C364.064 151.44 364.448 152.4 365.216 152.912C366.016 153.424 367.392 153.68 369.344 153.68C372.48 153.68 375.44 153.088 378.224 151.904C381.04 150.72 383.472 149.248 385.52 147.488C385.552 148.096 385.616 148.832 385.712 149.696C385.84 150.528 385.968 151.328 386.096 152.096C386.256 152.832 386.384 153.408 386.48 153.824C384.176 155.488 381.488 156.848 378.416 157.904C375.376 158.96 372.224 159.488 368.96 159.488ZM416.528 160.592C413.808 160.496 411.696 159.744 410.192 158.336C408.688 156.928 407.952 155.184 407.984 153.104C408.016 151.728 408.464 150.496 409.328 149.408C410.192 148.32 411.392 147.472 412.928 146.864C414.464 146.256 416.24 146 418.256 146.096C418.8 146.096 419.312 146.128 419.792 146.192C420.304 146.224 420.816 146.272 421.328 146.336L421.184 140.816C420.64 140.848 420.08 140.864 419.504 140.864C418.96 140.864 418.416 140.864 417.872 140.864C415.952 140.864 414.432 140.72 413.312 140.432C412.224 140.112 411.344 139.6 410.672 138.896C410.032 138.16 409.392 137.152 408.752 135.872L413.264 133.616C413.712 134.48 414.24 135.04 414.848 135.296C415.456 135.52 416.496 135.632 417.968 135.632C418.448 135.632 418.944 135.632 419.456 135.632C420 135.6 420.544 135.568 421.088 135.536C421.056 134.672 421.024 133.792 420.992 132.896C420.992 132 420.976 131.12 420.944 130.256C418.608 130.384 416.4 130.48 414.32 130.544C412.24 130.576 410.624 130.576 409.472 130.544L409.232 125.168C410.352 125.264 411.968 125.312 414.08 125.312C416.192 125.28 418.448 125.216 420.848 125.12C420.816 123.968 420.8 122.864 420.8 121.808C420.8 120.752 420.8 119.776 420.8 118.88H426.368C426.368 119.744 426.368 120.672 426.368 121.664C426.368 122.656 426.384 123.696 426.416 124.784C428.592 124.624 430.592 124.448 432.416 124.256C434.24 124.032 435.584 123.808 436.448 123.584V128.864C435.584 129.056 434.24 129.248 432.416 129.44C430.624 129.6 428.64 129.76 426.464 129.92C426.496 130.784 426.512 131.664 426.512 132.56C426.544 133.424 426.576 134.288 426.608 135.152C428.496 134.96 430.288 134.736 431.984 134.48C433.68 134.192 435.024 133.888 436.016 133.568V139.184C434.832 139.44 433.424 139.68 431.792 139.904C430.192 140.128 428.496 140.32 426.704 140.48C426.768 141.76 426.8 142.992 426.8 144.176C426.832 145.36 426.864 146.464 426.896 147.488C429.264 148.128 431.504 148.96 433.616 149.984C435.728 151.008 437.712 152.128 439.568 153.344C439.152 153.664 438.688 154.144 438.176 154.784C437.696 155.392 437.248 156.016 436.832 156.656C436.416 157.296 436.096 157.84 435.872 158.288C433.184 156.016 430.24 154.224 427.04 152.912C427.008 155.312 426.16 157.216 424.496 158.624C422.864 160.064 420.208 160.72 416.528 160.592ZM416.72 155.456C418.384 155.52 419.584 155.28 420.32 154.736C421.056 154.192 421.424 153.472 421.424 152.576V151.232C420.752 151.104 420.08 151.008 419.408 150.944C418.768 150.88 418.128 150.848 417.488 150.848C416.144 150.848 415.12 151.072 414.416 151.52C413.712 151.968 413.36 152.512 413.36 153.152C413.36 154.592 414.48 155.36 416.72 155.456ZM468.608 161.312C468.224 160.672 467.712 159.904 467.072 159.008C466.432 158.112 465.696 157.344 464.864 156.704C468.256 155.744 470.864 154.64 472.688 153.392C474.512 152.112 475.776 150.608 476.48 148.88C475.456 149.392 474.432 149.648 473.408 149.648C470.976 149.648 469.008 148.96 467.504 147.584C466.032 146.208 465.248 144.352 465.152 142.016C465.088 140.416 465.408 138.992 466.112 137.744C466.816 136.464 467.808 135.456 469.088 134.72C470.368 133.984 471.824 133.616 473.456 133.616C473.712 133.616 473.936 133.632 474.128 133.664C474.32 133.664 474.528 133.68 474.752 133.712C474.688 133.136 474.624 132.544 474.56 131.936C474.496 131.328 474.464 130.688 474.464 130.016C471.872 130.112 469.344 130.256 466.88 130.448C464.416 130.64 462.16 130.864 460.112 131.12C458.064 131.344 456.368 131.616 455.024 131.936L454.208 126.368C455.36 126.272 456.976 126.176 459.056 126.08C461.136 125.952 463.504 125.824 466.16 125.696C468.848 125.568 471.616 125.44 474.464 125.312V118.544H480.032V125.072C482.528 124.976 484.912 124.896 487.184 124.832C489.456 124.736 491.488 124.672 493.28 124.64C495.072 124.576 496.48 124.56 497.504 124.592L497.12 130.208C495.264 129.984 492.8 129.856 489.728 129.824C486.688 129.76 483.456 129.76 480.032 129.824C480.032 130.976 480.064 132.144 480.128 133.328C480.224 134.512 480.304 135.648 480.368 136.736C481.936 138.592 482.72 141.056 482.72 144.128C482.72 148.384 481.488 151.968 479.024 154.88C476.56 157.76 473.088 159.904 468.608 161.312ZM473.456 144.848C474.352 144.784 475.056 144.48 475.568 143.936C476.08 143.392 476.336 142.688 476.336 141.824C476.336 141.536 476.304 141.232 476.24 140.912C476.208 140.56 476.16 140.192 476.096 139.808C475.424 139.04 474.576 138.656 473.552 138.656C472.656 138.656 471.904 138.944 471.296 139.52C470.688 140.096 470.4 140.832 470.432 141.728C470.432 142.656 470.704 143.424 471.248 144.032C471.824 144.608 472.56 144.88 473.456 144.848ZM513.452 160.562C512.332 160.562 511.31 160.282 510.386 159.722C509.462 159.19 508.72 158.462 508.16 157.538C507.6 156.586 507.32 155.536 507.32 154.388C507.32 153.24 507.586 152.204 508.118 151.28C508.678 150.356 509.42 149.628 510.344 149.096C511.296 148.536 512.332 148.256 513.452 148.256C514.6 148.256 515.636 148.536 516.56 149.096C517.512 149.656 518.254 150.398 518.786 151.322C519.346 152.246 519.626 153.268 519.626 154.388C519.626 155.536 519.346 156.586 518.786 157.538C518.226 158.462 517.47 159.19 516.518 159.722C515.594 160.282 514.572 160.562 513.452 160.562ZM513.452 158.21C514.516 158.21 515.412 157.846 516.14 157.118C516.896 156.362 517.274 155.466 517.274 154.43C517.274 153.394 516.896 152.498 516.14 151.742C515.412 150.986 514.516 150.608 513.452 150.608C512.416 150.608 511.52 150.986 510.764 151.742C510.036 152.47 509.672 153.366 509.672 154.43C509.672 155.466 510.036 156.362 510.764 157.118C511.52 157.846 512.416 158.21 513.452 158.21Z" fill="#343434"/>
    <path d="M371.76 60.252C371.517 59.94 371.119 59.5413 370.564 59.056C370.044 58.536 369.524 58.068 369.004 57.652C367.617 57.7907 365.953 57.964 364.012 58.172C362.105 58.38 360.129 58.5707 358.084 58.744C356.039 58.9173 354.115 59.0733 352.312 59.212C350.509 59.3507 349.036 59.4547 347.892 59.524L346.956 54.636C347.788 54.636 349.105 54.6013 350.908 54.532C352.711 54.4627 354.652 54.376 356.732 54.272V51.568H350.024V47.98C349.816 48.1187 349.608 48.24 349.4 48.344C349.192 48.448 348.984 48.552 348.776 48.656C348.499 48.1013 348.083 47.46 347.528 46.732C346.973 46.004 346.419 45.3973 345.864 44.912C349.261 43.5253 351.636 41.5493 352.988 38.984H346.852V34.616H356.732V32.224H349.244V28.064H356.732V24.372H362.556V28.064H369.108V32.224H362.556V34.616H371.032V38.984H364.584V40.856C364.584 41.4107 364.965 41.688 365.728 41.688C366.595 41.688 367.132 41.5667 367.34 41.324C367.548 41.0467 367.721 40.4053 367.86 39.4C368.38 39.6427 369.091 39.8853 369.992 40.128C370.928 40.336 371.673 40.492 372.228 40.596C371.985 42.572 371.448 43.9413 370.616 44.704C369.819 45.4667 368.657 45.848 367.132 45.848H362.556V47.356H368.9V51.568H362.556V53.96C363.943 53.8907 365.225 53.804 366.404 53.7C367.583 53.596 368.519 53.5093 369.212 53.44L369.264 55.572C371.621 53.6307 373.407 51.1867 374.62 48.24C373.927 47.72 373.251 47.252 372.592 46.836C371.968 46.3853 371.413 46.0387 370.928 45.796L373.84 41.844C374.152 42.0173 374.481 42.2253 374.828 42.468C375.209 42.676 375.608 42.9187 376.024 43.196C376.336 41.428 376.544 39.4693 376.648 37.32H371.76V32.38H376.7V24.736H382.004V32.38H391.156C390.775 34.564 390.428 36.852 390.116 39.244C389.804 41.636 389.631 43.9587 389.596 46.212C389.596 48.4653 389.821 50.4587 390.272 52.192C390.619 51.4987 390.931 50.8227 391.208 50.164C391.52 49.4707 391.745 48.864 391.884 48.344C392.265 48.76 392.855 49.3147 393.652 50.008C394.449 50.6667 395.16 51.204 395.784 51.62C395.299 52.9373 394.727 54.22 394.068 55.468C393.409 56.6813 392.768 57.6867 392.144 58.484C391.485 59.316 390.723 59.7493 389.856 59.784C388.989 59.784 388.261 59.4547 387.672 58.796C386.84 57.8947 386.164 56.6987 385.644 55.208C385.159 53.6827 384.829 51.984 384.656 50.112C384.344 50.424 383.963 50.84 383.512 51.36C383.096 51.88 382.68 52.4 382.264 52.92C381.848 53.44 381.519 53.8907 381.276 54.272C380.964 53.8907 380.6 53.5093 380.184 53.128C379.768 52.712 379.317 52.2787 378.832 51.828C378 53.596 376.995 55.1733 375.816 56.56C374.637 57.912 373.285 59.1427 371.76 60.252ZM388.4 72.108C387.915 71.2067 387.256 70.132 386.424 68.884C385.592 67.636 384.708 66.388 383.772 65.14C382.836 63.892 381.917 62.8173 381.016 61.916L385.28 58.536C386.216 59.4373 387.204 60.4947 388.244 61.708C389.284 62.8867 390.272 64.0827 391.208 65.296C392.144 66.5093 392.907 67.6013 393.496 68.572C392.699 68.9533 391.78 69.508 390.74 70.236C389.735 70.964 388.955 71.588 388.4 72.108ZM351.116 72.368C350.561 71.7787 349.799 71.1373 348.828 70.444C347.892 69.7507 347.025 69.2307 346.228 68.884C347.129 68.156 348.065 67.2547 349.036 66.18C350.041 65.1053 350.977 63.9787 351.844 62.8C352.745 61.5867 353.456 60.4773 353.976 59.472L359.176 62.332C358.101 64.204 356.819 66.0413 355.328 67.844C353.872 69.6467 352.468 71.1547 351.116 72.368ZM374.048 71.796C373.909 70.7907 373.684 69.612 373.372 68.26C373.095 66.9427 372.783 65.6427 372.436 64.36C372.124 63.0427 371.795 61.9507 371.448 61.084L377.012 59.576C377.359 60.3733 377.723 61.4307 378.104 62.748C378.485 64.0307 378.832 65.3653 379.144 66.752C379.491 68.104 379.751 69.3 379.924 70.34C379.161 70.444 378.173 70.6347 376.96 70.912C375.781 71.224 374.811 71.5187 374.048 71.796ZM363.18 72.056C363.111 71.0853 362.972 69.924 362.764 68.572C362.556 67.2547 362.331 65.9547 362.088 64.672C361.845 63.3547 361.603 62.2627 361.36 61.396L366.976 60.252C367.288 61.1187 367.583 62.1933 367.86 63.476C368.172 64.7587 368.432 66.076 368.64 67.428C368.883 68.78 369.039 69.9587 369.108 70.964C368.623 70.9987 368.016 71.068 367.288 71.172C366.56 71.3107 365.815 71.4493 365.052 71.588C364.324 71.7267 363.7 71.8827 363.18 72.056ZM384.604 49.8C384.465 47.8933 384.431 45.8653 384.5 43.716C384.604 41.5667 384.829 39.4347 385.176 37.32H381.952C381.813 40.752 381.397 43.82 380.704 46.524C381.501 47.1133 382.229 47.7027 382.888 48.292C383.581 48.8467 384.153 49.3493 384.604 49.8ZM351.116 47.356H356.732V44.288H359.956C359.921 44.1493 359.904 44.0107 359.904 43.872C359.904 43.7333 359.904 43.5773 359.904 43.404V38.984H358.084C357.391 40.7867 356.472 42.3813 355.328 43.768C354.219 45.12 352.815 46.316 351.116 47.356ZM424.228 71.9V55.156H405.352V34.46H424.228V24.528H430.624V34.46H449.5V55.156H430.624V71.9H424.228ZM430.624 49.124H443.052V40.18H430.624V49.124ZM411.904 49.124H424.228V40.18H411.904V49.124ZM471.704 70.704V65.192H477.528V47.772H483.508V65.192H487.668V44.08H475.76V38.62H506.388V44.08H493.752V50.892H504.308V56.56H493.752V65.192H507.844V70.704H471.704ZM465.932 71.588C465.308 71.068 464.528 70.5307 463.592 69.976C462.656 69.4213 461.807 69.0053 461.044 68.728C464.684 64.4987 466.92 59.1427 467.752 52.66C466.885 53.076 465.897 53.5267 464.788 54.012C463.713 54.4973 462.795 54.896 462.032 55.208L460.264 49.228C460.888 49.02 461.685 48.76 462.656 48.448C463.661 48.136 464.667 47.8067 465.672 47.46C466.677 47.1133 467.527 46.8013 468.22 46.524V42.572C467.561 42.884 466.851 43.248 466.088 43.664C465.325 44.08 464.719 44.4267 464.268 44.704C463.991 44.0107 463.592 43.1613 463.072 42.156C462.587 41.1507 462.049 40.1453 461.46 39.14C460.905 38.1 460.368 37.2333 459.848 36.54L464.476 33.992C464.961 34.6853 465.551 35.604 466.244 36.748C466.972 37.892 467.631 39.0187 468.22 40.128V29.52H483.976V24.164H490.476V29.52H508.156V34.772H473.94V45.588C473.94 50.8227 473.247 55.6933 471.86 60.2C470.473 64.7067 468.497 68.5027 465.932 71.588ZM548.924 71.536C548.889 70.9467 548.785 70.236 548.612 69.404C548.473 68.6067 548.3 67.8093 548.092 67.012C547.919 66.2147 547.728 65.5733 547.52 65.088H552.408C553.136 65.088 553.656 64.984 553.968 64.776C554.28 64.5333 554.436 64.0653 554.436 63.372V43.768H542.996V39.036H540.188C539.321 44.0627 537.64 48.8987 535.144 53.544C536.739 55.4507 538.229 57.3747 539.616 59.316C541.037 61.2573 542.285 63.112 543.36 64.88C542.84 65.088 542.233 65.4173 541.54 65.868C540.847 66.3187 540.171 66.7867 539.512 67.272C538.888 67.7227 538.385 68.1387 538.004 68.52C537.241 67.0293 536.305 65.4867 535.196 63.892C534.121 62.2627 532.977 60.6333 531.764 59.004C528.505 63.58 524.761 67.3067 520.532 70.184C520.012 69.456 519.336 68.676 518.504 67.844C517.707 66.9773 516.927 66.3187 516.164 65.868C518.383 64.5507 520.497 62.904 522.508 60.928C524.553 58.9173 526.373 56.664 527.968 54.168C526.477 52.4 524.952 50.736 523.392 49.176C521.867 47.5813 520.411 46.1947 519.024 45.016L523.08 41.272C524.328 42.2773 525.611 43.4213 526.928 44.704C528.28 45.9867 529.615 47.3387 530.932 48.76C532.319 45.7787 533.359 42.5373 534.052 39.036H518.192V33.576H528.176V24.84H534.936V33.576H544.14V38.308H554.436V25.1H560.78V38.308H566.344V43.768H560.78V65.972C560.78 67.9133 560.225 69.3173 559.116 70.184C558.007 71.0853 556.325 71.536 554.072 71.536H548.924ZM546.74 59.316C546.359 58.4147 545.787 57.3227 545.024 56.04C544.296 54.7573 543.499 53.4747 542.632 52.192C541.765 50.9093 540.933 49.852 540.136 49.02L544.868 45.744C545.769 46.7493 546.671 47.8587 547.572 49.072C548.473 50.2507 549.305 51.4467 550.068 52.66C550.865 53.8387 551.507 54.9307 551.992 55.936C551.229 56.2827 550.328 56.7853 549.288 57.444C548.283 58.068 547.433 58.692 546.74 59.316ZM596.088 71.952V60.356C594.389 61.8467 592.517 63.2853 590.472 64.672C588.427 66.0587 586.329 67.324 584.18 68.468C582.031 69.612 579.951 70.5653 577.94 71.328C577.767 70.8427 577.472 70.2533 577.056 69.56C576.675 68.9013 576.259 68.26 575.808 67.636C575.357 66.9773 574.959 66.4747 574.612 66.128C576.449 65.5733 578.373 64.8453 580.384 63.944C582.395 63.008 584.371 61.968 586.312 60.824C588.288 59.6453 590.108 58.3973 591.772 57.08C593.471 55.7627 594.909 54.428 596.088 53.076V51.828H586.364V60.304H580.436V46.836H596.088V44.444H575.912V39.348H596.088V36.228C595.949 36.1587 595.811 36.1067 595.672 36.072C595.568 36.0373 595.464 36.0027 595.36 35.968C596.227 35.136 597.059 34.148 597.856 33.004H592.032C592.309 33.6627 592.587 34.3387 592.864 35.032C593.141 35.6907 593.349 36.2627 593.488 36.748C593.037 36.8173 592.431 36.9387 591.668 37.112C590.905 37.2853 590.16 37.476 589.432 37.684C588.704 37.8573 588.132 38.0133 587.716 38.152C587.577 37.528 587.335 36.7307 586.988 35.76C586.676 34.7893 586.347 33.8707 586 33.004H583.504C582.845 34.0787 582.152 35.1013 581.424 36.072C580.731 37.0427 580.072 37.8573 579.448 38.516C579.136 38.308 578.633 38.0307 577.94 37.684C577.247 37.3027 576.536 36.956 575.808 36.644C575.115 36.2973 574.56 36.072 574.144 35.968C575.219 34.9627 576.241 33.7493 577.212 32.328C578.217 30.9067 579.119 29.4507 579.916 27.96C580.713 26.4347 581.32 25.048 581.736 23.8L587.612 24.892C587.404 25.4467 587.179 26.0013 586.936 26.556C586.693 27.1107 586.433 27.6827 586.156 28.272H598.272V32.484C599.277 31.0627 600.179 29.5373 600.976 27.908C601.808 26.2787 602.449 24.8053 602.9 23.488L608.88 24.84C608.672 25.36 608.429 25.9147 608.152 26.504C607.909 27.0933 607.649 27.6827 607.372 28.272H621.984V33.004H613.976C614.253 33.6627 614.513 34.3387 614.756 35.032C615.033 35.6907 615.259 36.2627 615.432 36.748C614.843 36.8173 614.149 36.9387 613.352 37.112C612.555 37.2853 611.775 37.476 611.012 37.684C610.284 37.8573 609.712 38.0133 609.296 38.152C609.157 37.4587 608.932 36.6267 608.62 35.656C608.308 34.6853 607.996 33.8013 607.684 33.004H604.772C604.321 33.7667 603.853 34.512 603.368 35.24C602.883 35.9333 602.397 36.5747 601.912 37.164V39.348H622.14V44.444H601.912V46.836H617.876V55.052C617.876 56.8547 617.425 58.1893 616.524 59.056C615.623 59.9227 614.201 60.356 612.26 60.356H610.908C612.953 61.5693 615.068 62.6787 617.252 63.684C619.436 64.6547 621.499 65.4347 623.44 66.024C623.093 66.4053 622.695 66.9253 622.244 67.584C621.793 68.208 621.36 68.8493 620.944 69.508C620.563 70.2013 620.285 70.7907 620.112 71.276C618.101 70.5133 616.021 69.5773 613.872 68.468C611.723 67.3587 609.625 66.128 607.58 64.776C605.535 63.3893 603.645 61.9507 601.912 60.46V71.952H596.088ZM608.984 59.108C608.845 58.4147 608.672 57.704 608.464 56.976C608.291 56.2133 608.083 55.5547 607.84 55H610.076C610.769 55 611.22 54.9133 611.428 54.74C611.671 54.532 611.792 54.1507 611.792 53.596V51.828H601.912V53.232C603.749 55.2773 606.107 57.236 608.984 59.108Z" fill="#D64B57"/>
</svg>
