<svg width="646" height="61" viewBox="0 0 646 61" fill="none" xmlns="http://www.w3.org/2000/svg">
    <path d="M23.2214 37.48V18.544H34.2734V20.884H25.7414V37.48H23.2214ZM611.727 52.096V49.756H620.259V33.16H622.779V52.096H611.727Z" fill="#ABC2DA"/>
    <path d="M55.7294 48.208C54.1214 48.208 52.6814 48.04 51.4094 47.704C50.1614 47.344 49.0814 46.708 48.1694 45.796C47.2814 44.884 46.5494 43.612 45.9734 41.98L49.7894 39.892C50.1014 41.14 50.7374 42.088 51.6974 42.736C52.6574 43.384 54.0014 43.708 55.7294 43.708C57.2654 43.708 58.8494 43.636 60.4814 43.492C62.1134 43.348 63.6494 43.144 65.0894 42.88C66.5294 42.616 67.7174 42.316 68.6534 41.98C68.6534 42.364 68.6774 42.868 68.7254 43.492C68.7974 44.116 68.8814 44.728 68.9774 45.328C69.0974 45.928 69.2054 46.396 69.3014 46.732C68.3414 47.044 67.1174 47.308 65.6294 47.524C64.1414 47.74 62.5334 47.908 60.8054 48.028C59.1014 48.148 57.4094 48.208 55.7294 48.208ZM50.0774 27.04L50.0414 22.684C50.7374 22.9 51.6014 23.068 52.6334 23.188C53.6894 23.308 54.8174 23.38 56.0174 23.404C57.2414 23.428 58.4654 23.416 59.6894 23.368C60.9134 23.296 62.0414 23.2 63.0734 23.08C64.1054 22.936 64.9574 22.756 65.6294 22.54V26.932C65.0294 27.124 64.2134 27.28 63.1814 27.4C62.1494 27.52 61.0214 27.616 59.7974 27.688C58.5734 27.736 57.3374 27.748 56.0894 27.724C54.8414 27.7 53.6894 27.628 52.6334 27.508C51.5774 27.388 50.7254 27.232 50.0774 27.04ZM86.0414 49.864L81.9374 48.064C82.1774 47.608 82.5734 46.828 83.1254 45.724C83.7014 44.596 84.3734 43.264 85.1414 41.728C85.9094 40.192 86.7134 38.548 87.5534 36.796C88.4174 35.02 89.2814 33.256 90.1454 31.504C91.0334 29.728 91.8614 28.06 92.6294 26.5C93.3974 24.94 94.0694 23.584 94.6454 22.432C95.2214 21.256 95.6414 20.404 95.9054 19.876L100.261 21.82C99.7814 22.492 99.1574 23.488 98.3894 24.808C97.6214 26.128 96.7814 27.64 95.8694 29.344C94.9814 31.024 94.0694 32.776 93.1334 34.6C93.6854 34.24 94.2614 33.964 94.8614 33.772C95.4614 33.556 96.0614 33.448 96.6614 33.448C98.3894 33.448 99.6014 33.94 100.297 34.924C100.993 35.908 101.341 37.432 101.341 39.496C101.341 39.808 101.329 40.252 101.305 40.828C101.281 41.38 101.269 41.824 101.269 42.16C101.269 43.48 101.413 44.344 101.701 44.752C101.989 45.16 102.565 45.364 103.429 45.364C104.605 45.364 105.769 44.728 106.921 43.456C108.097 42.184 109.057 40.516 109.801 38.452C110.209 38.98 110.737 39.556 111.385 40.18C112.057 40.804 112.621 41.284 113.077 41.62C111.829 44.356 110.281 46.396 108.433 47.74C106.609 49.084 104.713 49.756 102.745 49.756C100.993 49.756 99.6254 49.312 98.6414 48.424C97.6814 47.536 97.2014 45.904 97.2014 43.528C97.2014 43.216 97.2134 42.76 97.2374 42.16C97.2614 41.56 97.2734 41.068 97.2734 40.684C97.2734 39.412 97.1054 38.536 96.7694 38.056C96.4334 37.576 95.8574 37.336 95.0414 37.336C93.9614 37.336 92.9414 37.72 91.9814 38.488C91.0454 39.232 90.2894 40.216 89.7134 41.44C88.8254 43.312 88.0574 44.992 87.4094 46.48C86.7614 47.944 86.3054 49.072 86.0414 49.864ZM135.973 51.196C134.125 51.1 132.673 50.524 131.617 49.468C130.561 48.412 130.045 47.128 130.069 45.616C130.093 44.2 130.705 43.012 131.905 42.052C133.129 41.092 134.833 40.648 137.017 40.72C137.353 40.744 137.689 40.768 138.025 40.792C138.361 40.792 138.685 40.816 138.997 40.864V32.692H143.101V41.836C144.469 42.292 145.765 42.88 146.989 43.6C148.237 44.32 149.437 45.136 150.589 46.048C150.157 46.432 149.689 46.984 149.185 47.704C148.705 48.424 148.345 49.06 148.105 49.612C147.337 48.916 146.533 48.268 145.693 47.668C144.853 47.044 143.977 46.504 143.065 46.048C142.825 49.696 140.461 51.412 135.973 51.196ZM126.037 44.896C125.653 44.56 125.101 44.176 124.381 43.744C123.661 43.312 123.001 42.988 122.401 42.772C123.889 41.068 125.221 39.076 126.397 36.796C127.573 34.492 128.545 32.104 129.313 29.632C128.113 29.8 126.997 29.944 125.965 30.064C124.933 30.184 124.105 30.268 123.481 30.316L122.941 26.32C123.781 26.32 124.861 26.26 126.181 26.14C127.525 26.02 128.929 25.852 130.393 25.636C130.657 24.508 130.861 23.404 131.005 22.324C131.149 21.22 131.245 20.152 131.293 19.12L135.289 19.696C135.097 21.496 134.845 23.248 134.533 24.952C135.373 24.784 136.177 24.616 136.945 24.448C137.737 24.256 138.445 24.076 139.069 23.908L139.609 27.688C138.865 27.904 137.965 28.12 136.909 28.336C135.877 28.552 134.773 28.756 133.597 28.948C132.781 31.972 131.725 34.828 130.429 37.516C129.133 40.204 127.669 42.664 126.037 44.896ZM148.897 33.412C148.513 33.004 147.997 32.548 147.349 32.044C146.701 31.54 146.005 31.036 145.261 30.532C144.517 30.028 143.773 29.572 143.029 29.164C142.309 28.756 141.673 28.456 141.121 28.264L143.245 25.096C143.821 25.336 144.493 25.66 145.261 26.068C146.029 26.452 146.809 26.896 147.601 27.4C148.393 27.88 149.125 28.36 149.797 28.84C150.469 29.32 151.021 29.764 151.453 30.172L148.897 33.412ZM136.297 47.596C137.209 47.596 137.881 47.392 138.313 46.984C138.769 46.552 138.997 45.808 138.997 44.752V44.5C138.253 44.332 137.485 44.224 136.693 44.176C135.877 44.152 135.217 44.284 134.713 44.572C134.233 44.86 133.981 45.268 133.957 45.796C133.933 46.324 134.125 46.756 134.533 47.092C134.941 47.428 135.529 47.596 136.297 47.596ZM306.145 51.088C305.689 50.32 305.077 49.492 304.309 48.604C303.565 47.716 302.773 46.876 301.933 46.084C301.117 45.268 300.337 44.596 299.593 44.068L302.329 41.584C302.881 41.944 303.481 42.412 304.129 42.988C304.777 43.54 305.437 44.14 306.109 44.788C306.781 45.412 307.393 46.024 307.945 46.624C308.521 47.224 308.989 47.752 309.349 48.208L306.145 51.088ZM357.265 51.196C357.169 50.716 356.965 50.104 356.653 49.36C356.341 48.616 355.981 48.004 355.573 47.524C358.597 47.116 360.853 46.24 362.341 44.896C363.829 43.528 364.573 41.848 364.573 39.856C364.573 38.656 364.273 37.636 363.673 36.796C363.097 35.932 362.281 35.26 361.225 34.78C359.353 38.212 357.253 41.08 354.925 43.384C355.069 43.84 355.213 44.284 355.357 44.716C355.525 45.124 355.693 45.532 355.861 45.94C355.477 46.036 355.045 46.192 354.565 46.408C354.085 46.624 353.617 46.852 353.161 47.092C352.705 47.308 352.345 47.512 352.081 47.704C351.985 47.464 351.889 47.224 351.793 46.984C351.697 46.72 351.601 46.468 351.505 46.228C350.209 47.116 348.925 47.764 347.653 48.172C346.381 48.556 345.169 48.664 344.017 48.496C343.225 48.376 342.469 47.956 341.749 47.236C341.053 46.492 340.705 45.352 340.705 43.816C340.705 42.064 341.089 40.432 341.857 38.92C342.625 37.408 343.669 36.064 344.989 34.888C346.333 33.688 347.857 32.728 349.561 32.008C349.561 31.288 349.573 30.58 349.597 29.884C349.645 29.164 349.681 28.456 349.705 27.76C348.265 27.856 346.921 27.916 345.673 27.94C344.449 27.964 343.429 27.928 342.613 27.832L342.289 23.944C343.225 24.04 344.365 24.1 345.709 24.124C347.053 24.148 348.493 24.112 350.029 24.016C350.149 23.152 350.257 22.324 350.353 21.532C350.473 20.74 350.605 19.996 350.749 19.3L354.745 20.056C354.505 21.16 354.289 22.372 354.097 23.692C355.873 23.5 357.565 23.248 359.173 22.936C360.805 22.624 362.185 22.276 363.313 21.892L363.673 25.672C362.473 26.032 360.985 26.368 359.209 26.68C357.433 26.992 355.585 27.244 353.665 27.436C353.617 27.988 353.581 28.552 353.557 29.128C353.533 29.704 353.509 30.28 353.485 30.856C354.565 30.64 355.681 30.532 356.833 30.532C357.193 30.532 357.541 30.544 357.877 30.568C358.237 30.592 358.585 30.628 358.921 30.676C359.113 30.22 359.293 29.764 359.461 29.308C359.629 28.828 359.785 28.348 359.929 27.868L363.853 28.948C363.685 29.404 363.517 29.848 363.349 30.28C363.181 30.712 363.001 31.144 362.809 31.576C364.705 32.32 366.193 33.412 367.273 34.852C368.377 36.268 368.929 37.948 368.929 39.892C368.929 41.932 368.449 43.744 367.489 45.328C366.553 46.888 365.209 48.16 363.457 49.144C361.729 50.152 359.665 50.836 357.265 51.196ZM346.753 44.356C347.233 44.236 347.785 43.996 348.409 43.636C349.057 43.276 349.729 42.808 350.425 42.232C350.233 41.224 350.065 40.18 349.921 39.1C349.801 38.02 349.717 36.928 349.669 35.824C348.181 36.688 346.981 37.756 346.069 39.028C345.181 40.3 344.737 41.632 344.737 43.024C344.737 43.768 344.917 44.224 345.277 44.392C345.637 44.536 346.129 44.524 346.753 44.356ZM353.953 38.812C354.529 38.116 355.105 37.36 355.681 36.544C356.257 35.728 356.797 34.864 357.301 33.952H356.833C356.257 33.952 355.693 33.988 355.141 34.06C354.589 34.108 354.049 34.192 353.521 34.312C353.593 35.824 353.737 37.324 353.953 38.812ZM391.897 51.484C391.561 50.908 391.081 50.272 390.457 49.576C389.833 48.904 389.233 48.364 388.657 47.956C391.945 46.66 394.477 44.716 396.253 42.124C398.053 39.532 398.953 36.364 398.953 32.62C398.953 30.34 398.545 28.756 397.729 27.868C396.937 26.956 395.977 26.536 394.849 26.608C393.961 26.656 393.133 27.16 392.365 28.12C391.597 29.056 391.033 30.412 390.673 32.188C390.337 33.964 390.349 36.136 390.709 38.704C390.373 38.728 389.929 38.788 389.377 38.884C388.849 38.98 388.333 39.088 387.829 39.208C387.349 39.328 386.989 39.436 386.749 39.532C386.581 38.644 386.437 37.528 386.317 36.184C386.221 34.84 386.137 33.388 386.065 31.828C386.017 30.268 385.981 28.708 385.957 27.148C385.957 25.588 385.981 24.148 386.029 22.828C386.077 21.508 386.149 20.44 386.245 19.624L390.637 20.02C390.517 20.596 390.397 21.34 390.277 22.252C390.181 23.14 390.097 24.088 390.025 25.096C389.953 26.104 389.905 27.076 389.881 28.012C390.433 26.5 391.225 25.252 392.257 24.268C393.313 23.26 394.477 22.744 395.749 22.72C397.213 22.696 398.521 23.056 399.673 23.8C400.825 24.52 401.737 25.624 402.409 27.112C403.081 28.576 403.417 30.412 403.417 32.62C403.417 37.252 402.397 41.092 400.357 44.14C398.341 47.164 395.521 49.612 391.897 51.484ZM429.121 50.944C427.081 50.872 425.497 50.308 424.369 49.252C423.241 48.196 422.689 46.888 422.713 45.328C422.737 44.296 423.073 43.372 423.721 42.556C424.369 41.74 425.269 41.104 426.421 40.648C427.573 40.192 428.905 40 430.417 40.072C430.825 40.072 431.209 40.096 431.569 40.144C431.953 40.168 432.337 40.204 432.721 40.252L432.613 36.112C432.205 36.136 431.785 36.148 431.353 36.148C430.945 36.148 430.537 36.148 430.129 36.148C428.689 36.148 427.549 36.04 426.709 35.824C425.893 35.584 425.233 35.2 424.729 34.672C424.249 34.12 423.769 33.364 423.289 32.404L426.673 30.712C427.009 31.36 427.405 31.78 427.861 31.972C428.317 32.14 429.097 32.224 430.201 32.224C430.561 32.224 430.933 32.224 431.317 32.224C431.725 32.2 432.133 32.176 432.541 32.152C432.517 31.504 432.493 30.844 432.469 30.172C432.469 29.5 432.457 28.84 432.433 28.192C430.681 28.288 429.025 28.36 427.465 28.408C425.905 28.432 424.693 28.432 423.829 28.408L423.649 24.376C424.489 24.448 425.701 24.484 427.285 24.484C428.869 24.46 430.561 24.412 432.361 24.34C432.337 23.476 432.325 22.648 432.325 21.856C432.325 21.064 432.325 20.332 432.325 19.66H436.501C436.501 20.308 436.501 21.004 436.501 21.748C436.501 22.492 436.513 23.272 436.537 24.088C438.169 23.968 439.669 23.836 441.037 23.692C442.405 23.524 443.413 23.356 444.061 23.188V27.148C443.413 27.292 442.405 27.436 441.037 27.58C439.693 27.7 438.205 27.82 436.573 27.94C436.597 28.588 436.609 29.248 436.609 29.92C436.633 30.568 436.657 31.216 436.681 31.864C438.097 31.72 439.441 31.552 440.713 31.36C441.985 31.144 442.993 30.916 443.737 30.676V34.888C442.849 35.08 441.793 35.26 440.569 35.428C439.369 35.596 438.097 35.74 436.753 35.86C436.801 36.82 436.825 37.744 436.825 38.632C436.849 39.52 436.873 40.348 436.897 41.116C438.673 41.596 440.353 42.22 441.937 42.988C443.521 43.756 445.009 44.596 446.401 45.508C446.089 45.748 445.741 46.108 445.357 46.588C444.997 47.044 444.661 47.512 444.349 47.992C444.037 48.472 443.797 48.88 443.629 49.216C441.613 47.512 439.405 46.168 437.005 45.184C436.981 46.984 436.345 48.412 435.097 49.468C433.873 50.548 431.881 51.04 429.121 50.944ZM429.265 47.092C430.513 47.14 431.413 46.96 431.965 46.552C432.517 46.144 432.793 45.604 432.793 44.932V43.924C432.289 43.828 431.785 43.756 431.281 43.708C430.801 43.66 430.321 43.636 429.841 43.636C428.833 43.636 428.065 43.804 427.537 44.14C427.009 44.476 426.745 44.884 426.745 45.364C426.745 46.444 427.585 47.02 429.265 47.092ZM474.121 49.324C471.937 49.324 470.233 49.144 469.009 48.784C467.809 48.4 466.957 47.764 466.453 46.876C465.973 45.964 465.733 44.704 465.733 43.096V33.88C464.197 34.048 462.769 34.24 461.449 34.456C460.153 34.648 459.049 34.852 458.137 35.068L457.741 30.82C458.653 30.7 459.805 30.568 461.197 30.424C462.589 30.256 464.101 30.1 465.733 29.956V22.216H469.837V29.596C471.109 29.476 472.393 29.368 473.689 29.272C475.009 29.176 476.293 29.08 477.541 28.984V21.1H481.717V28.732C483.301 28.636 484.741 28.564 486.037 28.516C487.357 28.468 488.461 28.444 489.349 28.444V32.764C488.413 32.692 487.285 32.656 485.965 32.656C484.669 32.632 483.253 32.644 481.717 32.692V34.996C481.717 36.292 481.513 37.36 481.105 38.2C480.697 39.04 480.001 39.7 479.017 40.18C478.057 40.636 476.725 40.936 475.021 41.08C474.925 40.456 474.733 39.772 474.445 39.028C474.157 38.26 473.833 37.648 473.473 37.192C474.961 37.168 476.005 36.988 476.605 36.652C477.229 36.316 477.541 35.764 477.541 34.996V32.872C476.293 32.944 475.009 33.028 473.689 33.124C472.393 33.22 471.109 33.328 469.837 33.448V42.52C469.837 43.24 469.957 43.804 470.197 44.212C470.461 44.596 470.917 44.86 471.565 45.004C472.213 45.148 473.125 45.22 474.301 45.22C475.189 45.22 476.245 45.172 477.469 45.076C478.693 44.98 479.929 44.848 481.177 44.68C482.425 44.512 483.505 44.308 484.417 44.068C484.273 44.476 484.141 44.968 484.021 45.544C483.925 46.12 483.853 46.684 483.805 47.236C483.757 47.788 483.745 48.232 483.769 48.568C482.305 48.808 480.697 48.988 478.945 49.108C477.217 49.252 475.609 49.324 474.121 49.324ZM501.841 49.864L497.737 48.064C497.977 47.608 498.373 46.828 498.925 45.724C499.501 44.596 500.173 43.264 500.941 41.728C501.709 40.192 502.513 38.548 503.353 36.796C504.217 35.02 505.081 33.256 505.945 31.504C506.833 29.728 507.661 28.06 508.429 26.5C509.197 24.94 509.869 23.584 510.445 22.432C511.021 21.256 511.441 20.404 511.705 19.876L516.061 21.82C515.581 22.492 514.957 23.488 514.189 24.808C513.421 26.128 512.581 27.64 511.669 29.344C510.781 31.024 509.869 32.776 508.933 34.6C509.485 34.24 510.061 33.964 510.661 33.772C511.261 33.556 511.861 33.448 512.461 33.448C514.189 33.448 515.401 33.94 516.097 34.924C516.793 35.908 517.141 37.432 517.141 39.496C517.141 39.808 517.129 40.252 517.105 40.828C517.081 41.38 517.069 41.824 517.069 42.16C517.069 43.48 517.213 44.344 517.501 44.752C517.789 45.16 518.365 45.364 519.229 45.364C520.405 45.364 521.569 44.728 522.721 43.456C523.897 42.184 524.857 40.516 525.601 38.452C526.009 38.98 526.537 39.556 527.185 40.18C527.857 40.804 528.421 41.284 528.877 41.62C527.629 44.356 526.081 46.396 524.233 47.74C522.409 49.084 520.513 49.756 518.545 49.756C516.793 49.756 515.425 49.312 514.441 48.424C513.481 47.536 513.001 45.904 513.001 43.528C513.001 43.216 513.013 42.76 513.037 42.16C513.061 41.56 513.073 41.068 513.073 40.684C513.073 39.412 512.905 38.536 512.569 38.056C512.233 37.576 511.657 37.336 510.841 37.336C509.761 37.336 508.741 37.72 507.781 38.488C506.845 39.232 506.089 40.216 505.513 41.44C504.625 43.312 503.857 44.992 503.209 46.48C502.561 47.944 502.105 49.072 501.841 49.864ZM540.721 49.9C540.505 49.684 540.169 49.42 539.713 49.108C539.257 48.82 538.789 48.544 538.309 48.28C537.829 48.016 537.421 47.836 537.085 47.74C538.093 46.66 539.065 45.352 540.001 43.816C540.937 42.256 541.825 40.564 542.665 38.74C543.505 36.916 544.249 35.044 544.897 33.124C543.673 33.268 542.485 33.436 541.333 33.628C540.205 33.82 539.269 34.012 538.525 34.204C538.501 33.892 538.441 33.472 538.345 32.944C538.249 32.416 538.141 31.9 538.021 31.396C537.901 30.868 537.781 30.472 537.661 30.208C538.213 30.16 538.933 30.1 539.821 30.028C540.709 29.956 541.693 29.872 542.773 29.776C543.853 29.656 544.933 29.56 546.013 29.488C546.445 27.976 546.793 26.5 547.057 25.06C547.345 23.596 547.537 22.24 547.633 20.992L551.881 21.748C551.761 22.852 551.569 24.04 551.305 25.312C551.041 26.56 550.717 27.844 550.333 29.164C550.813 29.14 551.245 29.128 551.629 29.128C552.013 29.104 552.349 29.092 552.637 29.092C553.597 29.092 554.449 29.248 555.193 29.56C555.961 29.848 556.573 30.376 557.029 31.144C557.485 31.888 557.749 32.932 557.821 34.276C557.893 35.596 557.737 37.288 557.353 39.352C556.873 41.944 556.321 43.972 555.697 45.436C555.097 46.9 554.341 47.932 553.429 48.532C552.517 49.132 551.353 49.432 549.937 49.432C549.265 49.432 548.605 49.36 547.957 49.216C547.309 49.096 546.709 48.892 546.157 48.604C546.181 48.052 546.181 47.368 546.157 46.552C546.133 45.736 546.061 45.064 545.941 44.536C547.141 45.064 548.317 45.328 549.469 45.328C550.045 45.328 550.537 45.172 550.945 44.86C551.377 44.524 551.785 43.876 552.169 42.916C552.553 41.932 552.937 40.492 553.321 38.596C553.681 36.844 553.825 35.548 553.753 34.708C553.681 33.844 553.453 33.28 553.069 33.016C552.685 32.752 552.205 32.62 551.629 32.62C550.957 32.62 550.153 32.656 549.217 32.728C548.473 34.96 547.621 37.156 546.661 39.316C545.725 41.476 544.741 43.468 543.709 45.292C542.701 47.116 541.705 48.652 540.721 49.9ZM566.965 40.576C566.581 39.928 566.053 39.16 565.381 38.272C564.709 37.384 563.977 36.496 563.185 35.608C562.393 34.696 561.625 33.868 560.881 33.124C560.137 32.356 559.489 31.78 558.937 31.396L562.105 28.732C562.681 29.164 563.353 29.752 564.121 30.496C564.889 31.216 565.681 32.008 566.497 32.872C567.313 33.736 568.069 34.588 568.765 35.428C569.461 36.268 570.001 37 570.385 37.624L566.965 40.576ZM581.941 41.764L581.365 34.42C583.117 34.276 584.449 33.892 585.361 33.268C586.273 32.644 586.729 31.72 586.729 30.496C586.729 29.44 586.441 28.612 585.865 28.012C585.313 27.388 584.521 27.076 583.489 27.076C582.505 27.076 581.713 27.388 581.113 28.012C580.537 28.612 580.153 29.38 579.961 30.316L575.821 29.632C575.989 28.384 576.409 27.292 577.081 26.356C577.777 25.42 578.677 24.688 579.781 24.16C580.885 23.632 582.121 23.368 583.489 23.368C584.977 23.368 586.285 23.656 587.413 24.232C588.565 24.784 589.465 25.6 590.113 26.68C590.761 27.736 591.085 29.008 591.085 30.496C591.085 32.2 590.557 33.58 589.501 34.636C588.469 35.692 587.089 36.436 585.361 36.868L585.037 41.764H581.941ZM583.489 49.504C582.745 49.504 582.097 49.24 581.545 48.712C581.017 48.184 580.753 47.548 580.753 46.804C580.753 46.036 581.017 45.388 581.545 44.86C582.097 44.332 582.745 44.068 583.489 44.068C584.257 44.068 584.905 44.332 585.433 44.86C585.985 45.388 586.261 46.036 586.261 46.804C586.261 47.548 585.985 48.184 585.433 48.712C584.905 49.24 584.257 49.504 583.489 49.504Z" fill="#343434"/>
    <path d="M173.635 50.302C171.563 50.554 169.729 50.456 168.133 50.008C166.537 49.588 165.291 48.874 164.395 47.866C163.499 46.858 163.051 45.598 163.051 44.086C163.051 42.098 163.849 40.152 165.445 38.248C167.069 36.316 169.295 34.748 172.123 33.544V27.202C170.583 27.314 169.085 27.398 167.629 27.454C166.201 27.51 164.871 27.51 163.639 27.454L163.387 22.624C164.451 22.736 165.753 22.778 167.293 22.75C168.833 22.694 170.443 22.582 172.123 22.414V15.652L176.785 15.694V21.868C178.185 21.644 179.487 21.406 180.691 21.154C181.923 20.874 182.931 20.58 183.715 20.272L184.219 24.892C183.239 25.256 182.105 25.578 180.817 25.858C179.529 26.138 178.185 26.39 176.785 26.614V32.116C177.765 31.892 178.787 31.724 179.851 31.612C180.915 31.5 182.021 31.444 183.169 31.444C185.857 31.444 188.139 31.864 190.015 32.704C191.919 33.516 193.361 34.622 194.341 36.022C195.321 37.394 195.811 38.948 195.811 40.684C195.811 43.372 194.999 45.486 193.375 47.026C191.751 48.566 189.553 49.322 186.781 49.294C184.625 49.294 182.805 48.762 181.321 47.698C179.865 46.606 178.815 44.996 178.171 42.868C178.815 42.672 179.599 42.378 180.523 41.986C181.447 41.566 182.175 41.174 182.707 40.81C183.407 43.134 184.751 44.296 186.739 44.296C187.971 44.296 188.909 43.946 189.553 43.246C190.197 42.518 190.519 41.622 190.519 40.558C190.519 39.186 189.903 38.052 188.671 37.156C187.439 36.232 185.591 35.77 183.127 35.77C180.887 35.77 178.773 36.05 176.785 36.61V47.068C176.785 48.104 176.547 48.86 176.071 49.336C175.595 49.84 174.783 50.162 173.635 50.302ZM195.013 30.856C194.341 30.184 193.431 29.456 192.283 28.672C191.135 27.86 189.959 27.104 188.755 26.404C187.551 25.676 186.473 25.13 185.521 24.766L188.167 20.986C189.175 21.378 190.281 21.91 191.485 22.582C192.689 23.254 193.865 23.968 195.013 24.724C196.161 25.48 197.127 26.208 197.911 26.908C197.631 27.216 197.281 27.636 196.861 28.168C196.469 28.7 196.091 29.218 195.727 29.722C195.391 30.226 195.153 30.604 195.013 30.856ZM170.611 45.85C171.143 45.878 171.521 45.822 171.745 45.682C171.997 45.542 172.123 45.29 172.123 44.926V38.5C170.835 39.284 169.813 40.138 169.057 41.062C168.301 41.986 167.923 42.91 167.923 43.834C167.923 44.478 168.161 44.968 168.637 45.304C169.113 45.64 169.771 45.822 170.611 45.85ZM220.507 51.478V29.512H225.127V32.368L227.563 29.89C228.207 30.366 228.921 30.954 229.705 31.654C230.489 32.326 231.301 33.068 232.141 33.88C232.757 32.928 233.303 31.99 233.779 31.066C234.255 30.142 234.633 29.274 234.913 28.462L239.029 30.142C238.581 31.262 238.035 32.41 237.391 33.586C236.747 34.734 236.047 35.882 235.291 37.03C236.103 37.842 236.845 38.64 237.517 39.424C238.217 40.208 238.819 40.922 239.323 41.566V29.428H243.859V51.478H220.507ZM211.729 52.108V13.846H216.433V22.372L219.331 21.112C219.667 21.616 220.059 22.316 220.507 23.212C220.983 24.108 221.417 24.99 221.809 25.858C222.201 26.698 222.481 27.342 222.649 27.79L218.911 29.47C218.771 29.022 218.547 28.462 218.239 27.79C217.959 27.09 217.651 26.376 217.315 25.648C217.007 24.892 216.713 24.22 216.433 23.632V52.108H211.729ZM238.861 28.042C238.553 27.846 238.133 27.636 237.601 27.412C237.097 27.16 236.593 26.936 236.089 26.74C235.585 26.516 235.151 26.362 234.787 26.278C235.207 25.634 235.669 24.836 236.173 23.884C236.677 22.904 237.167 21.868 237.643 20.776C238.119 19.684 238.553 18.62 238.945 17.584C239.337 16.52 239.631 15.61 239.827 14.854L244.615 16.45C244.251 17.542 243.733 18.816 243.061 20.272C242.417 21.7 241.717 23.114 240.961 24.514C240.233 25.886 239.533 27.062 238.861 28.042ZM225.127 47.278H239.323V42.448C238.847 42.812 238.301 43.274 237.685 43.834C237.069 44.366 236.607 44.8 236.299 45.136C235.851 44.52 235.305 43.834 234.661 43.078C234.045 42.294 233.359 41.496 232.603 40.684C231.763 41.72 230.895 42.686 229.999 43.582C229.131 44.45 228.291 45.178 227.479 45.766C227.227 45.486 226.877 45.136 226.429 44.716C226.009 44.296 225.575 43.904 225.127 43.54V47.278ZM209.461 34.804C209.153 34.664 208.747 34.51 208.243 34.342C207.767 34.174 207.277 34.02 206.773 33.88C206.269 33.74 205.863 33.642 205.555 33.586C205.751 32.97 205.947 32.186 206.143 31.234C206.339 30.254 206.507 29.218 206.647 28.126C206.815 27.034 206.955 25.998 207.067 25.018C207.179 24.01 207.235 23.17 207.235 22.498L211.351 22.96C211.323 23.912 211.239 24.976 211.099 26.152C210.959 27.328 210.791 28.49 210.595 29.638C210.399 30.786 210.189 31.822 209.965 32.746C209.769 33.67 209.601 34.356 209.461 34.804ZM224.245 26.572C223.797 25.088 223.181 23.506 222.397 21.826C221.641 20.146 220.871 18.704 220.087 17.5L224.245 15.694C224.749 16.478 225.267 17.402 225.799 18.466C226.331 19.502 226.835 20.58 227.311 21.7C227.815 22.82 228.221 23.87 228.529 24.85C228.137 24.962 227.661 25.13 227.101 25.354C226.541 25.55 225.995 25.76 225.463 25.984C224.931 26.208 224.525 26.404 224.245 26.572ZM230.503 24.598C230.223 23.058 229.817 21.504 229.285 19.936C228.753 18.368 228.179 16.94 227.563 15.652L231.889 14.35C232.533 15.722 233.135 17.234 233.695 18.886C234.255 20.51 234.675 22.008 234.955 23.38C234.563 23.436 234.073 23.534 233.485 23.674C232.897 23.814 232.323 23.968 231.763 24.136C231.231 24.304 230.811 24.458 230.503 24.598ZM225.127 41.986C225.827 41.398 226.555 40.712 227.311 39.928C228.067 39.116 228.809 38.276 229.537 37.408C228.753 36.596 227.983 35.84 227.227 35.14C226.471 34.44 225.771 33.852 225.127 33.376V41.986ZM272.671 51.562C272.223 51.086 271.565 50.568 270.697 50.008C269.857 49.476 269.115 49.084 268.471 48.832C270.459 47.46 272.251 45.752 273.847 43.708C275.471 41.636 276.801 39.41 277.837 37.03C276.633 36.666 275.415 36.372 274.183 36.148C272.951 35.896 271.747 35.714 270.571 35.602C269.843 36.974 269.087 38.234 268.303 39.382C267.547 40.502 266.777 41.454 265.993 42.238C264.817 43.442 263.529 44.282 262.129 44.758C260.757 45.234 259.427 45.374 258.139 45.178C256.879 44.954 255.843 44.408 255.031 43.54C254.219 42.672 253.813 41.51 253.813 40.054C253.813 38.43 254.345 36.946 255.409 35.602C256.473 34.258 258.013 33.18 260.029 32.368C262.073 31.556 264.565 31.122 267.505 31.066C268.261 29.47 268.989 27.776 269.689 25.984C270.389 24.192 271.019 22.414 271.579 20.65C270.543 20.93 269.451 21.21 268.303 21.49C267.183 21.742 266.119 21.966 265.111 22.162C264.131 22.358 263.319 22.498 262.675 22.582L261.331 17.752C262.059 17.724 262.997 17.64 264.145 17.5C265.293 17.36 266.497 17.178 267.757 16.954C269.045 16.73 270.249 16.492 271.369 16.24C272.517 15.988 273.427 15.736 274.099 15.484L277.627 17.374C277.151 19.334 276.479 21.56 275.611 24.052C274.743 26.544 273.749 28.994 272.629 31.402C273.693 31.542 274.771 31.724 275.863 31.948C276.983 32.172 278.117 32.438 279.265 32.746C279.517 31.766 279.713 30.8 279.853 29.848C279.993 28.868 280.077 27.902 280.105 26.95L285.103 28.168C284.963 30.128 284.627 32.116 284.095 34.132C285.215 34.496 286.307 34.888 287.371 35.308C288.463 35.728 289.499 36.176 290.479 36.652C290.199 36.988 289.891 37.436 289.555 37.996C289.219 38.556 288.911 39.144 288.631 39.76C288.379 40.348 288.169 40.866 288.001 41.314C287.133 40.838 286.237 40.376 285.313 39.928C284.417 39.452 283.493 39.032 282.541 38.668C281.449 41.216 280.063 43.624 278.383 45.892C276.703 48.132 274.799 50.022 272.671 51.562ZM258.223 39.466C258.279 39.83 258.517 40.124 258.937 40.348C259.357 40.544 259.875 40.572 260.491 40.432C261.135 40.292 261.821 39.872 262.549 39.172C262.941 38.78 263.361 38.276 263.809 37.66C264.257 37.044 264.705 36.344 265.153 35.56C262.773 35.812 260.995 36.33 259.819 37.114C258.643 37.87 258.111 38.654 258.223 39.466Z" fill="#D64B57"/>
</svg>
