<svg width="349" height="112" viewBox="0 0 349 112" fill="none" xmlns="http://www.w3.org/2000/svg">
    <path d="M22.896 37.48V18.544H33.948V20.884H25.416V37.48H22.896Z" fill="#ABC2DA"/>
    <path d="M55.404 48.208C53.796 48.208 52.356 48.04 51.084 47.704C49.836 47.344 48.756 46.708 47.844 45.796C46.956 44.884 46.224 43.612 45.648 41.98L49.464 39.892C49.776 41.14 50.412 42.088 51.372 42.736C52.332 43.384 53.676 43.708 55.404 43.708C56.94 43.708 58.524 43.636 60.156 43.492C61.788 43.348 63.324 43.144 64.764 42.88C66.204 42.616 67.392 42.316 68.328 41.98C68.328 42.364 68.352 42.868 68.4 43.492C68.472 44.116 68.556 44.728 68.652 45.328C68.772 45.928 68.88 46.396 68.976 46.732C68.016 47.044 66.792 47.308 65.304 47.524C63.816 47.74 62.208 47.908 60.48 48.028C58.776 48.148 57.084 48.208 55.404 48.208ZM49.752 27.04L49.716 22.684C50.412 22.9 51.276 23.068 52.308 23.188C53.364 23.308 54.492 23.38 55.692 23.404C56.916 23.428 58.14 23.416 59.364 23.368C60.588 23.296 61.716 23.2 62.748 23.08C63.78 22.936 64.632 22.756 65.304 22.54V26.932C64.704 27.124 63.888 27.28 62.856 27.4C61.824 27.52 60.696 27.616 59.472 27.688C58.248 27.736 57.012 27.748 55.764 27.724C54.516 27.7 53.364 27.628 52.308 27.508C51.252 27.388 50.4 27.232 49.752 27.04ZM85.716 49.864L81.612 48.064C81.852 47.608 82.248 46.828 82.8 45.724C83.376 44.596 84.048 43.264 84.816 41.728C85.584 40.192 86.388 38.548 87.228 36.796C88.092 35.02 88.956 33.256 89.82 31.504C90.708 29.728 91.536 28.06 92.304 26.5C93.072 24.94 93.744 23.584 94.32 22.432C94.896 21.256 95.316 20.404 95.58 19.876L99.936 21.82C99.456 22.492 98.832 23.488 98.064 24.808C97.296 26.128 96.456 27.64 95.544 29.344C94.656 31.024 93.744 32.776 92.808 34.6C93.36 34.24 93.936 33.964 94.536 33.772C95.136 33.556 95.736 33.448 96.336 33.448C98.064 33.448 99.276 33.94 99.972 34.924C100.668 35.908 101.016 37.432 101.016 39.496C101.016 39.808 101.004 40.252 100.98 40.828C100.956 41.38 100.944 41.824 100.944 42.16C100.944 43.48 101.088 44.344 101.376 44.752C101.664 45.16 102.24 45.364 103.104 45.364C104.28 45.364 105.444 44.728 106.596 43.456C107.772 42.184 108.732 40.516 109.476 38.452C109.884 38.98 110.412 39.556 111.06 40.18C111.732 40.804 112.296 41.284 112.752 41.62C111.504 44.356 109.956 46.396 108.108 47.74C106.284 49.084 104.388 49.756 102.42 49.756C100.668 49.756 99.3 49.312 98.316 48.424C97.356 47.536 96.876 45.904 96.876 43.528C96.876 43.216 96.888 42.76 96.912 42.16C96.936 41.56 96.948 41.068 96.948 40.684C96.948 39.412 96.78 38.536 96.444 38.056C96.108 37.576 95.532 37.336 94.716 37.336C93.636 37.336 92.616 37.72 91.656 38.488C90.72 39.232 89.964 40.216 89.388 41.44C88.5 43.312 87.732 44.992 87.084 46.48C86.436 47.944 85.98 49.072 85.716 49.864ZM135.648 51.196C133.8 51.1 132.348 50.524 131.292 49.468C130.236 48.412 129.72 47.128 129.744 45.616C129.768 44.2 130.38 43.012 131.58 42.052C132.804 41.092 134.508 40.648 136.692 40.72C137.028 40.744 137.364 40.768 137.7 40.792C138.036 40.792 138.36 40.816 138.672 40.864V32.692H142.776V41.836C144.144 42.292 145.44 42.88 146.664 43.6C147.912 44.32 149.112 45.136 150.264 46.048C149.832 46.432 149.364 46.984 148.86 47.704C148.38 48.424 148.02 49.06 147.78 49.612C147.012 48.916 146.208 48.268 145.368 47.668C144.528 47.044 143.652 46.504 142.74 46.048C142.5 49.696 140.136 51.412 135.648 51.196ZM125.712 44.896C125.328 44.56 124.776 44.176 124.056 43.744C123.336 43.312 122.676 42.988 122.076 42.772C123.564 41.068 124.896 39.076 126.072 36.796C127.248 34.492 128.22 32.104 128.988 29.632C127.788 29.8 126.672 29.944 125.64 30.064C124.608 30.184 123.78 30.268 123.156 30.316L122.616 26.32C123.456 26.32 124.536 26.26 125.856 26.14C127.2 26.02 128.604 25.852 130.068 25.636C130.332 24.508 130.536 23.404 130.68 22.324C130.824 21.22 130.92 20.152 130.968 19.12L134.964 19.696C134.772 21.496 134.52 23.248 134.208 24.952C135.048 24.784 135.852 24.616 136.62 24.448C137.412 24.256 138.12 24.076 138.744 23.908L139.284 27.688C138.54 27.904 137.64 28.12 136.584 28.336C135.552 28.552 134.448 28.756 133.272 28.948C132.456 31.972 131.4 34.828 130.104 37.516C128.808 40.204 127.344 42.664 125.712 44.896ZM148.572 33.412C148.188 33.004 147.672 32.548 147.024 32.044C146.376 31.54 145.68 31.036 144.936 30.532C144.192 30.028 143.448 29.572 142.704 29.164C141.984 28.756 141.348 28.456 140.796 28.264L142.92 25.096C143.496 25.336 144.168 25.66 144.936 26.068C145.704 26.452 146.484 26.896 147.276 27.4C148.068 27.88 148.8 28.36 149.472 28.84C150.144 29.32 150.696 29.764 151.128 30.172L148.572 33.412ZM135.972 47.596C136.884 47.596 137.556 47.392 137.988 46.984C138.444 46.552 138.672 45.808 138.672 44.752V44.5C137.928 44.332 137.16 44.224 136.368 44.176C135.552 44.152 134.892 44.284 134.388 44.572C133.908 44.86 133.656 45.268 133.632 45.796C133.608 46.324 133.8 46.756 134.208 47.092C134.616 47.428 135.204 47.596 135.972 47.596ZM305.82 51.088C305.364 50.32 304.752 49.492 303.984 48.604C303.24 47.716 302.448 46.876 301.608 46.084C300.792 45.268 300.012 44.596 299.268 44.068L302.004 41.584C302.556 41.944 303.156 42.412 303.804 42.988C304.452 43.54 305.112 44.14 305.784 44.788C306.456 45.412 307.068 46.024 307.62 46.624C308.196 47.224 308.664 47.752 309.024 48.208L305.82 51.088Z" fill="#343434"/>
    <path d="M173.31 50.302C171.238 50.554 169.404 50.456 167.808 50.008C166.212 49.588 164.966 48.874 164.07 47.866C163.174 46.858 162.726 45.598 162.726 44.086C162.726 42.098 163.524 40.152 165.12 38.248C166.744 36.316 168.97 34.748 171.798 33.544V27.202C170.258 27.314 168.76 27.398 167.304 27.454C165.876 27.51 164.546 27.51 163.314 27.454L163.062 22.624C164.126 22.736 165.428 22.778 166.968 22.75C168.508 22.694 170.118 22.582 171.798 22.414V15.652L176.46 15.694V21.868C177.86 21.644 179.162 21.406 180.366 21.154C181.598 20.874 182.606 20.58 183.39 20.272L183.894 24.892C182.914 25.256 181.78 25.578 180.492 25.858C179.204 26.138 177.86 26.39 176.46 26.614V32.116C177.44 31.892 178.462 31.724 179.526 31.612C180.59 31.5 181.696 31.444 182.844 31.444C185.532 31.444 187.814 31.864 189.69 32.704C191.594 33.516 193.036 34.622 194.016 36.022C194.996 37.394 195.486 38.948 195.486 40.684C195.486 43.372 194.674 45.486 193.05 47.026C191.426 48.566 189.228 49.322 186.456 49.294C184.3 49.294 182.48 48.762 180.996 47.698C179.54 46.606 178.49 44.996 177.846 42.868C178.49 42.672 179.274 42.378 180.198 41.986C181.122 41.566 181.85 41.174 182.382 40.81C183.082 43.134 184.426 44.296 186.414 44.296C187.646 44.296 188.584 43.946 189.228 43.246C189.872 42.518 190.194 41.622 190.194 40.558C190.194 39.186 189.578 38.052 188.346 37.156C187.114 36.232 185.266 35.77 182.802 35.77C180.562 35.77 178.448 36.05 176.46 36.61V47.068C176.46 48.104 176.222 48.86 175.746 49.336C175.27 49.84 174.458 50.162 173.31 50.302ZM194.688 30.856C194.016 30.184 193.106 29.456 191.958 28.672C190.81 27.86 189.634 27.104 188.43 26.404C187.226 25.676 186.148 25.13 185.196 24.766L187.842 20.986C188.85 21.378 189.956 21.91 191.16 22.582C192.364 23.254 193.54 23.968 194.688 24.724C195.836 25.48 196.802 26.208 197.586 26.908C197.306 27.216 196.956 27.636 196.536 28.168C196.144 28.7 195.766 29.218 195.402 29.722C195.066 30.226 194.828 30.604 194.688 30.856ZM170.286 45.85C170.818 45.878 171.196 45.822 171.42 45.682C171.672 45.542 171.798 45.29 171.798 44.926V38.5C170.51 39.284 169.488 40.138 168.732 41.062C167.976 41.986 167.598 42.91 167.598 43.834C167.598 44.478 167.836 44.968 168.312 45.304C168.788 45.64 169.446 45.822 170.286 45.85ZM220.182 51.478V29.512H224.802V32.368L227.238 29.89C227.882 30.366 228.596 30.954 229.38 31.654C230.164 32.326 230.976 33.068 231.816 33.88C232.432 32.928 232.978 31.99 233.454 31.066C233.93 30.142 234.308 29.274 234.588 28.462L238.704 30.142C238.256 31.262 237.71 32.41 237.066 33.586C236.422 34.734 235.722 35.882 234.966 37.03C235.778 37.842 236.52 38.64 237.192 39.424C237.892 40.208 238.494 40.922 238.998 41.566V29.428H243.534V51.478H220.182ZM211.404 52.108V13.846H216.108V22.372L219.006 21.112C219.342 21.616 219.734 22.316 220.182 23.212C220.658 24.108 221.092 24.99 221.484 25.858C221.876 26.698 222.156 27.342 222.324 27.79L218.586 29.47C218.446 29.022 218.222 28.462 217.914 27.79C217.634 27.09 217.326 26.376 216.99 25.648C216.682 24.892 216.388 24.22 216.108 23.632V52.108H211.404ZM238.536 28.042C238.228 27.846 237.808 27.636 237.276 27.412C236.772 27.16 236.268 26.936 235.764 26.74C235.26 26.516 234.826 26.362 234.462 26.278C234.882 25.634 235.344 24.836 235.848 23.884C236.352 22.904 236.842 21.868 237.318 20.776C237.794 19.684 238.228 18.62 238.62 17.584C239.012 16.52 239.306 15.61 239.502 14.854L244.29 16.45C243.926 17.542 243.408 18.816 242.736 20.272C242.092 21.7 241.392 23.114 240.636 24.514C239.908 25.886 239.208 27.062 238.536 28.042ZM224.802 47.278H238.998V42.448C238.522 42.812 237.976 43.274 237.36 43.834C236.744 44.366 236.282 44.8 235.974 45.136C235.526 44.52 234.98 43.834 234.336 43.078C233.72 42.294 233.034 41.496 232.278 40.684C231.438 41.72 230.57 42.686 229.674 43.582C228.806 44.45 227.966 45.178 227.154 45.766C226.902 45.486 226.552 45.136 226.104 44.716C225.684 44.296 225.25 43.904 224.802 43.54V47.278ZM209.136 34.804C208.828 34.664 208.422 34.51 207.918 34.342C207.442 34.174 206.952 34.02 206.448 33.88C205.944 33.74 205.538 33.642 205.23 33.586C205.426 32.97 205.622 32.186 205.818 31.234C206.014 30.254 206.182 29.218 206.322 28.126C206.49 27.034 206.63 25.998 206.742 25.018C206.854 24.01 206.91 23.17 206.91 22.498L211.026 22.96C210.998 23.912 210.914 24.976 210.774 26.152C210.634 27.328 210.466 28.49 210.27 29.638C210.074 30.786 209.864 31.822 209.64 32.746C209.444 33.67 209.276 34.356 209.136 34.804ZM223.92 26.572C223.472 25.088 222.856 23.506 222.072 21.826C221.316 20.146 220.546 18.704 219.762 17.5L223.92 15.694C224.424 16.478 224.942 17.402 225.474 18.466C226.006 19.502 226.51 20.58 226.986 21.7C227.49 22.82 227.896 23.87 228.204 24.85C227.812 24.962 227.336 25.13 226.776 25.354C226.216 25.55 225.67 25.76 225.138 25.984C224.606 26.208 224.2 26.404 223.92 26.572ZM230.178 24.598C229.898 23.058 229.492 21.504 228.96 19.936C228.428 18.368 227.854 16.94 227.238 15.652L231.564 14.35C232.208 15.722 232.81 17.234 233.37 18.886C233.93 20.51 234.35 22.008 234.63 23.38C234.238 23.436 233.748 23.534 233.16 23.674C232.572 23.814 231.998 23.968 231.438 24.136C230.906 24.304 230.486 24.458 230.178 24.598ZM224.802 41.986C225.502 41.398 226.23 40.712 226.986 39.928C227.742 39.116 228.484 38.276 229.212 37.408C228.428 36.596 227.658 35.84 226.902 35.14C226.146 34.44 225.446 33.852 224.802 33.376V41.986ZM272.346 51.562C271.898 51.086 271.24 50.568 270.372 50.008C269.532 49.476 268.79 49.084 268.146 48.832C270.134 47.46 271.926 45.752 273.522 43.708C275.146 41.636 276.476 39.41 277.512 37.03C276.308 36.666 275.09 36.372 273.858 36.148C272.626 35.896 271.422 35.714 270.246 35.602C269.518 36.974 268.762 38.234 267.978 39.382C267.222 40.502 266.452 41.454 265.668 42.238C264.492 43.442 263.204 44.282 261.804 44.758C260.432 45.234 259.102 45.374 257.814 45.178C256.554 44.954 255.518 44.408 254.706 43.54C253.894 42.672 253.488 41.51 253.488 40.054C253.488 38.43 254.02 36.946 255.084 35.602C256.148 34.258 257.688 33.18 259.704 32.368C261.748 31.556 264.24 31.122 267.18 31.066C267.936 29.47 268.664 27.776 269.364 25.984C270.064 24.192 270.694 22.414 271.254 20.65C270.218 20.93 269.126 21.21 267.978 21.49C266.858 21.742 265.794 21.966 264.786 22.162C263.806 22.358 262.994 22.498 262.35 22.582L261.006 17.752C261.734 17.724 262.672 17.64 263.82 17.5C264.968 17.36 266.172 17.178 267.432 16.954C268.72 16.73 269.924 16.492 271.044 16.24C272.192 15.988 273.102 15.736 273.774 15.484L277.302 17.374C276.826 19.334 276.154 21.56 275.286 24.052C274.418 26.544 273.424 28.994 272.304 31.402C273.368 31.542 274.446 31.724 275.538 31.948C276.658 32.172 277.792 32.438 278.94 32.746C279.192 31.766 279.388 30.8 279.528 29.848C279.668 28.868 279.752 27.902 279.78 26.95L284.778 28.168C284.638 30.128 284.302 32.116 283.77 34.132C284.89 34.496 285.982 34.888 287.046 35.308C288.138 35.728 289.174 36.176 290.154 36.652C289.874 36.988 289.566 37.436 289.23 37.996C288.894 38.556 288.586 39.144 288.306 39.76C288.054 40.348 287.844 40.866 287.676 41.314C286.808 40.838 285.912 40.376 284.988 39.928C284.092 39.452 283.168 39.032 282.216 38.668C281.124 41.216 279.738 43.624 278.058 45.892C276.378 48.132 274.474 50.022 272.346 51.562ZM257.898 39.466C257.954 39.83 258.192 40.124 258.612 40.348C259.032 40.544 259.55 40.572 260.166 40.432C260.81 40.292 261.496 39.872 262.224 39.172C262.616 38.78 263.036 38.276 263.484 37.66C263.932 37.044 264.38 36.344 264.828 35.56C262.448 35.812 260.67 36.33 259.494 37.114C258.318 37.87 257.786 38.654 257.898 39.466Z" fill="#D64B57"/>
    <path d="M60.4654 104.196C60.3694 103.716 60.1654 103.104 59.8534 102.36C59.5414 101.616 59.1814 101.004 58.7734 100.524C61.7974 100.116 64.0534 99.24 65.5414 97.896C67.0294 96.528 67.7734 94.848 67.7734 92.856C67.7734 91.656 67.4734 90.636 66.8734 89.796C66.2974 88.932 65.4814 88.26 64.4254 87.78C62.5534 91.212 60.4534 94.08 58.1254 96.384C58.2694 96.84 58.4134 97.284 58.5574 97.716C58.7254 98.124 58.8934 98.532 59.0614 98.94C58.6774 99.036 58.2454 99.192 57.7654 99.408C57.2854 99.624 56.8174 99.852 56.3614 100.092C55.9054 100.308 55.5454 100.512 55.2814 100.704C55.1854 100.464 55.0894 100.224 54.9934 99.984C54.8974 99.72 54.8014 99.468 54.7054 99.228C53.4094 100.116 52.1254 100.764 50.8534 101.172C49.5814 101.556 48.3694 101.664 47.2174 101.496C46.4254 101.376 45.6694 100.956 44.9494 100.236C44.2534 99.492 43.9054 98.352 43.9054 96.816C43.9054 95.064 44.2894 93.432 45.0574 91.92C45.8254 90.408 46.8694 89.064 48.1894 87.888C49.5334 86.688 51.0574 85.728 52.7614 85.008C52.7614 84.288 52.7734 83.58 52.7974 82.884C52.8454 82.164 52.8814 81.456 52.9054 80.76C51.4654 80.856 50.1214 80.916 48.8734 80.94C47.6494 80.964 46.6294 80.928 45.8134 80.832L45.4894 76.944C46.4254 77.04 47.5654 77.1 48.9094 77.124C50.2534 77.148 51.6934 77.112 53.2294 77.016C53.3494 76.152 53.4574 75.324 53.5534 74.532C53.6734 73.74 53.8054 72.996 53.9494 72.3L57.9454 73.056C57.7054 74.16 57.4894 75.372 57.2974 76.692C59.0734 76.5 60.7654 76.248 62.3734 75.936C64.0054 75.624 65.3854 75.276 66.5134 74.892L66.8734 78.672C65.6734 79.032 64.1854 79.368 62.4094 79.68C60.6334 79.992 58.7854 80.244 56.8654 80.436C56.8174 80.988 56.7814 81.552 56.7574 82.128C56.7334 82.704 56.7094 83.28 56.6854 83.856C57.7654 83.64 58.8814 83.532 60.0334 83.532C60.3934 83.532 60.7414 83.544 61.0774 83.568C61.4374 83.592 61.7854 83.628 62.1214 83.676C62.3134 83.22 62.4934 82.764 62.6614 82.308C62.8294 81.828 62.9854 81.348 63.1294 80.868L67.0534 81.948C66.8854 82.404 66.7174 82.848 66.5494 83.28C66.3814 83.712 66.2014 84.144 66.0094 84.576C67.9054 85.32 69.3934 86.412 70.4734 87.852C71.5774 89.268 72.1294 90.948 72.1294 92.892C72.1294 94.932 71.6494 96.744 70.6894 98.328C69.7534 99.888 68.4094 101.16 66.6574 102.144C64.9294 103.152 62.8654 103.836 60.4654 104.196ZM49.9534 97.356C50.4334 97.236 50.9854 96.996 51.6094 96.636C52.2574 96.276 52.9294 95.808 53.6254 95.232C53.4334 94.224 53.2654 93.18 53.1214 92.1C53.0014 91.02 52.9174 89.928 52.8694 88.824C51.3814 89.688 50.1814 90.756 49.2694 92.028C48.3814 93.3 47.9374 94.632 47.9374 96.024C47.9374 96.768 48.1174 97.224 48.4774 97.392C48.8374 97.536 49.3294 97.524 49.9534 97.356ZM57.1534 91.812C57.7294 91.116 58.3054 90.36 58.8814 89.544C59.4574 88.728 59.9974 87.864 60.5014 86.952H60.0334C59.4574 86.952 58.8934 86.988 58.3414 87.06C57.7894 87.108 57.2494 87.192 56.7214 87.312C56.7934 88.824 56.9374 90.324 57.1534 91.812ZM95.0974 104.484C94.7614 103.908 94.2814 103.272 93.6574 102.576C93.0334 101.904 92.4334 101.364 91.8574 100.956C95.1454 99.66 97.6774 97.716 99.4534 95.124C101.253 92.532 102.153 89.364 102.153 85.62C102.153 83.34 101.745 81.756 100.929 80.868C100.137 79.956 99.1774 79.536 98.0494 79.608C97.1614 79.656 96.3334 80.16 95.5654 81.12C94.7974 82.056 94.2334 83.412 93.8734 85.188C93.5374 86.964 93.5494 89.136 93.9094 91.704C93.5734 91.728 93.1294 91.788 92.5774 91.884C92.0494 91.98 91.5334 92.088 91.0294 92.208C90.5494 92.328 90.1894 92.436 89.9494 92.532C89.7814 91.644 89.6374 90.528 89.5174 89.184C89.4214 87.84 89.3374 86.388 89.2654 84.828C89.2174 83.268 89.1814 81.708 89.1574 80.148C89.1574 78.588 89.1814 77.148 89.2294 75.828C89.2774 74.508 89.3494 73.44 89.4454 72.624L93.8374 73.02C93.7174 73.596 93.5974 74.34 93.4774 75.252C93.3814 76.14 93.2974 77.088 93.2254 78.096C93.1534 79.104 93.1054 80.076 93.0814 81.012C93.6334 79.5 94.4254 78.252 95.4574 77.268C96.5134 76.26 97.6774 75.744 98.9494 75.72C100.413 75.696 101.721 76.056 102.873 76.8C104.025 77.52 104.937 78.624 105.609 80.112C106.281 81.576 106.617 83.412 106.617 85.62C106.617 90.252 105.597 94.092 103.557 97.14C101.541 100.164 98.7214 102.612 95.0974 104.484ZM132.321 103.944C130.281 103.872 128.697 103.308 127.569 102.252C126.441 101.196 125.889 99.888 125.913 98.328C125.937 97.296 126.273 96.372 126.921 95.556C127.569 94.74 128.469 94.104 129.621 93.648C130.773 93.192 132.105 93 133.617 93.072C134.025 93.072 134.409 93.096 134.769 93.144C135.153 93.168 135.537 93.204 135.921 93.252L135.813 89.112C135.405 89.136 134.985 89.148 134.553 89.148C134.145 89.148 133.737 89.148 133.329 89.148C131.889 89.148 130.749 89.04 129.909 88.824C129.093 88.584 128.433 88.2 127.929 87.672C127.449 87.12 126.969 86.364 126.489 85.404L129.873 83.712C130.209 84.36 130.605 84.78 131.061 84.972C131.517 85.14 132.297 85.224 133.401 85.224C133.761 85.224 134.133 85.224 134.517 85.224C134.925 85.2 135.333 85.176 135.741 85.152C135.717 84.504 135.693 83.844 135.669 83.172C135.669 82.5 135.657 81.84 135.633 81.192C133.881 81.288 132.225 81.36 130.665 81.408C129.105 81.432 127.893 81.432 127.029 81.408L126.849 77.376C127.689 77.448 128.901 77.484 130.485 77.484C132.069 77.46 133.761 77.412 135.561 77.34C135.537 76.476 135.525 75.648 135.525 74.856C135.525 74.064 135.525 73.332 135.525 72.66H139.701C139.701 73.308 139.701 74.004 139.701 74.748C139.701 75.492 139.713 76.272 139.737 77.088C141.369 76.968 142.869 76.836 144.237 76.692C145.605 76.524 146.613 76.356 147.261 76.188V80.148C146.613 80.292 145.605 80.436 144.237 80.58C142.893 80.7 141.405 80.82 139.773 80.94C139.797 81.588 139.809 82.248 139.809 82.92C139.833 83.568 139.857 84.216 139.881 84.864C141.297 84.72 142.641 84.552 143.913 84.36C145.185 84.144 146.193 83.916 146.937 83.676V87.888C146.049 88.08 144.993 88.26 143.769 88.428C142.569 88.596 141.297 88.74 139.953 88.86C140.001 89.82 140.025 90.744 140.025 91.632C140.049 92.52 140.073 93.348 140.097 94.116C141.873 94.596 143.553 95.22 145.137 95.988C146.721 96.756 148.209 97.596 149.601 98.508C149.289 98.748 148.941 99.108 148.557 99.588C148.197 100.044 147.861 100.512 147.549 100.992C147.237 101.472 146.997 101.88 146.829 102.216C144.813 100.512 142.605 99.168 140.205 98.184C140.181 99.984 139.545 101.412 138.297 102.468C137.073 103.548 135.081 104.04 132.321 103.944ZM132.465 100.092C133.713 100.14 134.613 99.96 135.165 99.552C135.717 99.144 135.993 98.604 135.993 97.932V96.924C135.489 96.828 134.985 96.756 134.481 96.708C134.001 96.66 133.521 96.636 133.041 96.636C132.033 96.636 131.265 96.804 130.737 97.14C130.209 97.476 129.945 97.884 129.945 98.364C129.945 99.444 130.785 100.02 132.465 100.092ZM177.321 102.324C175.137 102.324 173.433 102.144 172.209 101.784C171.009 101.4 170.157 100.764 169.653 99.876C169.173 98.964 168.933 97.704 168.933 96.096V86.88C167.397 87.048 165.969 87.24 164.649 87.456C163.353 87.648 162.249 87.852 161.337 88.068L160.941 83.82C161.853 83.7 163.005 83.568 164.397 83.424C165.789 83.256 167.301 83.1 168.933 82.956V75.216H173.037V82.596C174.309 82.476 175.593 82.368 176.889 82.272C178.209 82.176 179.493 82.08 180.741 81.984V74.1H184.917V81.732C186.501 81.636 187.941 81.564 189.237 81.516C190.557 81.468 191.661 81.444 192.549 81.444V85.764C191.613 85.692 190.485 85.656 189.165 85.656C187.869 85.632 186.453 85.644 184.917 85.692V87.996C184.917 89.292 184.713 90.36 184.305 91.2C183.897 92.04 183.201 92.7 182.217 93.18C181.257 93.636 179.925 93.936 178.221 94.08C178.125 93.456 177.933 92.772 177.645 92.028C177.357 91.26 177.033 90.648 176.673 90.192C178.161 90.168 179.205 89.988 179.805 89.652C180.429 89.316 180.741 88.764 180.741 87.996V85.872C179.493 85.944 178.209 86.028 176.889 86.124C175.593 86.22 174.309 86.328 173.037 86.448V95.52C173.037 96.24 173.157 96.804 173.397 97.212C173.661 97.596 174.117 97.86 174.765 98.004C175.413 98.148 176.325 98.22 177.501 98.22C178.389 98.22 179.445 98.172 180.669 98.076C181.893 97.98 183.129 97.848 184.377 97.68C185.625 97.512 186.705 97.308 187.617 97.068C187.473 97.476 187.341 97.968 187.221 98.544C187.125 99.12 187.053 99.684 187.005 100.236C186.957 100.788 186.945 101.232 186.969 101.568C185.505 101.808 183.897 101.988 182.145 102.108C180.417 102.252 178.809 102.324 177.321 102.324ZM205.041 102.864L200.937 101.064C201.177 100.608 201.573 99.828 202.125 98.724C202.701 97.596 203.373 96.264 204.141 94.728C204.909 93.192 205.713 91.548 206.553 89.796C207.417 88.02 208.281 86.256 209.145 84.504C210.033 82.728 210.861 81.06 211.629 79.5C212.397 77.94 213.069 76.584 213.645 75.432C214.221 74.256 214.641 73.404 214.905 72.876L219.261 74.82C218.781 75.492 218.157 76.488 217.389 77.808C216.621 79.128 215.781 80.64 214.869 82.344C213.981 84.024 213.069 85.776 212.133 87.6C212.685 87.24 213.261 86.964 213.861 86.772C214.461 86.556 215.061 86.448 215.661 86.448C217.389 86.448 218.601 86.94 219.297 87.924C219.993 88.908 220.341 90.432 220.341 92.496C220.341 92.808 220.329 93.252 220.305 93.828C220.281 94.38 220.269 94.824 220.269 95.16C220.269 96.48 220.413 97.344 220.701 97.752C220.989 98.16 221.565 98.364 222.429 98.364C223.605 98.364 224.769 97.728 225.921 96.456C227.097 95.184 228.057 93.516 228.801 91.452C229.209 91.98 229.737 92.556 230.385 93.18C231.057 93.804 231.621 94.284 232.077 94.62C230.829 97.356 229.281 99.396 227.433 100.74C225.609 102.084 223.713 102.756 221.745 102.756C219.993 102.756 218.625 102.312 217.641 101.424C216.681 100.536 216.201 98.904 216.201 96.528C216.201 96.216 216.213 95.76 216.237 95.16C216.261 94.56 216.273 94.068 216.273 93.684C216.273 92.412 216.105 91.536 215.769 91.056C215.433 90.576 214.857 90.336 214.041 90.336C212.961 90.336 211.941 90.72 210.981 91.488C210.045 92.232 209.289 93.216 208.713 94.44C207.825 96.312 207.057 97.992 206.409 99.48C205.761 100.944 205.305 102.072 205.041 102.864ZM243.921 102.9C243.705 102.684 243.369 102.42 242.913 102.108C242.457 101.82 241.989 101.544 241.509 101.28C241.029 101.016 240.621 100.836 240.285 100.74C241.293 99.66 242.265 98.352 243.201 96.816C244.137 95.256 245.025 93.564 245.865 91.74C246.705 89.916 247.449 88.044 248.097 86.124C246.873 86.268 245.685 86.436 244.533 86.628C243.405 86.82 242.469 87.012 241.725 87.204C241.701 86.892 241.641 86.472 241.545 85.944C241.449 85.416 241.341 84.9 241.221 84.396C241.101 83.868 240.981 83.472 240.861 83.208C241.413 83.16 242.133 83.1 243.021 83.028C243.909 82.956 244.893 82.872 245.973 82.776C247.053 82.656 248.133 82.56 249.213 82.488C249.645 80.976 249.993 79.5 250.257 78.06C250.545 76.596 250.737 75.24 250.833 73.992L255.081 74.748C254.961 75.852 254.769 77.04 254.505 78.312C254.241 79.56 253.917 80.844 253.533 82.164C254.013 82.14 254.445 82.128 254.829 82.128C255.213 82.104 255.549 82.092 255.837 82.092C256.797 82.092 257.649 82.248 258.393 82.56C259.161 82.848 259.773 83.376 260.229 84.144C260.685 84.888 260.949 85.932 261.021 87.276C261.093 88.596 260.937 90.288 260.553 92.352C260.073 94.944 259.521 96.972 258.897 98.436C258.297 99.9 257.541 100.932 256.629 101.532C255.717 102.132 254.553 102.432 253.137 102.432C252.465 102.432 251.805 102.36 251.157 102.216C250.509 102.096 249.909 101.892 249.357 101.604C249.381 101.052 249.381 100.368 249.357 99.552C249.333 98.736 249.261 98.064 249.141 97.536C250.341 98.064 251.517 98.328 252.669 98.328C253.245 98.328 253.737 98.172 254.145 97.86C254.577 97.524 254.985 96.876 255.369 95.916C255.753 94.932 256.137 93.492 256.521 91.596C256.881 89.844 257.025 88.548 256.953 87.708C256.881 86.844 256.653 86.28 256.269 86.016C255.885 85.752 255.405 85.62 254.829 85.62C254.157 85.62 253.353 85.656 252.417 85.728C251.673 87.96 250.821 90.156 249.861 92.316C248.925 94.476 247.941 96.468 246.909 98.292C245.901 100.116 244.905 101.652 243.921 102.9ZM270.165 93.576C269.781 92.928 269.253 92.16 268.581 91.272C267.909 90.384 267.177 89.496 266.385 88.608C265.593 87.696 264.825 86.868 264.081 86.124C263.337 85.356 262.689 84.78 262.137 84.396L265.305 81.732C265.881 82.164 266.553 82.752 267.321 83.496C268.089 84.216 268.881 85.008 269.697 85.872C270.513 86.736 271.269 87.588 271.965 88.428C272.661 89.268 273.201 90 273.585 90.624L270.165 93.576ZM285.141 94.764L284.565 87.42C286.317 87.276 287.649 86.892 288.561 86.268C289.473 85.644 289.929 84.72 289.929 83.496C289.929 82.44 289.641 81.612 289.065 81.012C288.513 80.388 287.721 80.076 286.689 80.076C285.705 80.076 284.913 80.388 284.313 81.012C283.737 81.612 283.353 82.38 283.161 83.316L279.021 82.632C279.189 81.384 279.609 80.292 280.281 79.356C280.977 78.42 281.877 77.688 282.981 77.16C284.085 76.632 285.321 76.368 286.689 76.368C288.177 76.368 289.485 76.656 290.613 77.232C291.765 77.784 292.665 78.6 293.313 79.68C293.961 80.736 294.285 82.008 294.285 83.496C294.285 85.2 293.757 86.58 292.701 87.636C291.669 88.692 290.289 89.436 288.561 89.868L288.237 94.764H285.141ZM286.689 102.504C285.945 102.504 285.297 102.24 284.745 101.712C284.217 101.184 283.953 100.548 283.953 99.804C283.953 99.036 284.217 98.388 284.745 97.86C285.297 97.332 285.945 97.068 286.689 97.068C287.457 97.068 288.105 97.332 288.633 97.86C289.185 98.388 289.461 99.036 289.461 99.804C289.461 100.548 289.185 101.184 288.633 101.712C288.105 102.24 287.457 102.504 286.689 102.504Z" fill="#343434"/>
    <path d="M314.927 105.096V102.756H323.459V86.16H325.979V105.096H314.927Z" fill="#ABC2DA"/>
</svg>
