<svg width="402" height="165" viewBox="0 0 402 165" fill="none" xmlns="http://www.w3.org/2000/svg">
    <path d="M54.824 32.872V23.954C54.3387 24.786 53.836 25.566 53.316 26.294C52.8133 27.022 52.354 27.6113 51.938 28.062C51.8167 27.8887 51.6173 27.6807 51.34 27.438C51.0627 27.178 50.768 26.9353 50.456 26.71C50.1613 26.4673 49.9013 26.2853 49.676 26.164C50.092 25.7653 50.5427 25.2627 51.028 24.656C51.5133 24.0493 51.9813 23.3907 52.432 22.68C52.9 21.952 53.3247 21.224 53.706 20.496C54.1047 19.768 54.4253 19.092 54.668 18.468H50.404V15.712H54.824V13.606C53.4893 13.866 52.3193 14.0393 51.314 14.126C51.2967 13.918 51.2273 13.6493 51.106 13.32C51.002 12.9733 50.872 12.6353 50.716 12.306C50.5773 11.9767 50.4473 11.7253 50.326 11.552C50.898 11.5347 51.626 11.4567 52.51 11.318C53.4113 11.1793 54.3473 10.9973 55.318 10.772C56.2887 10.5467 57.1987 10.2953 58.048 10.018C58.8973 9.74067 59.5733 9.46333 60.076 9.186L61.61 11.63C61.1247 11.8553 60.5527 12.0807 59.894 12.306C59.2353 12.514 58.542 12.7133 57.814 12.904V15.712H61.818V18.468H57.814V19.404C58.1087 19.7507 58.4987 20.1667 58.984 20.652C59.4693 21.1373 59.972 21.6053 60.492 22.056C61.0293 22.5067 61.4887 22.8793 61.87 23.174C61.6967 23.33 61.4887 23.5467 61.246 23.824C61.0033 24.084 60.7693 24.3613 60.544 24.656C60.3187 24.9333 60.1453 25.1847 60.024 25.41C59.7293 25.1327 59.3827 24.786 58.984 24.37C58.5853 23.954 58.1953 23.5207 57.814 23.07V32.872H54.824ZM71.334 32.274C71.2473 31.8753 71.1347 31.4593 70.996 31.026C70.8747 30.5927 70.7447 30.1333 70.606 29.648C69.8433 29.804 68.9507 29.986 67.928 30.194C66.9053 30.3847 65.8567 30.5753 64.782 30.766C63.7247 30.9567 62.728 31.13 61.792 31.286C60.8733 31.442 60.1193 31.5633 59.53 31.65L58.906 28.582C59.2007 28.5473 59.5387 28.5127 59.92 28.478C60.3187 28.4433 60.752 28.4 61.22 28.348C61.532 27.36 61.8353 26.2333 62.13 24.968C62.442 23.6853 62.7453 22.342 63.04 20.938C63.3347 19.534 63.5947 18.1473 63.82 16.778C64.0627 15.3913 64.2707 14.0913 64.444 12.878C64.6173 11.6647 64.7387 10.6073 64.808 9.706L68.084 10.304C67.8933 11.5173 67.6507 12.8953 67.356 14.438C67.0787 15.9633 66.7667 17.5407 66.42 19.17C66.0733 20.782 65.718 22.3507 65.354 23.876C65.0073 25.4013 64.6693 26.762 64.34 27.958C65.2933 27.8193 66.238 27.6807 67.174 27.542C68.11 27.386 68.9507 27.2387 69.696 27.1C69.2453 25.904 68.76 24.7513 68.24 23.642C67.7373 22.5327 67.2607 21.6227 66.81 20.912L69.644 20.002C70.06 20.6607 70.502 21.4753 70.97 22.446C71.438 23.3993 71.8973 24.4047 72.348 25.462C72.7987 26.5193 73.1973 27.542 73.544 28.53C73.908 29.5007 74.1853 30.35 74.376 31.078L71.334 32.274ZM82.8 32.196C82.4187 31.9533 81.9247 31.702 81.318 31.442C80.7113 31.1993 80.1827 31.026 79.732 30.922C80.1827 30.2807 80.6507 29.466 81.136 28.478C81.6213 27.4727 82.1067 26.3633 82.592 25.15C83.0773 23.9193 83.5453 22.6453 83.996 21.328C84.4467 19.9933 84.854 18.6847 85.218 17.402C84.23 17.4887 83.294 17.5493 82.41 17.584C81.5433 17.6187 80.824 17.6187 80.252 17.584L79.966 14.464C80.6767 14.5333 81.5693 14.5593 82.644 14.542C83.736 14.5247 84.8627 14.464 86.024 14.36C86.2493 13.4587 86.4227 12.6267 86.544 11.864C86.6827 11.1013 86.7693 10.4253 86.804 9.836L90.054 10.278C89.9847 10.7807 89.8807 11.344 89.742 11.968C89.6033 12.5747 89.4473 13.2333 89.274 13.944C89.9847 13.8227 90.652 13.6927 91.276 13.554C91.9 13.398 92.4287 13.242 92.862 13.086L93.33 15.998C92.7927 16.1713 92.0907 16.3533 91.224 16.544C90.3747 16.7173 89.4473 16.8733 88.442 17.012C88.0607 18.3813 87.636 19.794 87.168 21.25C86.7 22.6887 86.2147 24.0927 85.712 25.462C85.2093 26.8313 84.7067 28.0967 84.204 29.258C83.7187 30.402 83.2507 31.3813 82.8 32.196ZM100.428 31.104C98.556 31.3987 96.788 31.468 95.124 31.312C93.4773 31.156 92.0387 30.818 90.808 30.298C89.5947 29.778 88.6847 29.128 88.078 28.348L89.664 26.008C90.2707 26.632 91.12 27.1433 92.212 27.542C93.3213 27.9233 94.6127 28.1487 96.086 28.218C97.5767 28.27 99.1973 28.1313 100.948 27.802C100.775 28.2353 100.636 28.7813 100.532 29.44C100.445 30.0987 100.411 30.6533 100.428 31.104ZM99.648 21.9C99.076 21.7093 98.4173 21.5447 97.672 21.406C96.9267 21.25 96.138 21.1287 95.306 21.042C94.4913 20.9553 93.6853 20.9033 92.888 20.886C92.108 20.8513 91.3973 20.8513 90.756 20.886L91.146 17.844C91.77 17.8093 92.498 17.818 93.33 17.87C94.1793 17.9047 95.0547 17.9653 95.956 18.052C96.8747 18.1387 97.7413 18.2513 98.556 18.39C99.388 18.5113 100.099 18.6413 100.688 18.78L99.648 21.9ZM116.782 32.508C116.73 32.2133 116.626 31.858 116.47 31.442C116.331 31.0433 116.167 30.6533 115.976 30.272C115.785 29.8733 115.586 29.5527 115.378 29.31C118.273 29.5353 120.552 29.3187 122.216 28.66C123.88 27.984 124.712 26.9353 124.712 25.514C124.712 24.7513 124.391 24.1447 123.75 23.694C123.126 23.2433 122.329 23.018 121.358 23.018C120.231 23.018 119.087 23.2347 117.926 23.668C116.765 24.084 115.716 24.7947 114.78 25.8C114.711 25.8867 114.633 25.982 114.546 26.086C114.477 26.1727 114.399 26.2593 114.312 26.346L111.79 24.552C112.622 23.7373 113.333 22.6367 113.922 21.25C114.511 19.8633 114.971 18.4073 115.3 16.882C112.891 16.9687 110.837 16.9687 109.138 16.882L108.93 13.814C109.693 13.918 110.681 13.9873 111.894 14.022C113.107 14.0393 114.416 14.022 115.82 13.97C116.028 12.3233 116.106 10.8327 116.054 9.498H119.33C119.33 10.7633 119.226 12.202 119.018 13.814C120.231 13.7273 121.401 13.6233 122.528 13.502C123.655 13.3807 124.677 13.2507 125.596 13.112C126.515 12.956 127.26 12.7913 127.832 12.618L127.624 15.686C126.601 15.9113 125.275 16.1193 123.646 16.31C122.017 16.4833 120.309 16.622 118.524 16.726C118.351 17.5233 118.151 18.3207 117.926 19.118C117.718 19.9153 117.467 20.6867 117.172 21.432C117.935 21.0333 118.68 20.73 119.408 20.522C120.153 20.2967 120.89 20.184 121.618 20.184C122.849 20.1667 123.941 20.3747 124.894 20.808C125.865 21.2413 126.627 21.8653 127.182 22.68C127.737 23.4773 128.014 24.4393 128.014 25.566C128.014 27.854 127.052 29.6133 125.128 30.844C123.204 32.0747 120.422 32.6293 116.782 32.508ZM136.1 31.494V28.478H142.314L143.744 21.458H138.518V18.39H144.368L145.304 13.814H137.322V10.876H158.122V13.814H148.762L147.826 18.39H155.08V28.478H159.526V31.494H136.1ZM145.746 28.478H151.648V21.458H147.202L145.746 28.478ZM174.814 33.002V26.112H170.732V31.858H167.638V23.668H174.814V22.524H169.926V16.752H182.848V22.524H177.96V23.668H185.344V29.258C185.344 30.2113 185.101 30.9047 184.616 31.338C184.131 31.7713 183.333 31.988 182.224 31.988H180.196C180.161 31.5547 180.075 31.052 179.936 30.48C179.815 29.8907 179.676 29.4227 179.52 29.076H181.288C181.635 29.076 181.877 29.024 182.016 28.92C182.155 28.7987 182.224 28.5647 182.224 28.218V26.112H177.96V33.002H174.814ZM164.986 19.3V13.19H170.056C169.779 12.7393 169.467 12.2627 169.12 11.76C168.791 11.24 168.513 10.85 168.288 10.59L170.94 9.186C171.165 9.42867 171.434 9.784 171.746 10.252C172.075 10.7027 172.379 11.1533 172.656 11.604C172.951 12.0547 173.15 12.3927 173.254 12.618C173.098 12.6873 172.916 12.774 172.708 12.878C172.517 12.9647 172.309 13.0687 172.084 13.19H174.814V9.16H177.96V13.19H180.846C180.326 12.9647 179.893 12.7827 179.546 12.644C179.893 12.1413 180.239 11.5693 180.586 10.928C180.933 10.2693 181.21 9.68 181.418 9.16L184.226 10.356C184.053 10.72 183.819 11.1707 183.524 11.708C183.229 12.2453 182.935 12.7393 182.64 13.19H187.84V19.3H184.876V15.686H167.976V19.3H164.986ZM172.812 20.392H179.962V18.884H172.812V20.392ZM205.312 31.468C203.96 31.3987 202.877 31 202.062 30.272C201.247 29.544 200.849 28.6427 200.866 27.568C200.883 26.9093 201.1 26.3027 201.516 25.748C201.932 25.176 202.521 24.7253 203.284 24.396C204.047 24.0493 204.957 23.876 206.014 23.876C206.569 23.876 207.089 23.902 207.574 23.954C207.557 23.1913 207.531 22.3247 207.496 21.354C207.461 20.3833 207.427 19.326 207.392 18.182C206.317 18.2513 205.277 18.2947 204.272 18.312C203.267 18.312 202.409 18.2947 201.698 18.26L201.49 15.088C202.131 15.192 202.972 15.2527 204.012 15.27C205.069 15.27 206.179 15.244 207.34 15.192C207.323 14.4987 207.305 13.7967 207.288 13.086C207.288 12.358 207.288 11.6213 207.288 10.876H210.33C210.313 11.5347 210.295 12.2107 210.278 12.904C210.278 13.5973 210.278 14.2993 210.278 15.01C211.318 14.9233 212.263 14.828 213.112 14.724C213.961 14.6027 214.603 14.4727 215.036 14.334V17.454C214.551 17.558 213.892 17.6533 213.06 17.74C212.228 17.8267 211.327 17.9133 210.356 18C210.391 19.2653 210.434 20.4787 210.486 21.64C210.538 22.784 210.581 23.7893 210.616 24.656C211.587 25.0027 212.523 25.4447 213.424 25.982C214.325 26.5193 215.209 27.1173 216.076 27.776C215.885 27.932 215.66 28.1747 215.4 28.504C215.157 28.816 214.932 29.1453 214.724 29.492C214.516 29.8213 214.36 30.0987 214.256 30.324C213.095 29.2667 211.899 28.4173 210.668 27.776C210.547 29.1453 210.018 30.1247 209.082 30.714C208.163 31.286 206.907 31.5373 205.312 31.468ZM195.666 31.78C195.545 31.104 195.449 30.2373 195.38 29.18C195.311 28.1053 195.259 26.918 195.224 25.618C195.207 24.3007 195.207 22.9487 195.224 21.562C195.241 20.158 195.285 18.7887 195.354 17.454C195.423 16.1193 195.51 14.8887 195.614 13.762C195.735 12.6353 195.874 11.6993 196.03 10.954L198.994 11.656C198.803 12.2627 198.639 13.0773 198.5 14.1C198.379 15.1227 198.283 16.2667 198.214 17.532C198.145 18.78 198.101 20.0713 198.084 21.406C198.067 22.7407 198.075 24.0407 198.11 25.306C198.162 26.554 198.231 27.698 198.318 28.738C198.422 29.778 198.543 30.6187 198.682 31.26L195.666 31.78ZM205.546 28.816C206.257 28.816 206.785 28.6773 207.132 28.4C207.496 28.1053 207.678 27.5853 207.678 26.84V26.658C207.089 26.5193 206.473 26.4327 205.832 26.398C205.191 26.3807 204.671 26.4847 204.272 26.71C203.891 26.9353 203.691 27.23 203.674 27.594C203.657 27.958 203.821 28.2527 204.168 28.478C204.515 28.7033 204.974 28.816 205.546 28.816ZM227.776 33.08C227.655 32.6987 227.447 32.248 227.152 31.728C226.875 31.2253 226.623 30.8527 226.398 30.61C230.471 29.726 232.933 27.6027 233.782 24.24H231.546V9.914H243.636V24.24H240.828V28.972C240.828 29.18 240.871 29.3273 240.958 29.414C241.062 29.4833 241.227 29.518 241.452 29.518H242.18C242.492 29.518 242.735 29.4573 242.908 29.336C243.099 29.2147 243.237 28.9633 243.324 28.582C243.428 28.2007 243.515 27.6287 243.584 26.866C243.775 26.97 244.035 27.0827 244.364 27.204C244.711 27.3253 245.066 27.438 245.43 27.542C245.811 27.6287 246.132 27.698 246.392 27.75C246.253 29.05 246.037 30.038 245.742 30.714C245.465 31.39 245.083 31.8407 244.598 32.066C244.13 32.3087 243.523 32.43 242.778 32.43H240.438C239.502 32.43 238.826 32.2913 238.41 32.014C238.011 31.754 237.812 31.2773 237.812 30.584V24.24H236.668C236.148 26.6147 235.151 28.5213 233.678 29.96C232.222 31.3813 230.255 32.4213 227.776 33.08ZM221.978 29.18L221.172 26.372C221.588 26.3373 222.099 26.2593 222.706 26.138C223.313 26.0167 223.963 25.8693 224.656 25.696V20.366H221.978V17.766H224.656V13.268H221.796V10.668H230.558V13.268H227.698V17.766H230.194V20.366H227.698V24.942C228.339 24.7513 228.929 24.5693 229.466 24.396C230.021 24.2227 230.48 24.0667 230.844 23.928V26.502C230.341 26.71 229.7 26.944 228.92 27.204C228.14 27.464 227.317 27.724 226.45 27.984C225.583 28.244 224.751 28.4867 223.954 28.712C223.174 28.92 222.515 29.076 221.978 29.18ZM234.666 21.744H240.49V20.054H234.666V21.744ZM234.666 17.87H240.49V16.206H234.666V17.87ZM234.666 14.048H240.49V12.384H234.666V14.048ZM263.11 33.054C262.989 32.9327 262.789 32.768 262.512 32.56C262.235 32.352 261.949 32.1527 261.654 31.962C261.359 31.7713 261.117 31.6413 260.926 31.572C261.758 31.1733 262.581 30.6013 263.396 29.856C264.228 29.1107 264.982 28.3047 265.658 27.438C266.334 26.554 266.845 25.722 267.192 24.942H266.074C265.537 25.878 264.852 26.814 264.02 27.75C263.205 28.6687 262.304 29.5007 261.316 30.246C260.345 30.9913 259.349 31.5807 258.326 32.014C258.222 31.858 258.057 31.6587 257.832 31.416C257.607 31.1733 257.373 30.9393 257.13 30.714C256.887 30.4887 256.679 30.3327 256.506 30.246C257.269 29.9513 258.083 29.5267 258.95 28.972C259.817 28.4 260.631 27.7587 261.394 27.048C262.174 26.3373 262.798 25.6353 263.266 24.942H262.044C261.385 25.6873 260.675 26.372 259.912 26.996C259.167 27.62 258.413 28.1313 257.65 28.53C257.477 28.2873 257.182 27.984 256.766 27.62C256.367 27.256 256.021 26.9873 255.726 26.814C256.454 26.4673 257.182 26.0167 257.91 25.462C258.655 24.9073 259.34 24.3007 259.964 23.642C260.588 22.966 261.091 22.2987 261.472 21.64H259.028V24.266C258.612 24.4913 258.049 24.76 257.338 25.072C256.645 25.3667 255.899 25.67 255.102 25.982C254.305 26.294 253.525 26.58 252.762 26.84C251.999 27.1 251.341 27.308 250.786 27.464L250.032 24.526C250.483 24.4393 250.977 24.3267 251.514 24.188C252.069 24.0493 252.641 23.8933 253.23 23.72V17.22H250.344V14.542H253.23V9.472H256.246V14.542H258.924V17.22H256.246V22.706C256.749 22.5153 257.225 22.3333 257.676 22.16C258.127 21.9867 258.517 21.8133 258.846 21.64H258.43V19.43H274.03V21.64H264.332C264.245 21.8133 264.15 21.9953 264.046 22.186C263.942 22.3767 263.829 22.5673 263.708 22.758H273.432C273.432 23.2607 273.415 23.8673 273.38 24.578C273.345 25.2887 273.285 26.034 273.198 26.814C273.129 27.5767 273.033 28.3047 272.912 28.998C272.808 29.674 272.669 30.2373 272.496 30.688C272.201 31.52 271.794 32.092 271.274 32.404C270.754 32.7333 270.026 32.898 269.09 32.898H267.27C267.235 32.482 267.157 32.014 267.036 31.494C266.915 30.974 266.767 30.5493 266.594 30.22C266.057 30.8093 265.493 31.3467 264.904 31.832C264.315 32.3347 263.717 32.742 263.11 33.054ZM260.458 18.442V9.732H271.742V18.442H260.458ZM266.646 30.142H268.466C268.865 30.142 269.168 30.09 269.376 29.986C269.584 29.8647 269.757 29.6133 269.896 29.232C270.017 28.9373 270.13 28.53 270.234 28.01C270.355 27.4727 270.451 26.9267 270.52 26.372C270.589 25.8 270.633 25.3233 270.65 24.942H269.87C269.523 25.826 269.064 26.7187 268.492 27.62C267.937 28.5213 267.322 29.362 266.646 30.142ZM263.318 16.336H268.882V15.088H263.318V16.336ZM263.318 13.19H268.882V11.968H263.318V13.19ZM281.986 31.676C281.83 31.52 281.587 31.3293 281.258 31.104C280.929 30.8787 280.591 30.6707 280.244 30.48C279.897 30.2893 279.603 30.1593 279.36 30.09C280.088 29.31 280.79 28.3653 281.466 27.256C282.142 26.1293 282.783 24.9073 283.39 23.59C283.997 22.2727 284.534 20.9207 285.002 19.534C284.118 19.638 283.26 19.7593 282.428 19.898C281.613 20.0367 280.937 20.1753 280.4 20.314C280.383 20.0887 280.339 19.7853 280.27 19.404C280.201 19.0227 280.123 18.65 280.036 18.286C279.949 17.9047 279.863 17.6273 279.776 17.454C280.175 17.4193 280.695 17.376 281.336 17.324C281.977 17.2547 282.688 17.1853 283.468 17.116C284.248 17.0293 285.028 16.96 285.808 16.908C286.12 15.816 286.371 14.75 286.562 13.71C286.77 12.6527 286.909 11.6733 286.978 10.772L290.046 11.318C289.959 12.1153 289.821 12.9733 289.63 13.892C289.439 14.7933 289.205 15.7207 288.928 16.674C289.275 16.6567 289.587 16.648 289.864 16.648C290.141 16.6307 290.384 16.622 290.592 16.622C291.285 16.622 291.901 16.7347 292.438 16.96C292.993 17.168 293.435 17.5493 293.764 18.104C294.093 18.6413 294.284 19.3953 294.336 20.366C294.388 21.3193 294.275 22.5413 293.998 24.032C293.651 25.904 293.253 27.3687 292.802 28.426C292.369 29.4833 291.823 30.2287 291.164 30.662C290.505 31.0953 289.665 31.312 288.642 31.312C287.602 31.312 286.692 31.1213 285.912 30.74C285.929 30.324 285.929 29.8213 285.912 29.232C285.895 28.6427 285.843 28.1573 285.756 27.776C286.623 28.1573 287.472 28.348 288.304 28.348C288.72 28.348 289.075 28.2353 289.37 28.01C289.682 27.7673 289.977 27.2993 290.254 26.606C290.531 25.8953 290.809 24.8553 291.086 23.486C291.346 22.2207 291.45 21.2847 291.398 20.678C291.346 20.054 291.181 19.6467 290.904 19.456C290.627 19.2653 290.28 19.17 289.864 19.17C289.379 19.17 288.798 19.196 288.122 19.248C287.585 20.86 286.969 22.446 286.276 24.006C285.6 25.566 284.889 27.0133 284.144 28.348C283.416 29.6653 282.697 30.7747 281.986 31.676ZM300.94 24.916C300.663 24.448 300.281 23.8933 299.796 23.252C299.311 22.6107 298.782 21.9693 298.21 21.328C297.638 20.6693 297.083 20.0713 296.546 19.534C296.009 18.9793 295.541 18.5633 295.142 18.286L297.43 16.362C297.846 16.674 298.331 17.0987 298.886 17.636C299.441 18.156 300.013 18.728 300.602 19.352C301.191 19.976 301.737 20.5913 302.24 21.198C302.743 21.8047 303.133 22.3333 303.41 22.784L300.94 24.916ZM302.11 14.204C301.642 13.7707 301.061 13.3373 300.368 12.904C299.692 12.4533 299.094 12.1153 298.574 11.89L299.666 10.408C299.961 10.5467 300.333 10.7547 300.784 11.032C301.252 11.3093 301.711 11.604 302.162 11.916C302.63 12.2107 302.994 12.4707 303.254 12.696L302.11 14.204ZM300.342 16.7C299.891 16.2667 299.319 15.8247 298.626 15.374C297.95 14.9233 297.352 14.5767 296.832 14.334L297.924 12.878C298.219 13.0167 298.591 13.2333 299.042 13.528C299.51 13.8053 299.969 14.1 300.42 14.412C300.871 14.7067 301.226 14.9667 301.486 15.192L300.342 16.7ZM319.27 33.132C319.062 32.82 318.767 32.4647 318.386 32.066C318.022 31.6673 317.675 31.3293 317.346 31.052C317.831 30.844 318.36 30.5407 318.932 30.142C319.521 29.7433 320.085 29.31 320.622 28.842C321.177 28.374 321.636 27.932 322 27.516H319.894V14.23H323.04C323.127 13.9527 323.222 13.6493 323.326 13.32C323.43 12.9907 323.525 12.6873 323.612 12.41H318.984V13.892H314.642V15.504H318.698V22.862H314.642V23.538C315.249 24.266 315.968 24.9853 316.8 25.696C317.649 26.3893 318.421 26.9613 319.114 27.412C318.819 27.6373 318.499 27.9493 318.152 28.348C317.823 28.7467 317.545 29.1193 317.32 29.466C316.887 29.1367 316.436 28.7727 315.968 28.374C315.517 27.9753 315.075 27.5507 314.642 27.1V33.028H312.042V26.866C311.557 27.5767 311.028 28.2787 310.456 28.972C309.884 29.648 309.295 30.246 308.688 30.766C308.497 30.506 308.194 30.194 307.778 29.83C307.379 29.4487 306.998 29.154 306.634 28.946C307.223 28.4953 307.839 27.9233 308.48 27.23C309.121 26.5367 309.719 25.8087 310.274 25.046C310.846 24.266 311.297 23.538 311.626 22.862H307.96V15.504H312.042V13.892H307.44V11.422H312.042V9.264H314.642V11.422H318.698V9.94H331.256V12.41H326.654C326.567 12.6873 326.472 12.9907 326.368 13.32C326.264 13.632 326.16 13.9353 326.056 14.23H330.32V27.516H327.538C327.919 27.932 328.379 28.374 328.916 28.842C329.453 29.2927 330.008 29.7173 330.58 30.116C331.169 30.4973 331.707 30.8093 332.192 31.052C331.863 31.3293 331.507 31.6673 331.126 32.066C330.762 32.4647 330.476 32.82 330.268 33.132C329.401 32.6293 328.5 31.988 327.564 31.208C326.645 30.4453 325.865 29.6653 325.224 28.868L326.992 27.516H322.546L324.34 28.868C323.699 29.6653 322.91 30.4453 321.974 31.208C321.038 31.988 320.137 32.6293 319.27 33.132ZM322.728 25.176H327.46V23.59H322.728V25.176ZM322.728 21.588H327.46V20.08H322.728V21.588ZM322.728 18.078H327.46V16.57H322.728V18.078ZM310.404 20.522H312.042V17.844H310.404V20.522ZM314.642 20.522H316.28V17.844H314.642V20.522ZM348.702 31.832C346.622 31.832 345.088 31.442 344.1 30.662C343.112 29.8647 342.618 28.894 342.618 27.75C342.618 27.0047 342.8 26.372 343.164 25.852C343.528 25.332 344.005 24.9333 344.594 24.656C345.183 24.3613 345.816 24.214 346.492 24.214C347.775 24.214 348.806 24.6127 349.586 25.41C350.383 26.2073 350.895 27.1953 351.12 28.374C351.761 28.0793 352.281 27.6287 352.68 27.022C353.096 26.4153 353.304 25.6873 353.304 24.838C353.304 24.11 353.131 23.46 352.784 22.888C352.437 22.316 351.943 21.8653 351.302 21.536C350.678 21.1893 349.95 21.016 349.118 21.016C347.957 21.016 346.943 21.1547 346.076 21.432C345.227 21.7093 344.455 22.1513 343.762 22.758C343.45 23.0353 343.034 23.3907 342.514 23.824C342.011 24.2573 341.535 24.6473 341.084 24.994L338.952 22.706C339.732 22.2553 340.564 21.6833 341.448 20.99C342.332 20.2967 343.225 19.5253 344.126 18.676C345.027 17.8267 345.885 16.9513 346.7 16.05C347.515 15.1313 348.243 14.23 348.884 13.346C348.139 13.5193 347.324 13.684 346.44 13.84C345.573 13.996 344.733 14.126 343.918 14.23C343.121 14.334 342.445 14.4033 341.89 14.438L341.318 11.474C341.786 11.5087 342.367 11.5087 343.06 11.474C343.771 11.422 344.533 11.3613 345.348 11.292C346.163 11.2053 346.951 11.1013 347.714 10.98C348.494 10.8587 349.187 10.7373 349.794 10.616C350.418 10.4773 350.877 10.3387 351.172 10.2L353.512 11.76C352.923 12.9213 352.108 14.1433 351.068 15.426C350.045 16.6913 348.945 17.9133 347.766 19.092C348.061 18.9533 348.39 18.8493 348.754 18.78C349.118 18.6933 349.473 18.65 349.82 18.65C351.189 18.65 352.377 18.91 353.382 19.43C354.387 19.95 355.167 20.678 355.722 21.614C356.294 22.5327 356.58 23.6073 356.58 24.838C356.58 26.138 356.251 27.3167 355.592 28.374C354.951 29.4313 354.041 30.272 352.862 30.896C351.683 31.52 350.297 31.832 348.702 31.832ZM348.364 28.972C348.277 28.3133 348.069 27.7847 347.74 27.386C347.428 26.9873 347.012 26.788 346.492 26.788C346.215 26.788 345.981 26.8573 345.79 26.996C345.599 27.1347 345.504 27.3427 345.504 27.62C345.504 27.984 345.695 28.2873 346.076 28.53C346.475 28.7727 347.133 28.9113 348.052 28.946C348.104 28.9633 348.156 28.972 348.208 28.972C348.26 28.972 348.312 28.972 348.364 28.972ZM36.052 69.896V66.906H46.01V53.958H37.664V50.968H57.736V53.958H49.39V66.906H59.374V69.896H36.052ZM77.21 72.054C77.0887 71.9327 76.8894 71.768 76.612 71.56C76.3347 71.352 76.0487 71.1527 75.754 70.962C75.4594 70.7713 75.2167 70.6413 75.026 70.572C75.858 70.1733 76.6814 69.6013 77.496 68.856C78.328 68.1107 79.082 67.3047 79.758 66.438C80.434 65.554 80.9454 64.722 81.292 63.942H80.174C79.6367 64.878 78.952 65.814 78.12 66.75C77.3054 67.6687 76.404 68.5007 75.416 69.246C74.4454 69.9913 73.4487 70.5807 72.426 71.014C72.322 70.858 72.1574 70.6587 71.932 70.416C71.7067 70.1733 71.4727 69.9393 71.23 69.714C70.9874 69.4887 70.7794 69.3327 70.606 69.246C71.3687 68.9513 72.1834 68.5267 73.05 67.972C73.9167 67.4 74.7314 66.7587 75.494 66.048C76.274 65.3373 76.898 64.6353 77.366 63.942H76.144C75.4854 64.6873 74.7747 65.372 74.012 65.996C73.2667 66.62 72.5127 67.1313 71.75 67.53C71.5767 67.2873 71.282 66.984 70.866 66.62C70.4674 66.256 70.1207 65.9873 69.826 65.814C70.554 65.4673 71.282 65.0167 72.01 64.462C72.7554 63.9073 73.44 63.3007 74.064 62.642C74.688 61.966 75.1907 61.2987 75.572 60.64H73.128V63.266C72.712 63.4913 72.1487 63.76 71.438 64.072C70.7447 64.3667 69.9994 64.67 69.202 64.982C68.4047 65.294 67.6247 65.58 66.862 65.84C66.0994 66.1 65.4407 66.308 64.886 66.464L64.132 63.526C64.5827 63.4393 65.0767 63.3267 65.614 63.188C66.1687 63.0493 66.7407 62.8933 67.33 62.72V56.22H64.444V53.542H67.33V48.472H70.346V53.542H73.024V56.22H70.346V61.706C70.8487 61.5153 71.3254 61.3333 71.776 61.16C72.2267 60.9867 72.6167 60.8133 72.946 60.64H72.53V58.43H88.13V60.64H78.432C78.3454 60.8133 78.25 60.9953 78.146 61.186C78.042 61.3767 77.9294 61.5673 77.808 61.758H87.532C87.532 62.2607 87.5147 62.8673 87.48 63.578C87.4454 64.2887 87.3847 65.034 87.298 65.814C87.2287 66.5767 87.1334 67.3047 87.012 67.998C86.908 68.674 86.7694 69.2373 86.596 69.688C86.3014 70.52 85.894 71.092 85.374 71.404C84.854 71.7333 84.126 71.898 83.19 71.898H81.37C81.3354 71.482 81.2574 71.014 81.136 70.494C81.0147 69.974 80.8674 69.5493 80.694 69.22C80.1567 69.8093 79.5934 70.3467 79.004 70.832C78.4147 71.3347 77.8167 71.742 77.21 72.054ZM74.558 57.442V48.732H85.842V57.442H74.558ZM80.746 69.142H82.566C82.9647 69.142 83.268 69.09 83.476 68.986C83.684 68.8647 83.8574 68.6133 83.996 68.232C84.1174 67.9373 84.23 67.53 84.334 67.01C84.4554 66.4727 84.5507 65.9267 84.62 65.372C84.6894 64.8 84.7327 64.3233 84.75 63.942H83.97C83.6234 64.826 83.164 65.7187 82.592 66.62C82.0374 67.5213 81.422 68.362 80.746 69.142ZM77.418 55.336H82.982V54.088H77.418V55.336ZM77.418 52.19H82.982V50.968H77.418V52.19ZM104.9 62.98C104.103 62.98 103.427 62.7027 102.872 62.148C102.317 61.5933 102.04 60.9173 102.04 60.12C102.04 59.3227 102.317 58.6467 102.872 58.092C103.427 57.5373 104.103 57.26 104.9 57.26C105.697 57.26 106.373 57.5373 106.928 58.092C107.483 58.6467 107.76 59.3227 107.76 60.12C107.76 60.9173 107.483 61.5933 106.928 62.148C106.373 62.7027 105.697 62.98 104.9 62.98ZM127.806 71.924V66.334C127.373 67.4087 126.792 68.388 126.064 69.272C125.336 70.156 124.469 70.962 123.464 71.69C123.221 71.3607 122.875 70.9707 122.424 70.52C121.973 70.0867 121.549 69.7573 121.15 69.532C122.693 68.492 123.854 67.2873 124.634 65.918C125.414 64.5487 125.804 62.8413 125.804 60.796V56.454H141.43V64.462H128.404C128.352 64.67 128.3 64.878 128.248 65.086C128.196 65.2767 128.135 65.4673 128.066 65.658H141.586V71.924H127.806ZM122.32 57.806C122.164 57.4593 121.921 57.026 121.592 56.506C121.263 55.986 120.951 55.57 120.656 55.258C121.661 54.946 122.727 54.5213 123.854 53.984C124.998 53.4467 126.107 52.84 127.182 52.164C128.274 51.4707 129.253 50.76 130.12 50.032C130.987 49.2867 131.654 48.55 132.122 47.822L134.93 48.264C135.519 49.0267 136.265 49.7547 137.166 50.448C138.067 51.124 139.047 51.748 140.104 52.32C141.161 52.8747 142.227 53.3687 143.302 53.802C144.377 54.218 145.382 54.556 146.318 54.816C145.989 55.128 145.651 55.5613 145.304 56.116C144.975 56.6707 144.715 57.1473 144.524 57.546C143.519 57.1993 142.487 56.7747 141.43 56.272C140.373 55.7693 139.333 55.2147 138.31 54.608V55.44H128.794V54.452C127.754 55.128 126.671 55.7607 125.544 56.35C124.435 56.922 123.36 57.4073 122.32 57.806ZM130.874 69.688H138.544V67.894H130.874V69.688ZM128.716 62.434H138.414V61.394H128.794C128.777 61.5673 128.768 61.7407 128.768 61.914C128.768 62.0873 128.751 62.2607 128.716 62.434ZM128.794 59.548H138.414V58.508H128.794V59.548ZM130.562 53.23H136.23C135.155 52.4153 134.228 51.5833 133.448 50.734C132.703 51.5313 131.741 52.3633 130.562 53.23ZM162.568 71.924V69.194H154.794V66.854H162.568V65.736H156.614V57.442H162.568V56.402H155.678V54.218H162.568V52.71H154.768V59.6C154.768 62.3387 154.543 64.6787 154.092 66.62C153.659 68.544 153.009 70.182 152.142 71.534C151.934 71.4127 151.665 71.2653 151.336 71.092C151.024 70.936 150.703 70.78 150.374 70.624C150.062 70.4853 149.802 70.39 149.594 70.338C150.374 69.0553 150.955 67.556 151.336 65.84C151.735 64.1067 151.934 62.0873 151.934 59.782V50.214H161.06V48.056H164.258V50.214H173.644V52.71H165.428V54.218H173.072V56.402H165.428V57.442H171.486V65.736H165.428V66.854H173.592V69.194H165.428V71.924H162.568ZM165.428 63.734H168.548V62.46H165.428V63.734ZM165.428 60.692H168.548V59.444H165.428V60.692ZM159.552 63.734H162.568V62.46H159.552V63.734ZM159.552 60.692H162.568V59.444H159.552V60.692ZM192.702 70.234C192.633 69.9567 192.503 69.6273 192.312 69.246C192.121 68.8647 191.896 68.5007 191.636 68.154C191.393 67.79 191.151 67.4953 190.908 67.27C193.283 66.906 195.085 66.1347 196.316 64.956C197.564 63.76 198.223 62.356 198.292 60.744C198.361 59.4613 198.127 58.3173 197.59 57.312C197.053 56.3067 196.316 55.492 195.38 54.868C194.461 54.244 193.447 53.8713 192.338 53.75C192.199 55.362 191.939 57.0087 191.558 58.69C191.177 60.3713 190.657 61.9487 189.998 63.422C189.357 64.8953 188.568 66.1433 187.632 67.166C186.921 67.9287 186.228 68.3707 185.552 68.492C184.893 68.6133 184.191 68.518 183.446 68.206C182.718 67.894 182.077 67.4 181.522 66.724C180.967 66.048 180.543 65.2507 180.248 64.332C179.953 63.396 179.832 62.3993 179.884 61.342C179.971 59.7647 180.343 58.326 181.002 57.026C181.661 55.7087 182.545 54.5733 183.654 53.62C184.763 52.6667 186.037 51.9473 187.476 51.462C188.915 50.9767 190.449 50.7773 192.078 50.864C193.395 50.9333 194.635 51.228 195.796 51.748C196.957 52.268 197.971 52.9873 198.838 53.906C199.722 54.8073 200.398 55.856 200.866 57.052C201.351 58.248 201.551 59.5567 201.464 60.978C201.343 63.3527 200.511 65.346 198.968 66.958C197.425 68.5527 195.337 69.6447 192.702 70.234ZM184.252 64.982C184.443 65.1207 184.642 65.19 184.85 65.19C185.058 65.19 185.266 65.086 185.474 64.878C186.098 64.254 186.67 63.37 187.19 62.226C187.727 61.082 188.169 59.7907 188.516 58.352C188.88 56.9133 189.114 55.4487 189.218 53.958C188.022 54.2353 186.956 54.738 186.02 55.466C185.101 56.194 184.373 57.078 183.836 58.118C183.299 59.1407 182.995 60.2673 182.926 61.498C182.891 62.3127 182.995 63.0233 183.238 63.63C183.498 64.2193 183.836 64.67 184.252 64.982ZM364.302 70.234C364.233 69.9567 364.103 69.6273 363.912 69.246C363.721 68.8647 363.496 68.5007 363.236 68.154C362.993 67.79 362.751 67.4953 362.508 67.27C364.883 66.906 366.685 66.1347 367.916 64.956C369.164 63.76 369.823 62.356 369.892 60.744C369.961 59.4613 369.727 58.3173 369.19 57.312C368.653 56.3067 367.916 55.492 366.98 54.868C366.061 54.244 365.047 53.8713 363.938 53.75C363.799 55.362 363.539 57.0087 363.158 58.69C362.777 60.3713 362.257 61.9487 361.598 63.422C360.957 64.8953 360.168 66.1433 359.232 67.166C358.521 67.9287 357.828 68.3707 357.152 68.492C356.493 68.6133 355.791 68.518 355.046 68.206C354.318 67.894 353.677 67.4 353.122 66.724C352.567 66.048 352.143 65.2507 351.848 64.332C351.553 63.396 351.432 62.3993 351.484 61.342C351.571 59.7647 351.943 58.326 352.602 57.026C353.261 55.7087 354.145 54.5733 355.254 53.62C356.363 52.6667 357.637 51.9473 359.076 51.462C360.515 50.9767 362.049 50.7773 363.678 50.864C364.995 50.9333 366.235 51.228 367.396 51.748C368.557 52.268 369.571 52.9873 370.438 53.906C371.322 54.8073 371.998 55.856 372.466 57.052C372.951 58.248 373.151 59.5567 373.064 60.978C372.943 63.3527 372.111 65.346 370.568 66.958C369.025 68.5527 366.937 69.6447 364.302 70.234ZM355.852 64.982C356.043 65.1207 356.242 65.19 356.45 65.19C356.658 65.19 356.866 65.086 357.074 64.878C357.698 64.254 358.27 63.37 358.79 62.226C359.327 61.082 359.769 59.7907 360.116 58.352C360.48 56.9133 360.714 55.4487 360.818 53.958C359.622 54.2353 358.556 54.738 357.62 55.466C356.701 56.194 355.973 57.078 355.436 58.118C354.899 59.1407 354.595 60.2673 354.526 61.498C354.491 62.3127 354.595 63.0233 354.838 63.63C355.098 64.2193 355.436 64.67 355.852 64.982Z" fill="#151515"/>
    <path d="M220.08 66.126C219.959 65.97 219.759 65.7707 219.482 65.528C219.222 65.268 218.962 65.034 218.702 64.826C218.009 64.8953 217.177 64.982 216.206 65.086C215.253 65.19 214.265 65.2853 213.242 65.372C212.219 65.4587 211.257 65.5367 210.356 65.606C209.455 65.6753 208.718 65.7273 208.146 65.762L207.678 63.318C208.094 63.318 208.753 63.3007 209.654 63.266C210.555 63.2313 211.526 63.188 212.566 63.136V61.784H209.212V59.99C209.108 60.0593 209.004 60.12 208.9 60.172C208.796 60.224 208.692 60.276 208.588 60.328C208.449 60.0507 208.241 59.73 207.964 59.366C207.687 59.002 207.409 58.6987 207.132 58.456C208.831 57.7627 210.018 56.7747 210.694 55.492H207.626V53.308H212.566V52.112H208.822V50.032H212.566V48.186H215.478V50.032H218.754V52.112H215.478V53.308H219.716V55.492H216.492V56.428C216.492 56.7053 216.683 56.844 217.064 56.844C217.497 56.844 217.766 56.7833 217.87 56.662C217.974 56.5233 218.061 56.2027 218.13 55.7C218.39 55.8213 218.745 55.9427 219.196 56.064C219.664 56.168 220.037 56.246 220.314 56.298C220.193 57.286 219.924 57.9707 219.508 58.352C219.109 58.7333 218.529 58.924 217.766 58.924H215.478V59.678H218.65V61.784H215.478V62.98C216.171 62.9453 216.813 62.902 217.402 62.85C217.991 62.798 218.459 62.7547 218.806 62.72L218.832 63.786C220.011 62.8153 220.903 61.5933 221.51 60.12C221.163 59.86 220.825 59.626 220.496 59.418C220.184 59.1927 219.907 59.0193 219.664 58.898L221.12 56.922C221.276 57.0087 221.441 57.1127 221.614 57.234C221.805 57.338 222.004 57.4593 222.212 57.598C222.368 56.714 222.472 55.7347 222.524 54.66H220.08V52.19H222.55V48.368H225.202V52.19H229.778C229.587 53.282 229.414 54.426 229.258 55.622C229.102 56.818 229.015 57.9793 228.998 59.106C228.998 60.2327 229.111 61.2293 229.336 62.096C229.509 61.7493 229.665 61.4113 229.804 61.082C229.96 60.7353 230.073 60.432 230.142 60.172C230.333 60.38 230.627 60.6573 231.026 61.004C231.425 61.3333 231.78 61.602 232.092 61.81C231.849 62.4687 231.563 63.11 231.234 63.734C230.905 64.3407 230.584 64.8433 230.272 65.242C229.943 65.658 229.561 65.8747 229.128 65.892C228.695 65.892 228.331 65.7273 228.036 65.398C227.62 64.9473 227.282 64.3493 227.022 63.604C226.779 62.8413 226.615 61.992 226.528 61.056C226.372 61.212 226.181 61.42 225.956 61.68C225.748 61.94 225.54 62.2 225.332 62.46C225.124 62.72 224.959 62.9453 224.838 63.136C224.682 62.9453 224.5 62.7547 224.292 62.564C224.084 62.356 223.859 62.1393 223.616 61.914C223.2 62.798 222.697 63.5867 222.108 64.28C221.519 64.956 220.843 65.5713 220.08 66.126ZM228.4 72.054C228.157 71.6033 227.828 71.066 227.412 70.442C226.996 69.818 226.554 69.194 226.086 68.57C225.618 67.946 225.159 67.4087 224.708 66.958L226.84 65.268C227.308 65.7187 227.802 66.2473 228.322 66.854C228.842 67.4433 229.336 68.0413 229.804 68.648C230.272 69.2547 230.653 69.8007 230.948 70.286C230.549 70.4767 230.09 70.754 229.57 71.118C229.067 71.482 228.677 71.794 228.4 72.054ZM209.758 72.184C209.481 71.8893 209.099 71.5687 208.614 71.222C208.146 70.8753 207.713 70.6153 207.314 70.442C207.765 70.078 208.233 69.6273 208.718 69.09C209.221 68.5527 209.689 67.9893 210.122 67.4C210.573 66.7933 210.928 66.2387 211.188 65.736L213.788 67.166C213.251 68.102 212.609 69.0207 211.864 69.922C211.136 70.8233 210.434 71.5773 209.758 72.184ZM221.224 71.898C221.155 71.3953 221.042 70.806 220.886 70.13C220.747 69.4713 220.591 68.8213 220.418 68.18C220.262 67.5213 220.097 66.9753 219.924 66.542L222.706 65.788C222.879 66.1867 223.061 66.7153 223.252 67.374C223.443 68.0153 223.616 68.6827 223.772 69.376C223.945 70.052 224.075 70.65 224.162 71.17C223.781 71.222 223.287 71.3173 222.68 71.456C222.091 71.612 221.605 71.7593 221.224 71.898ZM215.79 72.028C215.755 71.5427 215.686 70.962 215.582 70.286C215.478 69.6273 215.365 68.9773 215.244 68.336C215.123 67.6773 215.001 67.1313 214.88 66.698L217.688 66.126C217.844 66.5593 217.991 67.0967 218.13 67.738C218.286 68.3793 218.416 69.038 218.52 69.714C218.641 70.39 218.719 70.9793 218.754 71.482C218.511 71.4993 218.208 71.534 217.844 71.586C217.48 71.6553 217.107 71.7247 216.726 71.794C216.362 71.8633 216.05 71.9413 215.79 72.028ZM226.502 60.9C226.433 59.9467 226.415 58.9327 226.45 57.858C226.502 56.7833 226.615 55.7173 226.788 54.66H225.176C225.107 56.376 224.899 57.91 224.552 59.262C224.951 59.5567 225.315 59.8513 225.644 60.146C225.991 60.4233 226.277 60.6747 226.502 60.9ZM209.758 59.678H212.566V58.144H214.178C214.161 58.0747 214.152 58.0053 214.152 57.936C214.152 57.8667 214.152 57.7887 214.152 57.702V55.492H213.242C212.895 56.3933 212.436 57.1907 211.864 57.884C211.309 58.56 210.607 59.158 209.758 59.678ZM246.314 71.95V63.578H236.876V53.23H246.314V48.264H249.512V53.23H258.95V63.578H249.512V71.95H246.314ZM249.512 60.562H255.726V56.09H249.512V60.562ZM240.152 60.562H246.314V56.09H240.152V60.562ZM270.052 71.352V68.596H272.964V59.886H275.954V68.596H278.034V58.04H272.08V55.31H287.394V58.04H281.076V61.446H286.354V64.28H281.076V68.596H288.122V71.352H270.052ZM267.166 71.794C266.854 71.534 266.464 71.2653 265.996 70.988C265.528 70.7107 265.103 70.5027 264.722 70.364C266.542 68.2493 267.66 65.5713 268.076 62.33C267.643 62.538 267.149 62.7633 266.594 63.006C266.057 63.2487 265.597 63.448 265.216 63.604L264.332 60.614C264.644 60.51 265.043 60.38 265.528 60.224C266.031 60.068 266.533 59.9033 267.036 59.73C267.539 59.5567 267.963 59.4007 268.31 59.262V57.286C267.981 57.442 267.625 57.624 267.244 57.832C266.863 58.04 266.559 58.2133 266.334 58.352C266.195 58.0053 265.996 57.5807 265.736 57.078C265.493 56.5753 265.225 56.0727 264.93 55.57C264.653 55.05 264.384 54.6167 264.124 54.27L266.438 52.996C266.681 53.3427 266.975 53.802 267.322 54.374C267.686 54.946 268.015 55.5093 268.31 56.064V50.76H276.188V48.082H279.438V50.76H288.278V53.386H271.17V58.794C271.17 61.4113 270.823 63.8467 270.13 66.1C269.437 68.3533 268.449 70.2513 267.166 71.794ZM308.662 71.768C308.645 71.4733 308.593 71.118 308.506 70.702C308.437 70.3033 308.35 69.9047 308.246 69.506C308.159 69.1073 308.064 68.7867 307.96 68.544H310.404C310.768 68.544 311.028 68.492 311.184 68.388C311.34 68.2667 311.418 68.0327 311.418 67.686V57.884H305.698V55.518H304.294C303.861 58.0313 303.02 60.4493 301.772 62.772C302.569 63.7253 303.315 64.6873 304.008 65.658C304.719 66.6287 305.343 67.556 305.88 68.44C305.62 68.544 305.317 68.7087 304.97 68.934C304.623 69.1593 304.285 69.3933 303.956 69.636C303.644 69.8613 303.393 70.0693 303.202 70.26C302.821 69.5147 302.353 68.7433 301.798 67.946C301.261 67.1313 300.689 66.3167 300.082 65.502C298.453 67.79 296.581 69.6533 294.466 71.092C294.206 70.728 293.868 70.338 293.452 69.922C293.053 69.4887 292.663 69.1593 292.282 68.934C293.391 68.2753 294.449 67.452 295.454 66.464C296.477 65.4587 297.387 64.332 298.184 63.084C297.439 62.2 296.676 61.368 295.896 60.588C295.133 59.7907 294.405 59.0973 293.712 58.508L295.74 56.636C296.364 57.1387 297.005 57.7107 297.664 58.352C298.34 58.9933 299.007 59.6693 299.666 60.38C300.359 58.8893 300.879 57.2687 301.226 55.518H293.296V52.788H298.288V48.42H301.668V52.788H306.27V55.154H311.418V48.55H314.59V55.154H317.372V57.884H314.59V68.986C314.59 69.9567 314.313 70.6587 313.758 71.092C313.203 71.5427 312.363 71.768 311.236 71.768H308.662ZM307.57 65.658C307.379 65.2073 307.093 64.6613 306.712 64.02C306.348 63.3787 305.949 62.7373 305.516 62.096C305.083 61.4547 304.667 60.926 304.268 60.51L306.634 58.872C307.085 59.3747 307.535 59.9293 307.986 60.536C308.437 61.1253 308.853 61.7233 309.234 62.33C309.633 62.9193 309.953 63.4653 310.196 63.968C309.815 64.1413 309.364 64.3927 308.844 64.722C308.341 65.034 307.917 65.346 307.57 65.658ZM332.244 71.976V66.178C331.395 66.9233 330.459 67.6427 329.436 68.336C328.413 69.0293 327.365 69.662 326.29 70.234C325.215 70.806 324.175 71.2827 323.17 71.664C323.083 71.4213 322.936 71.1267 322.728 70.78C322.537 70.4507 322.329 70.13 322.104 69.818C321.879 69.4887 321.679 69.2373 321.506 69.064C322.425 68.7867 323.387 68.4227 324.392 67.972C325.397 67.504 326.385 66.984 327.356 66.412C328.344 65.8227 329.254 65.1987 330.086 64.54C330.935 63.8813 331.655 63.214 332.244 62.538V61.914H327.382V66.152H324.418V59.418H332.244V58.222H322.156V55.674H332.244V54.114C332.175 54.0793 332.105 54.0533 332.036 54.036C331.984 54.0187 331.932 54.0013 331.88 53.984C332.313 53.568 332.729 53.074 333.128 52.502H330.216C330.355 52.8313 330.493 53.1693 330.632 53.516C330.771 53.8453 330.875 54.1313 330.944 54.374C330.719 54.4087 330.415 54.4693 330.034 54.556C329.653 54.6427 329.28 54.738 328.916 54.842C328.552 54.9287 328.266 55.0067 328.058 55.076C327.989 54.764 327.867 54.3653 327.694 53.88C327.538 53.3947 327.373 52.9353 327.2 52.502H325.952C325.623 53.0393 325.276 53.5507 324.912 54.036C324.565 54.5213 324.236 54.9287 323.924 55.258C323.768 55.154 323.517 55.0153 323.17 54.842C322.823 54.6513 322.468 54.478 322.104 54.322C321.757 54.1487 321.48 54.036 321.272 53.984C321.809 53.4813 322.321 52.8747 322.806 52.164C323.309 51.4533 323.759 50.7253 324.158 49.98C324.557 49.2173 324.86 48.524 325.068 47.9L328.006 48.446C327.902 48.7233 327.789 49.0007 327.668 49.278C327.547 49.5553 327.417 49.8413 327.278 50.136H333.336V52.242C333.839 51.5313 334.289 50.7687 334.688 49.954C335.104 49.1393 335.425 48.4027 335.65 47.744L338.64 48.42C338.536 48.68 338.415 48.9573 338.276 49.252C338.155 49.5467 338.025 49.8413 337.886 50.136H345.192V52.502H341.188C341.327 52.8313 341.457 53.1693 341.578 53.516C341.717 53.8453 341.829 54.1313 341.916 54.374C341.621 54.4087 341.275 54.4693 340.876 54.556C340.477 54.6427 340.087 54.738 339.706 54.842C339.342 54.9287 339.056 55.0067 338.848 55.076C338.779 54.7293 338.666 54.3133 338.51 53.828C338.354 53.3427 338.198 52.9007 338.042 52.502H336.586C336.361 52.8833 336.127 53.256 335.884 53.62C335.641 53.9667 335.399 54.2873 335.156 54.582V55.674H345.27V58.222H335.156V59.418H343.138V63.526C343.138 64.4273 342.913 65.0947 342.462 65.528C342.011 65.9613 341.301 66.178 340.33 66.178H339.654C340.677 66.7847 341.734 67.3393 342.826 67.842C343.918 68.3273 344.949 68.7173 345.92 69.012C345.747 69.2027 345.547 69.4627 345.322 69.792C345.097 70.104 344.88 70.4247 344.672 70.754C344.481 71.1007 344.343 71.3953 344.256 71.638C343.251 71.2567 342.211 70.7887 341.136 70.234C340.061 69.6793 339.013 69.064 337.99 68.388C336.967 67.6947 336.023 66.9753 335.156 66.23V71.976H332.244ZM338.692 65.554C338.623 65.2073 338.536 64.852 338.432 64.488C338.345 64.1067 338.241 63.7773 338.12 63.5H339.238C339.585 63.5 339.81 63.4567 339.914 63.37C340.035 63.266 340.096 63.0753 340.096 62.798V61.914H335.156V62.616C336.075 63.6387 337.253 64.618 338.692 65.554Z" fill="#2E2D2D"/>
    <path d="M348.304 130.758C346.656 130.568 345.199 130.085 343.932 129.309C342.665 128.533 341.675 127.527 340.962 126.291C340.265 125.056 339.917 123.646 339.917 122.062C339.917 120.922 340.186 119.758 340.725 118.57C341.279 117.382 342.103 116.329 343.195 115.41C341.928 115.616 340.661 115.838 339.394 116.075C338.143 116.313 337.002 116.535 335.973 116.74C334.959 116.946 334.175 117.121 333.621 117.263L332.979 114.198C333.502 114.167 334.223 114.095 335.141 113.984C336.076 113.874 337.121 113.739 338.277 113.581C339.449 113.406 340.653 113.224 341.889 113.034C343.14 112.828 344.344 112.622 345.5 112.416C346.672 112.21 347.718 112.012 348.636 111.822C349.571 111.616 350.299 111.434 350.822 111.276L351.582 114.175C351.329 114.19 351.02 114.222 350.656 114.27C350.307 114.317 349.911 114.372 349.468 114.436C348.597 114.547 347.765 114.816 346.973 115.244C346.181 115.671 345.468 116.226 344.835 116.907C344.217 117.588 343.726 118.364 343.362 119.235C342.997 120.106 342.815 121.049 342.815 122.062C342.815 123.282 343.124 124.296 343.742 125.104C344.36 125.911 345.199 126.545 346.26 127.004C347.337 127.448 348.541 127.749 349.872 127.907C349.634 128.145 349.404 128.446 349.183 128.81C348.961 129.158 348.771 129.507 348.612 129.855C348.454 130.22 348.351 130.521 348.304 130.758ZM352.438 119.853C352.137 119.362 351.733 118.839 351.226 118.285C350.735 117.73 350.283 117.287 349.872 116.954L351.155 115.885C351.392 116.075 351.677 116.352 352.01 116.717C352.358 117.081 352.699 117.453 353.032 117.833C353.364 118.198 353.618 118.514 353.792 118.784L352.438 119.853ZM350.299 121.659C349.998 121.152 349.602 120.621 349.111 120.067C348.62 119.512 348.169 119.061 347.757 118.712L349.064 117.667C349.301 117.857 349.587 118.134 349.919 118.499C350.252 118.863 350.576 119.235 350.893 119.615C351.226 119.995 351.479 120.312 351.654 120.566L350.299 121.659ZM365.339 131.471C365.149 131.154 364.895 130.774 364.578 130.33C364.262 129.887 363.897 129.507 363.485 129.19C365.164 128.715 366.455 128.168 367.358 127.551C368.261 126.917 368.887 126.173 369.235 125.317C368.728 125.571 368.221 125.698 367.714 125.698C366.511 125.698 365.537 125.357 364.792 124.676C364.064 123.995 363.675 123.076 363.628 121.92C363.596 121.128 363.755 120.423 364.103 119.805C364.452 119.172 364.943 118.673 365.576 118.309C366.21 117.944 366.93 117.762 367.738 117.762C367.865 117.762 367.976 117.77 368.071 117.786C368.166 117.786 368.269 117.794 368.38 117.81C368.348 117.524 368.316 117.231 368.285 116.931C368.253 116.63 368.237 116.313 368.237 115.98C366.954 116.028 365.703 116.099 364.483 116.194C363.264 116.289 362.147 116.4 361.133 116.527C360.12 116.638 359.28 116.772 358.615 116.931L358.211 114.175C358.781 114.127 359.581 114.079 360.611 114.032C361.64 113.969 362.812 113.905 364.127 113.842C365.457 113.779 366.827 113.715 368.237 113.652V110.302H370.993V113.533C372.229 113.486 373.409 113.446 374.533 113.414C375.658 113.367 376.664 113.335 377.551 113.319C378.438 113.288 379.135 113.28 379.641 113.295L379.451 116.075C378.533 115.964 377.313 115.901 375.792 115.885C374.288 115.853 372.688 115.853 370.993 115.885C370.993 116.455 371.009 117.033 371.041 117.62C371.088 118.206 371.128 118.768 371.16 119.306C371.936 120.225 372.324 121.445 372.324 122.965C372.324 125.072 371.714 126.846 370.494 128.287C369.275 129.713 367.556 130.774 365.339 131.471ZM367.738 123.322C368.182 123.29 368.53 123.139 368.784 122.87C369.037 122.601 369.164 122.252 369.164 121.825C369.164 121.682 369.148 121.532 369.116 121.373C369.1 121.199 369.077 121.017 369.045 120.827C368.712 120.447 368.293 120.257 367.786 120.257C367.342 120.257 366.97 120.399 366.669 120.684C366.368 120.97 366.226 121.334 366.241 121.777C366.241 122.237 366.376 122.617 366.645 122.918C366.93 123.203 367.295 123.337 367.738 123.322ZM388.147 131.281C387.513 131.281 386.935 131.122 386.413 130.806C385.89 130.505 385.47 130.093 385.153 129.57C384.837 129.032 384.678 128.438 384.678 127.788C384.678 127.139 384.829 126.553 385.13 126.03C385.446 125.507 385.866 125.096 386.389 124.795C386.927 124.478 387.513 124.32 388.147 124.32C388.796 124.32 389.382 124.478 389.905 124.795C390.444 125.111 390.863 125.531 391.164 126.054C391.481 126.577 391.64 127.155 391.64 127.788C391.64 128.438 391.481 129.032 391.164 129.57C390.848 130.093 390.42 130.505 389.881 130.806C389.359 131.122 388.781 131.281 388.147 131.281ZM388.147 129.95C388.749 129.95 389.256 129.744 389.668 129.333C390.095 128.905 390.309 128.398 390.309 127.812C390.309 127.226 390.095 126.719 389.668 126.291C389.256 125.864 388.749 125.65 388.147 125.65C387.561 125.65 387.054 125.864 386.626 126.291C386.215 126.703 386.009 127.21 386.009 127.812C386.009 128.398 386.215 128.905 386.626 129.333C387.054 129.744 387.561 129.95 388.147 129.95Z" fill="#151515"/>
    <path d="M43.2074 132.028C43.0757 131.742 42.8562 131.369 42.5489 130.908C42.2635 130.447 41.9452 129.986 41.594 129.525C41.2647 129.064 40.9464 128.702 40.6391 128.438C44.8318 127.077 48.2892 125.19 51.0112 122.775C53.7332 120.338 55.6979 117.243 56.9052 113.489C55.8735 113.511 54.6991 113.544 53.382 113.588C52.0869 113.632 50.7478 113.676 49.3649 113.72C47.9819 113.764 46.6538 113.808 45.3806 113.852C44.1294 113.896 43.0318 113.939 42.0879 113.983C41.144 114.005 40.4525 114.027 40.0135 114.049L39.75 109.637C40.3866 109.681 41.2208 109.714 42.2525 109.736C43.3062 109.758 44.4587 109.769 45.7099 109.769C46.9612 109.769 48.2563 109.769 49.5954 109.769C50.9344 109.747 52.2186 109.725 53.4479 109.703C54.6991 109.659 55.8296 109.615 56.8394 109.571C57.8492 109.527 58.6504 109.472 59.2431 109.406L61.9102 110.822C61.1858 114.335 59.9565 117.485 58.2223 120.272C56.5101 123.038 54.3808 125.42 51.8344 127.418C49.31 129.393 46.4343 130.93 43.2074 132.028ZM64.1822 110.724C63.2822 110.724 62.5029 110.405 61.8444 109.769C61.2078 109.11 60.8895 108.331 60.8895 107.431C60.8895 106.531 61.2078 105.762 61.8444 105.126C62.5029 104.489 63.2822 104.171 64.1822 104.171C65.0822 104.171 65.8505 104.489 66.4871 105.126C67.1237 105.762 67.442 106.531 67.442 107.431C67.442 108.331 67.1237 109.11 66.4871 109.769C65.8505 110.405 65.0822 110.724 64.1822 110.724ZM64.1822 109.308C64.6871 109.308 65.1151 109.132 65.4664 108.781C65.8396 108.408 66.0261 107.958 66.0261 107.431C66.0261 106.926 65.8396 106.498 65.4664 106.147C65.1151 105.773 64.6871 105.587 64.1822 105.587C63.6554 105.587 63.2054 105.773 62.8322 106.147C62.481 106.498 62.3053 106.926 62.3053 107.431C62.3053 107.958 62.481 108.408 62.8322 108.781C63.2054 109.132 63.6554 109.308 64.1822 109.308ZM70.9653 128.504V110.855H90.9851V128.504H70.9653ZM75.0483 124.751H86.9021V114.609H75.0483V124.751ZM103.432 131.896C103.3 131.61 103.091 131.237 102.806 130.776C102.521 130.315 102.202 129.854 101.851 129.393C101.522 128.932 101.204 128.57 100.896 128.307C105.067 126.924 108.513 125.025 111.235 122.61C113.979 120.196 115.955 117.1 117.162 113.325C116.131 113.347 114.956 113.38 113.639 113.424C112.322 113.467 110.972 113.511 109.589 113.555C108.228 113.599 106.911 113.643 105.638 113.687C104.387 113.731 103.289 113.775 102.345 113.819C101.401 113.863 100.71 113.896 100.271 113.917L100.007 109.472C100.644 109.516 101.478 109.549 102.51 109.571C103.541 109.593 104.683 109.604 105.934 109.604C107.207 109.604 108.503 109.604 109.82 109.604C111.159 109.582 112.454 109.56 113.705 109.538C114.956 109.494 116.087 109.45 117.097 109.406C118.106 109.363 118.908 109.319 119.5 109.275L122.167 110.658C121.421 114.17 120.192 117.32 118.48 120.108C116.767 122.874 114.638 125.255 112.092 127.253C109.545 129.229 106.659 130.776 103.432 131.896ZM130.992 129.031V125.738C131.541 125.782 132.561 125.815 134.054 125.837C135.547 125.859 137.336 125.87 139.421 125.87V119.614C138.038 119.614 136.776 119.625 135.635 119.647C134.493 119.647 133.747 119.669 133.396 119.713V116.453C133.901 116.497 134.823 116.53 136.162 116.552C137.523 116.552 139.18 116.552 141.134 116.552C143.021 116.552 144.635 116.541 145.974 116.519C147.335 116.497 148.235 116.475 148.674 116.453V119.713C148.323 119.669 147.631 119.647 146.6 119.647C145.568 119.625 144.273 119.614 142.714 119.614V125.87C144.712 125.848 146.435 125.826 147.884 125.804C149.354 125.782 150.298 125.76 150.715 125.738V129.031C150.189 128.987 149.069 128.954 147.357 128.932C145.667 128.91 143.548 128.899 141.002 128.899C139.575 128.899 138.159 128.91 136.754 128.932C135.349 128.932 134.12 128.943 133.066 128.965C132.035 128.965 131.343 128.987 130.992 129.031ZM165.138 132.423C164.962 131.962 164.699 131.435 164.347 130.842C163.996 130.228 163.656 129.756 163.327 129.426C167.124 128.526 170.187 126.924 172.513 124.619C174.862 122.314 176.311 119.186 176.86 115.235L180.054 115.761C179.571 118.944 178.649 121.622 177.288 123.796C175.949 125.969 174.248 127.747 172.184 129.13C170.143 130.491 167.794 131.589 165.138 132.423ZM163.096 122.314C163.03 121.875 162.888 121.315 162.668 120.635C162.449 119.954 162.196 119.285 161.911 118.626C161.647 117.968 161.406 117.463 161.186 117.111L164.183 116.025C164.402 116.398 164.644 116.925 164.907 117.605C165.171 118.286 165.412 118.977 165.632 119.68C165.873 120.36 166.049 120.942 166.158 121.425L163.096 122.314ZM168.727 121.063C168.683 120.624 168.562 120.064 168.365 119.383C168.167 118.681 167.948 118 167.706 117.342C167.465 116.661 167.234 116.146 167.015 115.794L170.011 114.807C170.209 115.202 170.428 115.739 170.67 116.42C170.933 117.1 171.163 117.792 171.361 118.494C171.581 119.175 171.734 119.757 171.822 120.24L168.727 121.063ZM192.797 132.028L190.558 128.01C192.138 127.659 193.785 127.11 195.497 126.364C197.231 125.596 198.954 124.707 200.666 123.697C202.379 122.665 204.014 121.568 205.573 120.404C207.131 119.219 208.536 118.033 209.787 116.848C211.039 115.641 212.059 114.488 212.85 113.391C212.937 113.764 213.08 114.225 213.278 114.774C213.497 115.322 213.728 115.86 213.969 116.387C214.211 116.892 214.419 117.287 214.595 117.572C213.497 118.955 212.136 120.349 210.512 121.754C208.909 123.159 207.142 124.52 205.21 125.837C203.279 127.132 201.248 128.318 199.119 129.393C197.011 130.447 194.904 131.325 192.797 132.028ZM198.921 114.576C198.636 114.313 198.219 113.994 197.67 113.621C197.143 113.248 196.561 112.864 195.925 112.469C195.288 112.052 194.674 111.678 194.081 111.349C193.51 111.02 193.038 110.778 192.665 110.625L194.904 107.2C195.343 107.42 195.859 107.716 196.452 108.089C197.066 108.462 197.681 108.858 198.296 109.275C198.932 109.67 199.514 110.054 200.041 110.427C200.59 110.8 201.007 111.108 201.292 111.349L198.921 114.576ZM194.344 121.359C193.927 121.008 193.324 120.624 192.533 120.207C191.743 119.768 190.92 119.35 190.064 118.955C189.23 118.538 188.516 118.231 187.923 118.033L189.965 114.477C190.602 114.719 191.337 115.048 192.171 115.465C193.027 115.882 193.85 116.31 194.641 116.749C195.431 117.188 196.057 117.561 196.518 117.869L194.344 121.359ZM222.662 130.743V127.714C223.101 127.736 223.847 127.758 224.901 127.78C225.977 127.802 227.25 127.813 228.721 127.813C230.213 127.813 231.794 127.813 233.462 127.813H235.372V124.586H233.594C232.518 124.586 231.41 124.586 230.268 124.586C229.149 124.586 228.073 124.597 227.041 124.619C226.031 124.619 225.153 124.63 224.407 124.652C223.683 124.674 223.178 124.696 222.892 124.718V121.655C223.353 121.677 224.1 121.699 225.131 121.721C226.185 121.743 227.436 121.765 228.885 121.787C230.356 121.787 231.926 121.787 233.594 121.787H235.372V118.824H233.232C232.156 118.824 231.047 118.824 229.906 118.824C228.786 118.824 227.711 118.835 226.679 118.857C225.669 118.857 224.791 118.868 224.045 118.89C223.299 118.911 222.783 118.933 222.497 118.955V115.893C222.958 115.915 223.705 115.937 224.736 115.959C225.79 115.981 227.041 116.003 228.49 116.025C229.961 116.025 231.541 116.025 233.232 116.025C234.571 116.025 235.723 116.014 236.689 115.992C237.655 115.948 238.291 115.915 238.599 115.893V130.645H233.462C232.365 130.645 231.245 130.645 230.104 130.645C228.962 130.645 227.875 130.656 226.844 130.678C225.812 130.678 224.923 130.689 224.177 130.71C223.452 130.71 222.947 130.721 222.662 130.743ZM252.264 133.312C251.978 132.807 251.605 132.214 251.144 131.534C250.683 130.831 250.233 130.304 249.794 129.953C251.945 129.097 253.702 128.142 255.063 127.088C256.424 126.013 257.455 124.74 258.158 123.269C258.882 121.798 259.31 120.042 259.442 118C257.664 118 255.963 118.011 254.338 118.033C252.714 118.033 251.331 118.044 250.189 118.066C249.048 118.066 248.301 118.077 247.95 118.099L247.786 114.148C248.137 114.17 248.894 114.192 250.058 114.214C251.221 114.214 252.626 114.225 254.272 114.247C255.941 114.247 257.686 114.247 259.508 114.247V106.542H263.591V114.247C265.215 114.247 266.73 114.247 268.135 114.247C269.562 114.225 270.769 114.214 271.757 114.214C272.745 114.192 273.403 114.17 273.732 114.148V118.099C273.469 118.077 272.843 118.066 271.856 118.066C270.868 118.044 269.649 118.033 268.201 118.033C266.752 118.011 265.204 118 263.558 118C263.426 120.415 262.954 122.588 262.142 124.52C261.352 126.43 260.144 128.12 258.52 129.591C256.917 131.04 254.832 132.28 252.264 133.312ZM292.501 130.085L290.361 128.373C290.405 128.021 290.427 127.297 290.427 126.199C290.449 125.102 290.459 123.796 290.459 122.281C290.481 120.766 290.492 119.23 290.492 117.671C290.492 115.739 290.481 114.06 290.459 112.633C290.438 111.206 290.405 110.087 290.361 109.275H294.575C294.532 109.67 294.499 110.306 294.477 111.184C294.455 112.041 294.433 113.028 294.411 114.148C294.411 115.267 294.411 116.387 294.411 117.507V124.685C295.355 124.29 296.364 123.807 297.44 123.236C298.538 122.665 299.613 122.062 300.667 121.425C301.743 120.788 302.719 120.163 303.598 119.548C304.476 118.933 305.167 118.374 305.672 117.869C305.672 118.286 305.705 118.802 305.771 119.416C305.859 120.031 305.946 120.624 306.034 121.194C306.144 121.743 306.232 122.138 306.298 122.38C305.573 122.994 304.618 123.675 303.433 124.421C302.269 125.168 301.018 125.903 299.679 126.627C298.34 127.352 297.034 128.021 295.761 128.636C294.51 129.251 293.423 129.734 292.501 130.085ZM278.243 130.842C277.958 130.359 277.53 129.81 276.959 129.196C276.389 128.581 275.862 128.087 275.379 127.714C277.201 126.748 278.661 125.695 279.758 124.553C280.878 123.412 281.69 122.149 282.195 120.766C282.7 119.361 282.974 117.803 283.018 116.091C283.062 114.378 282.941 112.48 282.656 110.394L286.508 110.065C286.969 113.358 287.013 116.299 286.64 118.89C286.289 121.458 285.433 123.719 284.072 125.673C282.711 127.626 280.768 129.349 278.243 130.842Z" fill="#2D83E2"/>
    <line x1="300.552" y1="164.183" x2="332.845" y2="88.9464" stroke="black" stroke-width="0.282843"/>
    <line x1="17.7082" y1="146.649" x2="40.9506" y2="88.9494" stroke="black" stroke-width="0.282843"/>
    <line x1="230.537" y1="141.752" x2="4.26283" y2="141.752" stroke="black" stroke-width="0.282843"/>
    <line x1="322.178" y1="141.752" x2="244.113" y2="141.752" stroke="black" stroke-width="0.282843"/>
    <line x1="80.0646" y1="99.7443" x2="18" y2="99.7443" stroke="black" stroke-width="0.252197"/>
    <line x1="343.674" y1="98.7601" x2="88.5499" y2="98.7601" stroke="black" stroke-width="0.282843"/>
</svg>
