<svg width="918" height="180" viewBox="0 0 918 180" fill="none" xmlns="http://www.w3.org/2000/svg">
    <path d="M22.9935 45.5366V33.4527C22.3359 34.58 21.6548 35.6369 20.9502 36.6234C20.2691 37.6098 19.6467 38.4084 19.083 39.019C18.9186 38.7841 18.6485 38.5023 18.2727 38.1735C17.8969 37.8212 17.4977 37.4924 17.0749 37.187C16.6756 36.8582 16.3233 36.6116 16.018 36.4472C16.5817 35.907 17.1923 35.2259 17.85 34.4039C18.5076 33.5818 19.1417 32.6894 19.7524 31.7264C20.3865 30.74 20.9619 29.7535 21.4787 28.7671C22.0188 27.7806 22.4533 26.8647 22.7822 26.0191H17.0044V22.2848H22.9935V19.4311C21.1851 19.7834 19.5997 20.0183 18.2375 20.1357C18.214 19.8539 18.1201 19.4898 17.9557 19.0436C17.8147 18.5739 17.6386 18.1159 17.4272 17.6696C17.2393 17.2234 17.0632 16.8828 16.8988 16.648C17.6738 16.6245 18.6603 16.5188 19.8581 16.3309C21.0794 16.143 22.3477 15.8964 23.6629 15.5911C24.9782 15.2857 26.2112 14.9452 27.3621 14.5694C28.5129 14.1936 29.4289 13.8178 30.11 13.442L32.1886 16.7536C31.5309 17.059 30.7559 17.3643 29.8634 17.6696C28.9709 17.9515 28.0314 18.2216 27.045 18.4799V22.2848H32.4704V26.0191H27.045V27.2874C27.4443 27.7572 27.9727 28.3208 28.6303 28.9785C29.288 29.6361 29.9691 30.2702 30.6737 30.8809C31.4018 31.4915 32.0242 31.9965 32.5409 32.3958C32.306 32.6071 32.0242 32.9007 31.6954 33.2765C31.3665 33.6288 31.0495 34.0046 30.7441 34.4039C30.4388 34.7797 30.2039 35.1202 30.0395 35.4255C29.6403 35.0498 29.1705 34.58 28.6303 34.0163C28.0901 33.4527 27.5617 32.8655 27.045 32.2548V45.5366H22.9935ZM45.3646 44.7263C45.2472 44.1861 45.0945 43.6224 44.9066 43.0352C44.7422 42.4481 44.566 41.8257 44.3782 41.168C43.3447 41.3794 42.1352 41.626 40.7495 41.9079C39.3637 42.1662 37.9428 42.4246 36.4866 42.6829C35.0539 42.9413 33.7035 43.1762 32.4352 43.3875C31.1904 43.5989 30.1687 43.7633 29.3702 43.8808L28.5247 39.7236C28.9239 39.6766 29.3819 39.6297 29.8986 39.5827C30.4388 39.5357 31.026 39.477 31.6601 39.4065C32.0829 38.0678 32.4939 36.5412 32.8932 34.8266C33.3159 33.0886 33.7269 31.2684 34.1262 29.366C34.5255 27.4636 34.8778 25.5846 35.1831 23.7292C35.5119 21.8503 35.7938 20.0888 36.0286 18.4447C36.2635 16.8006 36.4279 15.3679 36.5219 14.1466L40.9608 14.9569C40.7025 16.601 40.3737 18.4682 39.9744 20.5585C39.5986 22.6253 39.1759 24.7626 38.7061 26.9703C38.2364 29.1546 37.7549 31.2802 37.2617 33.347C36.792 35.4138 36.334 37.2575 35.8877 38.8781C37.1795 38.6902 38.4595 38.5023 39.7278 38.3144C40.9961 38.103 42.1352 37.9034 43.1451 37.7155C42.5344 36.0949 41.8768 34.5331 41.1722 33.0299C40.4911 31.5268 39.8452 30.2937 39.2346 29.3308L43.0746 28.0977C43.6383 28.9902 44.2372 30.0941 44.8714 31.4093C45.5055 32.7011 46.1279 34.0633 46.7386 35.496C47.3492 36.9287 47.8894 38.3144 48.3591 39.6531C48.8524 40.9684 49.2281 42.1192 49.4865 43.1057L45.3646 44.7263ZM60.901 44.6206C60.3843 44.2918 59.7149 43.9512 58.8929 43.5989C58.0709 43.2701 57.3545 43.0352 56.7439 42.8943C57.3545 42.0253 57.9887 40.9214 58.6463 39.5827C59.3039 38.2205 59.9616 36.7173 60.6192 35.0732C61.2768 33.4057 61.9109 31.6794 62.5216 29.8944C63.1323 28.086 63.6842 26.3127 64.1774 24.5747C62.8387 24.6921 61.5704 24.7743 60.3726 24.8213C59.1982 24.8683 58.2235 24.8683 57.4485 24.8213L57.0609 20.5937C58.0239 20.6877 59.2335 20.7229 60.6896 20.6994C62.1693 20.6759 63.6959 20.5937 65.2695 20.4528C65.5749 19.2315 65.8097 18.1041 65.9741 17.0707C66.162 16.0373 66.2795 15.1213 66.3264 14.3228L70.7302 14.9217C70.6362 15.6028 70.4953 16.3661 70.3074 17.2116C70.1195 18.0337 69.9082 18.9262 69.6733 19.8891C70.6362 19.7247 71.5405 19.5486 72.386 19.3607C73.2315 19.1493 73.9479 18.9379 74.535 18.7265L75.1692 22.6723C74.4411 22.9072 73.4899 23.1538 72.3155 23.4121C71.1647 23.647 69.9082 23.8584 68.5459 24.0463C68.0292 25.9017 67.4538 27.8159 66.8197 29.7887C66.1855 31.7381 65.5279 33.6406 64.8468 35.496C64.1657 37.3515 63.4846 39.066 62.8034 40.6396C62.1458 42.1897 61.5117 43.5167 60.901 44.6206ZM84.787 43.1409C82.2504 43.5402 79.8548 43.6341 77.6 43.4228C75.3688 43.2114 73.4194 42.7534 71.7519 42.0488C70.1078 41.3442 68.8747 40.4634 68.0527 39.4065L70.2017 36.2358C71.0238 37.0814 72.1746 37.7742 73.6543 38.3144C75.1574 38.8311 76.9072 39.1364 78.9035 39.2304C80.9234 39.3008 83.1194 39.113 85.4916 38.6667C85.2567 39.2539 85.0688 39.9937 84.9279 40.8862C84.8104 41.7787 84.7635 42.5303 84.787 43.1409ZM83.7301 30.6695C82.955 30.4111 82.0625 30.188 81.0526 30.0001C80.0427 29.7887 78.974 29.6243 77.8467 29.5069C76.7428 29.3895 75.6506 29.319 74.5703 29.2955C73.5134 29.2486 72.5504 29.2486 71.6814 29.2955L72.2098 25.1736C73.0554 25.1266 74.0418 25.1384 75.1692 25.2089C76.32 25.2558 77.5061 25.338 78.7274 25.4555C79.9722 25.5729 81.1465 25.7256 82.2504 25.9134C83.3778 26.0779 84.3407 26.254 85.1393 26.4419L83.7301 30.6695ZM106.947 45.0433C106.876 44.6441 106.735 44.1626 106.524 43.5989C106.336 43.0587 106.113 42.5303 105.854 42.0136C105.596 41.4734 105.326 41.0389 105.044 40.71C108.966 41.0154 112.055 40.7218 114.31 39.8293C116.564 38.9133 117.692 37.4924 117.692 35.5665C117.692 34.5331 117.257 33.711 116.388 33.1004C115.543 32.4897 114.462 32.1844 113.147 32.1844C111.62 32.1844 110.07 32.478 108.497 33.0651C106.923 33.6288 105.502 34.5918 104.234 35.954C104.14 36.0714 104.034 36.2006 103.917 36.3415C103.823 36.459 103.717 36.5764 103.6 36.6938L100.182 34.263C101.31 33.1591 102.273 31.6677 103.071 29.7887C103.87 27.9098 104.492 25.9369 104.939 23.8701C101.674 23.9875 98.8907 23.9875 96.589 23.8701L96.3072 19.713C97.3406 19.8539 98.6793 19.9478 100.323 19.9948C101.967 20.0183 103.741 19.9948 105.643 19.9243C105.925 17.6931 106.031 15.6733 105.96 13.8648H110.399C110.399 15.5793 110.258 17.5287 109.976 19.713C111.62 19.5955 113.206 19.4546 114.732 19.2902C116.259 19.1258 117.645 18.9497 118.89 18.7618C120.134 18.5504 121.144 18.3273 121.919 18.0924L121.638 22.2495C120.252 22.5549 118.455 22.8367 116.247 23.0951C114.04 23.3299 111.726 23.5178 109.307 23.6587C109.072 24.7391 108.802 25.8195 108.497 26.8999C108.215 27.9803 107.874 29.0254 107.475 30.0354C108.508 29.4952 109.518 29.0841 110.505 28.8023C111.515 28.497 112.513 28.3443 113.499 28.3443C115.167 28.3208 116.647 28.6027 117.938 29.1898C119.254 29.777 120.287 30.6225 121.039 31.7264C121.79 32.8068 122.166 34.1103 122.166 35.6369C122.166 38.7372 120.862 41.1211 118.255 42.7886C115.648 44.4562 111.879 45.2077 106.947 45.0433ZM133.123 43.6694V39.5827H141.542L143.48 30.0706H136.399V25.9134H144.326L145.594 19.713H134.778V15.732H162.962V19.713H150.28L149.011 25.9134H158.84V39.5827H164.865V43.6694H133.123ZM146.193 39.5827H154.19V30.0706H148.166L146.193 39.5827ZM185.58 45.7127V36.3768H180.049V44.1626H175.857V33.0651H185.58V31.515H178.957V23.694H196.466V31.515H189.843V33.0651H199.848V40.6396C199.848 41.9314 199.519 42.8708 198.862 43.458C198.204 44.0452 197.124 44.3387 195.621 44.3387H192.873C192.826 43.7516 192.708 43.0705 192.52 42.2954C192.356 41.4969 192.168 40.8627 191.957 40.393H194.352C194.822 40.393 195.151 40.3225 195.339 40.1816C195.527 40.0172 195.621 39.7001 195.621 39.2304V36.3768H189.843V45.7127H185.58ZM172.263 27.1465V18.8674H179.133C178.757 18.2568 178.334 17.6109 177.865 16.9298C177.418 16.2252 177.043 15.6967 176.737 15.3444L180.331 13.442C180.636 13.7708 181 14.2523 181.423 14.8865C181.869 15.4971 182.28 16.1078 182.656 16.7184C183.055 17.3291 183.325 17.7871 183.466 18.0924C183.255 18.1863 183.008 18.3038 182.726 18.4447C182.468 18.5621 182.186 18.703 181.881 18.8674H185.58V13.4068H189.843V18.8674H193.753C193.049 18.5621 192.462 18.3155 191.992 18.1276C192.462 17.4465 192.931 16.6714 193.401 15.8024C193.871 14.9099 194.247 14.1114 194.528 13.4068L198.333 15.0274C198.098 15.5206 197.781 16.1313 197.382 16.8593C196.983 17.5874 196.583 18.2568 196.184 18.8674H203.23V27.1465H199.214V22.2495H176.314V27.1465H172.263ZM182.867 28.6262H192.556V26.5828H182.867V28.6262ZM226.905 43.6341C225.073 43.5402 223.605 43 222.501 42.0136C221.397 41.0271 220.857 39.8058 220.88 38.3496C220.904 37.4571 221.198 36.6351 221.761 35.8835C222.325 35.1085 223.123 34.4978 224.157 34.0516C225.19 33.5818 226.423 33.347 227.856 33.347C228.608 33.347 229.312 33.3822 229.97 33.4527C229.946 32.4193 229.911 31.2449 229.864 29.9297C229.817 28.6144 229.77 27.1817 229.723 25.6316C228.267 25.7256 226.858 25.7843 225.496 25.8078C224.133 25.8078 222.971 25.7843 222.008 25.7373L221.726 21.4392C222.595 21.5802 223.734 21.6624 225.143 21.6858C226.576 21.6858 228.079 21.6506 229.653 21.5802C229.629 20.6407 229.606 19.6895 229.582 18.7265C229.582 17.7401 229.582 16.7419 229.582 15.732H233.704C233.681 16.6245 233.657 17.5405 233.634 18.4799C233.634 19.4194 233.634 20.3706 233.634 21.3335C235.043 21.2161 236.323 21.0869 237.474 20.946C238.625 20.7816 239.494 20.6055 240.081 20.4176V24.6452C239.423 24.7861 238.531 24.9153 237.403 25.0327C236.276 25.1501 235.055 25.2676 233.739 25.385C233.786 27.0995 233.845 28.7436 233.916 30.3172C233.986 31.8673 234.045 33.2295 234.092 34.4039C235.407 34.8736 236.675 35.4725 237.897 36.2006C239.118 36.9287 240.316 37.739 241.49 38.6315C241.232 38.8429 240.926 39.1717 240.574 39.6179C240.245 40.0407 239.94 40.4869 239.658 40.9567C239.376 41.4029 239.165 41.7787 239.024 42.084C237.45 40.6513 235.83 39.5005 234.162 38.6315C233.998 40.4869 233.281 41.8139 232.013 42.6125C230.768 43.3875 229.066 43.7281 226.905 43.6341ZM213.834 44.0569C213.67 43.1409 213.541 41.9666 213.447 40.5339C213.353 39.0777 213.283 37.4689 213.236 35.7074C213.212 33.9224 213.212 32.0904 213.236 30.2115C213.259 28.3091 213.318 26.4536 213.412 24.6452C213.506 22.8367 213.623 21.1691 213.764 19.6425C213.928 18.1159 214.116 16.8476 214.328 15.8377L218.344 16.7889C218.086 17.6109 217.862 18.7148 217.675 20.1005C217.51 21.4862 217.381 23.0363 217.287 24.7509C217.193 26.4419 217.134 28.1917 217.111 30.0001C217.087 31.8086 217.099 33.5701 217.146 35.2846C217.217 36.9757 217.31 38.5258 217.428 39.935C217.569 41.3442 217.733 42.4833 217.921 43.3523L213.834 44.0569ZM227.222 40.0407C228.185 40.0407 228.901 39.8528 229.371 39.477C229.864 39.0777 230.111 38.3731 230.111 37.3632V37.1166C229.312 36.9287 228.478 36.8113 227.609 36.7643C226.74 36.7408 226.036 36.8817 225.496 37.187C224.979 37.4924 224.709 37.8916 224.685 38.3849C224.662 38.8781 224.885 39.2774 225.355 39.5827C225.824 39.888 226.447 40.0407 227.222 40.0407ZM257.343 45.8184C257.179 45.3017 256.897 44.691 256.498 43.9864C256.122 43.3053 255.782 42.8004 255.476 42.4715C260.996 41.2737 264.331 38.3966 265.482 33.8402H262.452V14.4285H278.834V33.8402H275.029V40.2521C275.029 40.5339 275.088 40.7335 275.205 40.851C275.346 40.9449 275.569 40.9919 275.874 40.9919H276.861C277.284 40.9919 277.612 40.9097 277.847 40.7453C278.106 40.5809 278.294 40.2403 278.411 39.7236C278.552 39.2069 278.669 38.4318 278.763 37.3984C279.022 37.5393 279.374 37.692 279.82 37.8564C280.29 38.0208 280.771 38.1735 281.265 38.3144C281.781 38.4318 282.216 38.5258 282.568 38.5963C282.38 40.3578 282.087 41.6965 281.687 42.6125C281.312 43.5285 280.795 44.1391 280.137 44.4444C279.503 44.7732 278.681 44.9377 277.671 44.9377H274.501C273.232 44.9377 272.316 44.7498 271.753 44.374C271.212 44.0217 270.942 43.3758 270.942 42.4363V33.8402H269.392C268.688 37.0579 267.337 39.6414 265.341 41.5908C263.368 43.5167 260.702 44.9259 257.343 45.8184ZM249.487 40.5339L248.395 36.7291C248.959 36.6821 249.652 36.5764 250.474 36.412C251.296 36.2476 252.176 36.0479 253.116 35.8131V28.5909H249.487V25.0679H253.116V18.9731H249.241V15.4501H261.113V18.9731H257.238V25.0679H260.62V28.5909H257.238V34.7914C258.107 34.5331 258.905 34.2864 259.633 34.0516C260.385 33.8167 261.007 33.6053 261.501 33.4174V36.9052C260.82 37.187 259.951 37.5041 258.894 37.8564C257.837 38.2087 256.721 38.561 255.547 38.9133C254.372 39.2656 253.245 39.5944 252.165 39.8998C251.108 40.1816 250.215 40.393 249.487 40.5339ZM266.679 30.4581H274.571V28.1682H266.679V30.4581ZM266.679 25.2089H274.571V22.9541H266.679V25.2089ZM266.679 20.03H274.571V17.7753H266.679V20.03ZM305.221 45.7832C305.057 45.6188 304.787 45.3956 304.411 45.1138C304.035 44.832 303.647 44.5619 303.248 44.3035C302.849 44.0452 302.52 43.869 302.262 43.7751C303.389 43.2349 304.505 42.4598 305.609 41.4499C306.736 40.44 307.758 39.3478 308.674 38.1735C309.59 36.9757 310.282 35.8483 310.752 34.7914H309.237C308.509 36.0597 307.581 37.328 306.454 38.5963C305.35 39.841 304.129 40.9684 302.79 41.9783C301.475 42.9883 300.124 43.7868 298.739 44.374C298.598 44.1626 298.375 43.8925 298.069 43.5637C297.764 43.2349 297.447 42.9178 297.118 42.6125C296.789 42.3071 296.508 42.0958 296.273 41.9783C297.306 41.5791 298.41 41.0036 299.584 40.2521C300.759 39.477 301.862 38.608 302.896 37.645C303.953 36.6821 304.798 35.7309 305.432 34.7914H303.777C302.884 35.8013 301.921 36.7291 300.888 37.5746C299.878 38.4201 298.856 39.113 297.823 39.6531C297.588 39.3243 297.189 38.9133 296.625 38.4201C296.085 37.9269 295.615 37.5628 295.216 37.328C296.202 36.8582 297.189 36.2476 298.175 35.496C299.185 34.7444 300.113 33.9224 300.958 33.0299C301.804 32.1139 302.485 31.2097 303.002 30.3172H299.69V33.8754C299.126 34.1808 298.363 34.5448 297.4 34.9676C296.461 35.3668 295.451 35.7778 294.37 36.2006C293.29 36.6234 292.233 37.0109 291.2 37.3632C290.166 37.7155 289.274 37.9973 288.522 38.2087L287.5 34.2277C288.111 34.1103 288.78 33.9576 289.508 33.7697C290.26 33.5818 291.035 33.3705 291.834 33.1356V24.3281H287.923V20.6994H291.834V13.8296H295.92V20.6994H299.549V24.3281H295.92V31.7616C296.601 31.5033 297.247 31.2567 297.858 31.0218C298.469 30.7869 298.997 30.5521 299.443 30.3172H298.88V27.3226H320.018V30.3172H306.877C306.759 30.5521 306.63 30.7987 306.489 31.057C306.348 31.3154 306.196 31.5737 306.031 31.8321H319.207C319.207 32.5132 319.184 33.3352 319.137 34.2982C319.09 35.2611 319.008 36.2711 318.89 37.328C318.796 38.3614 318.667 39.3478 318.503 40.2873C318.362 41.2033 318.174 41.9666 317.939 42.5772C317.54 43.7046 316.988 44.4797 316.283 44.9024C315.579 45.3487 314.592 45.5718 313.324 45.5718H310.858C310.811 45.0081 310.705 44.374 310.541 43.6694C310.376 42.9648 310.177 42.3893 309.942 41.9431C309.214 42.7416 308.45 43.4697 307.652 44.1274C306.853 44.8085 306.043 45.3604 305.221 45.7832ZM301.628 25.9839V14.1819H316.917V25.9839H301.628ZM310.012 41.8374H312.478C313.019 41.8374 313.43 41.767 313.711 41.626C313.993 41.4616 314.228 41.1211 314.416 40.6044C314.581 40.2051 314.733 39.6531 314.874 38.9485C315.038 38.2205 315.168 37.4806 315.262 36.7291C315.356 35.954 315.414 35.3081 315.438 34.7914H314.381C313.911 35.9892 313.289 37.1988 312.514 38.4201C311.762 39.6414 310.928 40.7805 310.012 41.8374ZM305.503 23.1303H313.042V21.4392H305.503V23.1303ZM305.503 18.8674H313.042V17.2116H305.503V18.8674ZM330.798 43.916C330.587 43.7046 330.258 43.4462 329.812 43.1409C329.365 42.8356 328.907 42.5538 328.438 42.2954C327.968 42.037 327.569 41.8609 327.24 41.767C328.226 40.71 329.177 39.43 330.093 37.9269C331.009 36.4002 331.878 34.7444 332.7 32.9594C333.522 31.1745 334.251 29.3425 334.885 27.4636C333.687 27.6045 332.524 27.7689 331.397 27.9568C330.293 28.1447 329.377 28.3326 328.649 28.5205C328.626 28.2151 328.567 27.8041 328.473 27.2874C328.379 26.7707 328.273 26.2657 328.156 25.7725C328.038 25.2558 327.921 24.88 327.803 24.6452C328.344 24.5982 329.048 24.5395 329.917 24.469C330.786 24.3751 331.749 24.2811 332.806 24.1872C333.863 24.0697 334.92 23.9758 335.977 23.9053C336.4 22.4257 336.74 20.9812 336.999 19.572C337.28 18.1394 337.468 16.8124 337.562 15.5911L341.719 16.3309C341.602 17.4113 341.414 18.5739 341.156 19.8187C340.897 21.04 340.58 22.2965 340.204 23.5883C340.674 23.5648 341.097 23.553 341.473 23.553C341.849 23.5296 342.177 23.5178 342.459 23.5178C343.399 23.5178 344.232 23.6705 344.96 23.9758C345.712 24.2576 346.311 24.7743 346.757 25.5259C347.203 26.254 347.462 27.2757 347.532 28.5909C347.603 29.8827 347.45 31.5385 347.074 33.5584C346.605 36.0949 346.064 38.0795 345.454 39.5122C344.867 40.9449 344.127 41.9548 343.234 42.542C342.342 43.1292 341.203 43.4228 339.817 43.4228C338.408 43.4228 337.175 43.1644 336.118 42.6477C336.141 42.084 336.141 41.4029 336.118 40.6044C336.094 39.8058 336.024 39.1482 335.906 38.6315C337.081 39.1482 338.232 39.4065 339.359 39.4065C339.923 39.4065 340.404 39.2539 340.803 38.9485C341.226 38.6197 341.625 37.9856 342.001 37.0461C342.377 36.0832 342.753 34.674 343.129 32.8185C343.481 31.104 343.622 29.8357 343.551 29.0137C343.481 28.1682 343.258 27.6162 342.882 27.3579C342.506 27.0995 342.036 26.9703 341.473 26.9703C340.815 26.9703 340.028 27.0056 339.112 27.076C338.384 29.2603 337.55 31.4093 336.611 33.5231C335.695 35.6369 334.732 37.5981 333.722 39.4065C332.736 41.1915 331.761 42.6947 330.798 43.916ZM356.481 34.7562C356.105 34.122 355.588 33.3705 354.931 32.5015C354.273 31.6325 353.557 30.7634 352.782 29.8944C352.006 29.0019 351.255 28.1917 350.527 27.4636C349.799 26.712 349.165 26.1483 348.624 25.7725L351.725 23.1655C352.288 23.5883 352.946 24.1637 353.698 24.8918C354.449 25.5964 355.224 26.3714 356.023 27.217C356.821 28.0625 357.561 28.8963 358.242 29.7183C358.923 30.5403 359.452 31.2567 359.828 31.8673L356.481 34.7562ZM358.066 20.2414C357.432 19.6543 356.645 19.0671 355.706 18.4799C354.79 17.8693 353.979 17.4113 353.275 17.1059L354.754 15.0978C355.154 15.2857 355.659 15.5676 356.269 15.9434C356.903 16.3191 357.526 16.7184 358.137 17.1412C358.771 17.5405 359.264 17.8928 359.616 18.1981L358.066 20.2414ZM355.67 23.6235C355.06 23.0363 354.285 22.4374 353.345 21.8268C352.429 21.2161 351.619 20.7464 350.914 20.4176L352.394 18.4447C352.793 18.6326 353.298 18.9262 353.909 19.3254C354.543 19.7012 355.165 20.1005 355.776 20.5233C356.387 20.9225 356.868 21.2748 357.221 21.5802L355.67 23.6235ZM381.318 45.8889C381.036 45.4661 380.637 44.9846 380.12 44.4444C379.627 43.9042 379.157 43.4462 378.711 43.0705C379.368 42.7886 380.085 42.3776 380.86 41.8374C381.658 41.2972 382.422 40.71 383.15 40.0759C383.901 39.4418 384.524 38.8429 385.017 38.2792H382.163V20.2766H386.426C386.544 19.9009 386.673 19.4898 386.814 19.0436C386.955 18.5974 387.084 18.1863 387.201 17.8105H380.93V19.8187H375.047V22.0029H380.543V31.973H375.047V32.889C375.869 33.8754 376.844 34.8501 377.971 35.8131C379.122 36.7525 380.167 37.5276 381.106 38.1383C380.707 38.4436 380.273 38.8663 379.803 39.4065C379.357 39.9467 378.981 40.4517 378.676 40.9214C378.088 40.4752 377.478 39.982 376.844 39.4418C376.233 38.9016 375.634 38.3262 375.047 37.7155V45.7479H371.524V37.3984C370.866 38.3614 370.15 39.3126 369.375 40.2521C368.6 41.168 367.801 41.9783 366.979 42.6829C366.721 42.3306 366.31 41.9079 365.746 41.4146C365.206 40.8979 364.689 40.4987 364.196 40.2168C364.995 39.6062 365.828 38.8311 366.697 37.8916C367.566 36.9522 368.377 35.9657 369.128 34.9323C369.903 33.8754 370.514 32.889 370.96 31.973H365.993V22.0029H371.524V19.8187H365.288V16.4718H371.524V13.5477H375.047V16.4718H380.543V14.4637H397.559V17.8105H391.323C391.206 18.1863 391.077 18.5974 390.936 19.0436C390.795 19.4664 390.654 19.8774 390.513 20.2766H396.291V38.2792H392.521C393.038 38.8429 393.66 39.4418 394.388 40.0759C395.116 40.6866 395.868 41.262 396.643 41.8022C397.441 42.3189 398.17 42.7416 398.827 43.0705C398.381 43.4462 397.899 43.9042 397.383 44.4444C396.89 44.9846 396.502 45.4661 396.22 45.8889C395.046 45.2077 393.825 44.3387 392.556 43.2818C391.311 42.2484 390.255 41.1915 389.386 40.1111L391.781 38.2792H385.757L388.188 40.1111C387.319 41.1915 386.25 42.2484 384.982 43.2818C383.714 44.3387 382.492 45.2077 381.318 45.8889ZM386.003 35.1085H392.415V32.9594H386.003V35.1085ZM386.003 30.2467H392.415V28.2034H386.003V30.2467ZM386.003 25.4907H392.415V23.4474H386.003V25.4907ZM369.304 28.8023H371.524V25.1736H369.304V28.8023ZM375.047 28.8023H377.266V25.1736H375.047V28.8023ZM421.198 44.1274C418.38 44.1274 416.301 43.5989 414.963 42.542C413.624 41.4616 412.954 40.1464 412.954 38.5963C412.954 37.5863 413.201 36.7291 413.694 36.0245C414.187 35.3199 414.833 34.7797 415.632 34.4039C416.43 34.0046 417.288 33.805 418.204 33.805C419.942 33.805 421.339 34.3452 422.396 35.4255C423.476 36.5059 424.169 37.8447 424.475 39.4418C425.344 39.0425 426.048 38.4318 426.588 37.6098C427.152 36.7878 427.434 35.8013 427.434 34.6505C427.434 33.664 427.199 32.7833 426.729 32.0082C426.26 31.2332 425.59 30.6225 424.721 30.1763C423.876 29.7065 422.889 29.4717 421.762 29.4717C420.188 29.4717 418.814 29.6596 417.64 30.0354C416.489 30.4111 415.444 31.0101 414.505 31.8321C414.082 32.2079 413.518 32.6894 412.813 33.2765C412.132 33.8637 411.486 34.3921 410.876 34.8619L407.987 31.7616C409.044 31.151 410.171 30.3759 411.369 29.4364C412.567 28.497 413.776 27.4518 414.998 26.301C416.219 25.1501 417.382 23.9641 418.486 22.7427C419.589 21.498 420.576 20.2766 421.445 19.0788C420.435 19.3137 419.331 19.5368 418.133 19.7482C416.959 19.9596 415.82 20.1357 414.716 20.2766C413.636 20.4176 412.72 20.5115 411.968 20.5585L411.193 16.5423C411.827 16.5892 412.614 16.5892 413.553 16.5423C414.516 16.4718 415.55 16.3896 416.654 16.2957C417.757 16.1782 418.826 16.0373 419.859 15.8729C420.916 15.7085 421.856 15.5441 422.678 15.3797C423.523 15.1918 424.146 15.0039 424.545 14.816L427.716 16.9298C426.917 18.5034 425.813 20.1592 424.404 21.8972C423.018 23.6118 421.527 25.2676 419.93 26.8647C420.329 26.6768 420.775 26.5358 421.269 26.4419C421.762 26.3245 422.243 26.2657 422.713 26.2657C424.569 26.2657 426.177 26.618 427.54 27.3226C428.902 28.0272 429.959 29.0137 430.71 30.282C431.485 31.5268 431.873 32.9829 431.873 34.6505C431.873 36.412 431.427 38.0091 430.534 39.4418C429.665 40.8745 428.432 42.0136 426.835 42.8591C425.238 43.7046 423.359 44.1274 421.198 44.1274ZM420.74 40.2521C420.623 39.3596 420.341 38.6432 419.895 38.103C419.472 37.5628 418.908 37.2927 418.204 37.2927C417.828 37.2927 417.511 37.3867 417.252 37.5746C416.994 37.7625 416.865 38.0443 416.865 38.4201C416.865 38.9133 417.123 39.3243 417.64 39.6531C418.18 39.982 419.073 40.1699 420.317 40.2168C420.388 40.2403 420.458 40.2521 420.529 40.2521C420.599 40.2521 420.67 40.2521 420.74 40.2521ZM443.217 42.8591V38.8076H456.71V21.2631H445.401V17.2116H472.599V21.2631H461.29V38.8076H474.818V42.8591H443.217ZM498.986 45.7832C498.822 45.6188 498.552 45.3956 498.176 45.1138C497.8 44.832 497.412 44.5619 497.013 44.3035C496.614 44.0452 496.285 43.869 496.027 43.7751C497.154 43.2349 498.27 42.4598 499.374 41.4499C500.501 40.44 501.523 39.3478 502.439 38.1735C503.355 36.9757 504.047 35.8483 504.517 34.7914H503.002C502.274 36.0597 501.346 37.328 500.219 38.5963C499.115 39.841 497.894 40.9684 496.555 41.9783C495.24 42.9883 493.889 43.7868 492.504 44.374C492.363 44.1626 492.14 43.8925 491.834 43.5637C491.529 43.2349 491.212 42.9178 490.883 42.6125C490.554 42.3071 490.272 42.0958 490.038 41.9783C491.071 41.5791 492.175 41.0036 493.349 40.2521C494.524 39.477 495.627 38.608 496.661 37.645C497.718 36.6821 498.563 35.7309 499.197 34.7914H497.542C496.649 35.8013 495.686 36.7291 494.653 37.5746C493.643 38.4201 492.621 39.113 491.588 39.6531C491.353 39.3243 490.954 38.9133 490.39 38.4201C489.85 37.9269 489.38 37.5628 488.981 37.328C489.967 36.8582 490.954 36.2476 491.94 35.496C492.95 34.7444 493.878 33.9224 494.723 33.0299C495.569 32.1139 496.25 31.2097 496.767 30.3172H493.455V33.8754C492.891 34.1808 492.128 34.5448 491.165 34.9676C490.226 35.3668 489.216 35.7778 488.135 36.2006C487.055 36.6234 485.998 37.0109 484.965 37.3632C483.931 37.7155 483.039 37.9973 482.287 38.2087L481.265 34.2277C481.876 34.1103 482.545 33.9576 483.273 33.7697C484.025 33.5818 484.8 33.3705 485.599 33.1356V24.3281H481.688V20.6994H485.599V13.8296H489.685V20.6994H493.314V24.3281H489.685V31.7616C490.366 31.5033 491.012 31.2567 491.623 31.0218C492.234 30.7869 492.762 30.5521 493.208 30.3172H492.645V27.3226H513.783V30.3172H500.642C500.524 30.5521 500.395 30.7987 500.254 31.057C500.113 31.3154 499.961 31.5737 499.796 31.8321H512.972C512.972 32.5132 512.949 33.3352 512.902 34.2982C512.855 35.2611 512.773 36.2711 512.655 37.328C512.561 38.3614 512.432 39.3478 512.268 40.2873C512.127 41.2033 511.939 41.9666 511.704 42.5772C511.305 43.7046 510.753 44.4797 510.048 44.9024C509.344 45.3487 508.357 45.5718 507.089 45.5718H504.623C504.576 45.0081 504.47 44.374 504.306 43.6694C504.141 42.9648 503.942 42.3893 503.707 41.9431C502.979 42.7416 502.215 43.4697 501.417 44.1274C500.618 44.8085 499.808 45.3604 498.986 45.7832ZM495.393 25.9839V14.1819H510.682V25.9839H495.393ZM503.777 41.8374H506.243C506.784 41.8374 507.195 41.767 507.476 41.626C507.758 41.4616 507.993 41.1211 508.181 40.6044C508.345 40.2051 508.498 39.6531 508.639 38.9485C508.803 38.2205 508.933 37.4806 509.027 36.7291C509.121 35.954 509.179 35.3081 509.203 34.7914H508.146C507.676 35.9892 507.054 37.1988 506.279 38.4201C505.527 39.6414 504.693 40.7805 503.777 41.8374ZM499.268 23.1303H506.807V21.4392H499.268V23.1303ZM499.268 18.8674H506.807V17.2116H499.268V18.8674ZM536.506 33.4879C535.426 33.4879 534.51 33.1121 533.758 32.3605C533.006 31.609 532.631 30.693 532.631 29.6126C532.631 28.5322 533.006 27.6162 533.758 26.8647C534.51 26.1131 535.426 25.7373 536.506 25.7373C537.586 25.7373 538.502 26.1131 539.254 26.8647C540.006 27.6162 540.381 28.5322 540.381 29.6126C540.381 30.693 540.006 31.609 539.254 32.3605C538.502 33.1121 537.586 33.4879 536.506 33.4879ZM567.544 45.607V38.0326C566.957 39.4887 566.17 40.8157 565.183 42.0136C564.197 43.2114 563.022 44.3035 561.66 45.29C561.331 44.8437 560.862 44.3153 560.251 43.7046C559.64 43.1174 559.065 42.6712 558.525 42.3659C560.615 40.9567 562.189 39.3243 563.246 37.4689C564.303 35.6134 564.831 33.3 564.831 30.5286V24.6452H586.004V35.496H568.354C568.284 35.7778 568.213 36.0597 568.143 36.3415C568.072 36.5999 567.99 36.8582 567.896 37.1166H586.216V45.607H567.544ZM560.11 26.4771C559.899 26.0074 559.57 25.4202 559.124 24.7156C558.677 24.011 558.255 23.4473 557.855 23.0246C559.218 22.6018 560.662 22.0264 562.189 21.2983C563.739 20.5702 565.242 19.7482 566.698 18.8322C568.178 17.8928 569.505 16.9298 570.679 15.9434C571.853 14.9334 572.758 13.9352 573.392 12.9488L577.197 13.5477C577.995 14.5811 579.005 15.5676 580.226 16.507C581.448 17.423 582.775 18.2685 584.207 19.0436C585.64 19.7952 587.085 20.4645 588.541 21.0517C589.997 21.6154 591.359 22.0734 592.627 22.4257C592.181 22.8484 591.723 23.4356 591.253 24.1872C590.807 24.9388 590.455 25.5846 590.197 26.1248C588.834 25.6551 587.437 25.0797 586.004 24.3986C584.572 23.7174 583.162 22.9659 581.777 22.1438V23.2712H568.882V21.9325C567.473 22.8484 566.005 23.7057 564.479 24.5042C562.976 25.2793 561.519 25.9369 560.11 26.4771ZM571.701 42.5772H582.094V40.1464H571.701V42.5772ZM568.777 32.7481H581.918V31.3389H568.882C568.859 31.5737 568.847 31.8086 568.847 32.0435C568.847 32.2783 568.824 32.5132 568.777 32.7481ZM568.882 28.8375H581.918V27.4283H568.882V28.8375ZM571.278 20.2766H578.958C577.502 19.1728 576.245 18.0454 575.189 16.8946C574.179 17.975 572.875 19.1023 571.278 20.2766ZM614.646 45.607V41.9079H604.112V38.7372H614.646V37.2223H606.578V25.9839H614.646V24.5747H605.31V21.6154H614.646V19.572H604.077V28.908C604.077 32.6189 603.772 35.7896 603.161 38.4201C602.574 41.0271 601.693 43.2466 600.519 45.0786C600.237 44.9142 599.873 44.7145 599.427 44.4797C599.004 44.2683 598.569 44.0569 598.123 43.8455C597.7 43.6576 597.348 43.5285 597.066 43.458C598.123 41.72 598.91 39.6884 599.427 37.3632C599.967 35.0145 600.237 32.2783 600.237 29.1546V16.19H612.603V13.2659H616.936V16.19H629.654V19.572H618.521V21.6154H628.879V24.5747H618.521V25.9839H626.73V37.2223H618.521V38.7372H629.584V41.9079H618.521V45.607H614.646ZM618.521 34.5096H622.749V32.7833H618.521V34.5096ZM618.521 30.3877H622.749V28.6966H618.521V30.3877ZM610.559 34.5096H614.646V32.7833H610.559V34.5096ZM610.559 30.3877H614.646V28.6966H610.559V30.3877ZM655.478 43.3171C655.384 42.9413 655.208 42.495 654.949 41.9783C654.691 41.4616 654.386 40.9684 654.033 40.4987C653.704 40.0054 653.376 39.6062 653.047 39.3008C656.265 38.8076 658.707 37.7625 660.375 36.1654C662.066 34.5448 662.958 32.6424 663.052 30.4581C663.146 28.7201 662.829 27.17 662.101 25.8078C661.373 24.4455 660.375 23.3417 659.106 22.4961C657.862 21.6506 656.488 21.1457 654.985 20.9813C654.797 23.1655 654.444 25.3967 653.928 27.6749C653.411 29.9532 652.706 32.0904 651.814 34.0868C650.945 36.0832 649.876 37.7742 648.608 39.1599C647.645 40.1933 646.705 40.7923 645.789 40.9567C644.897 41.1211 643.946 40.9919 642.936 40.5691C641.949 40.1464 641.08 39.477 640.329 38.561C639.577 37.645 639.002 36.5647 638.603 35.3199C638.203 34.0516 638.039 32.7011 638.109 31.2684C638.227 29.1311 638.732 27.1817 639.624 25.4202C640.517 23.6352 641.715 22.0969 643.218 20.8051C644.721 19.5133 646.447 18.5386 648.397 17.881C650.346 17.2234 652.424 16.9533 654.632 17.0707C656.417 17.1647 658.096 17.5639 659.67 18.2685C661.244 18.9731 662.618 19.9478 663.792 21.1926C664.99 22.4139 665.906 23.8349 666.54 25.4555C667.198 27.076 667.468 28.8493 667.35 30.7752C667.186 33.9929 666.058 36.6938 663.968 38.8781C661.878 41.0389 659.048 42.5185 655.478 43.3171ZM644.028 36.2006C644.286 36.3885 644.556 36.4825 644.838 36.4825C645.12 36.4825 645.402 36.3415 645.684 36.0597C646.529 35.2142 647.304 34.0163 648.009 32.4662C648.737 30.9161 649.336 29.1664 649.806 27.217C650.299 25.2676 650.616 23.2829 650.757 21.2631C649.136 21.6389 647.692 22.32 646.424 23.3064C645.179 24.2929 644.192 25.4907 643.464 26.8999C642.736 28.2856 642.325 29.8122 642.231 31.4798C642.184 32.5837 642.325 33.5466 642.654 34.3686C643.006 35.1672 643.464 35.7778 644.028 36.2006ZM887.996 43.3171C887.902 42.9413 887.726 42.495 887.467 41.9783C887.209 41.4616 886.904 40.9684 886.551 40.4987C886.222 40.0054 885.894 39.6062 885.565 39.3008C888.782 38.8076 891.225 37.7625 892.893 36.1654C894.584 34.5448 895.476 32.6424 895.57 30.4581C895.664 28.7201 895.347 27.17 894.619 25.8078C893.891 24.4455 892.893 23.3417 891.624 22.4961C890.38 21.6506 889.006 21.1457 887.502 20.9813C887.315 23.1655 886.962 25.3967 886.446 27.6749C885.929 29.9532 885.224 32.0904 884.332 34.0868C883.463 36.0832 882.394 37.7742 881.126 39.1599C880.163 40.1933 879.223 40.7923 878.307 40.9567C877.415 41.1211 876.464 40.9919 875.454 40.5691C874.467 40.1464 873.598 39.477 872.847 38.561C872.095 37.645 871.52 36.5647 871.121 35.3199C870.721 34.0516 870.557 32.7011 870.627 31.2684C870.745 29.1311 871.25 27.1817 872.142 25.4202C873.035 23.6352 874.232 22.0969 875.736 20.8051C877.239 19.5133 878.965 18.5386 880.914 17.881C882.864 17.2234 884.942 16.9533 887.15 17.0707C888.935 17.1647 890.614 17.5639 892.188 18.2685C893.762 18.9731 895.136 19.9478 896.31 21.1926C897.508 22.4139 898.424 23.8349 899.058 25.4555C899.716 27.076 899.986 28.8493 899.868 30.7752C899.704 33.9929 898.576 36.6938 896.486 38.8781C894.396 41.0389 891.566 42.5185 887.996 43.3171ZM876.546 36.2006C876.804 36.3885 877.074 36.4825 877.356 36.4825C877.638 36.4825 877.92 36.3415 878.202 36.0597C879.047 35.2142 879.822 34.0163 880.527 32.4662C881.255 30.9161 881.854 29.1664 882.324 27.217C882.817 25.2676 883.134 23.2829 883.275 21.2631C881.654 21.6389 880.21 22.32 878.942 23.3064C877.697 24.2929 876.71 25.4907 875.982 26.8999C875.254 28.2856 874.843 29.8122 874.749 31.4798C874.702 32.5837 874.843 33.5466 875.172 34.3686C875.524 35.1672 875.982 35.7778 876.546 36.2006Z" fill="#151515"/>
    <path d="M692.575 37.7507C692.41 37.5393 692.14 37.2693 691.765 36.9404C691.412 36.5881 691.06 36.2711 690.708 35.9892C689.768 36.0832 688.641 36.2006 687.326 36.3415C686.034 36.4824 684.695 36.6116 683.309 36.7291C681.924 36.8465 680.62 36.9522 679.399 37.0461C678.178 37.1401 677.179 37.2105 676.404 37.2575L675.77 33.9459C676.334 33.9459 677.226 33.9224 678.448 33.8754C679.669 33.8285 680.984 33.7697 682.393 33.6993V31.8673H677.849V29.4364C677.708 29.5304 677.567 29.6126 677.426 29.6831C677.285 29.7535 677.144 29.824 677.003 29.8944C676.815 29.5187 676.533 29.0841 676.158 28.5909C675.782 28.0977 675.406 27.6867 675.03 27.3579C677.332 26.4184 678.941 25.0797 679.857 23.3417H675.7V20.3823H682.393V18.7618H677.32V15.9434H682.393V13.442H686.339V15.9434H690.778V18.7618H686.339V20.3823H692.082V23.3417H687.713V24.6099C687.713 24.9857 687.971 25.1736 688.488 25.1736C689.075 25.1736 689.439 25.0914 689.58 24.927C689.721 24.7391 689.839 24.3046 689.933 23.6235C690.285 23.7879 690.766 23.9523 691.377 24.1167C692.011 24.2576 692.516 24.3633 692.892 24.4338C692.728 25.7725 692.363 26.7003 691.8 27.217C691.26 27.7337 690.473 27.992 689.439 27.992H686.339V29.0137H690.637V31.8673H686.339V33.4879C687.279 33.4409 688.148 33.3822 688.946 33.3117C689.745 33.2413 690.379 33.1826 690.849 33.1356L690.884 34.58C692.481 33.2648 693.69 31.609 694.513 29.6126C694.043 29.2603 693.585 28.9432 693.139 28.6614C692.716 28.3561 692.34 28.1212 692.011 27.9568L693.984 25.2793C694.195 25.3967 694.419 25.5377 694.653 25.7021C694.912 25.843 695.182 26.0074 695.464 26.1953C695.675 24.9975 695.816 23.6705 695.886 22.2143H692.575V18.8674H695.922V13.6886H699.515V18.8674H705.716C705.457 20.3471 705.222 21.8972 705.011 23.5178C704.8 25.1384 704.682 26.712 704.659 28.2386C704.659 29.7653 704.811 31.1157 705.117 32.2901C705.352 31.8203 705.563 31.3624 705.751 30.9161C705.962 30.4464 706.115 30.0354 706.209 29.6831C706.467 29.9649 706.866 30.3407 707.407 30.8104C707.947 31.2567 708.428 31.6207 708.851 31.9025C708.522 32.795 708.135 33.664 707.689 34.5096C707.242 35.3316 706.808 36.0127 706.385 36.5529C705.939 37.1166 705.422 37.4102 704.835 37.4337C704.248 37.4337 703.755 37.2105 703.355 36.7643C702.792 36.1536 702.334 35.3433 701.981 34.3334C701.652 33.3 701.429 32.1492 701.312 30.8809C701.101 31.0923 700.842 31.3741 700.537 31.7264C700.255 32.0787 699.973 32.431 699.691 32.7833C699.409 33.1356 699.186 33.4409 699.022 33.6993C698.811 33.4409 698.564 33.1826 698.282 32.9242C698 32.6424 697.695 32.3488 697.366 32.0435C696.802 33.2413 696.121 34.3099 695.323 35.2494C694.524 36.1654 693.608 36.9992 692.575 37.7507ZM703.848 45.7832C703.52 45.1725 703.073 44.4444 702.51 43.5989C701.946 42.7534 701.347 41.9079 700.713 41.0623C700.079 40.2168 699.456 39.4887 698.846 38.8781L701.735 36.5881C702.369 37.1988 703.038 37.9151 703.743 38.7372C704.447 39.5357 705.117 40.346 705.751 41.168C706.385 41.9901 706.902 42.7299 707.301 43.3875C706.761 43.6459 706.138 44.0217 705.434 44.5149C704.753 45.0081 704.224 45.4309 703.848 45.7832ZM678.589 45.9593C678.213 45.56 677.696 45.1255 677.038 44.6558C676.404 44.1861 675.817 43.8338 675.277 43.5989C675.888 43.1057 676.522 42.495 677.179 41.767C677.86 41.0389 678.495 40.2755 679.082 39.477C679.692 38.655 680.174 37.9034 680.526 37.2223L684.049 39.1599C683.321 40.4282 682.452 41.673 681.442 42.8943C680.456 44.1156 679.505 45.1373 678.589 45.9593ZM694.125 45.5718C694.031 44.8907 693.878 44.0921 693.667 43.1762C693.479 42.2837 693.268 41.4029 693.033 40.5339C692.821 39.6414 692.598 38.9016 692.363 38.3144L696.133 37.2927C696.368 37.8329 696.615 38.5493 696.873 39.4418C697.131 40.3108 697.366 41.215 697.578 42.1545C697.812 43.0705 697.989 43.8808 698.106 44.5854C697.589 44.6558 696.92 44.785 696.098 44.9729C695.299 45.1843 694.642 45.3839 694.125 45.5718ZM686.762 45.7479C686.715 45.0903 686.621 44.3035 686.48 43.3875C686.339 42.495 686.186 41.6143 686.022 40.7453C685.858 39.8528 685.693 39.113 685.529 38.5258L689.334 37.7507C689.545 38.3379 689.745 39.066 689.933 39.935C690.144 40.804 690.32 41.6965 690.461 42.6125C690.625 43.5285 690.731 44.327 690.778 45.0081C690.449 45.0316 690.038 45.0786 689.545 45.149C689.052 45.243 688.547 45.3369 688.03 45.4309C687.537 45.5248 687.114 45.6305 686.762 45.7479ZM701.277 30.6695C701.183 29.3777 701.159 28.0038 701.206 26.5476C701.277 25.0914 701.429 23.647 701.664 22.2143H699.48C699.386 24.5395 699.104 26.618 698.634 28.45C699.175 28.8493 699.668 29.2486 700.114 29.6478C700.584 30.0236 700.971 30.3642 701.277 30.6695ZM678.589 29.0137H682.393V26.9351H684.578C684.554 26.8412 684.542 26.7472 684.542 26.6533C684.542 26.5593 684.542 26.4536 684.542 26.3362V23.3417H683.309C682.84 24.563 682.217 25.6434 681.442 26.5828C680.691 27.4988 679.739 28.3091 678.589 29.0137ZM728.122 45.6423V34.2982H715.333V20.2766H728.122V13.5477H732.455V20.2766H745.244V34.2982H732.455V45.6423H728.122ZM732.455 30.2115H740.875V24.1519H732.455V30.2115ZM719.772 30.2115H728.122V24.1519H719.772V30.2115ZM760.287 44.832V41.0976H764.233V29.2955H768.284V41.0976H771.103V26.7942H763.035V23.0951H783.785V26.7942H775.225V31.4093H782.376V35.2494H775.225V41.0976H784.772V44.832H760.287ZM756.376 45.4309C755.954 45.0786 755.425 44.7145 754.791 44.3387C754.157 43.963 753.582 43.6811 753.065 43.4932C755.531 40.6278 757.046 36.9992 757.61 32.6071C757.022 32.889 756.353 33.1943 755.601 33.5231C754.873 33.8519 754.251 34.122 753.734 34.3334L752.536 30.282C752.959 30.141 753.499 29.9649 754.157 29.7535C754.838 29.5421 755.519 29.319 756.2 29.0841C756.881 28.8493 757.457 28.6379 757.927 28.45V25.7725C757.48 25.9839 756.999 26.2305 756.482 26.5124C755.965 26.7942 755.554 27.0291 755.249 27.217C755.061 26.7472 754.791 26.1718 754.439 25.4907C754.11 24.8096 753.746 24.1285 753.347 23.4474C752.971 22.7427 752.607 22.1556 752.255 21.6858L755.39 19.9596C755.719 20.4293 756.118 21.0517 756.588 21.8268C757.081 22.6018 757.527 23.3651 757.927 24.1167V16.9298H768.601V13.3011H773.005V16.9298H784.983V20.488H761.802V27.8159C761.802 31.3624 761.332 34.6622 760.393 37.7155C759.453 40.7688 758.115 43.3406 756.376 45.4309ZM812.603 45.3956C812.58 44.9964 812.51 44.5149 812.392 43.9512C812.298 43.411 812.181 42.8708 812.04 42.3306C811.922 41.7904 811.793 41.3559 811.652 41.0271H814.964C815.457 41.0271 815.809 40.9567 816.021 40.8157C816.232 40.6513 816.338 40.3343 816.338 39.8645V26.5828H808.587V23.3769H806.685C806.098 26.7825 804.959 30.0588 803.268 33.2061C804.348 34.4978 805.358 35.8013 806.297 37.1166C807.26 38.4318 808.106 39.6884 808.834 40.8862C808.482 41.0271 808.071 41.2502 807.601 41.5556C807.131 41.8609 806.673 42.178 806.227 42.5068C805.804 42.8121 805.464 43.0939 805.205 43.3523C804.688 42.3424 804.054 41.2972 803.303 40.2168C802.575 39.113 801.8 38.0091 800.978 36.9052C798.77 40.0054 796.233 42.5303 793.368 44.4797C793.016 43.9864 792.558 43.458 791.994 42.8943C791.454 42.3071 790.925 41.8609 790.409 41.5556C791.912 40.6631 793.344 39.5475 794.707 38.2087C796.092 36.8465 797.325 35.3199 798.406 33.6288C797.396 32.431 796.362 31.3036 795.306 30.2467C794.272 29.1664 793.286 28.2269 792.346 27.4283L795.094 24.8918C795.94 25.5729 796.809 26.348 797.701 27.217C798.617 28.086 799.521 29.0019 800.414 29.9649C801.353 27.945 802.058 25.749 802.528 23.3769H791.783V19.6777H798.547V13.7591H803.127V19.6777H809.362V22.8837H816.338V13.9352H820.636V22.8837H824.406V26.5828H820.636V41.626C820.636 42.9413 820.26 43.8925 819.509 44.4797C818.757 45.0903 817.618 45.3956 816.091 45.3956H812.603ZM811.124 37.1166C810.865 36.5059 810.478 35.7661 809.961 34.8971C809.468 34.0281 808.928 33.1591 808.341 32.2901C807.754 31.4211 807.19 30.7047 806.65 30.141L809.856 27.9216C810.466 28.6027 811.077 29.3542 811.688 30.1763C812.298 30.9748 812.862 31.7851 813.379 32.6071C813.919 33.4057 814.353 34.1455 814.682 34.8266C814.165 35.0615 813.555 35.4021 812.85 35.8483C812.169 36.2711 811.594 36.6938 811.124 37.1166ZM844.557 45.6775V37.8212C843.406 38.8311 842.138 39.8058 840.752 40.7453C839.367 41.6847 837.946 42.542 836.489 43.3171C835.033 44.0921 833.624 44.738 832.262 45.2547C832.144 44.9259 831.945 44.5266 831.663 44.0569C831.405 43.6107 831.123 43.1762 830.817 42.7534C830.512 42.3071 830.242 41.9666 830.007 41.7317C831.252 41.3559 832.555 40.8627 833.918 40.2521C835.28 39.6179 836.619 38.9133 837.934 38.1383C839.273 37.3397 840.506 36.4942 841.633 35.6017C842.784 34.7092 843.759 33.805 844.557 32.889V32.0435H837.969V37.786H833.953V28.6614H844.557V27.0408H830.888V23.5883H844.557V21.4745C844.463 21.4275 844.369 21.3923 844.275 21.3688C844.205 21.3453 844.134 21.3218 844.064 21.2983C844.651 20.7346 845.215 20.0653 845.755 19.2902H841.809C841.997 19.7365 842.185 20.1944 842.373 20.6642C842.561 21.1104 842.702 21.498 842.796 21.8268C842.49 21.8737 842.079 21.9559 841.563 22.0734C841.046 22.1908 840.541 22.32 840.048 22.4609C839.554 22.5783 839.167 22.684 838.885 22.778C838.791 22.3552 838.627 21.815 838.392 21.1574C838.181 20.4998 837.957 19.8774 837.723 19.2902H836.031C835.585 20.0183 835.116 20.7112 834.622 21.3688C834.153 22.0264 833.706 22.5783 833.284 23.0246C833.072 22.8837 832.732 22.6958 832.262 22.4609C831.792 22.2026 831.311 21.9677 830.817 21.7563C830.348 21.5214 829.972 21.3688 829.69 21.2983C830.418 20.6172 831.111 19.7952 831.769 18.8322C832.45 17.8693 833.06 16.8828 833.601 15.8729C834.141 14.8395 834.552 13.9 834.834 13.0545L838.815 13.7943C838.674 14.1701 838.521 14.5459 838.357 14.9217C838.192 15.2975 838.016 15.685 837.828 16.0843H846.037V18.9379C846.718 17.975 847.329 16.9415 847.869 15.8377C848.432 14.7338 848.867 13.7356 849.172 12.8431L853.224 13.7591C853.083 14.1114 852.918 14.4872 852.731 14.8865C852.566 15.2857 852.39 15.685 852.202 16.0843H862.102V19.2902H856.676C856.864 19.7365 857.04 20.1944 857.205 20.6642C857.393 21.1104 857.545 21.498 857.663 21.8268C857.263 21.8737 856.794 21.9559 856.254 22.0734C855.713 22.1908 855.185 22.32 854.668 22.4609C854.175 22.5783 853.787 22.684 853.506 22.778C853.412 22.3082 853.259 21.7446 853.048 21.0869C852.836 20.4293 852.625 19.8304 852.413 19.2902H850.441C850.135 19.8069 849.818 20.3119 849.489 20.8051C849.161 21.2748 848.832 21.7093 848.503 22.1086V23.5883H862.207V27.0408H848.503V28.6614H859.319V34.2277C859.319 35.449 859.013 36.3533 858.403 36.9404C857.792 37.5276 856.829 37.8212 855.514 37.8212H854.598C855.983 38.6432 857.416 39.3948 858.896 40.0759C860.375 40.7335 861.773 41.262 863.088 41.6613C862.853 41.9196 862.583 42.2719 862.278 42.7182C861.973 43.1409 861.679 43.5754 861.397 44.0217C861.139 44.4914 860.951 44.8907 860.833 45.2195C859.471 44.7028 858.062 44.0686 856.606 43.3171C855.15 42.5655 853.729 41.7317 852.343 40.8157C850.957 39.8763 849.677 38.9016 848.503 37.8916V45.6775H844.557ZM853.294 36.9757C853.2 36.5059 853.083 36.0245 852.942 35.5312C852.824 35.0145 852.684 34.5683 852.519 34.1925H854.034C854.504 34.1925 854.809 34.1338 854.95 34.0163C855.114 33.8754 855.197 33.6171 855.197 33.2413V32.0435H848.503V32.9947C849.748 34.3804 851.345 35.7074 853.294 36.9757Z" fill="#2E2D2D"/>
    <path d="M683.841 128.413C681.33 128.123 679.108 127.386 677.175 126.203C675.243 125.019 673.734 123.486 672.647 121.602C671.584 119.718 671.053 117.568 671.053 115.153C671.053 113.414 671.463 111.639 672.284 109.827C673.13 108.016 674.386 106.41 676.052 105.009C674.12 105.323 672.188 105.661 670.256 106.023C668.348 106.386 666.609 106.724 665.039 107.038C663.493 107.352 662.297 107.617 661.452 107.835L660.474 103.161C661.271 103.113 662.37 103.004 663.771 102.835C665.196 102.666 666.79 102.461 668.553 102.219C670.34 101.954 672.176 101.676 674.06 101.386C675.968 101.072 677.803 100.758 679.566 100.444C681.354 100.13 682.948 99.8282 684.349 99.5384C685.774 99.2244 686.885 98.9467 687.682 98.7051L688.841 103.125C688.455 103.149 687.984 103.198 687.428 103.27C686.897 103.342 686.293 103.427 685.617 103.524C684.288 103.693 683.02 104.103 681.813 104.755C680.605 105.408 679.518 106.253 678.552 107.291C677.61 108.33 676.861 109.513 676.306 110.842C675.75 112.17 675.473 113.607 675.473 115.153C675.473 117.013 675.944 118.559 676.886 119.79C677.827 121.022 679.108 121.988 680.726 122.689C682.368 123.365 684.204 123.824 686.233 124.065C685.87 124.428 685.52 124.887 685.182 125.442C684.844 125.974 684.554 126.505 684.312 127.036C684.071 127.592 683.914 128.051 683.841 128.413ZM690.145 111.784C689.686 111.035 689.071 110.238 688.298 109.393C687.549 108.547 686.861 107.871 686.233 107.364L688.189 105.734C688.551 106.023 688.986 106.446 689.493 107.002C690.025 107.557 690.544 108.125 691.051 108.704C691.558 109.26 691.945 109.743 692.21 110.154L690.145 111.784ZM686.885 114.537C686.426 113.764 685.822 112.955 685.073 112.11C684.325 111.265 683.636 110.576 683.008 110.045L685.001 108.451C685.363 108.741 685.798 109.163 686.305 109.719C686.812 110.274 687.307 110.842 687.79 111.422C688.298 112.001 688.684 112.484 688.95 112.871L686.885 114.537ZM709.818 129.5C709.528 129.017 709.141 128.437 708.658 127.761C708.175 127.085 707.62 126.505 706.992 126.022C709.552 125.297 711.52 124.464 712.897 123.522C714.274 122.556 715.228 121.421 715.759 120.116C714.986 120.503 714.213 120.696 713.441 120.696C711.605 120.696 710.12 120.177 708.984 119.138C707.873 118.1 707.282 116.699 707.209 114.936C707.161 113.728 707.402 112.653 707.934 111.711C708.465 110.745 709.214 109.984 710.18 109.429C711.146 108.873 712.245 108.596 713.477 108.596C713.67 108.596 713.839 108.608 713.984 108.632C714.129 108.632 714.286 108.644 714.455 108.668C714.407 108.233 714.358 107.787 714.31 107.328C714.262 106.869 714.238 106.386 714.238 105.878C712.281 105.951 710.373 106.06 708.513 106.205C706.654 106.349 704.951 106.519 703.405 106.712C701.859 106.881 700.579 107.086 699.565 107.328L698.949 103.125C699.818 103.053 701.038 102.98 702.608 102.908C704.178 102.811 705.965 102.714 707.97 102.618C709.999 102.521 712.088 102.425 714.238 102.328V97.2198H718.44V102.147C720.324 102.074 722.123 102.014 723.838 101.966C725.553 101.893 727.087 101.845 728.439 101.821C729.792 101.773 730.855 101.76 731.628 101.785L731.338 106.023C729.937 105.854 728.077 105.758 725.758 105.734C723.464 105.685 721.025 105.685 718.44 105.734C718.44 106.603 718.464 107.485 718.513 108.378C718.585 109.272 718.645 110.129 718.694 110.951C719.877 112.351 720.469 114.211 720.469 116.53C720.469 119.742 719.539 122.447 717.679 124.645C715.82 126.819 713.199 128.437 709.818 129.5ZM713.477 117.073C714.153 117.025 714.684 116.795 715.071 116.385C715.457 115.974 715.651 115.443 715.651 114.791C715.651 114.573 715.626 114.344 715.578 114.102C715.554 113.837 715.518 113.559 715.469 113.269C714.962 112.69 714.322 112.4 713.549 112.4C712.873 112.4 712.305 112.617 711.847 113.052C711.388 113.487 711.17 114.042 711.194 114.718C711.194 115.419 711.4 115.998 711.81 116.457C712.245 116.892 712.801 117.097 713.477 117.073ZM744.598 129.21C743.631 129.21 742.75 128.968 741.953 128.485C741.156 128.026 740.516 127.399 740.033 126.601C739.55 125.78 739.308 124.875 739.308 123.884C739.308 122.894 739.538 122 739.996 121.203C740.479 120.406 741.12 119.778 741.917 119.319C742.738 118.836 743.631 118.595 744.598 118.595C745.588 118.595 746.481 118.836 747.278 119.319C748.1 119.803 748.74 120.443 749.199 121.24C749.682 122.037 749.923 122.918 749.923 123.884C749.923 124.875 749.682 125.78 749.199 126.601C748.716 127.399 748.063 128.026 747.242 128.485C746.445 128.968 745.564 129.21 744.598 129.21ZM744.598 127.181C745.515 127.181 746.288 126.867 746.916 126.239C747.568 125.587 747.894 124.814 747.894 123.921C747.894 123.027 747.568 122.254 746.916 121.602C746.288 120.95 745.515 120.624 744.598 120.624C743.704 120.624 742.931 120.95 742.279 121.602C741.651 122.23 741.337 123.003 741.337 123.921C741.337 124.814 741.651 125.587 742.279 126.239C742.931 126.867 743.704 127.181 744.598 127.181Z" fill="#151515"/>
    <path d="M200.836 130.05C200.635 129.615 200.3 129.046 199.832 128.343C199.396 127.64 198.911 126.937 198.375 126.234C197.873 125.531 197.388 124.979 196.919 124.577C203.313 122.502 208.585 119.623 212.736 115.941C216.886 112.226 219.882 107.506 221.723 101.782C220.15 101.815 218.359 101.866 216.351 101.933C214.376 102 212.334 102.067 210.225 102.133C208.116 102.2 206.091 102.267 204.15 102.334C202.242 102.401 200.568 102.468 199.129 102.535C197.689 102.569 196.635 102.602 195.965 102.636L195.564 95.9074C196.534 95.9744 197.806 96.0246 199.38 96.058C200.986 96.0915 202.744 96.1083 204.652 96.1083C206.56 96.1083 208.535 96.1083 210.577 96.1083C212.618 96.0748 214.577 96.0413 216.451 96.0078C218.359 95.9409 220.083 95.8739 221.623 95.807C223.162 95.74 224.384 95.6564 225.288 95.5559L229.355 97.715C228.25 103.071 226.376 107.874 223.732 112.125C221.121 116.343 217.874 119.975 213.991 123.021C210.141 126.033 205.756 128.377 200.836 130.05ZM232.82 97.5643C231.447 97.5643 230.259 97.079 229.255 96.1083C228.284 95.104 227.799 93.9157 227.799 92.5433C227.799 91.1709 228.284 89.9994 229.255 89.0286C230.259 88.0579 231.447 87.5725 232.82 87.5725C234.192 87.5725 235.364 88.0579 236.334 89.0286C237.305 89.9994 237.79 91.1709 237.79 92.5433C237.79 93.9157 237.305 95.104 236.334 96.1083C235.364 97.079 234.192 97.5643 232.82 97.5643ZM232.82 95.4053C233.589 95.4053 234.242 95.1375 234.778 94.6019C235.347 94.0329 235.631 93.3467 235.631 92.5433C235.631 91.7735 235.347 91.1207 234.778 90.5851C234.242 90.0161 233.589 89.7316 232.82 89.7316C232.016 89.7316 231.33 90.0161 230.761 90.5851C230.225 91.1207 229.958 91.7735 229.958 92.5433C229.958 93.3467 230.225 94.0329 230.761 94.6019C231.33 95.1375 232.016 95.4053 232.82 95.4053ZM243.163 124.678V97.7652H273.69V124.678H243.163ZM249.389 118.954H267.464V103.489H249.389V118.954ZM292.67 129.849C292.469 129.414 292.151 128.845 291.716 128.142C291.281 127.439 290.795 126.736 290.26 126.033C289.758 125.33 289.272 124.778 288.804 124.376C295.164 122.268 300.419 119.372 304.57 115.69C308.754 112.008 311.766 107.288 313.607 101.531C312.034 101.564 310.243 101.615 308.235 101.682C306.227 101.749 304.168 101.815 302.059 101.882C299.984 101.949 297.975 102.016 296.034 102.083C294.126 102.15 292.452 102.217 291.013 102.284C289.574 102.351 288.519 102.401 287.85 102.435L287.448 95.6564C288.419 95.7233 289.691 95.7735 291.264 95.807C292.837 95.8405 294.578 95.8572 296.486 95.8572C298.427 95.8572 300.402 95.8572 302.411 95.8572C304.452 95.8237 306.427 95.7903 308.335 95.7568C310.243 95.6898 311.967 95.6229 313.507 95.5559C315.047 95.489 316.269 95.422 317.172 95.3551L321.239 97.4639C320.101 102.82 318.227 107.623 315.616 111.874C313.005 116.092 309.758 119.724 305.875 122.77C301.992 125.782 297.59 128.142 292.67 129.849ZM334.696 125.481V120.46C335.532 120.527 337.089 120.577 339.365 120.611C341.641 120.644 344.369 120.661 347.549 120.661V111.121C345.441 111.121 343.516 111.138 341.775 111.171C340.035 111.171 338.897 111.205 338.361 111.272V106.301C339.131 106.368 340.537 106.418 342.579 106.452C344.654 106.452 347.181 106.452 350.16 106.452C353.039 106.452 355.499 106.435 357.541 106.401C359.617 106.368 360.989 106.334 361.658 106.301V111.272C361.123 111.205 360.068 111.171 358.495 111.171C356.922 111.138 354.947 111.121 352.57 111.121V120.661C355.616 120.627 358.244 120.594 360.453 120.561C362.696 120.527 364.135 120.494 364.771 120.46V125.481C363.968 125.414 362.261 125.364 359.65 125.33C357.073 125.297 353.842 125.28 349.959 125.28C347.784 125.28 345.625 125.297 343.482 125.33C341.34 125.33 339.466 125.347 337.859 125.381C336.286 125.381 335.231 125.414 334.696 125.481ZM386.763 130.653C386.496 129.95 386.094 129.146 385.558 128.243C385.023 127.305 384.504 126.586 384.002 126.084C389.793 124.711 394.462 122.268 398.01 118.753C401.592 115.238 403.801 110.468 404.638 104.443L409.509 105.246C408.772 110.1 407.366 114.184 405.291 117.498C403.249 120.812 400.655 123.523 397.508 125.632C394.395 127.707 390.814 129.381 386.763 130.653ZM383.65 115.238C383.55 114.569 383.332 113.715 382.998 112.678C382.663 111.64 382.278 110.619 381.843 109.615C381.441 108.611 381.073 107.841 380.738 107.305L385.307 105.648C385.642 106.217 386.01 107.021 386.412 108.058C386.814 109.096 387.182 110.15 387.517 111.221C387.885 112.259 388.153 113.146 388.32 113.883L383.65 115.238ZM392.236 113.33C392.169 112.661 391.985 111.807 391.684 110.77C391.383 109.698 391.048 108.661 390.68 107.657C390.312 106.619 389.96 105.832 389.625 105.297L394.194 103.79C394.496 104.393 394.83 105.213 395.199 106.251C395.6 107.288 395.952 108.343 396.253 109.414C396.588 110.452 396.822 111.339 396.956 112.075L392.236 113.33ZM428.94 130.05L425.526 123.925C427.936 123.389 430.446 122.552 433.057 121.414C435.701 120.243 438.329 118.887 440.94 117.347C443.551 115.774 446.045 114.1 448.421 112.326C450.798 110.519 452.94 108.711 454.848 106.903C456.756 105.062 458.313 103.305 459.518 101.631C459.652 102.2 459.869 102.903 460.17 103.74C460.505 104.577 460.857 105.397 461.225 106.2C461.593 106.97 461.911 107.573 462.179 108.008C460.505 110.117 458.43 112.242 455.953 114.385C453.509 116.527 450.815 118.602 447.869 120.611C444.923 122.586 441.827 124.393 438.58 126.033C435.367 127.64 432.153 128.979 428.94 130.05ZM438.279 103.439C437.844 103.037 437.208 102.552 436.371 101.983C435.568 101.414 434.68 100.828 433.71 100.225C432.739 99.5895 431.802 99.0204 430.898 98.5183C430.028 98.0162 429.308 97.648 428.739 97.4137L432.153 92.1919C432.823 92.5266 433.609 92.9785 434.513 93.5475C435.45 94.1166 436.388 94.7191 437.325 95.3551C438.296 95.9576 439.183 96.5434 439.986 97.1124C440.823 97.6815 441.459 98.1501 441.894 98.5183L438.279 103.439ZM431.3 113.782C430.664 113.247 429.743 112.661 428.538 112.025C427.333 111.355 426.078 110.719 424.772 110.117C423.5 109.481 422.412 109.012 421.509 108.711L424.622 103.288C425.592 103.656 426.714 104.159 427.986 104.795C429.291 105.431 430.547 106.083 431.752 106.753C432.957 107.422 433.911 107.991 434.614 108.46L431.3 113.782ZM474.48 128.092V123.473C475.15 123.506 476.288 123.54 477.895 123.573C479.535 123.607 481.476 123.623 483.719 123.623C485.995 123.623 488.405 123.623 490.949 123.623H493.861V118.703H491.15C489.51 118.703 487.819 118.703 486.079 118.703C484.372 118.703 482.731 118.719 481.158 118.753C479.618 118.753 478.28 118.77 477.141 118.803C476.037 118.837 475.267 118.87 474.832 118.904V114.234C475.535 114.268 476.673 114.301 478.246 114.334C479.853 114.368 481.761 114.401 483.97 114.435C486.213 114.435 488.606 114.435 491.15 114.435H493.861V109.916H490.598C488.958 109.916 487.267 109.916 485.526 109.916C483.819 109.916 482.179 109.933 480.606 109.966C479.066 109.966 477.727 109.983 476.589 110.016C475.451 110.05 474.664 110.083 474.229 110.117V105.447C474.932 105.481 476.07 105.514 477.644 105.548C479.25 105.581 481.158 105.615 483.367 105.648C485.61 105.648 488.02 105.648 490.598 105.648C492.64 105.648 494.397 105.631 495.87 105.598C497.343 105.531 498.313 105.481 498.782 105.447V127.941H490.949C489.276 127.941 487.568 127.941 485.828 127.941C484.087 127.941 482.43 127.958 480.857 127.992C479.284 127.992 477.928 128.008 476.79 128.042C475.685 128.042 474.915 128.059 474.48 128.092ZM519.619 132.008C519.184 131.239 518.615 130.335 517.912 129.297C517.209 128.226 516.523 127.423 515.853 126.887C519.134 125.582 521.812 124.125 523.887 122.519C525.962 120.879 527.536 118.937 528.607 116.694C529.711 114.452 530.364 111.774 530.565 108.661C527.854 108.661 525.259 108.677 522.782 108.711C520.305 108.711 518.196 108.728 516.456 108.761C514.715 108.761 513.577 108.778 513.042 108.811L512.791 102.786C513.326 102.82 514.481 102.853 516.255 102.887C518.029 102.887 520.171 102.903 522.682 102.937C525.226 102.937 527.887 102.937 530.665 102.937V91.1877H536.891V102.937C539.368 102.937 541.678 102.937 543.82 102.937C545.996 102.903 547.837 102.887 549.343 102.887C550.85 102.853 551.854 102.82 552.356 102.786V108.811C551.954 108.778 551 108.761 549.494 108.761C547.988 108.728 546.13 108.711 543.921 108.711C541.711 108.677 539.352 108.661 536.841 108.661C536.64 112.343 535.921 115.657 534.682 118.602C533.477 121.515 531.636 124.092 529.159 126.335C526.715 128.544 523.535 130.435 519.619 132.008ZM580.976 127.088L577.712 124.477C577.779 123.941 577.812 122.837 577.812 121.163C577.846 119.489 577.863 117.498 577.863 115.188C577.896 112.878 577.913 110.535 577.913 108.159C577.913 105.213 577.896 102.652 577.863 100.477C577.829 98.3008 577.779 96.5936 577.712 95.3551H584.139C584.072 95.9576 584.022 96.9283 583.988 98.2673C583.955 99.5727 583.921 101.079 583.888 102.786C583.888 104.493 583.888 106.2 583.888 107.908V118.853C585.327 118.251 586.867 117.514 588.507 116.644C590.181 115.774 591.821 114.853 593.428 113.883C595.068 112.912 596.558 111.958 597.896 111.021C599.235 110.083 600.29 109.23 601.06 108.46C601.06 109.096 601.11 109.883 601.21 110.82C601.344 111.757 601.478 112.661 601.612 113.531C601.779 114.368 601.913 114.97 602.014 115.339C600.909 116.276 599.453 117.314 597.645 118.452C595.871 119.59 593.963 120.711 591.921 121.816C589.88 122.92 587.888 123.941 585.946 124.879C584.039 125.816 582.382 126.552 580.976 127.088ZM559.235 128.243C558.8 127.506 558.147 126.669 557.277 125.732C556.406 124.795 555.603 124.042 554.867 123.473C557.645 122 559.871 120.393 561.544 118.653C563.252 116.912 564.49 114.987 565.26 112.878C566.03 110.736 566.448 108.359 566.515 105.749C566.582 103.138 566.398 100.242 565.963 97.0622L571.837 96.5601C572.54 101.581 572.607 106.067 572.038 110.016C571.503 113.933 570.197 117.381 568.122 120.36C566.047 123.339 563.084 125.966 559.235 128.243Z" fill="#2D83E2"/>
    <line x1="593.252" y1="179.602" x2="642.495" y2="64.8768" stroke="black" stroke-width="0.431298"/>
    <line x1="161.953" y1="152.866" x2="197.394" y2="64.8812" stroke="black" stroke-width="0.431298"/>
    <line x1="486.489" y1="145.399" x2="141.45" y2="145.399" stroke="black" stroke-width="0.431298"/>
    <line x1="626.229" y1="145.399" x2="507.191" y2="145.399" stroke="black" stroke-width="0.431298"/>
    <line x1="257.038" y1="79.8416" x2="138" y2="79.8416" stroke="black" stroke-width="0.431298"/>
    <line x1="659.008" y1="79.8416" x2="269.977" y2="79.8416" stroke="black" stroke-width="0.431298"/>
</svg>
