<svg width="89" height="95" viewBox="0 0 89 95" fill="none" xmlns="http://www.w3.org/2000/svg">
    <path d="M27.2844 31.9437C27.2844 31.9437 21.9787 29.6493 20.9651 35.4631C19.9525 41.2769 23.3756 45.1542 27.1987 44.9325C27.1987 44.9325 28.6535 51.3103 31.6798 55.6165C31.6798 55.6165 32.3256 64.9982 30.3904 66.4945L30.1961 64.3341C30.1961 64.3341 27.116 64.8229 23.6794 71.8844L21.5644 72.2319C21.5644 72.2319 15.5199 76.0071 9.21087 80.1401C2.90291 84.2731 1.37268 88.8824 1.15466 93.5228H87.1724C87.1724 93.5228 85.8891 84.9846 80.3715 81.1537C74.853 77.3219 65.9588 71.8937 65.9588 71.8937L64.5432 72.3495C64.5432 72.3495 62.7051 66.2171 57.8881 64.3331L56.8611 65.6046C56.8611 65.6046 56.2576 60.4579 56.8611 54.9927C56.8611 54.9927 59.2086 52.1631 60.9372 44.9036C60.9372 44.9036 65.3957 46.5875 67.1522 38.7113C68.9087 30.8362 61.5406 31.0497 61.5406 31.0497C61.5406 31.0497 58.2239 22.1433 51.544 16.1646C51.544 16.1646 45.5574 24.2985 38.5065 25.0678L42.3977 17.7402C42.3977 17.7402 34.0956 18.8611 27.2844 31.9437Z" fill="white"/>
    <path d="M23.1747 30.1476C22.6101 26.7996 22.6039 23.6959 22.7469 21.3955L21.7565 22.5772C21.4043 22.9989 20.8004 23.1144 20.3156 22.8535C19.8298 22.5916 19.5967 22.0266 19.7583 21.5007C23.6056 8.99853 30.9201 2.0334 42.1192 0.20731C42.9604 0.0701714 43.7901 5.72205e-05 44.5857 5.72205e-05C49.443 5.72205e-05 52.1219 2.51596 53.1619 3.77907C57.2071 3.23671 64.6822 6.97034 66.495 14.416C68.255 21.643 66.6089 28.9742 66.1687 30.6972C49.2712 40.451 39.8612 40.2655 23.1747 30.1476Z" fill="url(#paint0_linear_2526_1035)"/>
    <path d="M57.2268 72.3621C56.8608 72.1115 56.383 72.096 56.0015 72.3217C55.9472 72.3538 50.5477 75.5073 43.8521 75.5218C37.1597 75.5073 31.8053 72.358 31.753 72.3269C31.3705 72.0981 30.8927 72.1146 30.5246 72.3662C30.1565 72.6178 29.9647 73.0671 30.0334 73.5102C30.299 75.2288 32.6799 90.4051 34.5799 93.5245C34.788 93.8672 35.1582 94.1001 35.557 94.1001H52.2385C52.6373 94.1001 53.0075 93.8682 53.2156 93.5245C55.1166 90.4041 57.4565 75.2143 57.7169 73.4947C57.7836 73.0537 57.5929 72.6126 57.2268 72.3621Z" fill="url(#paint1_linear_2526_1035)"/>
    <path d="M21.444 55.6558C20.909 55.2554 20.1641 55.3793 19.7794 55.9345C19.6761 56.0828 17.1888 59.5593 12.6363 57.5041C12.031 57.232 11.3298 57.5185 11.0676 58.1457C10.8055 58.7717 11.0826 59.5006 11.6857 59.7738C13.0146 60.3733 14.2518 60.6167 15.3772 60.6167C18.5156 60.6167 20.7801 58.723 21.7115 57.3835C22.0972 56.8294 21.9768 56.0551 21.444 55.6558Z" fill="#D64B57"/>
    <path d="M9.66709 62.8657C9.65081 62.8782 8.05595 64.0814 7.17862 63.0936C6.89568 62.7731 6.87126 62.5222 6.88245 62.339C6.92724 61.6177 7.68446 60.8006 7.94196 60.5737C8.21574 60.3385 8.36231 59.9836 8.34297 59.6193C8.32363 59.2539 8.13534 58.9177 7.83917 58.7137C7.4229 58.4275 5.41786 56.8891 6.81833 54.7397C7.19185 54.1662 7.63256 53.8404 8.16486 53.7426C9.22131 53.5469 10.4895 54.2713 10.8894 54.568C11.3943 54.9458 12.1047 54.8355 12.4782 54.3192C12.8517 53.8019 12.7438 53.0722 12.237 52.6913C12.0131 52.5216 9.98464 51.0509 7.77911 51.4475C6.62902 51.6536 5.6428 52.3457 4.92323 53.448C4.15074 54.6335 3.88408 55.8607 4.12936 57.0952C4.3604 58.2599 5.00465 59.1696 5.57664 59.7795C5.12983 60.3843 4.67388 61.2222 4.61078 62.1787C4.55175 63.0843 4.85606 63.9419 5.49319 64.6591C6.2494 65.5105 7.14606 65.8124 8.01626 65.8124C9.22335 65.8124 10.3785 65.2316 11.033 64.7288C11.5368 64.3427 11.6385 63.613 11.2609 63.0988C10.8833 62.5847 10.1699 62.4795 9.66709 62.8657Z" fill="#D64B57"/>
    <path d="M66.1686 30.6973C66.1686 30.6973 67.4853 32.0295 67.9783 33.0967C69.41 36.1879 68.4269 41.7487 65.9925 44.3223C65.0654 45.3029 63.9798 45.8051 62.8372 45.8051C62.5678 45.8051 62.2964 45.7772 62.0219 45.7205C61.2491 48.8283 59.9957 52.1969 58.0669 55.1211L58.0669 55.1213C58.0658 55.1388 58.0648 55.1562 58.0627 55.1737C58.0555 55.2263 57.5199 59.126 57.8421 62.8926C57.8897 62.8854 57.9384 62.8781 57.9881 62.8761C58.7682 62.84 61.9225 63.2287 65.3845 70.697C65.7543 70.3877 66.295 70.331 66.7301 70.5939C67.6282 71.1363 68.4911 71.6549 69.3188 72.153C82.4343 80.0399 87.3414 82.992 88.3213 92.8318C88.3835 93.466 87.9184 94.031 87.2813 94.0939C87.243 94.098 87.2036 94.0991 87.1663 94.0991C86.5779 94.0991 86.0734 93.6547 86.0133 93.0597C85.1494 84.3685 81.2016 81.9939 68.1203 74.1275C67.565 73.7935 66.9932 73.4491 66.4059 73.0964C67.534 75.966 68.6724 79.6388 69.7528 84.3334C69.8481 84.7469 69.7083 85.1779 69.3892 85.4573C69.0692 85.7368 68.6206 85.8203 68.2228 85.6739C68.1472 85.646 60.7043 82.9146 58.1155 82.2238C57.4971 82.0588 57.1304 81.4257 57.2972 80.8101C57.4629 80.1946 58.1 79.8306 58.7164 79.9956C60.5551 80.4864 64.5516 81.8949 66.9953 82.7734C63.9549 70.6228 60.697 66.8572 59.0696 65.6951C57.8193 80.6132 54.7054 93.0979 54.6733 93.2257C54.5417 93.7505 54.0683 94.1001 53.5493 94.1001C53.4561 94.1001 53.3618 94.0888 53.2675 94.065C52.646 93.9104 52.2689 93.2835 52.4243 92.6658C52.4554 92.5452 55.2254 81.4288 56.5607 67.6996C56.4643 67.5883 56.3887 67.4583 56.339 67.3119C55.4056 64.5382 55.3414 60.9397 55.4647 58.3217C52.7081 61.049 49.0297 62.8905 44.163 62.8905C39.2974 62.8905 35.6189 61.049 32.8614 58.3217C32.9846 60.9397 32.9215 64.5382 31.9871 67.3119C31.9384 67.4583 31.8617 67.5883 31.7664 67.6986C33.1006 81.4173 35.8671 92.5266 35.9016 92.6655L35.9017 92.6658C36.0571 93.2835 35.68 93.9104 35.0595 94.065C34.9642 94.0888 34.87 94.1001 34.7767 94.1001C34.2578 94.1001 33.7854 93.7505 33.6538 93.2257C33.6207 93.0979 30.5078 80.6132 29.2575 65.6941C27.6301 66.8562 24.3722 70.6228 21.3308 82.7734C23.7755 81.8949 27.771 80.4864 29.6097 79.9956C30.2312 79.8296 30.8642 80.1946 31.0299 80.8101C31.1956 81.4257 30.8289 82.0588 30.2105 82.2238C27.6218 82.9146 20.1788 85.646 20.1043 85.6739C19.7044 85.8193 19.2579 85.7378 18.9378 85.4573C18.6177 85.1779 18.4789 84.7469 18.5732 84.3334C19.6537 79.6388 20.7921 75.967 21.9181 73.0964C21.3328 73.4501 20.761 73.7935 20.2058 74.1275C7.12445 81.9939 3.17663 84.3685 2.31269 93.0597C2.2526 93.6547 1.74917 94.0991 1.16077 94.0991C1.12245 94.0991 1.08309 94.098 1.04476 94.0939C0.407684 94.031 -0.0574428 93.466 0.00574704 92.8318C0.984672 82.992 5.89173 80.0399 19.0073 72.153C19.8349 71.6549 20.6978 71.1363 21.5959 70.5939C22.03 70.331 22.5707 70.3877 22.9406 70.696C26.3994 63.2298 29.5506 62.8421 30.3389 62.8761C30.3887 62.8781 30.4374 62.8843 30.485 62.8926C30.8061 59.126 30.2716 55.2263 30.2644 55.1737C30.2613 55.1562 30.2613 55.1387 30.2592 55.1211C28.3303 52.1979 27.0769 48.8293 26.3041 45.7205C26.0296 45.7772 25.7582 45.8051 25.4889 45.8051C24.3463 45.8061 23.2607 45.3029 22.3335 44.3223C19.9002 41.7497 18.9161 36.189 20.3477 33.0967C21.0614 31.5521 22.3914 30.8529 23.1747 30.1477C23.958 29.4425 24.9341 31.0886 26.0662 31.2973C40.1906 33.9014 62.8372 31.4022 62.8372 31.4022C62.8372 31.4022 64.0803 28.8652 66.1686 30.6973Z" fill="#D64B57"/>
    <path d="M44.0896 60.8524C30.5266 60.8524 27.4738 43.9835 27.4738 38.0742C27.4738 37.437 26.9559 36.9204 26.3157 36.9204C25.6755 36.9204 25.1565 37.437 25.1565 38.0742C25.1565 39.493 25.3222 41.4862 25.7407 43.735C25.2622 43.8257 24.6437 43.7453 23.9476 43.0091C22.1959 41.1562 21.3599 36.5327 22.3792 34.3303C22.8257 33.3651 23.3582 32.7589 23.9186 32.5743C24.4355 32.4042 24.8841 32.63 24.9265 32.6527C25.0426 32.7197 25.1658 32.763 25.2912 32.7867L25.1648 33.8611C25.0954 34.4426 25.4745 34.9829 26.0463 35.1191C26.1365 35.1397 26.2266 35.15 26.3157 35.15C26.7922 35.15 27.2335 34.8561 27.4034 34.3932C27.4375 34.2993 30.597 25.9556 39.8538 20.0185C39.0873 21.4476 38.2171 23.1087 37.492 24.6049C37.3107 24.9771 37.3438 25.4174 37.578 25.7587C37.8131 26.0989 38.2078 26.2886 38.6273 26.2567C38.9101 26.234 45.3503 25.637 51.69 17.8965C53.9452 20.3402 59.7203 27.1579 60.6019 33.7662C60.6795 34.3509 61.1799 34.7809 61.7797 34.7675C62.3712 34.753 62.857 34.2962 62.9057 33.7085L62.9834 32.7702C63.0745 32.7424 63.1647 32.7052 63.2507 32.6537C63.2703 32.6434 63.7272 32.399 64.2607 32.5743C64.8211 32.7589 65.3535 33.3651 65.8 34.3303C66.8193 36.5327 65.9844 41.1562 64.2316 43.0091C63.5366 43.7443 62.9171 43.8257 62.4385 43.735C62.857 41.4862 63.0228 39.493 63.0228 38.0742C63.0228 37.437 62.5038 36.9204 61.8636 36.9204C61.2234 36.9204 60.7044 37.437 60.7044 38.0742C60.7044 43.9835 57.6526 60.8524 44.0896 60.8524Z" fill="white"/>
    <path d="M44.1634 49.0707C41.3471 49.0707 40.0595 50.8947 40.0056 50.9719C39.6802 51.445 39.8301 52.0733 40.3407 52.3747C40.5229 52.4827 40.7277 52.5345 40.9296 52.5345C41.2912 52.5345 41.645 52.3683 41.8547 52.0642C41.8615 52.0551 42.5612 51.1027 44.1634 51.1027C45.745 51.1027 46.4525 52.0369 46.4721 52.0642C46.7974 52.5381 47.4765 52.6761 47.986 52.3747C48.4966 52.0733 48.6465 51.445 48.3212 50.9728C48.2673 50.8947 46.9806 49.0707 44.1634 49.0707Z" fill="#D64B57"/>
    <path d="M51.7789 33.4977C51.1483 33.5969 50.7182 34.1873 50.8163 34.8166C50.9155 35.4469 51.5061 35.8768 52.1356 35.7788C52.7662 35.6797 53.1973 35.0892 53.0971 34.4578C52.999 33.8285 52.4083 33.3986 51.7789 33.4977Z" fill="#D64B57"/>
    <path d="M44.631 45.5929C45.2605 45.4938 45.6917 44.9033 45.5925 44.2729C45.4933 43.6425 44.9026 43.2136 44.2732 43.3116C43.6437 43.4108 43.2125 44.0013 43.3117 44.6306C43.4098 45.261 44.0015 45.691 44.631 45.5929Z" fill="#D64B57"/>
    <path d="M37.1255 33.4977C36.4962 33.3986 35.9057 33.8285 35.8066 34.4578C35.7085 35.0892 36.1374 35.6797 36.7678 35.7788C37.3982 35.8768 37.9887 35.4469 38.0879 34.8166C38.1859 34.1873 37.756 33.5969 37.1255 33.4977Z" fill="#D64B57"/>
    <path d="M55.1234 28.8994L50.5057 27.7449C49.8845 27.5912 49.2602 27.9667 49.1054 28.5847C48.9506 29.2038 49.3262 29.83 49.9454 29.9848L54.5631 31.1393C54.657 31.163 54.7509 31.1743 54.8438 31.1743C55.3618 31.1743 55.8323 30.8235 55.9634 30.2994C56.1182 29.6804 55.7415 29.0542 55.1234 28.8994Z" fill="#D64B57"/>
    <path d="M37.8213 27.7449L33.2033 28.8994C32.5852 29.0542 32.2095 29.6804 32.3633 30.2994C32.4943 30.8235 32.9649 31.1743 33.483 31.1743C33.5758 31.1743 33.6697 31.163 33.7636 31.1393L38.3816 29.9848C39.0008 29.83 39.3764 29.2038 39.2216 28.5847C39.0668 27.9667 38.4374 27.5912 37.8213 27.7449Z" fill="#D64B57"/>
    <defs>
        <linearGradient id="paint0_linear_2526_1035" x1="43.4989" y1="5.72205e-05" x2="43.4989" y2="37.8768" gradientUnits="userSpaceOnUse">
            <stop stop-color="#E44825"/>
            <stop offset="1" stop-color="#FFF1BD"/>
        </linearGradient>
        <linearGradient id="paint1_linear_2526_1035" x1="43.8749" y1="72.1627" x2="43.8749" y2="94.1001" gradientUnits="userSpaceOnUse">
            <stop stop-color="#E44825"/>
            <stop offset="1" stop-color="#FFF1BD"/>
        </linearGradient>
    </defs>
</svg>
