<svg width="94" height="101" viewBox="0 0 94 101" fill="none" xmlns="http://www.w3.org/2000/svg">
    <path d="M73.12 99.4018H34.2455C29.8918 84.5438 30.9457 75.1031 30.9457 75.1031L32.8067 68.1957L34.2455 66.5966L34.1396 64.5037C34.1396 64.5037 31.8222 64.2001 30.656 62.2119C29.4909 60.2227 31.7453 58.5413 31.7453 58.5413L33.8991 59.7096C30.9521 55.4585 29.6256 48.6976 29.6256 48.6976C26.7117 49.697 23.9282 47.9387 23.2687 42.0275C22.6081 36.1153 26.2275 34.7396 26.2275 34.7396C18.481 22.8126 27.1169 11.8337 32.9232 7.72162C38.7285 3.60841 44.0966 0.368515 49.9703 1.39896C55.8451 2.43047 57.0744 7.6532 57.0744 7.6532L59.9391 8.54362C77.6051 13.7984 68.7374 35.2773 68.7374 35.2773C68.7374 35.2773 72.4273 38.6872 70.6785 44.4219C68.9308 50.1567 64.684 49.0033 64.684 49.0033C64.0758 52.0519 63.2228 54.4003 62.4008 56.0795C62.4008 56.0795 64.0053 55.4296 66.2511 56.784C66.2511 56.784 63.9956 63.5117 63.6151 65.7682C63.2346 68.0258 64.1121 73.7883 64.5109 75.9401C64.9085 78.0929 73.12 99.4018 73.12 99.4018Z" fill="white"/>
    <path d="M53.4144 95.744C53.2188 95.449 52.9035 95.2555 52.5518 95.2149L52.028 95.1561L51.3525 92.2668L51.6529 91.7452C51.8239 91.4502 51.8602 91.0963 51.7533 90.7725L50.3423 86.4947C50.2226 86.1312 49.9362 85.8469 49.5706 85.7304L45.0608 84.2895C44.737 84.1858 44.3821 84.2275 44.0881 84.4017C43.7942 84.5749 43.5889 84.8688 43.5237 85.2034L40.8396 98.9016C40.7712 99.2522 40.8621 99.6274 41.0898 99.9032C41.3164 100.18 41.6552 100.364 42.0133 100.364H51.608C52.1371 100.364 52.6031 99.9919 52.7549 99.4852L53.563 96.7445C53.6646 96.4057 53.609 96.039 53.4144 95.744Z" fill="#D64B57"/>
    <path d="M32.6891 74.139C32.7223 73.5949 32.3823 73.0968 31.8628 72.929C31.601 72.8446 31.3338 72.8018 31.0687 72.8018C29.7924 72.8018 28.8891 73.7328 27.8437 74.8103C26.9105 75.7713 25.7486 76.9685 23.9817 77.9315C22.4297 78.7771 20.1571 79.6482 17.5265 80.653C13.4603 82.2072 8.85223 83.9741 5.14949 86.33C-1.35916 90.4721 0.124473 98.9989 0.190746 99.3602C0.2955 99.9278 0.789341 100.364 1.36656 100.364H34.2455C34.6078 100.364 34.951 100.175 35.1787 99.8914C35.4053 99.6082 35.4918 99.2137 35.4127 98.8588C32.1365 84.1569 32.6838 74.2374 32.6891 74.139Z" fill="#80ABE8"/>
    <path d="M32.6891 74.139C32.7223 73.5949 32.3823 73.0968 31.8628 72.929C31.601 72.8446 31.3338 72.8018 31.0687 72.8018C29.7924 72.8018 28.8891 73.7328 27.8437 74.8103C26.9105 75.7713 25.7486 76.9685 23.9817 77.9315C22.4297 78.7771 20.1571 79.6482 17.5265 80.653C13.4603 82.2072 8.85223 83.9741 5.14949 86.33C-1.35916 90.4721 0.124473 98.9989 0.190746 99.3602C0.2955 99.9278 0.789341 100.364 1.36656 100.364H34.2455C34.6078 100.364 34.951 100.175 35.1787 99.8914C35.4053 99.6082 35.4918 99.2137 35.4127 98.8588C32.1365 84.1569 32.6838 74.2374 32.6891 74.139Z" fill="url(#paint0_linear_2526_1010)"/>
    <path d="M88.8288 86.3033C85.125 83.9464 80.5062 82.1805 76.4315 80.622C73.7966 79.614 71.5198 78.7439 69.9677 77.8984C68.8924 77.3126 67.5637 75.8952 66.684 74.9578C65.6354 73.8397 65.2431 73.4218 64.5633 73.4218C64.1945 73.4218 63.8022 73.612 63.5756 73.9028C63.1726 74.4212 63.3244 75.0166 63.3746 75.2122C64.2094 78.497 63.5884 81.3681 63.583 81.3938C63.5339 81.6108 63.5456 81.8374 63.6183 82.048L65.0528 86.2296C65.1682 86.5663 65.4269 86.8346 65.7594 86.9607C65.847 86.9938 65.9368 87.0174 66.0287 87.0291L66.6626 90.0616L49.5396 95.5751C48.9175 95.775 48.5711 96.4431 48.7603 97.0673L49.4926 99.4906C49.6465 99.9951 50.1115 100.364 50.6374 100.364H92.6406C93.2189 100.364 93.7148 99.9246 93.8174 99.3559C93.8826 98.9946 95.3353 90.4432 88.8288 86.3033Z" fill="#80ABE8"/>
    <path d="M88.8288 86.3033C85.125 83.9464 80.5062 82.1805 76.4315 80.622C73.7966 79.614 71.5198 78.7439 69.9677 77.8984C68.8924 77.3126 67.5637 75.8952 66.684 74.9578C65.6354 73.8397 65.2431 73.4218 64.5633 73.4218C64.1945 73.4218 63.8022 73.612 63.5756 73.9028C63.1726 74.4212 63.3244 75.0166 63.3746 75.2122C64.2094 78.497 63.5884 81.3681 63.583 81.3938C63.5339 81.6108 63.5456 81.8374 63.6183 82.048L65.0528 86.2296C65.1682 86.5663 65.4269 86.8346 65.7594 86.9607C65.847 86.9938 65.9368 87.0174 66.0287 87.0291L66.6626 90.0616L49.5396 95.5751C48.9175 95.775 48.5711 96.4431 48.7603 97.0673L49.4926 99.4906C49.6465 99.9951 50.1115 100.364 50.6374 100.364H92.6406C93.2189 100.364 93.7148 99.9246 93.8174 99.3559C93.8826 98.9946 95.3353 90.4432 88.8288 86.3033Z" fill="url(#paint1_linear_2526_1010)"/>
    <path d="M43.6092 57.2008C43.8091 57.328 44.0314 57.3889 44.2516 57.3889C44.6461 57.3889 45.033 57.1933 45.2607 56.8352C45.2682 56.8245 46.0314 55.7032 47.7791 55.7032C49.5054 55.7032 50.2761 56.8031 50.2975 56.8352C50.6534 57.3932 51.3942 57.5557 51.9489 57.2008C52.5059 56.8459 52.6694 56.1062 52.3145 55.5504C52.2568 55.4584 50.8522 53.311 47.7791 53.311C44.707 53.311 43.3024 55.4585 43.2447 55.5493C42.8888 56.1062 43.0523 56.8459 43.6092 57.2008Z" fill="#D64B57"/>
    <path d="M54.9579 37.3479C54.3336 37.4462 53.9061 38.032 54.0044 38.6563C54.1017 39.2816 54.6885 39.7081 55.3128 39.6108C55.9381 39.5125 56.3646 38.9267 56.2662 38.3003C56.1679 37.6761 55.5821 37.2496 54.9579 37.3479Z" fill="#D64B57"/>
    <path d="M47.3045 47.8713C46.6802 47.9697 46.2526 48.5554 46.3499 49.1797C46.4483 49.805 47.0351 50.2315 47.6593 50.1343C48.2836 50.0359 48.7111 49.4501 48.6128 48.8248C48.5145 48.1995 47.9287 47.7741 47.3045 47.8713Z" fill="#D64B57"/>
    <path d="M38.0605 38.3003C37.9621 38.9267 38.3876 39.5125 39.0129 39.6108C39.6382 39.7081 40.224 39.2816 40.3223 38.6563C40.4196 38.032 39.9931 37.4462 39.3678 37.3479C38.7435 37.2496 38.1577 37.6761 38.0605 38.3003Z" fill="#D64B57"/>
    <path d="M54.4908 15.6722C54.6362 16.2045 55.1183 16.5562 55.6442 16.5562C55.7489 16.5562 55.8537 16.5423 55.9585 16.5145C56.5955 16.3414 56.9718 15.685 56.7997 15.048C55.4561 10.0796 50.5925 7.89689 50.3851 7.80711C49.7801 7.54201 49.0746 7.81673 48.8095 8.42173C48.5455 9.02674 48.8202 9.73223 49.4252 9.99733C49.4658 10.0144 53.4422 11.7985 54.4908 15.6722Z" fill="#D64B57"/>
    <path d="M32.5437 33.5286C32.5918 33.5339 32.6399 33.5371 32.6869 33.5371C33.2845 33.5371 33.8008 33.0903 33.8735 32.4821C35.4383 19.328 41.7172 15.4232 41.8177 15.3633C42.3853 15.032 42.5787 14.304 42.2517 13.7343C41.9214 13.1614 41.1881 12.9647 40.6183 13.2939C40.3169 13.4671 33.2236 17.7064 31.4983 32.1988C31.4203 32.8551 31.8874 33.4505 32.5437 33.5286Z" fill="#D64B57"/>
    <path d="M33.6906 8.63985C33.7804 8.56503 42.6397 1.26536 49.7576 2.57693C55.6377 3.65974 55.8771 8.07438 55.8846 8.27961C55.9017 8.92845 56.433 9.50568 57.0797 9.50568C57.0882 9.50568 57.0968 9.50568 57.1053 9.50568C57.7659 9.50568 58.2897 8.88357 58.2758 8.22297C58.2298 5.97397 56.479 1.35303 50.1905 0.195386C41.9673 -1.31927 32.5544 6.46138 32.1578 6.79275C31.6512 7.21604 31.5838 7.97391 32.0071 8.48058C32.4304 8.98725 33.185 9.06314 33.6906 8.63985Z" fill="#D64B57"/>
    <path d="M43.4254 25.2947C43.5868 25.3695 43.7578 25.4048 43.9256 25.4048C44.3778 25.4048 44.8107 25.1472 45.0117 24.71C45.2885 24.1114 45.0277 23.4006 44.428 23.1238L42.6152 22.2868C43.0919 21.6198 43.5783 20.9806 44.0635 20.3884C44.2089 20.5754 44.411 20.7208 44.6547 20.7956C44.6803 20.8042 47.2703 21.6144 49.3045 23.6251C49.5375 23.8549 49.841 23.9703 50.1446 23.9703C50.4525 23.9703 50.7614 23.8517 50.9955 23.6144C51.4594 23.1451 51.4551 22.3883 50.9848 21.9233C48.9496 19.9127 46.5295 18.9229 45.6691 18.615C46.5659 17.7353 47.4114 17.1121 48.1254 16.8877C49.6551 16.4088 52.6331 19.6508 54.167 21.9939C54.5283 22.5465 55.269 22.7005 55.8217 22.3402C56.3743 21.9779 56.5293 21.2371 56.168 20.6845C55.3695 19.4616 51.189 13.4201 47.4093 14.6055C42.9422 16.0069 37.8275 25.3941 37.6126 25.7928C37.2984 26.3743 37.5153 27.1001 38.0958 27.4133C38.2764 27.5117 38.472 27.5576 38.6634 27.5576C39.0888 27.5576 39.5003 27.3299 39.7163 26.9302C40.1834 26.0654 40.7071 25.175 41.264 24.2963L43.4254 25.2947Z" fill="#D64B57"/>
    <path d="M26.4819 89.3229L22.2501 86.0563C24.6733 81.5327 27.4493 78.2596 27.4792 78.2254C27.9079 77.722 27.848 76.9673 27.3456 76.5387C26.8443 76.11 26.0896 76.1699 25.661 76.6712C25.5252 76.8294 22.311 80.6145 19.6601 85.8522C19.4003 86.3642 19.5414 86.9884 19.9968 87.339L23.5317 90.068L17.41 93.2213C17.1182 93.3709 16.9012 93.6339 16.8093 93.9482C16.7174 94.2624 16.758 94.6002 16.9226 94.8835L19.6922 99.6679C19.9134 100.051 20.3153 100.264 20.7279 100.264C20.931 100.264 21.1373 100.212 21.3265 100.103C21.8973 99.7727 22.0929 99.0405 21.7616 98.4686L19.6216 94.7723L26.2991 91.3325C26.6626 91.1455 26.9052 90.7852 26.9427 90.378C26.9801 89.9707 26.8058 89.572 26.4819 89.3229Z" fill="#D64B57"/>
    <path d="M31.5027 85.5293L27.9261 87.9077C27.3766 88.2732 27.227 89.0161 27.5925 89.5655C27.8234 89.9119 28.2029 90.0989 28.5898 90.0989C28.8175 90.0989 29.0474 90.0348 29.2504 89.8991L32.8271 87.5207C33.3765 87.1551 33.5261 86.4133 33.1606 85.8628C32.7939 85.3134 32.0521 85.1637 31.5027 85.5293Z" fill="#D64B57"/>
    <path d="M73.3455 96.5692L72.2798 93.6874L74.3855 94.7723L73.3455 96.5692ZM77.1979 93.9482C77.106 93.6339 76.8889 93.3709 76.5971 93.2213L71.1467 90.4143C71.1168 90.3983 71.0858 90.3844 71.0548 90.3716L70.8389 89.7869L74.0103 87.339C74.4646 86.9884 74.6057 86.3642 74.347 85.8522C71.6951 80.6145 68.4819 76.8294 68.3461 76.6712C67.9186 76.1699 67.1629 76.11 66.6605 76.5387C66.1591 76.9673 66.0993 77.722 66.5279 78.2254C66.5568 78.2596 69.3338 81.5327 71.7571 86.0574L68.7085 88.409L67.6353 85.4364C67.4141 84.8217 66.7396 84.4989 66.1228 84.7106L52.7666 89.2834L52.399 88.0755C52.881 87.9622 53.2616 87.556 53.315 87.0355C53.3845 86.3791 52.9067 85.7912 52.2503 85.7218C49.3012 85.415 44.7017 84.1408 41.4393 81.5583C40.8204 81.0687 40.4751 80.5482 40.4131 80.0094C40.318 79.1874 40.8749 78.4723 40.8749 78.4723C41.1026 78.1976 41.1967 77.8353 41.1293 77.4847C41.062 77.1341 40.8418 76.8316 40.5286 76.6605C39.6948 76.2041 38.6729 75.4762 38.5468 74.6007C38.4709 74.0727 38.7349 73.582 38.9402 73.2913C38.9819 73.302 39.0214 73.3127 39.0588 73.3223C39.1604 73.349 39.2619 73.3618 39.3613 73.3618C39.8926 73.3618 40.3779 73.0048 40.5179 72.4671C40.6847 71.829 40.302 71.1748 39.6628 71.0081C37.6981 70.495 35.6639 69.4207 35.556 68.8414C35.4202 68.1145 35.7655 67.2882 36.0883 66.7313C39.1839 68.1049 42.2934 69.2519 42.5104 69.332C43.1282 69.5586 43.8166 69.2422 44.0453 68.6223C44.273 68.0023 43.9555 67.315 43.3356 67.0873C40.9187 66.199 34.1845 63.5395 32.0745 61.918C31.7292 61.6518 31.322 61.2574 31.3423 60.8865C31.3615 60.5273 31.7303 60.088 32.1109 59.7641C34.0616 60.5284 40.241 62.9623 43.467 64.3669C48.0303 66.3529 52.7196 68.0001 56.1145 66.6116C58.7964 65.5149 59.2753 63.7875 59.8301 61.7876C59.9284 61.4359 60.0321 61.0575 60.1571 60.6513C60.542 59.3943 61.4826 57.7503 62.8658 57.2521C63.4975 57.0255 64.1592 57.0683 64.8722 57.3836C64.5664 58.5798 63.9465 60.8715 63.0849 63.3568C62.0492 66.3412 61.9145 68.0076 62.4265 71.4613C62.5398 72.2288 62.6777 73.0016 62.8113 73.7477C63.241 76.1539 63.6472 78.4264 63.318 80.607C63.2196 81.2601 63.6686 81.8694 64.3217 81.9677C64.3826 81.9773 64.4425 81.9816 64.5013 81.9816C65.0838 81.9816 65.5937 81.5562 65.6824 80.964C66.0704 78.3932 65.6108 75.8182 65.1661 73.3276C65.0357 72.5986 64.901 71.844 64.792 71.1107C64.3334 68.0119 64.4318 66.7741 65.3446 64.1403C66.6401 60.4044 67.3852 57.188 67.4162 57.0523C67.5274 56.5659 67.3264 56.0614 66.9095 55.7867C65.9037 55.1229 64.978 54.8278 64.1667 54.7455C64.7653 53.2009 65.2324 51.6478 65.5937 50.1631C65.8759 50.2208 66.1548 50.2497 66.4317 50.2497C67.6118 50.2497 68.732 49.7291 69.6887 48.7126C72.1996 46.0445 73.214 40.2798 71.7378 37.0752C71.3498 36.2318 70.8934 35.5477 70.3728 35.0261C72.2905 28.6169 72.9906 23.2562 70.6807 16.5648C68.127 9.16681 60.542 7.33253 60.2202 7.25877C59.5746 7.10912 58.9343 7.51105 58.7857 8.15453C58.6361 8.79696 59.0369 9.43937 59.6804 9.58902C59.7467 9.60398 66.2927 11.1849 68.4199 17.3462C69.9848 21.8805 70.0468 25.6795 69.2301 29.8279C68.8378 19.7438 62.7236 17.8806 62.4286 17.7962C61.7979 17.6177 61.1481 17.9822 60.9631 18.6107C60.7771 19.2392 61.1384 19.902 61.7648 20.0944C62.0182 20.1724 67.9122 22.1274 66.6925 33.9016C66.3793 33.9753 66.1271 34.0748 65.956 34.1549C65.5947 33.2913 65.2281 31.9786 64.9128 30.852C64.4788 29.301 63.9871 27.5426 63.3201 25.9093C61.3982 21.2018 58.3828 21.8175 58.2534 21.8463L58.7772 24.1798C58.7772 24.1798 58.7569 24.1873 58.7184 24.1915C59.1567 24.1456 60.2159 24.6341 61.1063 26.8136C61.721 28.3197 62.1924 30.0075 62.6093 31.4965C63.3041 33.9796 63.8524 35.9411 64.9181 36.8411C65.1437 37.0314 65.4173 37.1244 65.6899 37.1244C66.0298 37.1244 66.3676 36.9801 66.6038 36.7C66.6786 36.6113 66.7374 36.5151 66.7823 36.4136C66.8347 36.3922 66.8849 36.3676 66.9352 36.3377C66.9544 36.327 67.4269 36.0737 67.9763 36.2554C68.5556 36.4467 69.1051 37.0752 69.5658 38.0757C70.6176 40.3589 69.755 45.152 67.9474 47.0728C67.227 47.8382 66.5867 47.9205 66.0918 47.8243C66.5408 45.3711 66.7 43.2675 66.7 41.957C66.7 41.2964 66.1645 40.7609 65.5039 40.7609C64.8433 40.7609 64.3078 41.2964 64.3078 41.957C64.3078 44.2947 63.6867 50.0968 61.3383 55.3163C61.3362 55.3206 61.3351 55.3249 61.333 55.3302C59.535 56.3136 58.3774 58.2933 57.8696 59.9523C57.7392 60.3787 57.6281 60.7774 57.5255 61.1484C57.5169 61.1794 57.5084 61.2093 57.4998 61.2392C57.4453 61.2788 57.3918 61.3226 57.3438 61.3728C55.9178 62.8255 54.2941 63.9137 52.5176 64.6095C52.462 64.6309 52.4096 64.6576 52.3594 64.6865C49.5695 64.4139 46.2719 62.9794 44.4226 62.1735C41.7418 61.0073 37.0663 59.1463 34.3962 58.0934C34.3684 57.9929 34.3288 57.8935 34.2732 57.8005C30.9072 52.1299 30.0179 44.9574 30.0179 41.957C30.0179 41.2964 29.4823 40.7609 28.8218 40.7609C28.1612 40.7609 27.6267 41.2964 27.6267 41.957C27.6267 43.2899 27.7903 45.3882 28.2382 47.8243C27.7432 47.9205 27.1008 47.8403 26.3793 47.0728C24.5707 45.152 23.7091 40.3589 24.7599 38.0757C25.2206 37.0752 25.77 36.4467 26.3494 36.2554C26.8838 36.079 27.3456 36.3131 27.3884 36.3366C27.5498 36.4296 27.724 36.4798 27.8993 36.4937C28.1056 36.8785 28.5107 37.1244 28.9511 37.1244C29.0366 37.1244 29.1243 37.1148 29.2119 37.0955C29.8565 36.9523 30.2627 36.3142 30.1195 35.6685C28.778 29.6206 30.2242 24.618 30.2434 24.5518C30.4326 23.92 30.0745 23.2541 29.4428 23.0638C28.81 22.8736 28.143 23.2327 27.9528 23.8644C27.8929 24.0643 26.6572 28.2759 27.3766 33.8492C27.2804 33.8332 27.1799 33.8204 27.0752 33.8118C19.6055 20.8148 30.4401 11.6478 30.9083 11.2608C31.4171 10.8418 31.4919 10.0893 31.0729 9.57941C30.6539 9.0674 29.9003 8.9947 29.3905 9.41264C29.2611 9.51847 16.8392 19.9522 24.6819 34.4296C23.8502 34.9737 23.149 35.8577 22.5878 37.0752C21.1116 40.2809 22.126 46.0456 24.6369 48.7126C25.5936 49.7291 26.7139 50.2507 27.894 50.2497C28.1719 50.2497 28.4541 50.2197 28.7373 50.162C29.3092 52.5094 30.143 55.0213 31.3262 57.3868C31.0825 57.5311 29.0719 58.785 28.9554 60.74C28.9073 61.5236 29.1585 62.6929 30.6165 63.8142C31.2226 64.2792 32.098 64.7923 33.1028 65.3129C33.0942 65.4935 33.0803 65.6795 33.0654 65.8719C33.0483 66.0975 33.0301 66.3326 33.0205 66.5571C33.013 66.7142 33.0376 66.8746 33.09 67.0242C32.4604 66.8703 31.819 67.2465 31.6512 67.8772L30.5898 71.8568C30.4198 72.4949 30.7982 73.1502 31.4364 73.3212C31.54 73.3479 31.6437 73.3618 31.7463 73.3618C32.2744 73.3618 32.7575 73.008 32.9008 72.4736L33.5261 70.1273C34.1364 71.1748 35.4202 71.9498 36.6345 72.4842C36.3085 73.1074 36.0445 73.9423 36.1749 74.9075C36.286 75.7327 36.6623 76.4959 37.2983 77.1907C34.6623 79.2003 32.7639 81.7892 32.6752 81.9132C32.2861 82.4466 32.4048 83.1948 32.9393 83.5828C33.1509 83.7378 33.3978 83.8116 33.6415 83.8116C34.0103 83.8116 34.3759 83.6406 34.61 83.3188C34.6271 83.2942 36.0327 81.3777 38.0134 79.6866C38.007 79.8662 38.0124 80.0511 38.0327 80.2403C38.1599 81.4504 38.8055 82.5246 39.9546 83.4343C42.8877 85.756 46.6578 87.1242 49.8025 87.7602L50.5027 90.0584L49.2339 90.4934C48.6085 90.7072 48.275 91.387 48.4899 92.0123C48.6598 92.5094 49.1238 92.8215 49.6208 92.8215C49.7491 92.8215 49.8805 92.8001 50.0077 92.7563L65.785 87.354L66.5611 89.5057L59.6238 91.9044C58.9995 92.1203 58.6682 92.8012 58.8841 93.4255C59.1 94.0497 59.7809 94.3811 60.4052 94.1652L68.8304 91.2523L71.803 99.2949C71.9345 99.6509 72.2178 99.9063 72.5534 100.016C72.593 100.047 72.6357 100.076 72.6806 100.103C72.8698 100.212 73.0751 100.264 73.2792 100.264C73.6918 100.264 74.0926 100.051 74.315 99.6679L77.0846 94.8835C77.2492 94.6002 77.2898 94.2624 77.1979 93.9482Z" fill="#D64B57"/>
    <path d="M58.9877 32.6403C58.8402 31.9979 58.1999 31.596 57.5543 31.7446L52.7495 32.8541C52.106 33.0027 51.7052 33.6451 51.8538 34.2886C51.981 34.8412 52.4737 35.2153 53.0178 35.2153C53.1065 35.2153 53.1974 35.2057 53.2882 35.1843L58.0919 34.0748C58.7354 33.9262 59.1363 33.2849 58.9877 32.6403Z" fill="#D64B57"/>
    <defs>
        <linearGradient id="paint0_linear_2526_1010" x1="17.7207" y1="72.8018" x2="17.7207" y2="100.364" gradientUnits="userSpaceOnUse">
            <stop stop-color="#E44825"/>
            <stop offset="1" stop-color="#FFF1BD"/>
        </linearGradient>
        <linearGradient id="paint1_linear_2526_1010" x1="71.3543" y1="73.4218" x2="71.3543" y2="100.364" gradientUnits="userSpaceOnUse">
            <stop stop-color="#E44825"/>
            <stop offset="1" stop-color="#FFF1BD"/>
        </linearGradient>
    </defs>
</svg>
