<svg width="92" height="95" viewBox="0 0 92 95" fill="none" xmlns="http://www.w3.org/2000/svg">
    <path d="M19.2101 46.4618C19.6905 43.3755 22.933 39.4174 27.718 35.4503C32.5041 31.4832 37.044 27.7345 37.044 27.7345C47.3437 26.5628 52.6371 16.6354 52.6371 16.6354C52.6371 16.6354 71.6659 34.4729 70.348 43.5507C69.0289 52.6275 58.3223 55.8869 58.3223 55.8869C57.7157 62.1018 57.7211 68.7053 61.8811 71.4736C66.0411 74.2418 80.5451 79.0887 85.2556 83.0307C89.965 86.9726 90.0859 92.7396 90.0859 92.7396H0C0.969304 79.1501 21.8568 75.3954 27.9662 71.4061C28.3904 71.1293 28.7747 70.8042 29.1202 70.4599C29.1202 70.4599 26.0028 62.3213 24.4312 58.0642C22.8607 53.8072 19.2101 46.4618 19.2101 46.4618Z" fill="white"/>
    <path d="M71.6973 30.4858C71.3087 29.0262 71.1327 27.2234 70.9471 25.3148C70.5304 21.0195 70.0101 15.6733 66.6769 11.0529C62.6519 5.47715 58.1475 4.83392 56.5996 4.79063C53.7921 1.61069 50.4049 8.39233e-05 46.5234 8.39233e-05C40.9083 8.39233e-05 36.1547 3.43269 35.1044 4.24906C20.4191 8.54133 18.868 23.6075 17.8382 33.5963C17.6817 35.1163 17.5339 36.5528 17.3547 37.7678C16.3908 44.2948 16.9553 49.5645 17.0319 50.2148C17.1118 54.5634 20.3824 57.0196 22.8402 58.4913C23.232 58.7258 23.7329 58.7288 24.128 58.5013C24.523 58.2728 24.7432 57.8531 24.6925 57.4212L23.7329 49.18C23.707 48.9575 23.6109 48.7481 23.4576 48.577C22.9805 48.0465 23.0777 46.3815 23.3313 45.385C23.3842 45.1806 23.3735 44.9662 23.3022 44.7669L22.3966 42.2251C23.4242 40.2421 25.5991 38.0788 29.0263 35.6267C31.6784 33.7302 35.2533 29.6544 36.3338 28.3941C45.8855 27.2848 50.6144 22.1701 52.7375 18.7798C56.4442 23.1244 60.4078 28.8461 62.3431 32.6793C64.1663 36.2891 66.8032 40.2693 67.7024 41.599L66.7644 44.2968C66.5885 44.8041 66.8173 45.3568 67.3138 45.6215C67.3235 45.6266 68.3371 46.1953 67.5016 48.0304C67.3246 48.4179 67.045 48.7763 66.2031 48.7763C65.2662 48.7763 64.1598 48.3173 63.8144 48.1421C63.5262 47.9931 63.1851 47.9609 62.8688 48.0525C62.5547 48.1451 62.2935 48.3535 62.1478 48.6293L58.5706 55.3888C58.5426 55.4412 58.5188 55.4965 58.5005 55.5529C58.3342 56.0512 56.8954 60.4874 57.38 62.8711C57.5463 63.6925 58.1971 64.224 59.0369 64.223C60.1293 64.223 61.295 63.3664 63.8273 61.4296C66.1049 59.6882 68.9394 57.5209 72.0427 56.0341C78.7533 52.8199 74.8858 40.6427 72.5748 33.3668C72.2067 32.2092 71.8894 31.2096 71.6973 30.4858Z" fill="url(#paint0_linear_2526_991)"/>
    <path d="M52.907 34.7466C52.2756 34.8393 51.8449 35.3909 51.9431 35.9787C52.0424 36.5676 52.6339 36.9693 53.2643 36.8777C53.8957 36.7851 54.3275 36.2334 54.2282 35.6435C54.1289 35.0557 53.5374 34.654 52.907 34.7466Z" fill="#D64B57"/>
    <path d="M45.5357 46.7856C46.1672 46.693 46.599 46.1413 46.4986 45.5524C46.4004 44.9636 45.8078 44.5629 45.1785 44.6545C44.547 44.7472 44.1153 45.2988 44.2146 45.8866C44.3139 46.4755 44.9054 46.8772 45.5357 46.7856Z" fill="#D64B57"/>
    <path d="M35.8427 35.6435C35.7434 36.2334 36.1741 36.7851 36.8055 36.8777C37.4359 36.9693 38.0285 36.5676 38.1267 35.9787C38.226 35.3909 37.7943 34.8393 37.1639 34.7466C36.5335 34.654 35.942 35.0557 35.8427 35.6435Z" fill="#D64B57"/>
    <path d="M28.5901 75.2275C29.0899 74.2229 30.4769 71.2755 30.3107 69.7454C30.166 68.4006 29.6221 67.2691 28.4293 64.7908C28.1465 64.2029 27.8237 63.5345 27.4589 62.7614C25.9348 59.5412 24.7496 55.5328 24.4398 52.5482C24.1268 49.5424 23.9962 48.0002 24.4258 45.8209C24.4387 45.7514 24.456 45.687 24.4755 45.6256C24.5694 45.5018 24.6341 45.3649 24.6686 45.224C24.9903 44.7559 25.5192 44.617 25.9024 44.5837C26.142 45.8008 26.4626 47.0953 26.8804 48.416C26.1388 48.6092 25.5484 49.0109 25.1652 49.5887C24.1235 51.156 24.8241 53.5478 25.5009 55.859C26.2403 58.3876 27.4686 60.8529 27.5204 60.9565C27.8021 61.5203 28.5232 61.7629 29.1255 61.4991C29.73 61.2364 29.9912 60.566 29.7095 60.0033C29.6965 59.9791 28.5146 57.6045 27.8313 55.2671C27.392 53.7702 26.7303 51.5093 27.2182 50.7755C27.2463 50.7322 27.2949 50.6597 27.46 50.6044C27.8529 51.004 28.3969 52.4183 28.765 53.3786C29.1946 54.497 29.6393 55.6536 30.2081 56.62C30.3236 56.8233 33.0686 61.639 35.2382 64.6227C37.1314 67.2268 38.9794 70.2105 38.3264 72.5922C37.7996 74.5148 36.0661 78.65 36.0477 78.6913C36.0358 78.7225 36.025 78.7527 36.0153 78.7829L28.5901 75.2275ZM26.6979 73.6582C26.5824 73.9068 26.4637 74.1504 26.3461 74.384C26.1539 74.4091 25.9704 74.4776 25.8107 74.5833C25.7664 74.5541 25.72 74.5269 25.6692 74.5027C25.5645 74.4514 25.4555 74.4182 25.3454 74.398C25.8538 74.1313 26.305 73.8836 26.6979 73.6582ZM25.3066 39.1641C25.3088 40.0368 25.3789 41.127 25.5387 42.3591C24.863 42.4436 24.0901 42.6772 23.4349 43.1614C23.219 42.8453 23.0215 42.494 22.8509 42.1185C23.5072 41.1874 24.3168 40.1818 25.3066 39.1641ZM65.6741 46.2839C66.243 46.2839 66.706 46.7158 66.706 47.2463C66.706 47.7768 66.243 48.2086 65.6741 48.2086C65.1064 48.2086 64.6433 47.7768 64.6433 47.2463C64.6433 46.7158 65.1064 46.2839 65.6741 46.2839ZM74.1269 75.9674C66.5333 73.4317 62.6701 70.6554 62.6259 70.6232C62.1013 70.2397 61.3436 70.3252 60.9323 70.8144C60.52 71.3037 60.6107 72.0113 61.1352 72.3959C61.1514 72.4069 61.2011 72.4432 61.2842 72.5005C61.1341 72.5408 60.9884 72.6093 60.8589 72.7069C60.8157 72.7391 56.4452 75.9563 48.5073 76.3731C47.9741 76.4012 47.524 76.7515 47.3998 77.2357L45.0348 86.4605L42.6688 77.2357C42.5447 76.7515 42.0945 76.4002 41.5613 76.3731C40.9104 76.3388 40.2606 76.2814 39.6184 76.207C40.034 75.1128 40.442 73.9672 40.6665 73.1498C41.5538 69.9105 39.5429 66.5302 37.2372 63.3584C36.7267 62.6567 36.1762 61.8363 35.6343 60.9968C38.1558 62.6114 41.2505 63.613 45.0348 63.613C50.0983 63.613 53.927 61.8202 56.7982 59.1647C56.6158 62.6467 56.8111 67.8469 59.1966 70.5316C59.4352 70.8004 59.7795 70.9393 60.1271 70.9393C60.398 70.9393 60.6711 70.8547 60.8967 70.6806C61.4105 70.284 61.4817 69.5733 61.0553 69.0951C58.6051 66.336 59.1146 58.7641 59.5183 56.0794C59.5204 56.0623 59.5215 56.0452 59.5226 56.0281C61.024 53.8961 62.1326 51.5214 62.9335 49.1921C63.5639 49.9621 64.558 50.4604 65.6741 50.4604C65.7184 50.4604 65.7626 50.4594 65.8069 50.4574C65.7032 50.6255 65.6439 50.8198 65.645 51.0272C65.646 51.0815 65.6439 56.5646 61.7451 59.515C61.227 59.9066 61.1482 60.6153 61.5681 61.0985C61.8066 61.3733 62.1553 61.5152 62.5071 61.5152C62.7738 61.5152 63.0436 61.4337 63.2671 61.2646C68.0834 57.6196 68.0639 51.2728 68.0607 51.004C68.0553 50.5742 67.793 50.2058 67.4109 50.0205C68.4331 49.4629 69.1206 48.4281 69.1206 47.2463C69.1206 46.3906 68.7601 45.6125 68.174 45.0357C68.5227 44.6119 68.8141 44.161 69.0527 43.7291C70.4462 45.9125 72.4798 51.4701 70.2033 54.5715C69.8277 55.0849 69.968 55.7865 70.5185 56.1378C70.7268 56.2707 70.9643 56.3341 71.1996 56.3341C71.5839 56.3341 71.9627 56.163 72.1969 55.8439C75.4967 51.3493 72.2736 44.0834 70.7916 42.0853C69.3775 40.1797 62.5126 29.7682 62.4435 29.6635C62.0927 29.133 61.3489 28.9679 60.7822 29.2931C60.2134 29.6192 60.0364 30.3128 60.3851 30.8423C60.615 31.1906 65.0179 37.8685 67.4681 41.4561C67.0795 42.5282 66.5128 43.4674 65.9105 44.0402C65.8328 44.0351 65.754 44.0321 65.6741 44.0321C65.1528 44.0321 64.6584 44.1408 64.2158 44.3351C64.6066 42.2685 64.7631 40.4425 64.7631 39.1238C64.7631 38.5017 64.2223 37.9974 63.5553 37.9974C62.8882 37.9974 62.3474 38.5017 62.3474 39.1238C62.3474 44.8928 59.1675 61.3612 45.0348 61.3612C30.9022 61.3612 27.7223 44.8928 27.7223 39.1238C27.7223 38.5047 27.1858 38.0024 26.5231 37.9974C27.6737 36.9626 28.9463 35.9881 30.2902 34.9594C32.4814 33.2823 34.882 31.4442 37.3603 28.8975C50.1361 26.8832 54.0705 16.2381 54.2325 15.7831C54.4429 15.1932 54.1007 14.558 53.4693 14.3607C52.8378 14.1645 52.1546 14.4825 51.9419 15.0714C51.8102 15.4348 48.9056 23.1999 39.9476 25.9843C40.062 25.8433 40.1764 25.7004 40.2909 25.5564C44.4099 20.3461 48.2374 12.1683 48.3983 11.823C48.6638 11.2523 48.3843 10.5889 47.7722 10.3413C47.1602 10.0936 46.4488 10.3544 46.1833 10.9251C46.1445 11.0077 42.3018 19.2167 38.3468 24.2197C35.0244 28.4213 31.6956 30.9701 28.7585 33.2179C27.3143 34.3222 25.951 35.3661 24.687 36.5196C19.59 41.1693 18.094 46.0021 18.0325 46.2054C17.8522 46.8044 18.2268 47.4265 18.869 47.5936C18.978 47.6227 19.0881 47.6358 19.1961 47.6358C19.7239 47.6358 20.2086 47.3107 20.3575 46.8134C20.364 46.7933 20.6587 45.845 21.4283 44.4136C21.6215 44.6925 21.8406 44.9743 22.0889 45.2431C22.0748 45.2995 22.0608 45.3548 22.05 45.4142C21.5406 48.0002 21.737 49.8957 22.036 52.7656C22.3685 55.9697 23.6303 60.2499 25.2494 63.6704C25.6175 64.4485 25.9413 65.122 26.2251 65.7129C27.3402 68.0301 27.8022 68.9894 27.908 69.9709C27.9198 70.0776 27.909 70.2185 27.881 70.3876C27.6478 70.4017 27.4179 70.4792 27.2193 70.6232C27.1815 70.6514 23.3183 73.4287 15.7182 75.9674C6.72465 78.9722 0.650856 82.9946 0.242842 92.8636C0.216936 93.4857 0.736129 94.0092 1.4032 94.0323C1.41831 94.0333 1.43449 94.0333 1.45068 94.0333C2.09616 94.0333 2.63154 93.5572 2.65636 92.9502C2.96831 85.3904 6.73003 81.3629 16.5321 78.0883C19.6062 77.0616 22.0867 76.0026 23.9897 75.0805L14.6237 91.9879C14.3172 92.5395 14.5493 93.219 15.1419 93.5049C15.3189 93.5904 15.5077 93.6307 15.6956 93.6307C16.1327 93.6307 16.5548 93.4082 16.7685 93.0217L25.9316 76.4838C25.9423 76.4888 25.9521 76.4948 25.9629 76.5009L35.9463 81.2814L31.416 92.0946C31.1742 92.6744 31.4808 93.3267 32.1014 93.5532C32.2461 93.6055 32.395 93.6307 32.5407 93.6307C33.0243 93.6307 33.4798 93.3589 33.6666 92.914L38.593 81.1545C38.8034 80.6512 38.5995 80.0855 38.1224 79.7986C38.1936 79.714 38.253 79.6184 38.2972 79.5137C38.3199 79.4584 38.5055 79.0175 38.7657 78.3742C39.3464 78.4517 39.9347 78.5162 40.5262 78.5625L43.8604 91.5651C43.99 92.0714 44.4757 92.4288 45.0348 92.4288C45.5929 92.4288 46.0786 92.0714 46.2092 91.5651L49.5435 78.5625C57.68 77.9202 62.179 74.6074 62.3733 74.4615C62.7047 74.2128 62.8579 73.8343 62.8169 73.4669C64.7048 74.5742 68.187 76.3761 73.3131 78.0883C82.2667 81.079 88.2995 84.7512 88.6385 92.9502C88.6633 93.5572 89.1987 94.0333 89.8441 94.0333C89.8603 94.0333 89.8765 94.0333 89.8916 94.0323C90.5587 94.0092 91.0779 93.4857 91.052 92.8636C90.6375 82.8447 82.6726 78.8222 74.1269 75.9674Z" fill="#D64B57"/>
    <path d="M17.7303 41.0693C17.8814 41.1267 18.0379 41.1548 18.1912 41.1548C18.6651 41.1548 19.1152 40.8931 19.3084 40.4582C19.3505 40.3626 23.6443 30.8087 31.4884 24.0724C31.9795 23.6516 32.0108 22.9389 31.5585 22.4809C31.1073 22.0239 30.3442 21.9937 29.8531 22.4154C21.6204 29.485 17.2575 39.1879 17.0762 39.5976C16.8214 40.1724 17.1139 40.8307 17.7303 41.0693Z" fill="#D64B57"/>
    <path d="M35.4389 6.37933C35.5426 6.37933 35.6473 6.36624 35.7531 6.34007C35.7919 6.33101 39.6929 5.3727 44.9539 5.70086C45.6188 5.74314 46.1952 5.27305 46.2395 4.65196C46.2837 4.03188 45.7807 3.49535 45.1147 3.45307C39.4586 3.10075 35.3008 4.12146 35.1259 4.16475C34.4826 4.32581 34.1005 4.94388 34.2732 5.54483C34.4178 6.04714 34.9057 6.37933 35.4389 6.37933Z" fill="#D64B57"/>
    <path d="M53.4163 30.1587C52.3391 30.0067 51.7832 29.4742 51.7735 29.4652C51.3288 29.0011 50.5657 28.9598 50.068 29.3736C49.5704 29.7873 49.5262 30.499 49.9698 30.964C50.0821 31.0798 51.1151 32.1116 53.0547 32.3854C53.4412 32.4398 53.8103 32.4619 54.1536 32.4619C55.4294 32.4619 56.3523 32.1609 56.4776 32.1187C57.1004 31.9042 57.4177 31.263 57.1932 30.6812C56.9686 30.0994 56.2789 29.7964 55.6518 30.0017C55.641 30.0047 54.6307 30.3299 53.4163 30.1587Z" fill="#D64B57"/>
    <path d="M41.0777 51.8878C40.7226 52.4062 40.8856 53.0867 41.4361 53.426C41.9866 53.7642 42.7324 53.6213 43.1048 53.1129C43.1361 53.0696 43.9155 52.0328 45.6576 52.0328C47.3998 52.0328 48.178 53.0686 48.2007 53.0988C48.4306 53.436 48.8214 53.6202 49.2197 53.6202C49.442 53.6202 49.6665 53.5629 49.8684 53.4431C50.4297 53.1089 50.5959 52.4133 50.2375 51.8888C50.1782 51.8023 48.7598 49.78 45.6576 49.78C42.5543 49.78 41.136 51.8023 41.0777 51.8878Z" fill="#D64B57"/>
    <defs>
        <linearGradient id="paint0_linear_2526_991" x1="46.2988" y1="8.39233e-05" x2="46.2988" y2="64.223" gradientUnits="userSpaceOnUse">
            <stop stop-color="#E44825"/>
            <stop offset="1" stop-color="#FFF1BD"/>
        </linearGradient>
    </defs>
</svg>
